<?xml version="1.0" encoding="UTF-8" standalone="no"?>
<!-- Created with Inkscape (http://www.inkscape.org/) -->

<svg
   width="201.76556mm"
   height="133.68091mm"
   viewBox="0 0 201.76556 133.68091"
   version="1.1"
   id="svg212"
   inkscape:version="1.1.2 (0a00cf5339, 2022-02-04)"
   sodipodi:docname="array.svg"
   xmlns:inkscape="http://www.inkscape.org/namespaces/inkscape"
   xmlns:sodipodi="http://sodipodi.sourceforge.net/DTD/sodipodi-0.dtd"
   xmlns="http://www.w3.org/2000/svg"
   xmlns:svg="http://www.w3.org/2000/svg">
  <sodipodi:namedview
     id="namedview214"
     pagecolor="#505050"
     bordercolor="#ffffff"
     borderopacity="1"
     inkscape:pageshadow="0"
     inkscape:pageopacity="0"
     inkscape:pagecheckerboard="1"
     inkscape:document-units="mm"
     showgrid="false"
     fit-margin-top="0"
     fit-margin-left="0"
     fit-margin-right="0"
     fit-margin-bottom="0"
     inkscape:zoom="0.74742565"
     inkscape:cx="309.72981"
     inkscape:cy="220.75774"
     inkscape:window-width="1339"
     inkscape:window-height="749"
     inkscape:window-x="37"
     inkscape:window-y="174"
     inkscape:window-maximized="0"
     inkscape:current-layer="layer1" />
  <defs
     id="defs209" />
  <g
     inkscape:label="Layer 1"
     inkscape:groupmode="layer"
     id="layer1"
     transform="translate(-5.9903762,-89.754277)">
    <path
       style="fill:#000000;stroke-width:0.169734"
       d="m 131.74974,223.363 c -0.41846,-0.16742 -0.54333,-0.85187 -0.28763,-1.57663 l 0.24117,-0.68347 -2.58091,-0.0177 c -3.36299,-0.0231 -4.87933,-0.0987 -6.2302,-0.31061 -1.25135,-0.19629 -3.82073,-0.28497 -6.45973,-0.22296 l -1.79207,0.0421 -0.1599,0.72126 c -0.14471,0.65297 -0.20827,0.72129 -0.66916,0.72129 -0.47948,0 -0.51236,-0.043 -0.56217,-0.73717 l -0.053,-0.73716 -6.4818,0.10058 c -8.495785,0.13183 -10.131095,0.22873 -10.131095,0.60021 0,0.39051 -0.33744,0.68887 -0.7795,0.68887 -0.37771,0 -0.57837,-0.29123 -0.57837,-0.8398 0,-0.26919 -0.13701,-0.29528 -1.23061,-0.2343 -0.6768,0.0377 -1.84164,0.15115 -2.58844,0.252 -0.76473,0.10328 -3.58919,0.1717 -6.46577,0.15666 -3.22545,-0.0169 -5.4148,0.0426 -5.94069,0.1615 -1.45701,0.3295 -2.40088,0.35524 -2.51069,0.0692 -0.0645,-0.16796 0.0504,-0.31135 0.33673,-0.42006 l 0.43444,-0.16518 -0.0558,-4.03032 c -0.0307,-2.21657 0.0137,-6.22622 0.0987,-8.91016 l 0.1545,-4.87985 h -0.41751 c -0.49496,0 -0.82502,-0.28724 -0.82502,-0.7181 0,-0.31627 0.0821,-0.36699 0.86935,-0.53858 0.32625,-0.071 0.47256,-0.23352 0.54739,-0.60815 0.0817,-0.4083 0.18956,-0.51125 0.535,-0.51125 0.34745,0 0.4535,0.10292 0.53714,0.52173 l 0.10432,0.52173 2.31015,-0.11488 c 1.27065,-0.0632 2.84481,-0.18632 3.4983,-0.27362 0.65343,-0.0873 3.52707,-0.22539 6.38575,-0.30687 3.72767,-0.10624 5.29683,-0.21007 5.54834,-0.36699 0.28572,-0.17838 0.42609,-0.17861 0.75757,-7.9e-4 0.31552,0.16888 0.62985,0.17659 1.39958,0.0343 1.407445,-0.26019 2.549455,-0.2297 5.350705,0.14288 2.57721,0.34284 9.2829,0.62087 9.59499,0.39781 0.10016,-0.0715 0.23143,-0.26379 0.29169,-0.42705 0.15416,-0.41783 1.07095,-0.40416 1.18128,0.0175 0.0761,0.29085 0.39059,0.32378 4.17254,0.43784 2.24962,0.0679 4.15862,0.0811 4.24217,0.0295 0.0835,-0.0516 2.05301,-0.10294 4.37641,-0.11404 2.59016,-0.0123 4.30577,-0.0872 4.43453,-0.19329 0.1155,-0.0952 0.34459,-0.11377 0.50926,-0.0412 0.16456,0.0726 3.0489,0.15525 6.40962,0.18381 3.56314,0.0302 6.46421,0.12897 6.9591,0.23675 0.55574,0.12104 1.93267,0.14553 3.98876,0.071 2.39384,-0.0868 3.66447,-0.0504 5.34663,0.15321 5.0398,0.61006 8.37679,0.82549 9.80455,0.63358 0.75187,-0.10118 1.85237,-0.18397 2.4456,-0.18397 0.59315,0 1.22562,-0.0918 1.4053,-0.20402 0.25809,-0.1612 0.41751,-0.15543 0.75924,0.0275 0.35698,0.19111 1.9067,0.21169 8.8791,0.11793 8.17869,-0.10998 8.45388,-0.1243 8.67937,-0.45183 0.27405,-0.39813 0.81691,-0.43912 1.20154,-0.0911 0.21844,0.19768 0.49258,0.21742 1.37122,0.0987 0.60411,-0.0816 2.20577,-0.15339 3.55935,-0.15945 1.35358,-0.006 3.56866,-0.0973 4.9223,-0.20276 2.3497,-0.18305 8.65757,-0.1078 9.00583,0.10745 0.2557,0.15801 0.18456,0.86521 -0.11171,1.11115 -0.14933,0.12393 -0.48734,0.20889 -0.7509,0.18879 -0.33101,-0.0252 -0.49664,0.0508 -0.53476,0.24571 -0.0304,0.15523 0.003,1.66465 0.0752,3.35396 0.18807,4.43121 0.20619,6.50463 0.0937,10.70976 -0.0637,2.37893 -0.0386,3.81036 0.0691,3.9441 0.093,0.11549 0.12305,0.39337 0.0668,0.61738 -0.13242,0.52776 -0.86529,0.67203 -2.22697,0.4388 -0.56003,-0.0959 -2.69878,-0.24465 -4.75255,-0.33045 -2.26821,-0.0948 -4.63374,-0.30093 -6.02557,-0.52523 -3.22751,-0.52014 -4.95964,-0.60467 -5.24846,-0.25668 -0.31505,0.37939 -0.98302,0.33935 -1.20321,-0.0722 -0.16667,-0.3114 -0.30313,-0.33458 -1.49109,-0.25358 -0.71921,0.0491 -4.4011,0.1244 -8.18191,0.16739 -3.78082,0.043 -8.32546,0.15623 -10.09918,0.25164 -1.77371,0.0954 -6.05101,0.2088 -9.5051,0.252 -3.45408,0.0432 -6.37032,0.0822 -6.48051,0.0868 -0.1102,0.005 -0.22477,0.18014 -0.25452,0.39019 -0.0415,0.2917 -0.18314,0.39432 -0.60005,0.43467 -0.45993,0.0444 -0.5624,-0.0134 -0.65129,-0.36763 l -0.10547,-0.42036 -4.35587,0.006 c -2.39573,0.003 -6.07444,-0.0682 -8.1749,-0.15935 -3.03252,-0.13169 -3.8672,-0.12152 -4.053,0.0494 -0.12869,0.11837 -0.26143,0.58464 -0.29502,1.03616 -0.073,0.98213 -0.43873,1.37454 -1.05189,1.12893 z m 73.17518,-5.01839 c -0.0193,-1.23697 0.0465,-2.77611 0.14618,-3.42009 0.13057,-0.8436 0.12433,-2.74275 -0.0224,-6.78935 -0.11203,-3.09004 -0.24188,-5.65645 -0.2886,-5.70313 -0.24521,-0.24516 -15.65884,0.38352 -15.82063,0.64534 -0.0584,0.0946 -0.0574,0.84741 0.002,1.67291 0.0598,0.82549 0.1656,2.303 0.23531,3.28311 0.0791,1.11241 0.0566,2.22896 -0.0601,2.97025 -0.43158,2.74529 -0.91939,7.36244 -0.81978,7.75943 0.0989,0.39432 0.20571,0.43753 1.34048,0.54239 0.67798,0.0627 2.49316,0.3077 4.0335,0.5446 2.47415,0.38034 4.84211,0.54303 10.43942,0.71715 l 0.84932,0.0265 z m -10.86109,-4.24335 c -0.0752,-0.11669 -0.13694,-1.17787 -0.13731,-2.35829 0,-1.74662 -0.0525,-2.2045 -0.27882,-2.46123 -0.19922,-0.22564 -0.23693,-0.42355 -0.13279,-0.69713 0.08,-0.21004 0.20523,-0.39177 0.27835,-0.40385 0.073,-0.012 0.32362,-0.0383 0.55716,-0.0584 0.23338,-0.0201 1.33142,-0.31574 2.44021,-0.6571 2.21864,-0.68282 2.68017,-0.74096 2.98453,-0.37397 0.48543,0.58496 0.0814,0.83757 -2.41636,1.51182 l -2.4267,0.65486 0.0697,0.59704 0.0697,0.59703 1.25016,-0.11328 c 1.35024,-0.12236 1.93267,0.0438 1.93267,0.5516 0,0.51157 -0.37153,0.70698 -1.3493,0.70921 -1.53517,0.004 -1.6498,0.0728 -1.78086,1.07301 -0.16647,1.26938 -0.69967,1.98779 -1.06,1.42825 z m -113.435545,6.05115 c 0.70015,-0.0681 3.10615,-0.13048 5.34664,-0.1387 2.24056,-0.008 5.30689,-0.12496 6.81426,-0.25943 l 2.74065,-0.24451 0.0982,-0.77338 c 0.18783,-1.47909 0.30241,-5.22019 0.33171,-10.823 l 0.0294,-5.63637 -4.66769,0.0716 c -2.56724,0.0394 -5.20236,0.15015 -5.85584,0.2461 -0.65344,0.0959 -2.45566,0.22476 -4.00487,0.28626 l -2.81674,0.11181 -0.12423,5.4482 c -0.0683,2.99663 -0.13331,5.90649 -0.14442,6.4666 -0.0316,1.59157 0.0721,4.88891 0.16455,5.23372 0.0589,0.21986 0.19106,0.28549 0.44944,0.2232 0.20125,-0.0485 0.93869,-0.14391 1.6389,-0.21215 z m 6.93946,-2.5715 c -0.11313,-0.29172 -0.13815,-1.02947 -0.0668,-1.96745 l 0.11427,-1.50069 -0.5369,0.39717 c -0.4554,0.33712 -0.78069,0.40639 -2.14238,0.45628 -1.44461,0.0532 -1.69412,0.0156 -2.48978,-0.37398 -2.16121,-1.05809 -2.55208,-3.58051 -0.94132,-6.0727 1.13839,-1.76124 3.3944,-3.71154 4.29356,-3.71154 0.14375,0 0.26142,-0.0744 0.26142,-0.16538 0,-0.26971 1.00804,-0.70951 1.36597,-0.59577 0.76831,0.24383 0.60197,1.22776 -0.62102,3.67619 -0.72636,1.45399 -1.08001,1.7892 -1.65456,1.56869 -0.35866,-0.13766 -0.36104,-0.88618 -0.004,-1.28081 0.15108,-0.16694 0.31551,-0.66599 0.36556,-1.10893 l 0.0908,-0.80548 -0.66678,0.52809 c -3.43058,2.71702 -4.21463,6.30112 -1.53684,7.02557 0.97014,0.26248 2.54435,0.10066 3.07408,-0.31601 0.53023,-0.41721 0.40703,-0.54843 -0.51522,-0.54843 -1.07166,0 -1.59523,-0.24739 -1.59523,-0.75368 0,-0.78737 0.65749,-0.82931 3.53178,-0.22543 0.86219,0.18116 1.36645,0.60625 1.1446,0.96497 -0.0505,0.0817 -0.12892,1.23062 -0.17428,2.55339 -0.0454,1.32275 -0.12666,2.47616 -0.18067,2.56386 -0.054,0.0874 -0.28645,0.15889 -0.51665,0.15889 -0.29955,0 -0.46994,-0.1327 -0.59958,-0.46677 z m 0.0197,-4.4555 c 0,-0.0934 -0.0809,-0.16973 -0.17975,-0.16973 -0.0989,0 -0.13254,0.0764 -0.0748,0.16973 0.0577,0.0933 0.13858,0.16973 0.17975,0.16973 0.0411,0 0.0748,-0.0764 0.0748,-0.16973 z m 60.760265,6.84729 1.57521,-0.11182 -0.12222,-2.79073 c -0.0823,-1.87976 -0.053,-3.43603 0.0898,-4.76804 0.18353,-1.71199 0.17291,-2.32492 -0.0791,-4.56764 -0.18188,-1.61858 -0.24879,-3.0195 -0.17839,-3.73414 l 0.1127,-1.14387 -1.67268,-0.0253 c -0.91986,-0.0139 -2.01631,-0.10473 -2.43644,-0.20183 -0.4454,-0.10295 -3.17945,-0.17977 -6.55875,-0.18429 l -5.79496,-0.008 -0.10875,3.2648 c -0.0598,1.79556 -0.0872,5.68962 -0.0609,8.65329 l 0.0479,5.3885 0.8486,0.0218 c 0.46685,0.012 2.22341,0.075 3.9039,0.13999 4.37382,0.16926 8.61047,0.19649 10.43417,0.0671 z m -9.50046,-7.20605 c -2.09327,-0.84298 -1.35905,-2.54925 1.99082,-4.62734 0.84313,-0.52301 1.16271,-0.55637 1.38338,-0.14398 0.23089,0.43149 -0.018,0.77688 -0.9916,1.37583 -1.04902,0.64532 -2.21316,1.6853 -2.21316,1.97698 0,0.38098 1.20583,0.44802 4.62295,0.25655 3.36,-0.18818 4.05654,-0.12461 4.25329,0.38796 0.053,0.13811 0.006,0.37113 -0.10415,0.51792 -0.16971,0.22583 -0.83931,0.27913 -4.35899,0.34698 -2.59044,0.0499 -4.31845,0.0156 -4.58254,-0.0909 z m 25.84639,6.99313 c 1.84617,-0.0752 3.41201,-0.19203 3.47955,-0.25952 0.0675,-0.0675 0.1755,-3.34347 0.23973,-7.27998 0.0644,-3.93648 0.1678,-7.53917 0.22989,-8.00594 l 0.11287,-0.84868 -2.77589,0.14675 c -2.77075,0.14649 -5.17254,-0.006 -11.97873,-0.75876 -0.95394,-0.10556 -2.06254,-0.14272 -2.46364,-0.0826 l -0.72922,0.10934 0.0509,1.90518 c 0.028,1.04792 0.1246,2.41611 0.21467,3.04079 0.2087,1.44732 0.20138,3.76656 -0.017,5.39899 -0.12047,0.90189 -0.10887,2.07684 0.0401,4.03111 l 0.21014,2.75833 5.01503,-0.009 c 2.75826,-0.005 6.52553,-0.0707 8.37172,-0.14592 z m -7.15265,-6.18226 c -0.30003,-0.36158 -0.18239,-0.84265 0.25308,-1.03457 0.30765,-0.1355 0.37486,-0.35427 0.46946,-1.5277 0.0607,-0.75305 0.15674,-1.73233 0.21343,-2.17558 l 0.10307,-0.80611 h -1.13482 c -0.62412,0 -1.66338,0.0873 -2.30919,0.19393 -1.2728,0.2102 -1.69174,0.0744 -1.69174,-0.54811 0,-0.47026 0.44325,-0.62436 2.40223,-0.83535 2.40136,-0.25854 4.19395,-0.0201 5.86635,0.78039 1.49227,0.71428 2.10639,1.43301 2.20505,2.58069 0.0904,1.05078 -0.33387,1.72535 -1.51325,2.40563 -1.65861,0.95705 -4.41694,1.50547 -4.86381,0.96721 z m 4.07799,-1.90994 c 0.51355,-0.26465 1.1608,-1.02282 1.1608,-1.35994 0,-0.45533 -1.04164,-1.39584 -1.9584,-1.76792 -0.51666,-0.20966 -0.97015,-0.35016 -1.00781,-0.31253 -0.10059,0.10059 -0.42823,2.8314 -0.42823,3.56897 v 0.63167 l 0.89102,-0.26389 c 0.4902,-0.14514 1.09431,-0.36858 1.34286,-0.49663 z m -56.63379,7.75184 c 3.73414,-0.0895 7.14032,-0.1675 7.56924,-0.17324 l 0.77998,-0.0104 0.12694,-2.67317 c 0.0698,-1.47019 0.15666,-5.19388 0.19297,-8.27455 l 0.066,-5.60122 -3.17939,-0.0515 c -1.82305,-0.0295 -4.2864,-0.19246 -5.77434,-0.38193 -1.42722,-0.18171 -3.23082,-0.33045 -4.00801,-0.33045 -1.429135,0 -3.123325,0.23813 -3.357075,0.47185 -0.0701,0.07 -0.17227,3.44874 -0.22714,7.50822 -0.0549,4.05944 -0.17057,7.87731 -0.25712,8.4841 -0.0866,0.60689 -0.1589,1.16865 -0.16074,1.24841 -0.002,0.0798 0.32124,0.10049 0.71801,0.0459 0.39679,-0.0546 3.776605,-0.17243 7.510645,-0.26197 z m 1.8974,-3.62741 c -0.30527,-0.23137 -0.61388,-1.41046 -0.62008,-2.36973 -0.006,-0.96752 -0.38367,-0.79181 -1.029,0.47948 -0.49902,0.98341 -1.17057,1.76951 -1.51159,1.76951 -0.0629,0 -0.25356,-0.10173 -0.42346,-0.22606 -0.23926,-0.175 -0.29908,-0.41465 -0.26428,-1.06094 0.0247,-0.45914 0.0536,-1.16516 0.0645,-1.569 0.0116,-0.43182 0.12491,-0.81629 0.27524,-0.93353 0.14047,-0.10962 0.55502,-0.96308 0.92106,-1.89661 0.81144,-2.06913 0.98063,-2.296 1.41864,-1.89978 0.30122,0.27269 0.32528,0.23432 0.5879,-0.94496 0.15067,-0.67616 0.32124,-1.5347 0.37915,-1.90805 0.17282,-1.11464 0.25641,-1.27288 0.67179,-1.27288 0.71277,0 0.79404,0.31348 0.5338,2.05389 -0.13122,0.87761 -0.29264,2.36464 -0.35888,3.30458 l -0.12026,1.70914 1.22871,-0.0118 c 0.99302,-0.009 1.26541,0.0452 1.41911,0.28529 0.31076,0.48487 -0.0701,0.88967 -0.84622,0.89952 -1.77896,0.0225 -1.76252,0.0158 -1.76252,0.71843 0,0.35301 0.0999,1.02726 0.22205,1.49783 0.12213,0.47089 0.19185,0.94655 0.15494,1.05745 -0.12086,0.36254 -0.64724,0.54047 -0.94062,0.31818 z m 25.03085,2.97693 c 0.0139,-0.53667 0.0361,-4.14578 0.0492,-8.01995 0.0132,-3.87416 0.0858,-7.31589 0.16143,-7.64824 l 0.13747,-0.60435 -8.56872,0.0102 -8.56873,0.0102 -0.10469,1.00089 c -0.0576,0.55033 -0.10438,2.99472 -0.10396,5.43149 3.4e-4,2.43677 -0.0888,5.57721 -0.1983,6.97858 -0.10947,1.40124 -0.14994,2.7437 -0.0899,2.98264 l 0.10913,0.43468 4.12034,0.005 c 2.35304,0.003 4.37515,0.0812 4.71443,0.18238 0.32815,0.0979 2.32229,0.18495 4.45552,0.19455 l 3.86145,0.0174 z m -9.82743,-4.4497 c -0.51999,-0.3206 -0.55145,-0.39654 -0.54859,-1.31863 0.002,-0.53825 0.11591,-1.66593 0.25404,-2.50603 0.35746,-2.17622 0.33935,-2.40086 -0.21449,-2.66554 -0.51379,-0.24551 -0.69776,-0.85759 -0.37461,-1.24714 0.28215,-0.33999 2.25819,-0.92559 3.10821,-0.92114 0.387,0.002 1.01494,0.14522 1.39576,0.31806 1.56067,0.70888 1.88835,2.08344 0.82764,3.47274 -0.33101,0.4334 -0.69371,0.79086 -0.80619,0.79435 -0.11242,0.003 0.19348,0.19872 0.67989,0.43404 0.93631,0.4531 1.74679,1.26112 1.74679,1.74155 0,0.79466 -0.89509,1.41617 -2.58172,1.79206 -2.04682,0.45628 -2.87667,0.48138 -3.48627,0.10548 z m 2.9279,-1.25539 c 0.56003,-0.12062 1.20107,-0.31729 1.42413,-0.43722 l 0.40559,-0.21778 -0.55072,-0.34888 c -0.30289,-0.1918 -1.09645,-0.47217 -1.76347,-0.62309 -1.10598,-0.25021 -1.21751,-0.31434 -1.26565,-0.72763 -0.0458,-0.3921 0.0596,-0.51029 0.77903,-0.87475 0.92486,-0.46866 1.90478,-1.47496 1.90478,-1.95602 0,-0.71587 -1.14077,-1.09971 -2.47379,-0.83184 l -0.92082,0.18494 v 0.6555 c 0,0.46263 0.0732,0.6555 0.24855,0.6555 0.25428,0 0.65463,0.56781 0.50569,0.71683 -0.12576,0.12576 -0.58409,2.85841 -0.58433,3.48413 -1.6e-4,0.52555 0.0301,0.55129 0.63629,0.54557 0.35007,-0.003 1.09477,-0.10464 1.65472,-0.22526 z m 53.21166,6.29685 c 1.07357,0.0221 3.49028,-0.006 5.37048,-0.0605 l 3.41854,-0.10053 0.0832,-1.72184 c 0.0458,-0.94688 0.28478,-3.23618 0.53096,-5.08709 0.37795,-2.84157 0.42251,-3.58124 0.28596,-4.75257 -0.089,-0.7629 -0.21294,-2.09106 -0.27524,-2.95151 l -0.11342,-1.56425 -0.70372,0.0736 c -0.38701,0.0404 -4.29016,0.11589 -8.67351,0.16765 -5.425,0.0641 -8.00584,0.15262 -8.08293,0.27733 -0.28001,0.4531 -0.49044,5.28552 -0.45278,10.39459 l 0.0412,5.57781 3.30981,-0.14633 c 1.82043,-0.0805 4.1882,-0.12828 5.26176,-0.10624 z m -3.74009,-6.2465 c -0.18037,-0.33712 -0.0954,-1.5528 0.26406,-3.77627 0.0669,-0.4137 0.0321,-0.46327 -0.26024,-0.37049 -0.18555,0.0589 -0.49448,0.0572 -0.6868,-0.004 -0.53809,-0.17082 -0.36199,-0.80771 0.2812,-1.01551 0.2893,-0.0935 0.64867,-0.27192 0.7988,-0.39654 0.15013,-0.12459 0.35151,-0.17804 0.44731,-0.11878 0.0959,0.0593 0.76949,-0.0802 1.49657,-0.30997 2.54239,-0.80325 3.26613,-0.7899 3.26613,0.0595 0,0.42991 -0.0946,0.5157 -0.8448,0.7648 -0.46469,0.15435 -0.92844,0.22897 -1.03067,0.16583 -0.10217,-0.0631 -0.67679,0.0258 -1.27685,0.19768 l -1.09097,0.31246 v 0.7073 0.70729 l 0.95919,-0.25046 c 1.20868,-0.31565 1.75655,-0.20061 1.75655,0.3689 0,0.31806 -0.25547,0.60625 -1.06094,1.19566 -0.79308,0.58052 -0.94274,0.74764 -0.59243,0.66218 0.25761,-0.0629 0.99898,-0.12504 1.64766,-0.13803 1.34333,-0.0269 1.82138,0.24539 1.64741,0.93798 -0.0973,0.38733 -0.1488,0.39686 -2.24986,0.42387 -1.18271,0.0152 -2.40389,0.0752 -2.71383,0.13327 -0.46375,0.087 -0.59791,0.0415 -0.75749,-0.25687 z m 1.51706,-1.92107 c 0.15026,-0.18104 0.13559,-0.25752 -0.0641,-0.33426 -0.17804,-0.0683 -0.25904,0.005 -0.25904,0.23477 0,0.39559 0.0614,0.41466 0.32291,0.0994 z M 6.116821,221.18986 c -0.134429,-0.16198 -0.162912,-0.42037 -0.07949,-0.72127 0.07146,-0.25794 0.11467,-0.62596 0.09597,-0.81787 -0.01869,-0.19198 0.109291,-0.53571 0.284423,-0.76385 0.406216,-0.52904 0.582565,-1.00883 0.370877,-1.00883 -0.468059,0 -0.02662,-1.20329 0.508118,-1.38504 0.167459,-0.0569 1.364277,-4.53015 1.364277,-5.0991 0,-0.192 -0.08858,-0.26046 -0.254605,-0.19675 -0.140028,0.0537 -0.254605,0.27533 -0.254605,0.49249 0,0.52492 -0.566835,0.69999 -1.11158,0.34285 -0.80915,-0.53031 -0.490197,-1.21854 0.925125,-1.99669 0.374694,-0.206 0.52592,-0.41339 0.52592,-0.72128 0,-0.50648 0.582086,-1.15531 0.968222,-1.07905 0.220342,0.0434 0.417368,0.27438 0.672091,0.78801 0.01531,0.0309 0.809503,-0.14099 1.764877,-0.38193 1.95819,-0.49378 3.735412,-0.57829 4.055355,-0.19278 0.368686,0.4442 0.133439,1.00407 -0.586303,1.39521 -0.37343,0.20294 -0.824448,0.37525 -1.002273,0.38256 -0.312946,0.0132 -0.313425,0.003 -0.01516,-0.32696 0.169485,-0.18728 0.265183,-0.38351 0.212654,-0.43594 -0.130605,-0.1306 -1.821546,0.19177 -3.304247,0.63008 l -1.223557,0.36159 -0.106731,0.78355 c -0.115967,0.85124 -0.980135,4.49101 -1.188155,5.0041 -0.111679,0.27549 -0.07539,0.29813 0.279224,0.17429 0.224174,-0.0783 0.713114,-0.14439 1.086513,-0.14689 0.609069,-0.005 0.684278,0.0416 0.730886,0.44389 0.04468,0.38605 -0.11965,0.56939 -1.178567,1.31544 -0.676771,0.47694 -1.104096,0.8668 -0.949626,0.8668 0.154486,0 0.928344,-0.15096 1.719668,-0.33553 1.8306,-0.42672 4.335403,-0.68282 4.727232,-0.48297 0.163368,0.0833 0.297027,0.3384 0.297027,0.56654 0,0.47089 -0.126466,0.51474 -1.951946,0.67425 -0.653486,0.0572 -2.028325,0.28552 -3.055217,0.50744 -1.026885,0.22193 -2.153503,0.45056 -2.503578,0.50839 -0.453877,0.0747 -0.636492,0.19023 -0.636492,0.40257 0,0.64121 -0.782143,0.93989 -1.186302,0.45268 z m 11.030893,-2.10504 c -0.558684,-0.15417 -0.661991,-0.88174 -0.187916,-1.3234 0.39402,-0.36699 3.665935,-2.01957 4.327675,-2.18543 0.245456,-0.0616 0.479713,-0.16593 0.52022,-0.23185 0.152923,-0.24742 0.764489,-4.96136 1.025675,-7.90492 0.294545,-3.32086 0.41465,-3.81901 0.920342,-3.81901 0.667975,0 0.683225,0.27374 0.254274,4.58283 -0.292409,2.93816 -0.856001,7.10494 -1.017814,7.52709 -0.05811,0.15152 -0.155271,0.82518 -0.215842,1.49689 -0.106181,1.17755 -0.128445,1.22649 -0.619364,1.36057 -0.421082,0.11498 -4.561384,0.68601 -4.577749,0.63136 -0.0031,-0.009 -0.196021,-0.0697 -0.429501,-0.13413 z m 3.925103,-1.54645 c 0.175037,0 0.318136,-0.11457 0.318136,-0.2546 0,-0.34857 -0.476375,-0.30794 -1.188194,0.10102 l -0.594102,0.34126 0.57289,-0.0939 c 0.315042,-0.0517 0.716115,-0.0939 0.891034,-0.0939 z m 11.973938,-0.13781 c -0.208877,-0.23081 -0.283583,-0.67552 -0.299077,-1.78222 -0.02372,-1.68689 0.05678,-1.6278 -1.757991,-1.29225 -1.338086,0.24735 -1.828527,0.11355 -1.759176,-0.48012 0.05945,-0.50965 0.243547,-0.58178 2.297034,-0.89953 1.208934,-0.18716 1.227044,-0.1975 1.333571,-0.76511 0.05937,-0.31643 0.0234,-0.81787 -0.0799,-1.11401 -0.2619,-0.75114 -0.236833,-0.95926 0.139345,-1.1604 0.727793,-0.38955 1.200352,0.313 1.200352,1.78349 v 0.92558 h 0.658206 c 1.36097,0 1.364064,1.03362 0.0039,1.18804 l -0.746616,0.0849 -0.04877,1.77618 c -0.04508,1.64051 -0.152146,2.02974 -0.561449,2.04022 -0.05552,0.002 -0.226239,-0.1358 -0.37939,-0.30495 z m 12.251135,-0.0978 c -1.457249,-0.3924 -2.171691,-1.13815 -1.947438,-2.03196 0.199232,-0.79371 1.294235,-0.71715 1.294235,0.0905 0,0.21555 0.217381,0.4226 0.636523,0.60625 0.898652,0.39368 4.033939,0.39623 5.308753,0.005 3.187621,-0.97928 3.951513,-4.67259 1.426269,-6.89548 -1.017327,-0.89539 -2.299186,-1.24237 -4.393516,-1.18931 -1.364072,0.0346 -1.659332,-0.007 -1.955307,-0.27456 -0.42848,-0.38764 -0.32529,-0.86521 0.306466,-1.42031 2.121879,-1.86356 4.004333,-4.0849 3.710762,-4.37846 -0.378432,-0.37843 -2.44984,0.82168 -2.985333,1.72915 -0.432532,0.73303 -1.139592,0.82455 -1.304256,0.16882 -0.120222,-0.47884 0.29764,-1.15817 1.161031,-1.88707 0.752098,-0.63485 2.475456,-1.42952 3.100271,-1.42984 1.110276,-3.4e-4 1.663384,0.94687 1.200115,2.05578 -0.362702,0.86776 -1.69365,2.57849 -2.672898,3.43503 l -0.847889,0.7416 1.597128,0.0836 c 2.632573,0.1377 4.369619,1.21758 5.361424,3.33356 0.604821,1.29004 0.621744,3.12786 0.03958,4.26846 -0.492349,0.96434 -1.441763,1.97 -2.257965,2.39133 -1.508004,0.77846 -4.973176,1.08413 -6.777963,0.59799 z m -18.718045,-1.3987 c -0.388916,-0.84964 -0.414651,-1.00597 -0.200961,-1.21981 0.615077,-0.61516 1.728204,0.51823 1.599995,1.62938 -0.04099,0.35556 -0.155978,0.4728 -0.503068,0.51315 -0.3994,0.0463 -0.499967,-0.0574 -0.896029,-0.9224 z m 0.709439,-5.16875 c -0.551679,-0.32123 -0.253796,-1.17469 0.409892,-1.17469 0.16475,0 0.384628,0.15912 0.488768,0.35365 0.150967,0.28208 0.129685,0.41942 -0.1052,0.67901 -0.335539,0.37081 -0.385343,0.37971 -0.79346,0.14203 z M 131.03796,185.37209 c -0.20979,-0.25278 -0.16434,-1.1979 0.0876,-1.82289 0.11173,-0.27713 -0.11754,-0.2974 -3.42039,-0.30242 -2.16787,-0.003 -4.19811,-0.10071 -5.23748,-0.2513 -1.83115,-0.2653 -4.37126,-0.31806 -6.84815,-0.14224 -1.53088,0.10867 -1.55376,0.11675 -1.55639,0.5516 -0.005,0.75432 -0.4828,1.13275 -1.05831,0.83694 -0.20709,-0.10651 -0.29693,-0.3562 -0.29693,-0.82423 v -0.67138 l -5.21932,0.0853 c -10.000935,0.16344 -11.414645,0.25973 -11.414645,0.77752 0,0.3743 -0.54787,0.70157 -0.92987,0.55478 -0.15148,-0.0581 -0.32123,-0.33427 -0.377,-0.61325 l -0.10154,-0.50775 -1.54494,0.11311 c -0.84956,0.0622 -2.19409,0.19147 -2.98758,0.28726 -0.85457,0.10315 -2.96537,0.13157 -5.17688,0.0697 -2.25891,-0.0632 -4.37114,-0.0332 -5.34663,0.076 -3.51778,0.39369 -3.56442,0.394 -3.56442,0.01 0,-0.23957 0.11083,-0.34634 0.35984,-0.34634 0.35722,0 0.35937,-0.0271 0.30742,-3.69172 -0.0288,-2.03037 0.0121,-6.07238 0.0909,-8.9821 l 0.14337,-5.29038 -0.47614,-0.0562 c -1.00565,-0.11883 -0.93083,-1.15945 0.0833,-1.15945 0.38415,0 0.48543,-0.0912 0.56979,-0.51315 0.0565,-0.28226 0.21973,-0.55827 0.36293,-0.61292 0.34436,-0.13218 0.76497,0.23255 0.76497,0.66344 0,0.33554 0.0661,0.34158 2.58844,0.23729 1.42365,-0.0588 3.19949,-0.19019 3.94632,-0.29193 0.74685,-0.10174 3.22552,-0.21357 5.50819,-0.24851 2.28274,-0.035 4.68547,-0.1538 5.33953,-0.26412 0.77021,-0.12993 1.20893,-0.14145 1.24515,-0.0327 0.0364,0.10894 0.33697,0.11248 0.85576,0.0101 1.2647,-0.24956 4.034825,-0.19437 5.976695,0.11907 1.68554,0.27204 7.43526,0.56812 8.91665,0.45882 0.51475,-0.0378 0.72517,-0.1432 0.8486,-0.42418 0.23014,-0.52428 0.83146,-0.56877 1.16962,-0.0866 l 0.27453,0.39146 8.4148,-0.0353 c 5.48794,-0.0231 8.48829,-0.0964 8.62608,-0.2107 0.1162,-0.0964 0.26786,-0.11872 0.33673,-0.0496 0.12215,0.12246 9.18906,0.35207 17.58046,0.44485 2.55708,0.0283 4.97554,0.15141 6.28017,0.31964 4.56106,0.58783 6.79682,0.69587 9.63727,0.4655 1.46773,-0.11906 2.80809,-0.2884 2.97874,-0.37621 0.2148,-0.11069 0.48471,-0.0771 0.87697,0.10904 0.50568,0.23994 1.46511,0.25443 8.89868,0.13444 l 8.33196,-0.13449 0.26333,-0.37589 c 0.30265,-0.43213 0.69419,-0.48138 1.07929,-0.13543 0.22448,0.20151 0.81884,0.21618 3.66266,0.0904 1.86714,-0.0826 5.11325,-0.22529 7.21369,-0.31711 4.64996,-0.20326 7.94296,-0.0624 8.20262,0.35079 0.13029,0.20736 0.0976,0.3994 -0.12619,0.74097 -0.25975,0.39655 -0.38438,0.44771 -0.89102,0.36541 l -0.58886,-0.0956 0.13888,3.85266 c 0.0764,2.11902 0.12742,4.73103 0.11338,5.80462 -0.0141,1.07364 -0.0455,3.2886 -0.0698,4.92227 -0.0244,1.63383 0.0139,3.32638 0.0849,3.7615 0.18443,1.12862 -0.0743,1.23697 -2.42051,1.01232 -0.99684,-0.0953 -3.1028,-0.21918 -4.67985,-0.27522 -1.57711,-0.0561 -3.90667,-0.2557 -5.17687,-0.44356 -1.27017,-0.188 -3.04216,-0.42546 -3.93758,-0.52778 -1.56782,-0.17923 -1.64169,-0.17258 -1.99438,0.18018 -0.4504,0.45057 -0.78689,0.4655 -1.0793,0.0478 -0.21278,-0.3038 -0.52784,-0.31602 -6.84142,-0.2652 -3.64008,0.0293 -8.48968,0.13569 -10.77685,0.23642 -2.28727,0.10072 -7.33325,0.23114 -11.21348,0.2898 l -7.05499,0.10668 -0.27811,0.48455 c -0.37247,0.64915 -0.94131,0.6466 -1.18748,-0.005 l -0.18507,-0.49028 -4.34059,0.0236 c -2.38731,0.013 -6.10946,-0.0369 -8.27143,-0.11074 l -3.93088,-0.13426 -0.19726,0.59768 c -0.10849,0.32886 -0.14706,0.67901 -0.0857,0.77815 0.1655,0.26779 -0.38606,1.01423 -0.74948,1.01423 -0.17313,0 -0.41036,-0.1153 -0.52737,-0.25623 z m 73.49958,-5.38745 c 0.1,-3.59116 0.0601,-8.96266 -0.0939,-12.64519 l -0.11533,-2.75833 -2.31586,1.5e-4 c -1.27376,8e-5 -3.11777,0.0744 -4.09798,0.16508 -0.98015,0.0907 -3.34799,0.20269 -5.26176,0.24884 -1.91385,0.0462 -3.66157,0.13619 -3.884,0.20007 l -0.40441,0.11619 0.14985,2.05356 c 0.22534,3.08814 0.16922,5.71068 -0.17468,8.16398 -0.17012,1.21346 -0.34673,3.0659 -0.39272,4.11606 l -0.0833,1.90963 1.24897,3e-5 c 0.6868,2e-5 1.82186,0.1095 2.52188,0.24331 2.52088,0.4817 5.37615,0.7753 7.71585,0.79341 1.31092,0.0101 2.84159,0.0753 3.40173,0.14479 1.91122,0.23713 1.69293,0.57351 1.78568,-2.75158 z m -11.05372,-3.73414 c -0.01,-0.11669 -0.0288,-1.16707 -0.0424,-2.33382 -0.0183,-1.56393 -0.0914,-2.22229 -0.2781,-2.50413 -0.35389,-0.53412 -0.0538,-0.94846 0.78045,-1.07778 0.36342,-0.0564 1.60714,-0.39305 2.76336,-0.74828 2.23985,-0.68791 2.65014,-0.67457 2.65014,0.087 0,0.49567 -0.0948,0.53888 -2.63088,1.20296 -1.16699,0.30546 -2.15,0.5764 -2.18457,0.60181 -0.0345,0.0255 -0.0155,0.2983 0.0419,0.60593 l 0.10478,0.55954 h 1.4856 1.4856 v 0.50935 0.50934 l -1.46344,0.14574 -1.46344,0.14576 -0.093,0.90048 c -0.0511,0.49536 -0.1782,1.05999 -0.28239,1.25445 -0.20525,0.38351 -0.84527,0.48742 -0.87411,0.14187 z m -108.442435,5.98936 c 4.72431,-0.12285 9.80358,-0.41783 9.96443,-0.57861 0.21137,-0.21136 0.40084,-4.36165 0.46399,-10.16632 l 0.0768,-7.05309 -4.02202,0.0774 c -2.2122,0.0426 -5.28228,0.18624 -6.82262,0.31933 -1.54042,0.133 -3.64774,0.29135 -4.68311,0.35174 l -1.88239,0.11009 -0.11528,6.58635 c -0.0634,3.62249 -0.0645,7.5365 -0.002,8.69779 l 0.11288,2.11139 0.61196,-0.15415 c 0.33649,-0.0848 3.17063,-0.22069 6.29779,-0.30193 z m 64.430785,-0.0665 c 0.009,-0.0135 -0.0566,-1.24651 -0.14623,-2.74021 -0.11373,-1.89628 -0.10596,-3.18648 0.0258,-4.27586 0.23453,-1.9395 0.23515,-3.52007 0.002,-5.0595 -0.099,-0.6536 -0.17547,-2.04753 -0.16998,-3.09767 l 0.01,-1.90963 h -1.32308 c -0.7278,0 -1.73821,-0.0744 -2.24533,-0.16519 -1.00208,-0.17947 -10.56321,-0.35173 -11.97279,-0.21552 l -0.86649,0.0836 -0.093,3.14818 c -0.0512,1.73138 -0.0507,5.57321 7.8e-4,8.53726 l 0.0941,5.38923 1.37455,0.0959 c 2.82895,0.19729 9.28649,0.35269 12.23761,0.29432 1.6803,-0.0332 3.06271,-0.0714 3.07192,-0.0849 z m -10.38547,-7.06275 c -1.61499,-0.24631 -2.20432,-1.00343 -1.66504,-2.13968 0.55407,-1.1677 3.57065,-3.28727 4.18374,-2.93975 0.59147,0.33522 0.33863,0.80579 -0.84861,1.57759 -1.22895,0.79912 -2.2489,1.67927 -2.2489,1.94108 0,0.34348 0.72897,0.3867 4.58535,0.27106 3.60208,-0.10798 4.01409,-0.0922 4.22506,0.16202 0.16126,0.1943 0.1859,0.38891 0.0795,0.62754 -0.14548,0.326 -0.32957,0.3492 -3.21648,0.40639 -1.68411,0.0334 -3.32506,0.0978 -3.64639,0.1432 -0.32124,0.0454 -0.97301,0.0233 -1.44796,-0.0492 z m 25.47515,6.8774 c 0.1867,-0.0373 0.963,-0.0737 1.72486,-0.0808 l 1.38528,-0.013 0.12787,-0.72128 c 0.0704,-0.39686 0.13973,-3.47104 0.1542,-6.83181 0.0144,-3.36072 0.0894,-6.70239 0.16655,-7.42586 l 0.14023,-1.31545 -0.91605,4.8e-4 c -0.50378,3.5e-4 -1.60285,0.0847 -2.44228,0.18766 -1.11814,0.13711 -2.00345,0.13635 -3.30982,-0.003 -5.66646,-0.60372 -7.08115,-0.73145 -9.03966,-0.81597 l -2.16407,-0.0933 v 1.72693 c 0,0.94973 0.11511,2.69763 0.2557,3.88399 0.21986,1.85402 0.22405,2.44312 0.0298,4.19385 -0.12434,1.12036 -0.21124,2.26582 -0.19313,2.54606 0.0181,0.28007 0.0873,1.42572 0.15375,2.54608 0.0664,1.12035 0.14353,2.11425 0.17127,2.20894 0.048,0.16397 12.93655,0.17 13.75554,0.006 z m -7.5956,-6.12871 c -0.27954,-0.29018 -0.12137,-0.93416 0.27382,-1.11432 0.36769,-0.16759 0.41727,-0.34094 0.59409,-2.08567 0.27477,-2.71129 0.34888,-2.47712 -0.78308,-2.47679 -0.53666,1.1e-4 -1.51062,0.0994 -2.16406,0.22064 -1.40172,0.2601 -1.7282,0.2165 -1.87643,-0.25067 -0.16832,-0.53032 0.25833,-0.81947 1.46726,-0.99423 2.94642,-0.42577 5.78299,-0.053 7.32578,0.96308 1.21037,0.79721 1.65505,1.47464 1.65505,2.5216 0,0.76513 -0.0604,0.88492 -0.8081,1.60206 -0.54978,0.52714 -1.16032,0.90175 -1.90956,1.17088 -1.11551,0.40099 -3.54109,0.68601 -3.77477,0.44342 z m 3.82525,-1.81494 c 0.86577,-0.36732 1.47893,-0.99168 1.47893,-1.50579 0,-0.53094 -0.88292,-1.32657 -1.95197,-1.75869 l -1.01852,-0.4118 -0.10441,0.71333 c -0.0574,0.39241 -0.15878,1.35105 -0.22526,2.13015 l -0.12086,1.4168 0.56479,-0.11968 c 0.31052,-0.0658 0.93035,-0.27475 1.3773,-0.46432 z m -29.34269,6.87883 c 0.0642,-0.62754 0.0661,-3.58715 0.004,-6.5772 -0.0753,-3.6297 -0.0485,-6.10713 0.0809,-7.45452 0.10655,-1.10988 0.16022,-2.05166 0.11925,-2.09265 -0.0409,-0.0409 -1.97174,-0.0501 -4.29037,-0.0203 -2.31872,0.0298 -6.13647,0.0275 -8.48382,-0.005 l -4.26791,-0.0592 -0.0974,1.92775 c -0.0536,1.0603 -0.13865,4.86098 -0.18903,8.4459 l -0.0916,6.51804 2.58985,-0.107 c 1.52277,-0.0629 3.28918,-0.0305 4.28718,0.0788 1.53327,0.16784 5.52515,0.3708 8.93005,0.45436 l 1.2921,0.0317 z m -9.8297,-4.32384 c -0.18671,-0.10587 -0.3956,-0.2754 -0.46422,-0.37684 -0.21131,-0.31218 -0.14134,-1.62747 0.18932,-3.5589 0.17392,-1.01583 0.28358,-1.97159 0.24379,-2.12379 -0.0398,-0.15228 -0.29741,-0.40608 -0.57241,-0.56367 -0.56384,-0.32347 -0.64487,-0.8004 -0.20289,-1.19218 0.50401,-0.44674 1.9441,-0.8525 3.02187,-0.85186 2.75843,0.002 3.80788,2.30013 1.87451,4.10471 -0.24235,0.22633 -0.44086,0.45915 -0.44086,0.51761 0,0.0584 0.26691,0.2026 0.59339,0.3206 0.82477,0.29823 1.78301,1.2392 1.78301,1.75108 0,0.87062 -0.97063,1.50292 -2.92705,1.90709 -1.5185,0.31364 -2.62057,0.33713 -3.09846,0.0661 z m 3.0552,-1.33451 c 1.32785,-0.34729 1.63765,-0.5192 1.4165,-0.78546 -0.28382,-0.34221 -1.17843,-0.68918 -2.13142,-0.82708 -0.97229,-0.14077 -1.23704,-0.32378 -1.23704,-0.85473 0,-0.31684 0.17471,-0.47408 0.84979,-0.76449 0.9835,-0.42323 1.86595,-1.33897 1.86595,-1.93664 0,-0.78419 -1.5733,-1.19439 -2.86016,-0.74575 -0.4554,0.15877 -0.53451,0.2701 -0.53451,0.75242 0,0.40766 0.0905,0.59482 0.32385,0.66885 0.47114,0.14954 0.51998,0.42832 0.26642,1.51945 -0.1247,0.53635 -0.27929,1.46542 -0.34339,2.06437 l -0.11662,1.0889 0.91081,-7.9e-4 c 0.50092,-4.9e-4 1.21632,-0.0809 1.58982,-0.17883 z m -20.28324,6.37248 c 2.47389,-0.0469 5.39527,-0.1037 6.49199,-0.12632 l 1.9939,-0.0411 3.5e-4,-1.15881 c 1.6e-4,-0.63739 0.0775,-2.05039 0.17191,-3.13993 0.0944,-1.08953 0.18983,-4.28418 0.21217,-7.099 l 0.0406,-5.11784 -3.14007,-0.0984 c -1.72701,-0.0541 -4.24761,-0.22915 -5.60124,-0.38892 -3.56548,-0.42069 -4.49511,-0.45406 -6.138975,-0.21962 -1.26183,0.17994 -1.48514,0.26091 -1.56783,0.56908 -0.053,0.1976 -0.10219,2.15429 -0.10924,4.34802 -0.0163,5.0874 -0.25285,12.04018 -0.42395,12.45663 -0.12582,0.30656 -0.0503,0.31584 1.72033,0.21119 1.01853,-0.0602 3.875955,-0.1478 6.349815,-0.19466 z m 1.86285,-3.73697 c -0.11856,-0.14285 -0.29717,-0.86934 -0.39702,-1.61445 -0.10468,-0.78196 -0.25546,-1.33102 -0.35675,-1.29892 -0.0965,0.0306 -0.4809,0.62181 -0.85432,1.31417 -0.7285,1.35041 -1.33142,1.7943 -1.85141,1.3628 -0.37891,-0.31455 -0.29025,-3.3729 0.10434,-3.5937 0.14947,-0.0837 0.59529,-0.99263 0.99064,-2.01988 0.54858,-1.42508 0.79165,-1.8677 1.02615,-1.8677 0.16909,0 0.37294,0.11721 0.45325,0.26046 0.15651,0.27965 0.62509,-1.45082 0.82908,-3.06113 0.12096,-0.95577 0.30527,-1.27288 0.73946,-1.27288 0.63652,0 0.70063,0.3635 0.4392,2.48379 -0.13666,1.10765 -0.2986,2.61439 -0.36008,3.34819 l -0.11155,1.33387 1.01828,-0.11817 c 1.26684,-0.14705 1.77372,0.0706 1.6977,0.7289 -0.0475,0.41116 -0.12689,0.45946 -0.81644,0.49854 -1.60738,0.0906 -1.86737,0.18624 -1.86451,0.686 0.002,0.2525 0.11731,0.94624 0.2576,1.54137 0.19236,0.81596 0.20751,1.13974 0.0616,1.31545 -0.25641,0.30885 -0.73707,0.29616 -1.00493,-0.0265 z m 78.71847,3.54801 1.56997,-0.095 v -1.08063 c 0,-0.5945 0.10908,-1.8283 0.24235,-2.74244 0.87149,-5.97378 0.87387,-6.05941 0.33458,-11.2163 l -0.0939,-0.89826 -8.68578,0.11507 c -4.77719,0.0633 -8.70713,0.13235 -8.7332,0.15346 -0.24785,0.2007 -0.43158,4.14165 -0.4454,9.54841 l -0.0165,6.49307 7.12882,-0.0913 c 3.92087,-0.0502 7.83536,-0.13404 8.69887,-0.1863 z m -10.98685,-6.24958 c -0.0893,-0.23488 -0.0536,-1.03934 0.0915,-2.06406 0.13083,-0.92367 0.23926,-1.73645 0.24117,-1.80636 0.002,-0.07 -0.25594,-0.1273 -0.57265,-0.1273 -0.37534,0 -0.61292,-0.0962 -0.6818,-0.27612 -0.13245,-0.34507 0.18182,-0.74224 0.58743,-0.74224 0.16861,0 0.42109,-0.11457 0.56121,-0.25461 0.14003,-0.14003 0.47018,-0.25557 0.73351,-0.25675 0.26332,-7.9e-4 1.07381,-0.19215 1.80089,-0.4242 0.72707,-0.23219 1.61523,-0.42227 1.97365,-0.42227 0.76878,0 1.1963,0.38097 0.92034,0.8204 -0.23792,0.37876 -1.61309,0.88778 -1.85879,0.68792 -0.11694,-0.0951 -0.61888,-0.0211 -1.31545,0.19415 l -1.12648,0.34793 v 0.69203 c 0,0.6374 0.0302,0.68315 0.38201,0.58116 0.21004,-0.061 0.77496,-0.15614 1.25539,-0.21145 0.75711,-0.0872 0.89747,-0.0556 1.05428,0.23738 0.22406,0.41878 0.0627,0.63771 -1.03664,1.40632 -0.44349,0.31006 -0.80619,0.58529 -0.80619,0.61166 0,0.0263 0.63484,0.003 1.41101,-0.0517 1.60142,-0.11302 2.15334,0.0653 2.15334,0.69522 0,0.60116 -0.41751,0.87474 -0.95847,0.62849 -0.31909,-0.14535 -0.79356,-0.15566 -1.73463,-0.0377 -0.71254,0.0893 -1.66291,0.16127 -2.11188,0.15994 -0.69109,-0.002 -0.8386,-0.0615 -0.96252,-0.38733 z m 1.86356,-2.05198 c 0,-0.0434 -0.15276,-0.0789 -0.33959,-0.0789 -0.19205,0 -0.33935,0.11316 -0.33935,0.26058 0,0.20797 0.0686,0.2239 0.33935,0.0789 0.18672,-0.0999 0.33959,-0.21718 0.33959,-0.26057 z M 6.716241,183.60316 c -0.191536,-0.30992 0.126474,-2.05261 0.440676,-2.41484 0.359561,-0.41465 0.392992,-0.69999 0.13779,-1.17692 -0.14591,-0.27264 -0.09154,-0.41942 0.300271,-0.81119 0.322832,-0.32283 0.601915,-0.91478 0.858161,-1.82003 0.326389,-1.15308 0.88684,-3.63011 0.88684,-3.91948 0,-0.25191 -0.48898,0.3527 -0.580657,0.71778 -0.200308,0.79817 -1.456149,0.41783 -1.456149,-0.44103 0,-0.41942 0.138285,-0.59481 0.799852,-1.01423 0.595695,-0.37779 0.867718,-0.69109 1.065655,-1.2268 0.230951,-0.62532 0.331965,-0.71969 0.770183,-0.71969 0.347522,0 0.552496,0.10949 0.659085,0.35206 l 0.154714,0.35206 1.542636,-0.40576 c 0.848439,-0.22325 2.077296,-0.44801 2.730767,-0.49949 1.062632,-0.0838 1.222371,-0.0556 1.512103,0.26666 0.456876,0.50807 0.152844,1.09589 -0.782552,1.51277 -0.84134,0.37494 -1.134817,0.31239 -0.714324,-0.15225 0.281674,-0.31125 0.270735,-0.32251 -0.309655,-0.32251 -0.704727,0 -3.650897,0.73716 -3.886136,0.9726 -0.08876,0.0888 -0.34841,1.07111 -0.576989,2.18289 -0.228588,1.11178 -0.531167,2.39673 -0.672405,2.85555 -0.141229,0.45882 -0.228736,0.86235 -0.19445,0.89667 0.03432,0.0342 0.41041,-0.0308 0.835835,-0.14454 0.630893,-0.16874 0.824377,-0.16466 1.049439,0.0222 0.49977,0.41465 0.218779,0.89412 -1.042811,1.77903 -0.669616,0.46963 -1.197469,0.8738 -1.172991,0.89826 0.0245,0.0245 0.916046,-0.15236 1.981277,-0.39304 1.16868,-0.26399 2.542616,-0.44961 3.464402,-0.46772 l 1.527613,-0.0303 v 0.50934 c 0,0.56304 0.23026,0.49155 -2.885481,0.89826 -0.653478,0.0853 -2.075836,0.33808 -3.160802,0.56209 -1.835343,0.37842 -1.984976,0.43912 -2.149357,0.87347 -0.128523,0.33935 -0.293689,0.46676 -0.605779,0.46676 -0.235985,0 -0.473038,-0.0711 -0.5268,-0.15813 z m 10.808713,-2.31253 c -0.515405,-0.36095 -0.474294,-0.64183 0.174402,-1.1909 0.560718,-0.4747 4.112972,-2.27439 4.494726,-2.27725 0.114914,-7.9e-4 0.245456,-0.17342 0.290258,-0.38352 0.407268,-1.90963 0.829309,-5.35326 1.090251,-8.89427 0.0836,-1.13435 0.203866,-2.14635 0.267146,-2.24899 0.178461,-0.28875 0.941309,-0.22103 1.062365,0.0943 0.209496,0.54588 -0.79284,9.53347 -1.371926,12.30037 -0.129387,0.61833 -0.198172,1.318 -0.152868,1.55503 0.112174,0.58688 -0.173608,0.70952 -2.415073,1.0368 -2.333975,0.34062 -2.963038,0.34221 -3.439281,0.008 z m 4.014637,-1.36947 c 0.291687,-0.0584 0.530475,-0.21111 0.530475,-0.33935 0,-0.31146 -0.16632,-0.29512 -1.042355,0.10236 -0.767112,0.34825 -0.54882,0.44929 0.51188,0.23699 z m 23.466041,0.63676 c -0.7571,-0.75718 -0.336724,-2.2118 1.501807,-5.19839 2.25963,-3.67072 3.789347,-6.42145 4.53045,-8.14723 0.737326,-1.71708 0.877684,-2.3532 0.561936,-2.54829 -0.225494,-0.13937 -1.683403,0.34157 -2.938827,0.96943 -1.239193,0.61959 -1.725102,0.58687 -1.725102,-0.11609 0,-0.5643 0.05136,-0.59798 2.376389,-1.55725 1.710095,-0.70571 2.639656,-0.74288 3.252204,-0.13043 0.389631,0.38955 0.428236,0.53889 0.361509,1.40029 -0.124746,1.60968 -1.597607,4.59058 -5.113604,10.34956 -1.129108,1.84958 -1.717485,2.99314 -1.873573,3.64165 -0.154666,0.64247 0.197019,0.61864 2.149522,-0.14443 0.860054,-0.33617 1.78349,-0.67743 2.052065,-0.75813 0.94917,-0.28564 1.373119,0.35269 0.958469,1.44319 -0.123773,0.32568 -0.286442,0.4353 -0.6451,0.4353 -0.263808,0 -0.560977,-0.0816 -0.660821,-0.1813 -0.128586,-0.12859 -0.496393,-0.0483 -1.264456,0.27619 -0.595766,0.25164 -1.550897,0.49568 -2.122601,0.54239 -0.899845,0.0734 -1.087871,0.0364 -1.400267,-0.27646 z M 33.61817,179.78009 c -0.125209,-0.15087 -0.256418,-0.924 -0.306702,-1.80859 l -0.0881,-1.54519 -0.611967,0.11128 c -0.336489,0.0612 -1.04307,0.15566 -1.570208,0.20992 -0.840264,0.0865 -0.98063,0.057 -1.139105,-0.23934 -0.302171,-0.56463 0.101155,-0.83216 1.588081,-1.05332 2.153095,-0.32028 1.996293,-0.17651 1.927185,-1.76728 l -0.06008,-1.38314 0.470651,-0.054 c 0.403696,-0.0464 0.508307,0.0363 0.736132,0.58146 0.149845,0.35874 0.239975,0.95513 0.207149,1.36947 -0.05615,0.70602 -0.04005,0.73399 0.420846,0.73399 0.694425,0 1.135768,0.29208 1.135768,0.75146 0,0.45405 -0.280724,0.60626 -1.117179,0.60626 -0.539287,0 -0.580995,0.0388 -0.590049,0.55159 -0.05458,3.05318 -0.06031,3.09545 -0.42943,3.14819 -0.194875,0.0279 -0.452778,-0.0679 -0.572993,-0.2127 z m -6.142475,-0.89858 c -0.103551,-0.25673 -0.307181,-0.7092 -0.452306,-1.00533 -0.21885,-0.44643 -0.226012,-0.58433 -0.04186,-0.80612 0.339112,-0.40861 0.798564,-0.3206 1.188674,0.2273 0.461596,0.64851 0.6215,1.46893 0.350074,1.7962 -0.337918,0.40702 -0.835748,0.30616 -1.044546,-0.21205 z m 0.399164,-5.84735 c -0.312183,-0.3122 -0.242597,-0.78196 0.146641,-0.9904 0.441579,-0.23637 0.837884,0.0485 0.837884,0.60244 0,0.53444 -0.601012,0.77116 -0.984446,0.38764 z M 139.39936,162.45385 c -0.20454,-0.14327 -0.52642,-0.60975 -0.71539,-1.03679 -0.18889,-0.42705 -0.56646,-1.03044 -0.83908,-1.34087 -0.6239,-0.7108 -0.749,-1.10257 -0.53286,-1.6707 0.32672,-0.85917 1.52183,-0.91986 2.09186,-0.10589 0.23452,0.3349 0.27619,0.22884 0.61269,-1.55948 0.19862,-1.05522 0.36032,-2.43422 0.3596,-3.06431 -0.002,-1.08763 -0.0217,-1.14578 -0.39868,-1.14578 -0.71421,0 -2.36068,0.98564 -4.77968,2.86096 -5.75467,4.46141 -7.62732,5.59814 -8.23212,4.997 -0.22621,-0.22486 -0.21855,-0.27487 0.0688,-0.44866 0.82049,-0.49631 5.43665,-3.85202 7.69513,-5.5941 1.37766,-1.06285 3.00145,-2.1848 3.60825,-2.49333 0.60674,-0.30854 1.38576,-0.7022 1.73106,-0.87506 0.34531,-0.17271 0.81573,-0.31402 1.0457,-0.31402 0.59148,0 1.2511,0.85124 1.39313,1.79842 0.13795,0.91986 0.005,4.08362 -0.19112,4.55798 -0.12646,0.30541 -0.0956,0.30132 0.40226,-0.0532 0.71634,-0.50998 1.49394,-0.43499 1.95769,0.18896 0.40297,0.54238 0.26237,1.23824 -0.31314,1.54867 -1.05378,0.56844 -1.72653,1.12926 -2.39307,1.99542 -0.41084,0.53381 -0.74709,1.04728 -0.74709,1.14102 0,0.24513 -0.84409,0.87379 -1.1732,0.87379 -0.15333,0 -0.4461,-0.11722 -0.6508,-0.26049 z m 5.97073,-0.6072 c -0.0642,-0.1038 -0.0295,-0.24252 0.0768,-0.30829 0.10642,-0.0658 0.56384,-0.99295 1.01662,-2.06024 2.09949,-4.95049 3.3637,-6.98585 5.50501,-8.8632 1.6579,-1.45336 2.84915,-1.93283 4.10204,-1.65004 0.93512,0.2109 1.55805,0.92622 2.07757,2.38561 0.40011,1.12386 0.45039,1.51436 0.45229,3.51204 l 0.002,2.24739 0.51213,-0.63517 c 1.12171,-1.39107 1.74035,-1.90804 2.28322,-1.90804 0.63723,0 1.13338,0.63231 0.97896,1.24746 -0.0554,0.22071 -1.19034,1.5204 -2.52229,2.88796 -2.23937,2.29981 -2.46773,2.48665 -3.03519,2.48538 -0.79999,-0.002 -1.41006,-0.49409 -1.8526,-1.49593 -0.19367,-0.43817 -0.55192,-0.95641 -0.79595,-1.1515 -0.94416,-0.75432 -0.29835,-2.26709 0.8684,-2.03387 0.27739,0.0555 0.63365,0.21785 0.79165,0.36064 0.36247,0.32791 0.423,0.19153 0.58409,-1.31291 0.12393,-1.15722 -0.0844,-2.58166 -0.54786,-3.7459 -0.31719,-0.7969 -0.82597,-0.84075 -2.01989,-0.17465 -1.07429,0.59958 -3.26239,2.78279 -3.87513,3.86635 -0.26381,0.46677 -0.80381,1.34501 -1.19987,1.9519 -0.39607,0.60688 -0.96038,1.58299 -1.25397,2.16922 -0.51404,1.02599 -1.60166,2.41357 -1.89169,2.41357 -0.077,0 -0.19244,-0.0849 -0.25665,-0.18871 z m 29.4922,-0.32029 c -0.25069,-0.27993 -0.89174,-0.93702 -1.42436,-1.46003 -1.42483,-1.39934 -1.63359,-2.4787 -0.61697,-3.19073 0.51379,-0.36 0.95919,-0.34189 1.62788,0.0659 l 0.55167,0.33649 -0.002,-2.33127 c -0.003,-2.76659 -0.13012,-3.15519 -1.05809,-3.23246 -0.35579,-0.0297 -0.90509,0.0789 -1.26635,0.25033 -0.88746,0.42101 -2.79692,2.27694 -5.12186,4.97819 -2.21173,2.56959 -2.69384,3.04303 -3.10728,3.05065 -0.15785,0.003 -0.3341,0.0817 -0.39201,0.17509 -0.1846,0.29867 -0.5941,0.18168 -0.5941,-0.16973 0,-0.1867 0.08,-0.33934 0.17788,-0.33934 0.24283,0 0.82359,-0.6679 2.06659,-2.3764 1.64527,-2.26106 3.83662,-4.94594 4.60637,-5.64374 1.05308,-0.95482 2.29895,-1.75012 3.24058,-2.06882 0.77163,-0.26118 0.89865,-0.2626 1.54112,-0.0172 0.84551,0.32284 1.49347,0.96721 1.86356,1.8534 0.21631,0.51792 0.27501,1.26366 0.27501,3.49056 v 2.83204 l 0.64748,-0.64756 c 0.70396,-0.70412 1.22489,-0.81247 1.83782,-0.3832 0.26404,0.18498 0.37723,0.43753 0.37723,0.84139 0,0.49916 -0.0975,0.63484 -0.72135,1.0031 -0.78117,0.46105 -1.33022,1.08509 -2.06802,2.35066 -0.75496,1.2948 -1.64169,1.52485 -2.44074,0.63295 z m -68.15157,-0.28313 c -0.18169,-0.18169 -0.13019,-0.73558 0.0684,-0.73558 0.0998,0 0.96442,-0.75209 1.92098,-1.671 2.0256,-1.94586 3.90259,-3.13325 6.99313,-4.42329 3.88705,-1.62271 6.93928,-2.14825 7.93331,-1.36661 0.6358,0.50012 0.71707,1.25349 0.29931,2.77643 -0.19518,0.71143 -0.35317,1.50261 -0.35126,1.75839 0.003,0.45088 0.0279,0.4388 0.80619,-0.40259 0.44135,-0.47692 0.93988,-1.06888 1.10765,-1.31544 0.40154,-0.58973 1.16723,-0.60371 1.73964,-0.0315 0.74709,0.74701 0.47757,1.68594 -0.6022,2.09773 -0.60697,0.23144 -2.55842,1.73011 -2.67161,2.05198 -0.50354,1.4308 -2.33946,0.94815 -2.96406,-0.77942 -0.16244,-0.44928 -0.41775,-0.69935 -1.03068,-1.0101 -0.92606,-0.46931 -1.23871,-1.019 -0.94536,-1.66274 0.10329,-0.22671 0.40011,-0.50014 0.65964,-0.60753 0.57526,-0.23831 1.05426,-0.0296 1.71366,0.74669 l 0.4473,0.5265 0.35913,-1.1623 c 0.48423,-1.56806 0.46993,-1.94109 -0.0799,-2.07899 -1.24086,-0.31146 -3.56304,0.26073 -6.77477,1.66942 -2.52777,1.1086 -4.07218,2.12919 -6.04346,3.99313 -1.67196,1.58109 -2.2601,1.95126 -2.5847,1.62653 z m 87.17059,-0.65836 c -0.49973,-0.35015 -1.54042,-2.54479 -1.67625,-3.53475 -0.0861,-0.6285 -0.0457,-0.86141 0.19588,-1.12831 0.61482,-0.67933 1.82566,-0.26655 2.03681,0.69427 0.063,0.28662 0.15121,0.48424 0.19616,0.43943 0.0449,-0.0449 0.2273,-0.64248 0.40536,-1.32752 0.40702,-1.56742 0.41441,-3.24825 0.018,-4.04648 -0.27596,-0.55542 -0.34388,-0.59164 -1.04402,-0.55859 -1.05879,0.0502 -2.52769,1.1032 -5.11202,3.66455 -2.07183,2.05357 -4.51605,4.30464 -5.50399,5.06926 -0.27716,0.21458 -0.52953,0.44897 -0.56074,0.52046 -0.0311,0.0717 -0.20299,0.1304 -0.38201,0.1304 -0.88149,0 -0.16041,-0.86585 4.65997,-5.59534 4.0817,-4.00483 5.45761,-5.02396 7.03515,-5.21079 1.16651,-0.13815 1.89287,0.31601 2.50432,1.56584 0.4137,0.84551 0.44611,1.05585 0.37128,2.41007 -0.0451,0.81596 -0.14315,1.63637 -0.21796,1.82321 -0.10451,0.26089 -0.0333,0.23143 0.3079,-0.1273 0.53785,-0.56558 1.32427,-0.62087 1.8178,-0.12731 0.64081,0.64089 0.45064,1.05014 -1.31545,2.83173 -0.91009,0.91827 -1.87143,1.91694 -2.13619,2.21942 -0.52808,0.60371 -1.02209,0.69268 -1.60023,0.28769 z m -79.71285,-9.11543 c -0.32004,-0.49949 -0.65581,-1.78571 -0.52237,-2.00145 0.0676,-0.10942 -0.55573,-0.15298 -1.76656,-0.12339 -1.60166,0.0391 -1.91456,0.002 -2.17337,-0.25449 -0.23418,-0.23267 -0.2607,-0.36636 -0.11754,-0.59418 0.15314,-0.24374 0.55788,-0.31226 2.37329,-0.40195 1.20394,-0.0594 2.28417,-0.11665 2.40095,-0.12729 0.15774,-0.0144 0.21169,-0.57448 0.2103,-2.18353 -0.002,-2.0148 -0.53381,-11.2952 -0.77378,-13.49388 l -0.10647,-0.9761 h -1.22394 c -1.40315,0 -1.90645,-0.23942 -1.72248,-0.81914 0.10745,-0.3384 0.22977,-0.36891 1.48299,-0.36891 h 1.36597 l -0.11529,-0.92272 c -0.0996,-0.79721 -0.0677,-0.97038 0.23505,-1.27288 0.6899,-0.68981 1.19893,-0.22086 1.19893,1.10448 v 0.92145 h 0.66225 c 0.56836,0 7.84148,-0.4944 11.21907,-0.76258 0.60673,-0.0482 3.21403,-0.1369 5.79381,-0.19715 l 4.69052,-0.10953 0.20637,0.38575 c 0.30456,0.56907 -0.17035,0.93352 -1.64337,1.26079 -1.59427,0.35429 -2.01726,0.34253 -2.42762,-0.068 -0.33959,-0.33935 -0.33959,-0.33935 -0.33864,1.48513 4.8e-4,1.00343 0.0799,3.2728 0.17657,5.04276 0.12295,2.25216 0.12136,3.89845 -0.006,5.48467 -0.21074,2.63917 -0.10331,3.94239 0.32505,3.94239 0.82716,0 0.91462,0.96816 0.13937,1.54296 -0.30335,0.22495 -0.5593,0.50457 -0.56859,0.62119 -0.009,0.11668 -0.0284,0.32155 -0.0424,0.45532 -0.0654,0.62436 -1.20631,0.41719 -1.21917,-0.22151 -0.003,-0.15194 -0.15765,-0.45882 -0.3434,-0.68187 -0.33482,-0.40195 -0.35722,-0.40449 -2.58279,-0.28878 -2.97114,0.15462 -5.41727,0.35746 -9.63692,0.79944 l -3.48801,0.3654 -0.18361,1.16612 c -0.10098,0.6412 -0.27834,1.28018 -0.39416,1.41967 -0.30646,0.36953 -0.80357,0.31067 -1.08467,-0.1282 z m 4.06097,-3.93971 c 3.17455,-0.38765 7.88156,-0.77116 10.87577,-0.88619 l 2.73359,-0.10513 0.0534,-1.79906 c 0.0832,-2.80154 0.0447,-7.5895 -0.0901,-11.20185 l -0.12285,-3.29241 -2.9933,0.11535 c -3.14298,0.12112 -13.57679,0.86489 -13.66987,0.9742 -0.0298,0.035 0.0432,1.43842 0.16203,3.11895 0.30502,4.31256 0.56407,8.45249 0.69251,11.07517 0.0606,1.23697 0.15899,2.24897 0.21864,2.24897 0.0596,0 1.02281,-0.1116 2.14015,-0.248 z m 8.16271,-3.40496 c -0.19536,-0.19537 -0.23308,-0.47122 -0.15483,-1.1318 0.096,-0.81024 0.08,-0.86426 -0.22061,-0.74796 -0.17823,0.069 -0.91223,0.12203 -1.63097,0.11786 -2.33802,-0.0136 -4.14237,-0.96912 -4.57849,-2.4247 -0.28025,-0.93511 0.15753,-1.94808 1.28543,-2.97438 0.85766,-0.78038 2.85901,-1.91599 3.37657,-1.91599 0.59743,0 0.82668,0.93639 0.29001,1.18455 -1.90884,0.883 -2.63572,1.32721 -3.14481,1.92202 -1.00541,1.17469 -0.7173,2.06183 0.86124,2.65251 1.48251,0.55478 3.83481,0.37493 4.03267,-0.30811 0.0437,-0.15087 0.1303,-0.39686 0.19241,-0.54683 0.0943,-0.22775 -0.0573,-0.2881 -0.92058,-0.36635 -1.10313,-0.10004 -1.53017,-0.32442 -1.53017,-0.80358 0,-0.56494 0.41846,-0.72667 1.35978,-0.52459 0.47494,0.10185 1.22966,0.18517 1.67743,0.18517 0.59648,0 0.89556,0.0901 1.11909,0.33714 0.29503,0.32599 0.2905,0.35904 -0.13674,1.00469 -0.54692,0.82645 -0.62127,1.12831 -0.67894,2.75737 -0.0591,1.67005 -0.5126,2.26932 -1.19844,1.58332 z m -119.238105,3.7626 c -0.269267,-0.32441 -0.05882,-1.78825 0.338585,-2.35542 0.251794,-0.35905 0.29969,-0.62055 0.213047,-1.1623 -0.0981,-0.61357 -0.05866,-0.74352 0.322549,-1.06412 0.270837,-0.22776 0.543716,-0.7486 0.724926,-1.38376 0.29226,-1.02409 0.926255,-3.77386 0.926255,-4.01726 0,-0.28912 -0.493008,0.0817 -0.541721,0.40735 -0.08581,0.57384 -0.541336,0.74734 -1.063873,0.40512 -0.69707,-0.45659 -0.536286,-1.08509 0.439412,-1.7174 0.564785,-0.36604 0.839486,-0.68251 0.97675,-1.12544 0.387919,-1.2519 1.094759,-1.32721 1.659427,-0.17674 0.015,0.0305 0.58785,-0.0979 1.273008,-0.28547 2.626502,-0.71906 4.273371,-0.78832 4.639914,-0.19525 0.27653,0.44738 -0.09759,1.03711 -0.867561,1.36693 -1.01666,0.43594 -1.179714,0.41783 -0.84489,-0.0932 0.234383,-0.35778 0.239189,-0.42419 0.03063,-0.42419 -0.414485,0 -2.681073,0.50014 -3.531522,0.77911 -0.726881,0.23856 -0.809739,0.3206 -0.897937,0.88745 -0.117906,0.75814 -1.067305,4.83496 -1.216387,5.22343 -0.08846,0.23052 -0.03722,0.2536 0.300953,0.13551 0.224174,-0.0783 0.713115,-0.14438 1.086513,-0.1469 0.612807,-0.005 0.684082,0.0401 0.731844,0.45406 0.04626,0.40067 -0.09808,0.55891 -1.147735,1.25667 -0.66035,0.43913 -1.167463,0.83154 -1.126878,0.87221 0.0406,0.0405 1.015325,-0.12125 2.166131,-0.35969 2.712321,-0.56177 4.35151,-0.6447 4.615609,-0.23346 0.139266,0.21681 0.140342,0.37716 0.0039,0.59418 -0.143106,0.22755 -0.534143,0.32632 -1.671724,0.42227 -0.816697,0.0688 -2.114756,0.27473 -2.884578,0.45755 -0.769806,0.18283 -1.783207,0.3832 -2.252004,0.44548 -1.005674,0.13341 -1.093683,0.18484 -1.3624,0.79658 -0.221418,0.50394 -0.723858,0.61832 -1.0404,0.23702 z m 10.616046,-2.25978 c -0.06227,-0.0623 -0.113155,-0.32854 -0.113155,-0.59195 0,-0.57638 0.631843,-1.01774 3.055217,-2.13491 0.886974,-0.40894 1.725337,-0.80357 1.863316,-0.8773 0.138026,-0.0737 0.305988,-0.39399 0.373186,-0.71173 0.18194,-0.86077 0.773544,-5.86683 0.990643,-8.38176 0.104524,-1.21155 0.273813,-2.30363 0.376052,-2.42691 0.10235,-0.12334 0.345544,-0.20147 0.540481,-0.17363 0.278816,0.0398 0.365796,0.19226 0.40869,0.71493 0.102781,1.25635 -0.911523,10.0621 -1.349049,11.71223 -0.09695,0.36572 -0.176278,0.99168 -0.176278,1.39139 0,0.39972 -0.09373,0.8042 -0.20828,0.89953 -0.500445,0.41529 -5.429243,0.91224 -5.760706,0.58084 z m 4.427244,-1.50737 c 0.224897,-0.0703 0.301457,-0.59163 0.08486,-0.57861 -0.07005,0.005 -0.470894,0.19552 -0.891026,0.42514 l -0.763775,0.41752 0.678938,-0.0989 c 0.373429,-0.0543 0.774494,-0.12871 0.891002,-0.16518 z m 27.549581,0.79086 c -0.147026,-0.27472 -0.313848,-0.30837 -1.1708,-0.23615 -1.108596,0.0934 -1.724859,-0.12699 -1.724859,-0.61673 0,-0.51506 0.373901,-0.67489 1.704841,-0.72795 l 1.265414,-0.0506 0.12177,-1.46131 c 0.09876,-1.18517 1.18843,-6.65062 1.603803,-8.04383 0.05568,-0.18671 -0.452541,0.40957 -1.129335,1.32467 -1.073092,1.45144 -1.287568,1.65766 -1.677206,1.61254 -0.64104,-0.0743 -0.723497,-0.8954 -0.139707,-1.39235 0.528324,-0.4496 3.520937,-4.55283 3.987229,-5.46682 0.478284,-0.93733 0.768778,-1.15817 1.211314,-0.92145 0.402023,0.21519 0.456359,0.79436 0.120192,1.28337 -0.35079,0.51029 -0.708725,1.74408 -1.462008,5.03869 -0.879828,3.84836 -1.154599,5.29596 -1.292099,6.80651 l -0.110854,1.2195 1.984143,-0.0529 c 2.07279,-0.0553 2.46864,0.0508 2.46864,0.66185 0,0.50966 -0.494721,0.63358 -2.417123,0.60626 -1.709608,-0.0245 -1.836388,-0.003 -2.087569,0.35555 -0.327191,0.46709 -1.0209,0.50076 -1.256108,0.0612 z m -15.71008,-0.86712 c -0.244506,-0.2701 -0.31004,-0.64724 -0.323382,-1.85847 -0.01563,-1.4254 -0.03769,-1.51531 -0.356035,-1.44986 -2.640174,0.54016 -3.14007,0.51315 -3.14007,-0.16904 0,-0.5408 0.291451,-0.67076 2.079229,-0.92781 l 1.485127,-0.21347 0.0201,-0.53413 c 0.02631,-0.6984 0.03306,-0.60212 -0.09945,-1.41236 -0.09873,-0.60371 -0.06557,-0.73558 0.224032,-0.89064 0.734224,-0.39304 1.213215,0.34888 1.213215,1.87914 v 0.82327 h 0.672977 c 0.758058,0 1.116709,0.38637 0.831932,0.89539 -0.116775,0.20867 -0.380576,0.29265 -0.919148,0.29265 h -0.755427 v 1.74822 c 0,1.13338 -0.07162,1.82003 -0.203685,1.95189 -0.276672,0.27664 -0.372708,0.25883 -0.729214,-0.13519 z m -6.460855,-1.44986 c -0.35675,-0.754 -0.403931,-0.98912 -0.238781,-1.18804 0.311226,-0.37525 0.778782,-0.29865 1.163411,0.19023 0.711347,0.9043 0.677265,1.93791 -0.06385,1.93791 -0.338162,0 -0.499495,-0.17635 -0.860815,-0.9401 z m 0.727313,-5.19324 c -0.550014,-0.30776 -0.244985,-1.16516 0.414171,-1.16516 0.33411,0 0.646529,0.4782 0.528332,0.80833 -0.125461,0.35015 -0.620315,0.53762 -0.942746,0.35714 z m 120.133726,-3.65267 c -3.55258,-0.75051 -5.60922,-1.71676 -6.56404,-3.08464 -0.26452,-0.37907 -0.29693,-0.38415 -0.7938,-0.1273 -0.72397,0.3743 -1.16221,0.3349 -1.64574,-0.14878 -0.55097,-0.55096 -0.52571,-1.08095 0.0857,-1.7962 0.27619,-0.32314 0.50545,-0.67139 0.50926,-0.77338 0.0175,-0.47217 0.68513,-0.79245 1.60785,-0.77116 0.81906,0.0189 1.18629,-0.10426 3.06672,-1.02822 1.17486,-0.57733 2.43144,-1.30242 2.79241,-1.61158 1.05451,-0.90271 2.21482,-0.63422 2.21482,0.51251 0,0.43118 -0.51164,1.13244 -0.82597,1.13244 -0.0809,0 -0.83836,0.36508 -1.68316,0.81119 l -1.53613,0.8112 19.4628,0.0291 c 10.70455,0.016 20.34117,0.0519 21.41473,0.0798 1.72105,0.0446 2.07827,0.003 3.02075,-0.35492 1.97079,-0.74796 3.2214,-2.20768 4.36242,-5.09211 l 0.63056,-1.59379 -0.10989,-2.56482 c -0.0605,-1.41045 -0.15166,-2.8511 -0.20271,-3.20119 -0.081,-0.55509 -0.0492,-0.63644 0.24808,-0.63644 0.36627,0 0.43205,0.19456 0.63032,1.86706 0.0609,0.51347 0.21693,1.39171 0.34673,1.95189 0.12979,0.56018 0.31647,1.86705 0.41465,2.90416 0.20929,2.20767 0.13322,2.53018 -1.08762,4.61251 -1.39624,2.38148 -3.14725,3.66475 -5.7656,4.22512 -1.24015,0.26539 -3.27364,0.23741 -7.24042,-0.0996 -1.1577,-0.0984 -30.15436,0.0163 -36.70502,0.1451 -1.49465,0.0294 0.9866,1.14356 3.13598,1.40824 1.24253,0.15299 1.64932,0.27323 1.95363,0.57766 0.47757,0.47756 0.48686,0.9027 0.0326,1.48004 -0.34745,0.44198 -0.83288,0.53412 -1.76988,0.33618 z m -17.81157,-21.16186 c -0.31194,-0.22801 -0.31456,-0.81278 -0.008,-1.76855 l 0.12236,-0.38193 -3.28718,-0.003 c -2.07398,-0.002 -3.94497,-0.10025 -5.0694,-0.26628 -1.75441,-0.25908 -8.30349,-0.37303 -8.66314,-0.15081 -0.0897,0.0554 -0.16303,0.31604 -0.16303,0.57925 0,0.57606 -0.34984,0.90556 -0.88174,0.82994 -0.32862,-0.0466 -0.39964,-0.17146 -0.44372,-0.78133 l -0.0523,-0.72566 -6.68393,0.10553 c -3.67616,0.058 -7.391975,0.15556 -8.257355,0.21671 -1.49943,0.10594 -1.57806,0.13117 -1.6722,0.5354 -0.0714,0.30655 -0.22929,0.43943 -0.56884,0.47915 -0.39129,0.0455 -0.5033,-0.0329 -0.66701,-0.46676 -0.19594,-0.51919 -0.20269,-0.52142 -1.48633,-0.52142 -0.7092,0 -1.74273,0.0868 -2.29656,0.19288 -0.6165,0.11807 -3.27853,0.20037 -6.86297,0.21217 -3.50385,0.0115 -5.9581,0.0861 -6.11043,0.18566 -0.14003,0.0915 -0.65558,0.18352 -1.14577,0.20448 -0.77331,0.0331 -0.89103,-0.004 -0.89103,-0.28186 0,-0.18262 0.1389,-0.34317 0.32362,-0.3743 0.31171,-0.0523 0.32767,-0.37939 0.4361,-9.00771 l 0.11261,-8.953466 h -0.43014 c -0.53714,0 -0.90652,-0.57861 -0.60292,-0.94433 0.11126,-0.13407 0.38296,-0.24375 0.60363,-0.24375 0.29979,0 0.46542,-0.15347 0.65463,-0.60625 0.19994,-0.47852 0.33459,-0.59482 0.6389,-0.5516 0.28192,0.04 0.40036,0.18565 0.44111,0.54238 l 0.0558,0.48774 2.40539,-0.11996 c 1.32307,-0.066 2.94006,-0.19263 3.59354,-0.28147 0.65344,-0.0888 3.52225,-0.22553 6.37507,-0.30378 3.7876,-0.10388 5.28352,-0.20259 5.54501,-0.36604 0.28717,-0.17934 0.4087,-0.18161 0.61364,-0.0115 0.20403,0.16933 0.5941,0.16991 1.93243,0.003 1.51683,-0.1893 1.951265,-0.17249 4.553165,0.17609 1.8364,0.24603 4.16508,0.41656 6.4408,0.47153 l 3.56442,0.0862 0.16973,-0.39971 c 0.226,-0.53222 1.08955,-0.65932 1.21513,-0.1785 0.0778,0.29762 0.28716,0.3403 2.06659,0.42164 3.33458,0.1523 15.03232,-0.0659 15.17169,-0.28292 0.0873,-0.13604 0.20819,-0.13888 0.42442,-0.01 0.19497,0.11629 2.49931,0.19442 6.49407,0.22018 3.53502,0.0228 6.52108,0.11588 6.95911,0.2169 0.48423,0.11168 1.92551,0.13623 3.9073,0.0665 2.56153,-0.0901 3.68734,-0.0484 6.11042,0.22635 5.64003,0.6393 7.62932,0.75941 9.16242,0.5532 0.77831,-0.10475 1.86237,-0.19045 2.4088,-0.19045 0.54644,0 1.14555,-0.0947 1.33095,-0.21056 0.27071,-0.1691 0.40869,-0.16595 0.6999,0.016 0.37605,0.2349 5.57199,0.27438 13.79542,0.10484 3.2718,-0.0674 3.57843,-0.10004 3.91483,-0.41593 0.42227,-0.39654 1.02925,-0.44897 1.22585,-0.10584 0.14444,0.25225 1.17413,0.226 9.94561,-0.25355 2.03466,-0.11123 4.409,-0.15236 5.27628,-0.0914 1.57544,0.11074 1.57711,0.11043 1.7761,-0.32663 0.24641,-0.5408 0.88007,-0.51125 1.12743,0.0525 0.0921,0.21004 0.30074,0.38193 0.4635,0.38193 0.17916,0 0.34078,0.17879 0.40965,0.45309 0.0871,0.34698 0.0276,0.52269 -0.25356,0.75051 -0.20203,0.16359 -0.43276,0.32251 -0.51283,0.35333 -0.08,0.0307 -0.0913,0.72604 -0.025,1.5455 0.0722,0.89285 0.032,2.49078 -0.1005,3.98875 -0.35961,4.066896 -0.71802,8.656346 -0.82168,10.523366 -0.0812,1.4632 -0.0554,1.75997 0.16065,1.84291 0.14871,0.0571 0.25738,0.30796 0.25738,0.59417 0,0.71905 -0.54359,0.87602 -2.26774,0.65519 -0.75996,-0.0974 -2.60362,-0.21715 -4.09727,-0.26612 -2.87932,-0.0944 -6.43252,-0.44802 -8.52488,-0.84837 -1.70961,-0.32695 -3.20484,-0.32156 -3.33303,0.0127 -0.14092,0.36731 -0.89865,0.31295 -1.3052,-0.0936 -0.1963,-0.1963 -0.47399,-0.30904 -0.63652,-0.25848 -0.15859,0.0493 -3.80186,0.12657 -8.09612,0.17167 -4.29426,0.0451 -9.10624,0.15756 -10.69325,0.2499 -1.58712,0.0923 -5.92159,0.22151 -9.63241,0.28702 -3.71081,0.0655 -6.74693,0.18396 -6.74693,0.26319 0,0.0792 -0.1471,0.29114 -0.32696,0.4709 -0.41585,0.4156 -0.96848,0.28486 -1.10575,-0.26178 l -0.10341,-0.41211 -3.85727,0.0462 c -2.12141,0.0254 -5.8537,-0.0225 -8.29378,-0.10646 l -4.43648,-0.15262 -0.13594,0.57702 c -0.0748,0.31733 -0.11677,0.67869 -0.0933,0.80293 0.0583,0.30873 -0.44516,1.04728 -0.71374,1.04728 -0.12003,0 -0.35721,-0.10166 -0.52713,-0.22592 z m 73.12578,-3.2112 c 0.0446,-0.30339 0.20535,-2.49936 0.35721,-4.87985 0.15189,-2.38052 0.35032,-4.939276 0.44087,-5.686096 0.1984,-1.63446 0.2538,-5.7322 0.0875,-6.46844 -0.11783,-0.52141 -0.13429,-0.52904 -1.39671,-0.62436 -0.70253,-0.0532 -2.43655,-0.0302 -3.85323,0.0509 -1.41674,0.0811 -3.91238,0.19116 -5.54609,0.24453 -1.63359,0.0533 -3.64566,0.14295 -4.47107,0.19909 l -1.50061,0.10207 0.14283,1.97508 c 0.22337,3.08846 0.15987,6.190126 -0.17596,8.594766 -0.43896,3.14279 -0.5512,5.68178 -0.25214,5.70087 1.34954,0.0862 3.54448,0.34984 5.49319,0.65995 2.06874,0.32918 3.95732,0.45564 9.79445,0.65582 0.77831,0.0267 0.80072,0.0134 0.87978,-0.52431 z m -5.21435,-3.97461 c -0.0623,-0.0622 -0.11316,-0.50711 -0.11316,-0.98849 v -0.87507 l -1.6548,0.003 c -2.96804,0.005 -4.795,-1.11052 -4.795,-2.92927 0,-1.469876 1.23062,-2.850146 3.5117,-3.938796 0.86981,-0.41498 1.13052,-0.47407 1.41815,-0.31997 0.69538,0.37208 0.35246,0.87666 -1.07452,1.58014 -2.04134,1.0066 -2.95934,2.137446 -2.51914,3.103706 0.29121,0.63929 1.75274,1.24936 2.99199,1.24904 1.65695,-3.4e-4 2.25057,-0.14981 2.3621,-0.59482 0.0536,-0.21368 0.14054,-0.50076 0.19315,-0.63771 0.0759,-0.19789 -0.11728,-0.26464 -0.93797,-0.3241 -1.1496,-0.0832 -1.63383,-0.39907 -1.45868,-0.951306 0.14476,-0.45597 0.46852,-0.55923 1.14578,-0.36509 0.30812,0.0884 0.99136,0.16067 1.51849,0.16067 0.68537,0 1.07071,0.091 1.35286,0.31966 0.42943,0.347596 0.45589,0.224266 -0.36818,1.717386 -0.24521,0.44452 -0.3279,0.92813 -0.32815,1.92075 -1.5e-4,0.72953 -0.0793,1.47433 -0.17598,1.6548 -0.16895,0.3157 -0.83454,0.44961 -1.06904,0.21516 z m -114.344155,4.01671 c 3.034,-0.0687 6.59809,-0.22282 7.92019,-0.34252 2.37616,-0.21506 2.40502,-0.22267 2.50561,-0.65868 0.1577,-0.68346 0.43086,-9.550416 0.41203,-13.379836 l -0.0168,-3.43362 -4.26486,0.087 c -2.34565,0.0478 -5.10503,0.17071 -6.13191,0.27301 -1.02687,0.10229 -3.0128,0.23343 -4.41309,0.29142 l -2.54602,0.10541 -0.12551,5.77096 c -0.069,3.173926 -0.0796,7.096366 -0.0235,8.716306 l 0.10204,2.94547 0.53262,-0.12495 c 0.29287,-0.0687 3.01503,-0.18116 6.04913,-0.24996 z m 1.7201,-4.30038 c -0.10374,-0.125 -0.28502,-0.84774 -0.40274,-1.60619 -0.14238,-0.91732 -0.27596,-1.33833 -0.39869,-1.25794 -0.10154,0.0666 -0.46804,0.66408 -0.81453,1.32752 -0.74066,1.4184 -1.2747,1.81654 -1.79993,1.34119 -0.35437,-0.3206 -0.42872,-1.1121 -0.18374,-1.95348 0.0679,-0.23338 0.0438,-0.60561 -0.0536,-0.82676 -0.1519,-0.34539 -0.11148,-0.45501 0.28383,-0.77021 0.25355,-0.20217 0.46112,-0.4512 0.46112,-0.55382 0,-0.10237 0.29764,-0.901436 0.66106,-1.775856 0.67751,-1.62907 1.08478,-2.03133 1.345,-1.32849 0.109,0.29465 0.2141,0.0587 0.50831,-1.14132 0.20405,-0.83186 0.37104,-1.74282 0.37104,-2.0237 0,-0.70158 0.34793,-1.13085 0.85815,-1.05872 0.37175,0.0524 0.4137,0.13794 0.40441,0.82232 -0.006,0.42005 -0.10147,1.60396 -0.21278,2.6309 -0.11131,1.02694 -0.23974,2.25787 -0.28549,2.73544 l -0.0831,0.868386 1.15435,-0.0826 c 0.93392,-0.0668 1.20916,-0.0277 1.44152,0.2046 0.35841,0.35842 0.35984,0.50554 0.008,0.85728 -0.17255,0.17254 -0.42514,0.24229 -0.66226,0.18281 -0.21078,-0.0529 -0.73446,-0.0481 -1.16365,0.0108 -0.90389,0.1239 -0.91462,0.16377 -0.53047,1.97637 0.13421,0.63325 0.2011,1.26366 0.14863,1.40029 -0.1194,0.31115 -0.80286,0.32504 -1.05469,0.0212 z m 62.241925,4.18918 0.90579,-0.10877 -0.1419,-1.79938 c -0.0781,-0.98944 -0.11006,-2.67761 -0.0711,-3.7512 0.10448,-2.88192 0.0827,-5.684916 -0.0682,-8.760236 l -0.13412,-2.73482 -0.7154,0.0806 c -0.39344,0.0444 -1.39504,-0.0116 -2.22555,-0.12432 -1.71389,-0.23263 -12.97546,-0.37779 -13.30917,-0.17146 -0.17046,0.10535 -0.21164,1.91027 -0.19571,8.576786 0.0112,4.64383 0.0503,8.47342 0.087,8.51018 0.23273,0.23274 14.21073,0.48138 15.86863,0.28237 z m -11.38681,-6.17545 c -0.53142,-0.32124 -0.25975,-1.18105 0.37343,-1.18105 0.18214,0 0.26548,-0.16973 0.27048,-0.5516 0.004,-0.30341 0.0696,-1.28527 0.14562,-2.181616 l 0.1382,-1.63003 -0.48519,-0.0956 c -0.2669,-0.0526 -0.67607,-0.0674 -0.90938,-0.0328 -3.19631,0.47344 -3.27125,0.47725 -3.48812,0.1806 -0.24593,-0.33649 -0.14317,-0.88841 0.18925,-1.01614 0.12765,-0.049 1.02949,-0.18176 2.00416,-0.29504 3.03853,-0.35334 5.6548,0.23226 7.15666,1.60141 1.43389,1.30752 1.35049,2.779926 -0.22538,3.970446 -1.20131,0.90779 -4.43239,1.67736 -5.16973,1.23151 z m 3.32639,-1.69516 c 1.85331,-0.69331 2.28488,-1.626836 1.21774,-2.633446 -0.52737,-0.49758 -2.20576,-1.24173 -2.38842,-1.05903 -0.0393,0.0393 -0.12232,0.9637 -0.18461,2.0542 -0.12982,2.273126 -0.17968,2.212746 1.35529,1.638276 z m -9.24607,7.55064 c 0.0584,-0.0587 0.10639,-3.40366 0.10654,-7.43314 1.5e-4,-4.029476 0.0682,-7.811626 0.15122,-8.404796 0.11762,-0.84042 0.10124,-1.10923 -0.0741,-1.21758 -0.1238,-0.0765 -1.64313,-0.11032 -3.37616,-0.0751 -1.7332,0.0351 -5.49178,0.0675 -8.35258,0.0718 l -5.20145,0.008 -0.0979,2.58833 c -0.0538,1.42349 -0.1385,5.21104 -0.18816,8.416416 l -0.0903,5.82797 3.18305,-0.11305 c 2.20149,-0.0781 3.54952,-0.0498 4.37122,0.092 1.17962,0.20358 7.79247,0.50012 8.88963,0.39876 0.31504,-0.0291 0.62055,-0.10101 0.67898,-0.15951 z m -12.6238,-6.65146 c -0.1867,-0.0469 -0.54953,-0.2343 -0.80619,-0.41656 -0.38153,-0.27064 -0.46685,-0.46041 -0.46685,-1.03775 0,-0.64724 0.0904,-0.79245 1.07573,-1.728196 1.75298,-1.66497 3.50716,-2.40563 3.50716,-1.48068 0,0.36636 -0.38534,0.72732 -1.74846,1.63733 -1.18105,0.788636 -1.73821,1.428876 -1.47393,1.693246 0.2222,0.22219 1.92051,0.23238 5.52048,0.0331 2.46545,-0.13647 2.74996,-0.12329 3.01276,0.13952 0.31218,0.31228 0.35913,0.57385 0.15895,0.88841 -0.1296,0.20372 -8.07188,0.4496 -8.77965,0.27156 z m 48.58222,6.64418 c 0.57885,-0.16487 0.6451,-0.86045 0.59625,-6.26546 -0.0391,-4.327076 0.1467,-8.743386 0.40536,-9.632426 0.0776,-0.26677 -0.0574,-0.29557 -1.32546,-0.28271 -0.7764,0.008 -1.86999,0.0745 -2.43016,0.14808 -0.96443,0.12666 -6.23703,-0.24655 -9.33538,-0.66091 -2.25343,-0.30127 -3.32719,-0.36857 -4.08112,-0.25542 l -0.75639,0.11342 v 1.52294 c 0,0.83757 0.12079,2.49015 0.26834,3.67243 0.22518,1.80319 0.23592,2.44885 0.0667,4.007656 -0.13427,1.23697 -0.16038,2.87778 -0.0781,4.90645 l 0.12365,3.0481 8.08419,-0.10745 c 4.44631,-0.0591 8.25416,-0.15585 8.46192,-0.21501 z m -13.02322,-6.26585 c -0.21634,-0.26067 -0.18988,-1.13847 0.10361,-3.437236 l 0.11383,-0.89158 -0.51736,0.10345 c -0.41036,0.0821 -0.5555,0.032 -0.70229,-0.24232 -0.23008,-0.4299 0.14871,-0.87856 0.74185,-0.87856 0.21672,0 0.44134,-0.12323 0.49925,-0.27385 0.0674,-0.17549 0.22819,-0.24167 0.44778,-0.18424 0.1885,0.0493 0.93225,-0.0982 1.65289,-0.32791 1.71987,-0.5481 2.67681,-0.67679 3.0051,-0.40417 0.71373,0.59227 -0.22239,1.4219 -1.58164,1.40125 -0.40465,-0.006 -1.13029,0.12259 -1.61262,0.28602 -0.84551,0.28651 -0.87888,0.32155 -0.9282,0.98214 l -0.0512,0.68505 1.08882,-0.26054 c 1.15865,-0.2772 1.58498,-0.21897 1.76133,0.24047 0.10936,0.28502 -0.23074,0.665676 -1.39028,1.556306 l -0.50903,0.39082 1.27614,-0.10467 c 1.41649,-0.11619 2.11211,0.0586 2.24437,0.56399 0.1786,0.68284 -0.0736,0.76544 -2.5015,0.81724 -1.27638,0.0272 -2.45614,0.0926 -2.62176,0.14513 -0.16755,0.0532 -0.39798,-0.021 -0.51911,-0.16679 z m 1.47869,-2.32492 c -0.33434,-0.21252 -0.45993,-0.1565 -0.45993,0.20518 0,0.2961 0.0437,0.3136 0.33268,0.13313 0.23998,-0.1499 0.27549,-0.24413 0.12725,-0.33831 z m -56.896625,8.52753 c 0.93344,-0.0832 3.950565,-0.17523 6.704505,-0.20449 2.75394,-0.0293 5.52273,-0.0797 6.15286,-0.11207 l 1.14578,-0.0589 v -0.93225 c 0,-0.51284 0.0748,-1.82385 0.16609,-2.91338 0.0913,-1.08954 0.18682,-4.38714 0.21216,-7.327776 l 0.0461,-5.34662 -3.30982,-0.0516 c -1.9584,-0.0306 -4.36928,-0.18647 -5.90476,-0.38193 -2.94419,-0.37461 -4.542015,-0.41274 -6.082055,-0.14451 l -1.06666,0.18576 -0.0852,0.70539 c -0.0469,0.38797 -0.13266,3.95151 -0.19067,7.919026 -0.058,3.96755 -0.16393,7.5765 -0.23537,8.01994 -0.15164,0.94147 -0.33959,0.8919 2.44704,0.6434 z m 2.652855,-5.24679 c -0.45373,-0.45373 -0.45659,-1.01423 -0.0192,-3.66719 0.34173,-2.072936 0.32338,-2.635026 -0.087,-2.635026 -0.30027,0 -0.76449,-0.46708 -0.76449,-0.76925 0,-0.659 1.85856,-1.44129 3.40581,-1.43365 1.47917,0.007 2.87191,1.05744 2.87372,2.167 7.8e-4,0.52141 -0.54334,1.55312 -1.08668,2.05992 l -0.44134,0.41179 0.8915,0.481696 c 1.08072,0.58401 1.4856,1.0387 1.4856,1.66846 0,1.04919 -1.7077,1.82893 -4.34866,1.98525 -1.42007,0.0841 -1.57807,0.0618 -1.90956,-0.26972 z m 3.2343,-1.13179 c 1.52278,-0.31996 1.89025,-0.60275 1.29258,-0.99421 -0.22695,-0.14871 -0.94227,-0.3975 -1.58975,-0.55288 -0.64748,-0.15541 -1.27255,-0.35619 -1.38908,-0.44611 -0.46971,-0.36191 -0.21305,-0.780686 0.81476,-1.328476 1.56473,-0.83407 2.08114,-1.78063 1.33834,-2.45297 -0.40251,-0.36413 -1.80136,-0.42069 -2.57734,-0.10398 -0.38487,0.15709 -0.46684,0.29546 -0.46684,0.78864 0,0.39495 0.0794,0.5983 0.23382,0.5983 0.52189,0 0.61602,0.41498 0.36914,1.62621 -0.13165,0.645966 -0.29169,1.613816 -0.3558,2.150476 l -0.11654,0.97611 h 0.60244 c 0.33148,0 1.16126,-0.11746 1.84427,-0.26111 z m 74.05764,6.18362 c 1.40029,0.0221 3.71081,-0.0123 5.13446,-0.0763 l 2.58844,-0.1164 v -0.9599 c 0,-0.52809 0.15006,-2.06532 0.33339,-3.41655 0.18341,-1.35105 0.4249,-3.13422 0.5369,-3.9627 0.19075,-1.412676 0.092,-3.809816 -0.28763,-6.980506 l -0.0813,-0.67902 -8.69122,0.13769 c -4.78019,0.0757 -8.70956,0.156 -8.73194,0.17839 -0.24546,0.24539 -0.43944,4.36305 -0.45588,9.675826 l -0.02,6.42751 3.56443,-0.1341 c 1.96031,-0.0737 4.71014,-0.11603 6.11036,-0.094 z m -5.09996,-5.08665 c -0.062,-0.10041 -0.10346,-1.11241 -0.092,-2.24898 0.0155,-1.552476 -0.0432,-2.187326 -0.23664,-2.552416 -0.14165,-0.26754 -0.25761,-0.54842 -0.25761,-0.62468 0,-0.27675 0.55954,-0.68854 0.80667,-0.59386 0.13958,0.0536 1.10359,-0.18603 2.14214,-0.53253 1.03853,-0.34635 2.23222,-0.63422 2.65226,-0.63931 0.73064,-0.009 0.76377,0.0119 0.76377,0.47916 0,0.47948 -0.038,0.49917 -2.03681,1.05872 -1.12028,0.31359 -2.16597,0.57098 -2.32373,0.57225 -0.39868,0.003 -0.49282,0.21854 -0.36794,0.84297 l 0.10725,0.53635 1.30354,-0.1137 c 1.09668,-0.0957 1.34881,-0.0683 1.58927,0.17221 0.62341,0.623406 0.0943,1.109556 -1.21132,1.112736 -1.5335,0.004 -1.72772,0.0998 -1.72772,0.85504 0,1.24428 -0.71326,2.31984 -1.11115,1.67604 z"
       id="path175" />
  </g>
</svg>
