<?xml version="1.0" encoding="UTF-8" standalone="no"?>
<!-- Created with Inkscape (http://www.inkscape.org/) -->

<svg
   width="199.74223mm"
   height="88.885162mm"
   viewBox="0 0 199.74223 88.885164"
   version="1.1"
   id="svg503"
   sodipodi:docname="linked-list-2.svg"
   inkscape:version="1.1.2 (0a00cf5339, 2022-02-04)"
   xmlns:inkscape="http://www.inkscape.org/namespaces/inkscape"
   xmlns:sodipodi="http://sodipodi.sourceforge.net/DTD/sodipodi-0.dtd"
   xmlns="http://www.w3.org/2000/svg"
   xmlns:svg="http://www.w3.org/2000/svg">
  <sodipodi:namedview
     id="namedview505"
     pagecolor="#505050"
     bordercolor="#ffffff"
     borderopacity="1"
     inkscape:pageshadow="0"
     inkscape:pageopacity="0"
     inkscape:pagecheckerboard="1"
     inkscape:document-units="mm"
     showgrid="false"
     fit-margin-top="0"
     fit-margin-left="0"
     fit-margin-right="0"
     fit-margin-bottom="0"
     inkscape:zoom="0.74742565"
     inkscape:cx="431.48105"
     inkscape:cy="269.59203"
     inkscape:window-width="1571"
     inkscape:window-height="978"
     inkscape:window-x="0"
     inkscape:window-y="65"
     inkscape:window-maximized="0"
     inkscape:current-layer="layer1" />
  <defs
     id="defs500" />
  <g
     inkscape:label="Layer 1"
     inkscape:groupmode="layer"
     id="layer1"
     transform="translate(-5.1162017,-97.690171)">
    <path
       style="fill:#000000;stroke-width:0.1842"
       d="m 7.9692277,186.39176 c -1.2284319,-0.39999 -1.9939147,-1.25895 -2.4699793,-2.77169 -0.3783353,-1.2024 -0.4041732,-1.60963 -0.3738637,-5.89655 0.019552,-2.76376 0.145841,-5.56575 0.3159015,-7.00794 0.2756666,-2.33756 0.4790114,-14.92444 0.2472655,-15.30499 -0.053416,-0.0877 -0.1524268,-1.48136 -0.2199776,-3.09721 -0.067541,-1.61584 -0.1609396,-2.99927 -0.207517,-3.07479 -0.2269563,-0.36723 -0.070816,-4.9478 0.2094441,-6.14485 0.3539941,-1.51171 0.436391,-6.22089 0.1644008,-9.39423 -0.1880497,-2.19411 -0.051732,-4.56394 0.3844159,-6.68195 0.3267811,-1.58688 0.8234075,-6.11603 0.8234075,-7.50919 0,-1.04171 0.2494171,-1.92066 0.6101841,-2.14997 0.1203024,-0.0765 1.648583,-0.14035 3.3961865,-0.1419 1.943586,-0.002 3.177462,-0.0727 3.177462,-0.18278 0,-0.099 -0.207227,-0.31573 -0.460498,-0.48171 -0.881445,-0.57758 -0.383733,-1.72067 0.588275,-1.35102 0.232915,0.0885 0.833324,0.47413 1.334235,0.85654 0.50092,0.38241 1.127681,0.84826 1.392814,1.03447 0.346594,0.24372 0.46613,0.47206 0.425371,0.8124 -0.04771,0.39862 -0.274937,0.56413 -1.436669,1.04792 -0.966012,0.40207 -1.400205,0.68344 -1.447381,0.93758 -0.166337,0.89654 -0.831378,1.07619 -1.469233,0.39723 -0.47236,-0.50275 -0.502651,-0.81344 -0.120546,-1.2355 0.259595,-0.28687 0.16123,-0.31704 -1.353533,-0.41517 -2.0952365,-0.13574 -3.1628318,-0.002 -3.163683,0.39758 -0.00281,1.17275 -0.6283604,6.5593 -0.954917,8.21873 -0.4435287,2.25377 -0.4986658,4.50367 -0.2488558,10.15391 0.1281792,2.89893 0.1019858,3.59006 -0.1989481,5.24973 -0.4185795,2.30859 -0.4335003,4.34253 -0.070067,9.55554 0.4007493,5.74813 0.3683163,15.67639 -0.062771,19.21239 -0.2131299,1.74825 -0.3400555,4.12733 -0.3538164,6.63123 -0.024509,4.46077 0.1681708,5.5399 1.158505,6.48871 0.5276843,0.50551 0.6727956,0.54689 1.8948195,0.5393 0.7278488,-0.005 2.5666988,-0.15835 4.0863638,-0.34191 4.203082,-0.50758 7.908089,-0.56827 12.640521,-0.20677 2.789061,0.21307 4.955534,0.27735 6.700528,0.19883 1.418259,-0.0638 4.651055,-0.21561 7.183823,-0.33729 3.041753,-0.14615 12.702675,-0.22432 28.458982,-0.23026 13.119692,-0.005 24.97299,-0.0734 26.340674,-0.15199 3.685763,-0.21194 8.880199,-0.64447 12.525649,-1.04343 1.77282,-0.19393 5.0471,-0.47931 7.27591,-0.63379 2.22877,-0.15469 4.42541,-0.32396 4.88131,-0.3762 0.45594,-0.0522 2.85971,-0.34272 5.34182,-0.64551 2.48221,-0.30292 8.20154,-0.92068 12.70984,-1.37275 12.35638,-1.23894 15.96613,-1.8786 18.78448,-3.32823 1.11697,-0.57448 3.57632,-2.57411 4.82536,-3.92319 1.40378,-1.51619 3.85554,-5.24891 4.58226,-6.97623 1.16611,-2.77169 0.71352,-4.82946 -1.57524,-7.15971 -1.18551,-1.20722 -2.10566,-1.64687 -3.88369,-1.85584 l -0.94291,-0.11081 -0.13152,1.44964 c -0.0723,0.79723 -0.17144,2.69273 -0.22025,4.21212 -0.0488,1.5193 -0.15817,2.83204 -0.24304,2.91686 -0.0848,0.0849 -0.35043,0.12659 -0.58992,0.0927 l -0.43576,-0.0616 0.0152,-2.9472 c 0.008,-1.62102 0.0719,-3.55672 0.14121,-4.30167 l 0.12606,-1.35447 -1.3386,0.12618 c -2.25231,0.21233 -4.87996,0.63344 -5.38359,0.86309 -0.52836,0.24074 -0.98637,-0.007 -0.7425,-0.40137 0.32767,-0.53034 2.85111,-1.11068 6.04917,-1.39102 l 1.44593,-0.12673 -0.0644,-2.28962 c -0.0608,-2.16274 -0.0888,-2.30825 -0.50509,-2.62204 -0.31887,-0.24047 -0.41663,-0.45862 -0.35353,-0.78827 0.0838,-0.43827 0.0546,-0.45344 -0.75645,-0.39103 -0.46396,0.0356 -2.50135,0.19077 -4.52767,0.34483 -6.69383,0.50896 -6.37084,0.46482 -6.54822,0.89412 -0.21142,0.51172 -1.39758,7.21312 -1.73481,9.80157 -0.25282,1.94032 -0.41043,5.16229 -0.25991,5.31156 0.0876,0.087 4.05153,-0.60517 8.26828,-1.44343 4.48079,-0.89102 5.02573,-0.95275 5.31736,-0.60137 0.64835,0.78137 -0.77559,1.58791 -2.81965,1.59756 -0.51361,0.002 -1.26516,0.0833 -1.67041,0.17975 -0.40525,0.0964 -2.60182,0.5162 -4.8813,0.93275 -2.7324,0.4993 -4.1947,0.84585 -4.29181,1.01757 -0.1661,0.2935 -0.88526,0.34931 -1.15137,0.0892 -0.10567,-0.10329 -0.51594,-0.10654 -1.03602,-0.008 -1.39395,0.2637 -6.00918,0.72137 -10.33138,1.02481 -1.70119,0.1194 -1.81058,0.1521 -2.0286,0.60724 -0.3168,0.66103 -1.30033,0.69586 -1.39214,0.0492 -0.0475,-0.33609 -0.14619,-0.40966 -0.4443,-0.33181 -0.50223,0.13135 -1.06034,-0.17776 -1.06034,-0.58723 0,-0.47241 0.36802,-0.76724 0.95792,-0.76724 0.4831,0 0.51569,-0.0491 0.51569,-0.77344 0,-1.70618 1.46843,-11.80533 1.9898,-13.68614 0.10505,-0.37896 0.28759,-0.57206 0.5806,-0.61482 0.56818,-0.0827 0.73136,0.23303 0.54128,1.04792 -0.48206,2.06653 -1.95204,13.58963 -1.75834,13.78349 0.13188,0.13186 7.67686,-0.45965 10.70524,-0.83931 l 2.39661,-0.30047 0.21261,-2.57824 c 0.11693,-1.41791 0.31034,-3.24134 0.43008,-4.05168 0.26301,-1.78377 1.37506,-7.02436 1.75239,-8.25845 l 0.27206,-0.89033 -0.68663,0.10388 c -0.37757,0.0571 -1.05956,0.1514 -1.51549,0.20948 -2.05265,0.26154 -6.79306,1.02585 -7.46301,1.20309 -0.91059,0.24115 -1.74695,-0.0161 -1.74695,-0.53723 0,-0.29118 0.28732,-0.41517 1.70376,-0.73586 2.25928,-0.51103 4.39973,-0.85999 7.96666,-1.29895 2.89029,-0.35551 3.95189,-0.46516 6.35491,-0.65585 0.65844,-0.0523 2.77223,-0.22508 4.69712,-0.38413 4.39248,-0.36241 6.87524,-0.31194 7.16336,0.14609 0.28759,0.45724 -0.0224,0.88964 -0.95791,1.3355 -0.60724,0.28933 -0.75361,0.44758 -0.68276,0.73689 0.0497,0.20262 0.0915,1.37791 0.0929,2.61169 l 0.003,2.24308 1.05905,0.13175 c 3.11471,0.38759 5.24054,1.97136 6.58395,4.90587 0.93025,2.03205 0.81077,3.5971 -0.49007,6.40931 -0.84361,1.82411 -3.03809,5.15921 -4.39066,6.67319 -1.26981,1.42136 -4.31537,3.84695 -5.58318,4.4467 -1.39266,0.65896 -3.91242,1.31723 -7.12609,1.8617 -2.57919,0.43724 -4.54288,0.65758 -14.82815,1.66481 -2.63407,0.25797 -6.40557,0.67241 -8.38111,0.92102 -5.7673,0.72586 -6.50757,0.80138 -10.86784,1.10723 -2.27946,0.15994 -6.01741,0.49206 -8.30651,0.73793 -10.116594,1.08654 -10.465162,1.09722 -35.348998,1.07239 -16.265825,-0.0162 -24.432405,0.0463 -28.090581,0.21493 -9.237843,0.42585 -14.584061,0.51931 -16.762246,0.29268 -5.208703,-0.54173 -7.972908,-0.47517 -14.64394,0.3524 -2.8230479,0.35035 -3.400378,0.36379 -4.2148143,0.0987 z m 9.9694513,-8.60593 c -0.125447,-0.12544 -0.228097,-0.33585 -0.228097,-0.46758 0,-0.141 -0.217938,-0.23945 -0.530032,-0.23945 -1.121788,0 -1.235991,-1.15895 -0.134578,-1.36551 l 0.612223,-0.11485 0.125738,-1.51619 c 0.198255,-2.39066 0.999118,-8.06769 1.510815,-10.70928 0.492127,-2.54066 0.765745,-3.11065 1.320474,-2.75135 0.368147,0.23846 0.368821,0.16612 -0.02358,2.45825 -0.692936,4.04767 -1.6447,11.80464 -1.495941,12.19227 0.07718,0.20124 0.479685,0.22201 2.072327,0.10696 3.577042,-0.25839 8.214832,-0.69585 9.646824,-0.90998 l 1.407398,-0.21051 0.126271,-1.95136 c 0.235927,-3.64579 1.134304,-8.95497 2.102823,-12.4283 l 0.353274,-1.26688 -1.225074,0.11703 c -2.239113,0.2139 -8.591353,1.27309 -8.708587,1.45205 -0.07119,0.10871 -0.373957,0.0827 -0.790329,-0.0679 -0.510771,-0.18471 -0.662065,-0.33424 -0.621456,-0.61482 0.04443,-0.3068 0.354817,-0.44034 1.803591,-0.77585 3.80659,-0.88171 10.088436,-1.63101 19.845356,-2.36721 4.470227,-0.33736 5.594129,-0.34381 6.017096,-0.0345 0.563532,0.41206 0.301027,1.06102 -0.626882,1.55067 -0.455952,0.2405 -0.820601,0.5162 -0.810508,0.61241 0.0101,0.0963 0.03087,1.46653 0.04603,3.04479 l 0.0276,2.86962 0.506637,-0.10238 c 1.562565,-0.3158 7.209268,-0.81033 13.018211,-1.13998 2.054711,-0.11661 2.163853,-0.14166 1.692653,-0.38862 -0.389486,-0.20411 -0.490864,-0.3762 -0.446634,-0.75861 0.08962,-0.77585 1.086707,-0.77827 2.254108,-0.005 0.497319,0.32936 1.242399,0.64413 1.656189,0.6993 0.623009,0.0831 0.762919,0.1777 0.81568,0.55069 0.07381,0.52275 -0.378878,0.93136 -1.032141,0.93136 -0.24067,0 -0.701374,0.19745 -1.023871,0.43862 -1.313775,0.98309 -2.373073,1.33998 -2.777368,0.93585 -0.365173,-0.36517 -0.370608,-0.53655 -0.02816,-0.87896 0.233925,-0.23392 0.123978,-0.25888 -0.874906,-0.19861 -6.000267,0.36206 -7.820977,0.50344 -10.50665,0.81585 -1.705834,0.19845 -3.127798,0.36068 -3.160175,0.36068 -0.139807,0 -0.27982,1.94998 -0.323011,4.49961 -0.04687,2.76789 -0.159022,3.23686 -0.774304,3.23686 -0.642664,0 -0.712488,-0.48206 -0.5824,-4.01871 l 0.127187,-3.45369 -2.816424,0.37724 c -1.904455,0.25506 -2.976578,0.48516 -3.311077,0.71033 -0.272841,0.18366 -0.727231,0.30641 -1.01301,0.27364 -0.408607,-0.0468 -0.530678,-0.16535 -0.576189,-0.5593 -0.04462,-0.3869 0.127777,-0.68517 0.76292,-1.32033 1.078428,-1.07861 1.847306,-1.47929 2.33557,-1.21826 0.201707,0.10795 0.366716,0.3593 0.366716,0.55827 0,0.43447 0.105915,0.43827 2.394543,0.0856 0.962578,-0.14834 1.812132,-0.27119 1.888168,-0.273 0.07596,-0.002 0.138151,-1.20171 0.138151,-2.66687 0,-2.64203 -0.0037,-2.6672 -0.486457,-3.11444 -0.335163,-0.31073 -0.455166,-0.57103 -0.385604,-0.8362 0.08663,-0.33106 0.01862,-0.38517 -0.482576,-0.38517 -1.330586,0 -11.169539,0.85793 -11.296651,0.98516 -0.03386,0.0339 -0.34551,1.5893 -0.692572,3.45672 -1.30835,7.0403 -1.767651,11.95196 -1.117232,11.95196 0.254609,0 3.102793,-0.52103 6.632435,-1.21377 6.516481,-1.27862 6.907511,-1.30344 6.907511,-0.44207 0,0.60378 -0.784641,0.93378 -2.638824,1.10895 -0.95922,0.0907 -2.31179,0.28734 -3.006251,0.43689 -1.630846,0.35138 -3.713201,0.73689 -6.189803,1.1462 -1.266712,0.20941 -1.980238,0.40895 -1.980238,0.55378 0,0.33444 -0.665939,0.48654 -1.10378,0.25212 -0.283964,-0.15196 -0.907479,-0.13408 -2.447556,0.0702 -2.117819,0.28084 -3.373174,0.41103 -5.474331,0.56724 -5.405574,0.40241 -5.280295,0.37999 -5.571304,0.9893 -0.258921,0.54206 -0.846551,0.7224 -1.200012,0.36913 z m 53.714655,-4.65525 c -0.158367,-0.34758 -0.35535,-0.47275 -0.744051,-0.47275 -0.977059,0 -0.89223,-1.13688 0.09382,-1.25515 0.545421,-0.0653 0.528873,-0.004 0.869471,-3.2579 0.430853,-4.11592 1.59411,-11.15804 1.934194,-11.70834 0.05865,-0.0949 0.317847,-0.17261 0.575683,-0.17261 0.551895,0 0.590174,-0.61482 -0.36594,5.89441 -0.725416,4.93908 -1.15654,8.79227 -1.001111,8.94782 0.197564,0.19757 11.80703,-0.82447 12.867178,-1.13274 0.238613,-0.0694 0.317071,-0.49413 0.414305,-2.24653 0.188779,-3.39547 1.190938,-9.18499 2.13722,-12.34695 l 0.347325,-1.16033 -0.767579,0.10028 c -2.190234,0.28614 -6.110409,0.8824 -7.490959,1.13964 -1.98515,0.36965 -2.711193,0.38241 -3.040209,0.0533 -0.446373,-0.44654 -0.03162,-0.73447 1.586102,-1.10102 2.763383,-0.6262 10.115648,-1.61825 14.255979,-1.92308 0.810504,-0.0597 2.878929,-0.22939 4.596569,-0.37689 4.154009,-0.35724 6.981169,-0.35758 7.276999,-9.2e-4 0.37707,0.45448 0.13345,0.91102 -0.73007,1.36791 l -0.8281,0.43828 -0.0248,4.44315 c -0.0136,2.44376 -0.0965,5.81086 -0.18419,7.48249 l -0.15938,3.03927 h -0.55267 -0.55266 l 0.0152,-2.76306 c 0.008,-1.51964 0.0498,-4.69457 0.0921,-7.05537 l 0.0769,-4.29236 -0.44069,-0.33331 c -0.33361,-0.25223 -0.41766,-0.45414 -0.34602,-0.82965 l 0.0948,-0.4962 -0.94344,0.10777 c -0.51905,0.0593 -2.559785,0.22957 -4.535392,0.37827 -6.493269,0.48931 -6.431069,0.48172 -6.526731,0.80379 -0.165449,0.55723 -1.389297,7.66159 -1.653607,9.59832 -0.14513,1.06379 -0.323273,2.79549 -0.396203,3.84854 l -0.13222,1.91447 0.44017,-0.11036 c 0.242027,-0.0607 1.186017,-0.23434 2.097902,-0.38586 0.911885,-0.15154 3.602572,-0.6524 5.979496,-1.11344 2.376955,-0.46102 4.508415,-0.83792 4.736675,-0.83792 0.60026,0 0.91706,0.66655 0.52345,1.10137 -0.36259,0.40069 -1.612483,0.74034 -2.72325,0.74034 -0.443781,0 -1.836951,0.2006 -3.095879,0.44585 -1.258948,0.24518 -3.488721,0.66172 -4.955026,0.92516 -1.762739,0.31706 -2.717581,0.57172 -2.818211,0.75138 -0.173849,0.31064 -0.889901,0.36344 -1.167401,0.086 -0.125289,-0.12529 -0.511024,-0.12444 -1.180844,0.003 -1.624897,0.30813 -9.947263,1.10447 -11.542804,1.10447 -0.261719,0 -0.492146,0.18012 -0.647837,0.50654 -0.340598,0.71412 -1.168692,0.7993 -1.464294,0.15024 z m -48.915551,-1.53171 c 0.05257,-0.2786 0.320691,-1.08688 0.5956,-1.79583 0.375772,-0.96896 0.507927,-1.65585 0.532231,-2.76308 0.02965,-1.35963 0.06193,-1.47412 0.417157,-1.47963 0.211802,-0.003 0.504298,-0.10484 0.649905,-0.2257 0.491631,-0.40792 2.490747,-0.82102 2.903648,-0.59999 0.765773,0.41 0.313188,1.34447 -0.566114,1.16861 -0.294049,-0.0588 -0.919125,0.0408 -1.446707,0.23057 l -0.92921,0.33409 v 0.88447 c 0,0.48655 0.06717,0.88448 0.149274,0.88448 0.08213,0 0.68172,-0.20866 1.332401,-0.46379 0.650681,-0.25503 1.288172,-0.42344 1.416445,-0.37413 0.24662,0.0946 0.331037,0.83757 0.09509,0.83826 -0.07596,1.8e-4 -0.635423,0.45758 -1.243428,1.0162 l -1.10507,1.01585 1.911957,-0.1206 c 2.205744,-0.13913 2.406956,0.0636 0.842828,0.8493 -0.705762,0.35448 -1.199984,0.45896 -2.179364,0.46034 -1.115931,0.002 -1.299808,-0.048 -1.546279,-0.41862 l -0.27982,-0.42068 -0.332843,0.7431 c -0.267921,0.59861 -0.428009,0.74308 -0.823174,0.74308 -0.435259,0 -0.479741,-0.0569 -0.394911,-0.50654 z m 2.43851,-2.40445 c -0.123773,-0.12377 -0.650166,0.33565 -0.650166,0.56759 0,0.1046 0.16629,0.0397 0.36956,-0.14423 0.203242,-0.18394 0.329485,-0.37449 0.280859,-0.4231 z m 52.343553,-2.31101 c -0.0565,-0.14734 0.02095,-0.74171 0.172156,-1.32067 0.151229,-0.57896 0.234637,-1.15792 0.185356,-1.28654 -0.0493,-0.12842 0.02161,-0.3924 0.157572,-0.58654 0.431376,-0.61585 0.538966,-1.66481 0.204869,-1.99894 -0.162595,-0.1626 -0.295601,-0.35965 -0.295601,-0.43827 0,-0.54758 2.368161,-1.4786 3.923543,-1.5424 0.744818,-0.0305 0.957396,0.0247 1.006284,0.26159 0.04677,0.22631 -0.291991,0.4262 -1.374816,0.81171 -0.790338,0.28128 -1.529983,0.60207 -1.644036,0.71275 -0.249932,0.24287 -0.493699,1.95136 -0.278529,1.95136 0.08354,0 0.633617,-0.16578 1.222744,-0.36827 1.135071,-0.39069 2.118333,-0.48172 2.118333,-0.19674 0,0.31994 -1.037314,0.9124 -2.402297,1.37205 l -1.359549,0.45792 -0.37551,1.16378 c -0.289652,0.89758 -0.464998,1.17654 -0.766549,1.2193 -0.215048,0.0307 -0.437317,-0.0647 -0.493699,-0.2121 z m 58.077834,-3.34513 c -0.13035,-0.15706 -0.17603,-0.4831 -0.10918,-0.77895 l 0.11493,-0.50896 -0.41923,0.50103 c -0.23052,0.27551 -0.6949,0.59688 -1.03161,0.71447 -0.52914,0.18448 -0.6794,0.16394 -1.10276,-0.15083 -1.08644,-0.80758 -0.60671,-2.47238 1.44438,-5.01039 0.63673,-0.78792 1.10482,-1.54722 1.10482,-1.79239 0,-0.57758 0.86792,-0.82206 1.21809,-0.3431 0.29016,0.39689 0.10466,0.81619 -1.24472,2.81169 -0.49655,0.73447 -0.81336,1.3355 -0.70397,1.3355 0.10945,0 0.56689,-0.0926 1.01663,-0.20588 0.68663,-0.17287 0.89172,-0.15742 1.27887,0.0964 0.59895,0.3924 0.58162,0.80274 -0.0905,2.13411 -0.61757,1.22309 -1.11748,1.62894 -1.47574,1.19735 z m 0.22867,-1.65618 c 0.26456,-0.36 0.13341,-0.42552 -0.42776,-0.21426 -0.50533,0.19042 -0.60517,0.1693 -0.89611,-0.18989 l -0.32741,-0.40413 -0.20907,0.45896 c -0.11498,0.25237 -0.20907,0.50413 -0.20907,0.5593 0,0.17698 1.92903,-0.0186 2.06942,-0.20998 z m -42.153731,-0.046 c -0.05576,-0.1773 -0.177451,-0.51276 -0.270512,-0.74551 -0.257388,-0.64344 -0.217368,-0.75034 0.429562,-1.14447 1.055411,-0.64344 1.980224,-0.40482 1.980224,0.51137 0,0.6331 -0.305162,1.1062 -0.91731,1.42274 -0.707324,0.36586 -1.097312,0.35172 -1.221702,-0.0442 z m -67.815654,-5.51138 c -0.129161,-0.0519 -0.352759,-0.37655 -0.496804,-0.72172 -0.144148,-0.34482 -0.852145,-1.25067 -1.573436,-2.01273 -1.412824,-1.49274 -1.574718,-2.00963 -0.757232,-2.41549 0.63258,-0.31419 1.334216,-0.009 2.240151,0.97344 0.419992,0.45551 0.794988,0.79723 0.833268,0.75861 0.03835,-0.0383 0.244646,-1.10137 0.458524,-2.36239 0.252944,-1.49136 0.443267,-3.74168 0.544392,-6.4374 0.0855,-2.27963 0.247032,-4.45002 0.358962,-4.82343 0.263271,-0.87757 1.038604,-1.52032 2.863796,-2.37514 4.142717,-1.93963 10.360557,-3.3741 19.893664,-4.58994 3.99797,-0.51 8.921371,-1.24999 12.892343,-1.93757 6.049847,-1.04791 12.7284,-2.16652 14.737741,-2.46859 5.637394,-0.84757 6.062354,-0.90826 8.565327,-1.21998 0.455943,-0.0568 1.367575,-0.17969 2.026273,-0.27305 1.413863,-0.20047 1.816015,-0.25467 4.60502,-0.62068 2.790658,-0.36621 3.299567,-0.42586 6.447019,-0.75586 1.468947,-0.15388 2.919587,-0.31728 3.223517,-0.3631 0.30387,-0.0458 1.25714,-0.13226 2.11833,-0.19207 0.86119,-0.0598 1.9386,-0.14518 2.39454,-0.18972 2.47083,-0.24135 6.05664,-0.52378 9.21001,-0.7255 3.69557,-0.23648 4.47383,-0.27727 7.18383,-0.37655 1.57033,-0.0575 3.35246,-0.14011 3.96031,-0.18347 1.16172,-0.0828 7.23232,-0.36965 11.60464,-0.54861 1.41826,-0.058 3.86362,-0.18265 5.43392,-0.27706 1.57032,-0.0944 3.76689,-0.2193 4.8813,-0.27754 1.11438,-0.0582 2.3992,-0.14289 2.85511,-0.1881 0.45594,-0.0452 2.36248,-0.21066 4.23662,-0.36758 1.8742,-0.15702 4.89974,-0.44689 6.72334,-0.64379 1.8235,-0.19708 5.0563,-0.52723 7.18382,-0.73378 5.55053,-0.53896 12.37244,-1.55033 16.20966,-2.40342 6.40458,-1.42412 8.25494,-2.11549 3.18748,-1.19102 -1.60498,0.29274 -2.7148,0.58551 -2.83939,0.74896 -0.22798,0.29898 -1.00809,0.35999 -1.27834,0.0998 -0.10597,-0.10199 -0.75619,-0.07 -1.64869,0.0812 -1.47748,0.25023 -6.10221,0.69758 -9.6102,0.92964 -1.76533,0.11679 -1.88015,0.149 -1.9823,0.55655 -0.15744,0.62723 -0.69,0.85999 -1.18086,0.51585 -0.21828,-0.15289 -0.39697,-0.40654 -0.39697,-0.56344 0,-0.184 -0.10301,-0.24603 -0.28965,-0.17442 -0.44586,0.17104 -0.99982,-0.21864 -0.99982,-0.70309 0,-0.44 0.30543,-0.65793 0.92146,-0.65793 0.2837,0 0.35792,-0.20227 0.45749,-1.24343 0.39905,-4.1746 1.70894,-12.48133 2.12041,-13.44663 0.17685,-0.41482 0.80559,-0.56654 1.00576,-0.24278 0.0584,0.0944 -0.0204,0.89689 -0.17494,1.78343 -0.49448,2.83548 -1.56722,11.09897 -1.56722,12.07244 v 0.94033 l 1.42756,-0.11374 c 0.78517,-0.0626 2.13205,-0.16147 2.99327,-0.21981 2.00274,-0.13565 8.0961,-0.80068 8.51928,-0.92999 0.27129,-0.0828 0.32224,-0.3274 0.32224,-1.54273 0,-2.65721 0.98274,-8.77059 2.04023,-12.69281 0.20168,-0.74793 0.34111,-1.3855 0.30982,-1.41689 -0.065,-0.065 -4.15494,0.48828 -7.37988,0.99861 -1.1961,0.18922 -2.25799,0.42724 -2.35989,0.52896 -0.25714,0.25714 -1.52687,-0.19666 -1.60317,-0.57309 -0.0339,-0.16703 0.12383,-0.36896 0.36853,-0.47138 1.45938,-0.61275 9.8614,-1.845836 15.71621,-2.306519 0.70913,-0.05582 2.77822,-0.224761 4.5979,-0.375515 4.45617,-0.368961 6.79835,-0.363787 7.17779,0.01551 0.1592,0.159195 0.2894,0.330427 0.2894,0.380339 0,0.332965 -0.44793,0.783439 -1.04793,1.054123 l -0.70189,0.316534 -0.026,3.907048 c -0.0144,2.14894 -0.0972,5.52342 -0.18421,7.49895 l -0.15819,3.59192 -0.47637,0.0554 c -0.8868,0.10307 -0.92767,-0.14062 -0.72103,-4.29409 0.10468,-2.10376 0.19444,-5.1859 0.19944,-6.84888 l 0.009,-3.02375 -0.48672,-0.38276 c -0.35638,-0.280253 -0.45879,-0.493439 -0.38276,-0.796193 0.0972,-0.387237 0.0545,-0.408614 -0.6768,-0.340333 -0.4293,0.04015 -2.4385,0.197636 -4.46464,0.349993 -6.40984,0.481718 -6.51558,0.493791 -6.61,0.739643 -0.15718,0.40966 -1.38801,7.27685 -1.6818,9.38313 -0.15541,1.11447 -0.33542,2.92962 -0.39982,4.03378 l -0.11734,2.00756 0.44406,-0.11139 c 0.24428,-0.0613 1.19015,-0.23551 2.10203,-0.38723 3.31424,-0.55138 6.19209,-1.16171 6.38419,-1.35378 0.61473,-0.61482 0.21107,-3.40858 -0.63129,-4.36802 -0.37835,-0.43103 -0.46421,-0.45172 -1.07533,-0.26001 -0.5237,0.16427 -0.77689,0.15445 -1.1974,-0.0464 -0.56767,-0.27133 -0.80688,-0.97241 -0.45232,-1.32654 0.30336,-0.30323 2.23058,-0.31104 2.81006,-0.0114 1.19636,0.61861 1.99652,2.37066 2.03998,4.46701 l 0.0281,1.35413 0.92818,-0.14403 c 0.51051,-0.0792 1.25973,-0.14974 1.66498,-0.15672 0.69801,-0.012 0.7368,0.0163 0.7368,0.53757 0,0.73379 -0.67447,1.04999 -2.48298,1.16309 -1.21137,0.0759 -1.46481,0.15632 -2.02033,0.64069 -0.34939,0.30466 -1.23205,0.83757 -1.96187,1.18412 -2.2417,1.06447 -9.16835,2.62824 -15.73096,3.55158 -3.76293,0.5293 -4.89973,0.66171 -10.31521,1.2024 -1.57032,0.15672 -3.93266,0.40171 -5.24971,0.54447 -1.31714,0.14268 -3.09916,0.3097 -3.9603,0.37103 -0.8612,0.0615 -1.77283,0.14846 -2.02628,0.19332 -1.22869,0.21765 -15.18731,1.04137 -21.73566,1.28275 -1.46895,0.0541 -3.12679,0.13643 -3.68401,0.18288 -1.04999,0.0875 -3.16533,0.19449 -7.27592,0.36792 -5.91963,0.24979 -8.14986,0.37655 -11.42042,0.64931 -1.11438,0.0929 -2.56497,0.21053 -3.22351,0.26138 -5.23879,0.40447 -13.490735,1.28412 -18.327937,1.95411 -1.418259,0.1964 -3.200494,0.44034 -3.960308,0.54241 -6.702623,0.89895 -12.627705,1.81791 -19.617361,3.04237 -6.622106,1.16033 -12.721992,2.11791 -17.009324,2.67032 -2.315663,0.29842 -5.245364,0.70861 -6.510233,0.91136 -6.498923,1.04275 -13.770971,3.29582 -15.005399,4.64967 -0.516459,0.56655 -0.801714,2.60066 -0.802753,5.72848 -5.23e-4,1.46929 -0.146103,3.41824 -0.367493,4.91984 -0.201689,1.36757 -0.366978,2.51169 -0.367502,2.54204 -5.71e-4,0.0305 0.268454,-0.1486 0.597929,-0.39793 0.617836,-0.46793 0.857057,-0.54551 1.565672,-0.50827 0.61473,0.0324 0.505083,0.45758 -0.319915,1.23929 -0.403958,0.38276 -0.82757,0.99068 -0.941624,1.35102 -0.329475,1.04206 -0.682234,1.48412 -1.183435,1.48412 -0.250942,0 -0.456195,0.077 -0.456195,0.17105 0,0.2052 -0.527067,0.75585 -0.703966,0.7355 -0.06876,-0.008 -0.230661,-0.057 -0.359729,-0.10897 z m -3.138743,-27.82708 c -0.133184,-0.0476 -0.317061,-0.28348 -0.408616,-0.52413 -0.104849,-0.27579 -0.265442,-0.39965 -0.434193,-0.3349 -0.384201,0.14744 -1.033385,-0.24961 -1.033385,-0.63206 0,-0.47241 0.368148,-0.76723 0.957845,-0.76723 0.483979,0 0.515757,-0.0482 0.515785,-0.78275 6.6e-5,-2.09239 1.723169,-13.49825 2.141617,-14.17503 0.144784,-0.23428 0.951456,-0.16911 1.036276,0.0837 0.04247,0.12663 0.0096,0.52034 -0.07297,0.87481 -0.476636,2.04584 -1.943764,13.56394 -1.752132,13.75559 0.204169,0.20417 12.627594,-0.89861 13.047586,-1.15791 0.08335,-0.0515 0.151631,-0.52379 0.151753,-1.04999 5.24e-4,-2.58169 1.220415,-10.04857 2.194883,-13.43577 0.196741,-0.68378 0.30129,-1.24274 0.232551,-1.24171 -0.691028,0.009 -9.681886,1.48275 -9.84929,1.61412 -0.338016,0.26539 -1.420065,-0.24924 -1.420065,-0.67551 0,-0.28105 0.256518,-0.4062 1.335498,-0.6524 2.84751,-0.6493 8.580772,-1.48481 12.571679,-1.83274 10.987186,-0.95723 13.599583,-1.03861 13.978797,-0.43551 0.281635,0.44758 -0.01478,0.88137 -0.911108,1.33343 l -0.726202,0.3662 0.06277,2.85721 c 0.03452,1.57136 0.09027,2.88514 0.123792,2.91962 0.03358,0.0343 1.124211,-0.14706 2.424029,-0.4031 1.299547,-0.256 3.10892,-0.55965 4.02073,-0.67447 2.538325,-0.32004 2.435395,-0.2809 2.345654,-0.89206 -0.10091,-0.68758 0.491379,-1.1324 1.508,-1.1324 0.639043,0 0.84077,0.11532 1.580676,0.90344 0.466542,0.49689 1.051019,0.93205 1.29878,0.96688 0.335678,0.0474 0.465503,0.19356 0.509209,0.57379 0.04715,0.41034 -0.04303,0.55482 -0.460592,0.73826 -0.285517,0.12549 -0.974992,0.53103 -1.532312,0.90103 -0.557321,0.36999 -1.282484,0.72826 -1.611707,0.79585 -0.531969,0.10926 -0.598696,0.0776 -0.598696,-0.28438 0,-0.23192 0.296892,-0.68724 0.689213,-1.05723 l 0.689213,-0.64999 -2.11678,0.1116 c -1.995748,0.10522 -4.809974,0.53792 -7.578165,1.16481 -1.479814,0.33517 -1.399634,0.0921 -1.541883,4.67715 -0.08279,2.6648 -0.151379,3.26203 -0.395941,3.44651 -0.217086,0.16371 -0.39465,0.17021 -0.667238,0.0244 -0.359729,-0.19247 -0.367493,-0.31356 -0.249427,-3.84692 l 0.121902,-3.64819 -2.073598,0.5424 c -2.788108,0.72931 -2.68383,0.68793 -2.818801,1.11344 -0.206301,0.64999 -1.925662,1.11343 -1.925662,0.51896 0,-0.0836 -0.170603,-0.20623 -0.37913,-0.27241 -0.603617,-0.19158 -0.411723,-1.05274 0.28706,-1.28791 0.303872,-0.10237 0.776372,-0.33719 1.050243,-0.52172 0.273617,-0.18463 0.646546,-0.28954 0.82887,-0.23312 0.182259,0.0564 1.408951,-0.16833 2.725982,-0.49931 l 2.394543,-0.60206 v -2.71962 c 0,-2.65307 -0.01076,-2.7279 -0.440685,-3.05169 -0.318362,-0.23987 -0.416634,-0.45861 -0.35405,-0.78654 0.07184,-0.37586 0.02058,-0.44551 -0.296116,-0.40275 -0.210576,0.0284 -1.83334,0.14531 -3.60637,0.25978 -1.772824,0.11446 -3.430743,0.23687 -3.684005,0.272 -0.253281,0.0351 -1.275243,0.12159 -2.270919,0.19212 -1.608601,0.11395 -1.828429,0.17191 -1.972483,0.51965 -0.213981,0.51724 -1.400148,7.21574 -1.732738,9.78568 -0.265592,2.05204 -0.42801,5.17045 -0.277229,5.32031 0.09289,0.0922 3.906124,-0.55758 7.910849,-1.34791 5.042318,-0.99516 5.323485,-1.03034 5.645524,-0.70827 0.411198,0.41103 0.160088,0.99274 -0.541549,1.25412 -0.325087,0.12119 -1.254297,0.28433 -2.064805,0.36241 -2.578672,0.24877 -10.853665,1.85412 -11.015138,2.13722 -0.166309,0.29131 -0.885776,0.3462 -1.151367,0.0877 -0.104867,-0.10206 -0.507151,-0.10561 -1.003955,-0.009 -1.322569,0.25763 -6.322913,0.75412 -10.283127,1.02136 -1.759371,0.11865 -1.914025,0.1601 -2.063505,0.55275 -0.181744,0.47793 -0.701636,0.8093 -1.066023,0.67896 z m 4.607715,-5.05814 c -0.424913,-0.42483 -0.210071,-1.09275 1.2605,-3.91606 0.814904,-1.56446 1.811356,-3.76912 2.214547,-4.89932 0.901538,-2.52721 1.019727,-2.75238 1.445668,-2.75238 0.759038,0 0.788262,0.37345 0.26431,3.38444 -0.274909,1.57998 -0.446382,2.92583 -0.380945,2.99135 0.06548,0.0654 0.71145,-0.10062 1.435584,-0.36896 1.737388,-0.64413 2.653857,-0.84068 2.961171,-0.63551 0.481799,0.32158 -1.024124,1.36963 -2.917259,2.02997 l -1.75317,0.61172 0.111032,1.08619 c 0.112547,1.10102 -0.05313,1.58447 -0.543092,1.58447 -0.431639,0 -0.772499,-0.51827 -0.899995,-1.36792 -0.06876,-0.45861 -0.195524,-0.87723 -0.281635,-0.93068 -0.08616,-0.0533 -0.506112,0.54586 -0.933345,1.33102 -1.119299,2.05791 -1.459382,2.37549 -1.983371,1.85167 z m 41.445115,-0.73689 c -0.121574,-0.12157 -0.221034,-0.32354 -0.221034,-0.44896 0,-0.12528 -0.269483,-0.25377 -0.598706,-0.28551 -0.529649,-0.0511 -0.598696,-0.12152 -0.598696,-0.61034 0,-0.4862 0.07035,-0.5593 0.585244,-0.6093 0.579828,-0.0562 0.586292,-0.0678 0.702665,-1.2893 0.367241,-3.84974 1.610416,-12.0584 2.048509,-13.52807 0.100836,-0.33813 0.889911,-0.45275 1.073527,-0.1559 0.0566,0.0915 -0.05753,1.10689 -0.25358,2.25653 -0.58111,3.4072 -1.48524,10.41508 -1.48524,11.51141 v 1.01723 l 1.335507,-0.11004 c 0.734472,-0.0605 2.868914,-0.23441 4.743172,-0.38655 3.13646,-0.25438 5.784938,-0.54482 6.741642,-0.73895 0.362319,-0.0736 0.393621,-0.23203 0.498095,-2.52273 0.147394,-3.23272 1.155764,-8.93675 2.266531,-12.8205 0.119704,-0.41861 0.09979,-0.42654 -0.77741,-0.31008 -3.676717,0.48793 -8.520799,1.26619 -8.847589,1.42205 -0.782322,0.37241 -2.220497,-0.44551 -1.531789,-0.87102 0.696192,-0.43034 7.025494,-1.5117 11.7815,-2.01308 4.54471,-0.47896 11.870124,-1.02171 13.79574,-1.02171 1.37584,0 1.90342,0.0683 2.10799,0.27306 0.43163,0.43172 0.14612,1.0093 -0.70293,1.42171 l -0.77404,0.37586 0.0164,3.47716 c 0.014,2.96134 0.0573,3.47692 0.29276,3.47565 0.15197,-9.4e-4 1.97558,-0.16009 4.05241,-0.35379 2.07695,-0.19383 5.20333,-0.41069 6.9477,-0.48206 l 3.17158,-0.12952 -0.27051,-0.38621 c -0.65766,-0.93895 -0.0156,-1.77756 1.36059,-1.77756 1.0068,0 1.74644,0.51482 2.06894,1.43998 0.0994,0.28528 0.55112,0.82827 1.00344,1.2062 0.67784,0.56654 0.82266,0.79792 0.82266,1.31377 0,0.49172 -0.12868,0.72275 -0.5987,1.07516 -1.35645,1.01723 -3.08311,1.60412 -3.63795,1.23688 -0.41844,-0.2769 -0.0498,-0.72275 1.14438,-1.38377 1.02233,-0.5662 1.02491,-0.56965 0.69413,-0.97827 -0.31965,-0.39448 -0.44818,-0.40999 -3.43386,-0.40827 -2.77456,0.002 -6.99489,0.21088 -9.27261,0.45965 -0.45594,0.0498 -1.61222,0.17624 -2.56936,0.28096 -0.95741,0.10471 -1.78343,0.23323 -1.83567,0.2856 -0.0524,0.0524 -0.13949,1.56239 -0.19361,3.35582 -0.0975,3.231 -0.10223,3.261 -0.522909,3.32065 -0.89094,0.12629 -0.948098,-0.11578 -0.826804,-3.49389 l 0.112342,-3.1272 -0.443529,0.0975 c -0.243973,0.0536 -1.341185,0.22489 -2.438248,0.38068 -1.097053,0.15569 -2.148596,0.36552 -2.336355,0.46586 -0.187915,0.10057 -0.673952,0.18286 -1.08023,0.18286 -0.552409,0 -0.809993,-0.10227 -1.022842,-0.40586 -0.364388,-0.52033 -0.08765,-0.98929 0.880078,-1.4917 0.620943,-0.32228 0.733705,-0.32877 1.365495,-0.0786 0.617322,0.24442 0.91732,0.23817 2.899055,-0.0604 1.215756,-0.18316 2.231095,-0.33867 2.256438,-0.34551 0.02535,-0.007 0.04603,-1.43033 0.04603,-3.16341 v -3.151 l -0.474306,-0.3731 c -0.364387,-0.28672 -0.447925,-0.47827 -0.360252,-0.82792 0.111995,-0.4462 0.09778,-0.45276 -0.76887,-0.34552 -0.485681,0.06 -3.121127,0.28201 -5.856489,0.49345 -2.735374,0.2114 -5.027585,0.43999 -5.09376,0.50792 -0.13151,0.13512 -1.267226,6.33399 -1.726789,9.42578 -0.158143,1.06378 -0.338016,2.86721 -0.399823,4.0074 l -0.112164,2.07342 0.534822,-0.10077 c 1.625411,-0.30626 8.760721,-1.6286 10.595161,-1.96342 1.176971,-0.21486 2.275063,-0.3387 2.440577,-0.2752 0.354565,0.13601 0.401376,0.92413 0.07063,1.18309 -0.357671,0.27989 -1.86567,0.60137 -2.844592,0.6062 -0.486972,0.002 -1.258432,0.0915 -1.714371,0.19777 -0.455943,0.10629 -2.603472,0.51792 -4.772368,0.91447 -2.355495,0.43069 -4.067364,0.83309 -4.25111,0.99964 -0.342404,0.30998 -0.940848,0.36621 -1.208778,0.11337 -0.103473,-0.0976 -0.793173,-0.0646 -1.687471,0.0807 -1.340932,0.21787 -5.100224,0.57413 -9.830084,0.93137 -1.527139,0.11537 -1.586617,0.1371 -1.780064,0.6493 -0.215263,0.57034 -0.880856,0.72827 -1.300277,0.30886 z m 52.304588,-0.62723 c -0.21829,-0.1529 -0.39698,-0.40655 -0.39698,-0.56345 0,-0.184 -0.10301,-0.24603 -0.28966,-0.17441 -0.44585,0.17104 -0.99982,-0.21865 -0.99982,-0.7031 0,-0.44034 0.30544,-0.65792 0.92276,-0.65792 0.278,0 0.36102,-0.19338 0.45413,-1.0593 0.67577,-6.27592 1.70998,-12.86801 2.15299,-13.72293 0.18078,-0.34897 0.79887,-0.43621 0.98249,-0.13899 0.0623,0.10085 -0.0573,1.1993 -0.26586,2.44066 -0.63233,3.76416 -1.47981,10.36105 -1.48214,11.53517 l -0.002,0.80447 1.6117,-0.12164 c 0.88655,-0.0669 2.15067,-0.16153 2.80906,-0.21029 2.12687,-0.15749 5.21419,-0.45793 6.63121,-0.64551 2.38549,-0.31579 2.13644,-0.0199 2.27298,-2.70032 0.16919,-3.31927 1.11413,-8.84713 2.0811,-12.17457 0.15675,-0.5393 0.25449,-1.01137 0.2172,-1.04861 -0.17958,-0.17958 -9.50089,1.26688 -9.74644,1.51274 -0.11842,0.11842 -0.40034,0.11228 -0.81568,-0.0178 -0.65921,-0.20634 -0.95792,-0.60309 -0.67007,-0.89102 0.54723,-0.54724 9.7198,-1.94825 15.96318,-2.43859 0.70913,-0.0557 2.77823,-0.22451 4.59789,-0.37517 4.45618,-0.36897 6.79836,-0.36379 7.1778,0.0155 0.1592,0.1592 0.2894,0.33043 0.2894,0.38034 0,0.33416 -0.44922,0.78413 -1.05594,1.05792 l -0.7099,0.32017 0.0589,3.53502 c 0.0368,2.20687 0.12725,3.51741 0.24082,3.48813 0.10004,-0.0258 2.30583,-0.10153 4.9016,-0.16833 3.73064,-0.096 4.65654,-0.16762 4.4183,-0.34182 -0.38328,-0.28024 -0.39207,-1.11861 -0.0134,-1.26412 0.32378,-0.1243 1.088,0.22891 1.6554,0.76516 0.2078,0.19639 0.70525,0.43448 1.10534,0.52896 0.64474,0.15246 0.72749,0.2341 0.72749,0.71758 0,0.43379 -0.0894,0.55827 -0.43629,0.60758 -0.23994,0.034 -0.71586,0.34121 -1.05748,0.68275 -0.34164,0.3416 -0.95715,0.72171 -1.36758,0.84481 -0.65326,0.19571 -0.78593,0.18344 -1.06085,-0.0981 -0.29715,-0.30415 -0.27957,-0.35137 0.32328,-0.86033 l 0.63775,-0.53861 -0.82189,0.004 c -1.86464,0.009 -9.26228,0.3624 -9.34675,0.44689 -0.0502,0.0502 -0.14204,1.56515 -0.20405,3.36616 l -0.11276,3.27479 -0.45026,0.0635 c -0.80403,0.11349 -0.9261,-0.32949 -0.82473,-2.98996 0.0507,-1.32861 0.12682,-2.69514 0.16915,-3.03721 l 0.077,-0.62171 -1.51187,0.1311 c -0.83147,0.0721 -2.44989,0.37275 -3.59652,0.66792 -1.14671,0.29519 -2.40463,0.53655 -2.79589,0.53655 -0.76887,0 -1.34456,-0.40965 -1.25196,-0.89068 0.0866,-0.44999 1.08722,-1.03723 2.23806,-1.31343 0.94603,-0.22692 1.06991,-0.21993 1.40017,0.0789 0.22558,0.20415 0.48646,0.27978 0.69153,0.20042 0.18107,-0.0701 1.31456,-0.24338 2.51868,-0.38517 1.20412,-0.14168 2.23808,-0.3062 2.2973,-0.36551 0.0594,-0.0594 0.10802,-1.4655 0.10802,-3.12445 v -3.01651 l -0.51542,-0.40517 c -0.38483,-0.3026 -0.48879,-0.51137 -0.41017,-0.82378 0.0974,-0.38828 0.055,-0.4131 -0.58474,-0.3436 -0.37938,0.0412 -2.40385,0.19961 -4.49848,0.35206 -6.22328,0.45275 -6.572,0.49206 -6.67232,0.75344 -0.1551,0.40413 -1.3717,7.2156 -1.66912,9.34533 -0.1533,1.09758 -0.33438,2.91273 -0.4024,4.03371 l -0.12379,2.03825 0.44379,-0.11129 c 0.24409,-0.0612 1.1899,-0.23529 2.10153,-0.3869 0.91188,-0.15154 3.60572,-0.65447 5.98652,-1.11791 2.38084,-0.46345 4.53595,-0.81965 4.78921,-0.79172 0.37707,0.0415 0.4606,0.1503 0.4606,0.60068 0,0.74517 -0.60594,1.01241 -2.73495,1.20689 -0.92714,0.0846 -2.72198,0.35723 -3.98838,0.60585 -1.26644,0.24859 -3.32434,0.63689 -4.57323,0.86275 -1.45266,0.26279 -2.30584,0.50241 -2.36817,0.66482 -0.1094,0.2851 -0.99516,0.34517 -1.26464,0.0857 -0.10596,-0.10199 -0.75619,-0.07 -1.64868,0.0812 -1.47748,0.25023 -6.10221,0.69758 -9.6102,0.92964 -1.76533,0.11679 -1.88015,0.149 -1.98231,0.55655 -0.15743,0.62723 -0.68999,0.85999 -1.18104,0.51597 z m -44.098455,-6.16627 c -0.362835,-0.21138 -0.430853,-0.81758 -0.113661,-1.01344 0.114783,-0.0709 0.715856,-0.14223 1.335507,-0.15843 1.124472,-0.0294 2.136435,-0.3831 1.837213,-0.64206 -0.08681,-0.0752 -0.572316,-0.28903 -1.078952,-0.47517 -0.506627,-0.18618 -1.15524,-0.58827 -1.441534,-0.89378 -0.565075,-0.60275 -0.562746,-0.60379 -1.172051,0.52551 -0.824474,1.52826 -1.603942,2.50376 -1.958516,2.45032 -0.763181,-0.11472 -0.755669,-0.53655 0.04836,-2.73549 0.976284,-2.67031 0.969819,-2.65928 1.563343,-2.66859 0.396717,-0.006 0.60284,-0.18877 1.020765,-0.90412 0.569734,-0.97551 0.927143,-1.2655 1.356705,-1.10033 0.438617,0.16829 0.49758,0.56413 0.207245,1.38756 -0.148095,0.41966 -0.269211,1.08965 -0.269211,1.48826 0,0.71724 0.01356,0.73137 1.243427,1.28447 2.131271,0.95861 2.544799,1.65895 1.544727,2.61721 -0.887572,0.85033 -3.270889,1.33481 -4.123362,0.83808 z m 51.606265,-1.07171 c -2.42531,-0.78827 -2.2373,-2.90169 0.4469,-5.02401 1.00111,-0.79171 1.72704,-0.90309 2.23368,-0.3433 0.42309,0.46758 0.2404,0.92792 -0.36854,0.92792 -0.26301,0 -0.6393,0.0862 -0.83611,0.19146 -0.46964,0.2514 -1.82842,1.97619 -1.82842,2.32135 0,0.3869 1.12861,0.8031 2.17755,0.8031 1.2825,0 3.16435,0.21441 3.16435,0.36068 0,0.0681 -0.31086,0.27668 -0.69077,0.46345 -0.76628,0.37689 -3.47965,0.5662 -4.29858,0.29984 z m 48.55277,-2.59756 c -0.0626,-0.10131 -0.3163,-0.1842 -0.56354,-0.1842 -0.548,0 -0.56275,-0.13216 -0.0729,-0.65344 0.26792,-0.28513 0.40758,-0.75068 0.4831,-1.61136 0.0902,-1.02585 0.0473,-1.30584 -0.28086,-1.83722 -0.33776,-0.54654 -0.35456,-0.67137 -0.13252,-0.97516 0.56405,-0.77137 4.58288,-0.19594 6.19564,0.88723 0.86793,0.58275 0.95896,1.40999 0.23101,2.0948 -0.67422,0.63414 -2.44574,1.47378 -3.70381,1.75516 -0.54775,0.12259 -1.03809,0.33217 -1.0893,0.46585 -0.10895,0.28394 -0.90076,0.32744 -1.06683,0.0583 z m 2.82061,-2.10652 c 1.53204,-0.52103 2.45738,-1.0262 2.37384,-1.29585 -0.0684,-0.22074 -2.79881,-1.18895 -3.37555,-1.19723 -0.29276,-0.004 -0.42051,0.13952 -0.50663,0.57034 -0.16571,0.82861 -0.14175,2.3717 0.0369,2.3717 0.0835,0 0.7456,-0.20195 1.47127,-0.44862 z"
       id="path466"
       sodipodi:nodetypes="ccssssccsssccsccsccccccscsssssssccssscccccccssscsccsccccscsccscscccssscccccscscscccsssscscscscccsccsccccsccccsscsccscccsscccccssscsssscsccsscssssccccsccsssccscsccsssssscccsccccsscsccsscscscccscccscccscsssccscccscscsccccccccccsccccscccccsssscscccscssccccccccsccsscccccscccccsccssssscsccssccccscsccccccsccsccssscscccssccccssccccscccccccccsscccccscscssscsccsssccccccscsccsssscsscsccscsscccccscsscccscssccsscccsccscccsccsscssscssccccccsscccccccccccccscsscccccsssscscsccsccscccccscsccsccscscsscsccccscscssccsccscccscsccccccccsccccccscsccccccsscccccscscccscscccccsccccsccccccccssccscccccsccsccccccsccsscsccccccsccscsccssccssccccscssccscccssscsccccsscscccssscscscsccccssscccccsssscssccscccscssccscscscscsscscccsssccccccccccsccsscccscsssccccssccccccccccsccscc" />
  </g>
</svg>
