<?xml version="1.0" encoding="UTF-8" standalone="no"?>
<!-- Created with Inkscape (http://www.inkscape.org/) -->

<svg
   width="206.73114mm"
   height="159.28322mm"
   viewBox="0 0 206.73114 159.28322"
   version="1.1"
   id="svg859"
   sodipodi:docname="nle.svg"
   inkscape:version="1.1.2 (0a00cf5339, 2022-02-04)"
   xmlns:inkscape="http://www.inkscape.org/namespaces/inkscape"
   xmlns:sodipodi="http://sodipodi.sourceforge.net/DTD/sodipodi-0.dtd"
   xmlns="http://www.w3.org/2000/svg"
   xmlns:svg="http://www.w3.org/2000/svg">
  <sodipodi:namedview
     id="namedview861"
     pagecolor="#505050"
     bordercolor="#ffffff"
     borderopacity="1"
     inkscape:pageshadow="0"
     inkscape:pageopacity="0"
     inkscape:pagecheckerboard="1"
     inkscape:document-units="mm"
     showgrid="false"
     inkscape:zoom="0.9983453"
     inkscape:cx="176.29171"
     inkscape:cy="345.57182"
     inkscape:window-width="1920"
     inkscape:window-height="1011"
     inkscape:window-x="0"
     inkscape:window-y="32"
     inkscape:window-maximized="1"
     inkscape:current-layer="layer1"
     fit-margin-top="0"
     fit-margin-left="0"
     fit-margin-right="0"
     fit-margin-bottom="0" />
  <defs
     id="defs856" />
  <g
     inkscape:label="Layer 1"
     inkscape:groupmode="layer"
     id="layer1"
     style="display:inline"
     transform="translate(-2.0608428,-40.304888)">
    <path
       style="display:inline;opacity:1;fill:#000000;stroke-width:0.164505"
       d="m 74.637468,199.24661 c -0.05182,-0.20907 0.09254,-1.78675 0.320809,-3.50575 0.228247,-1.71899 0.455924,-3.45871 0.506043,-3.86585 0.05008,-0.40711 0.130102,-0.93895 0.177829,-1.18224 0.0804,-0.40926 0.04192,-0.44561 -0.524295,-0.49365 -1.224342,-0.10358 -1.120639,-1.15113 0.173954,-1.75964 1.526448,-0.71753 4.511506,-1.05012 5.918732,-0.65932 0.856878,0.23786 1.735239,1.11632 1.734083,1.73407 -9.48e-4,0.57773 -0.567714,1.52253 -1.25622,2.09501 -0.284316,0.23626 -1.086687,0.70029 -1.783047,1.03073 l -1.266152,0.60143 0.549238,0.22801 c 0.302101,0.12542 1.900147,1.12434 3.551432,2.22004 2.455894,1.62968 3.002217,2.06144 3.002217,2.37309 0,0.20957 -0.129546,0.45022 -0.28778,0.5346 -0.227346,0.12131 -0.872583,-0.23935 -3.068299,-1.71499 -3.35717,-2.25638 -3.925387,-2.53938 -5.096197,-2.53938 -0.785971,0 -0.898916,0.0428 -0.97652,0.37016 -0.103638,0.43667 -0.426593,3.20998 -0.483642,4.15373 -0.03698,0.61099 -0.07775,0.6618 -0.568864,0.70922 -0.436987,0.0422 -0.545307,-0.015 -0.623144,-0.32889 z m 3.862887,-7.29511 c 2.686444,-1.13388 3.807779,-2.31488 2.759105,-2.90554 -0.46262,-0.26058 -3.07562,-0.25915 -3.989249,0.003 l -0.658019,0.18823 -0.02028,1.73069 c -0.01114,0.95189 0.01599,1.7307 0.06035,1.7307 0.04435,0 0.876049,-0.33566 1.848103,-0.74622 z m 18.578494,7.34374 c -0.780661,-0.25534 -1.271462,-0.6889 -1.540305,-1.36055 -0.146478,-0.36615 -0.374856,-0.77419 -0.50743,-0.9066 -0.331666,-0.33167 -0.302333,-0.60483 0.104712,-0.97315 0.190218,-0.17213 0.455694,-0.52505 0.589653,-0.78466 0.413659,-0.79975 1.525755,-1.88713 2.047736,-2.00169 0.615983,-0.13528 1.016014,0.19484 1.464317,1.20809 0.364001,0.82286 0.400263,1.22381 0.152747,1.68636 -0.17876,0.33413 -1.044193,0.45084 -1.221112,0.16494 -0.05703,-0.0923 -0.371853,-0.0734 -0.791055,0.0474 -0.609285,0.17554 -0.702826,0.26549 -0.747171,0.71876 -0.04027,0.41081 0.04031,0.57802 0.388714,0.80622 0.592424,0.38802 1.797138,0.35199 2.782042,-0.0839 1.072373,-0.47425 1.568253,-0.46255 1.568253,0.0373 0,0.46716 -0.35892,0.80775 -1.23382,1.17022 -0.77396,0.32057 -2.451481,0.46931 -3.057556,0.27118 z m 0.740935,-4.22999 c 0.143117,-0.0549 0.260298,-0.16595 0.260298,-0.24676 0,-0.23537 -0.434445,-0.16944 -0.65802,0.0999 -0.217104,0.26159 -0.05606,0.32119 0.397722,0.1469 z m -6.871738,4.03659 c -0.809993,-0.19815 -1.525061,-0.7083 -1.835939,-1.30942 -0.72269,-1.3975 0.24436,-3.49764 1.976597,-4.29225 0.841636,-0.38618 1.095004,-0.3834 1.604514,0.0174 0.304181,0.23923 0.484564,0.63469 0.675341,1.47941 0.143219,0.63408 0.21762,1.26446 0.165331,1.40088 -0.07472,0.19473 -0.405342,0.24775 -1.544462,0.24775 -1.825315,0 -2.009857,0.0616 -1.768498,0.59095 0.273462,0.60021 1.183926,0.81147 2.679331,0.62207 1.280239,-0.16231 1.370777,-0.12165 1.12965,0.50689 -0.238355,0.62115 -1.915161,1.02149 -3.081865,0.73634 z m 1.207254,-3.89561 c -0.0049,-0.56448 -0.245746,-0.75325 -0.675803,-0.52968 -0.744862,0.38741 -0.866811,0.54261 -0.530295,0.67503 0.596582,0.23482 1.20887,0.16112 1.206098,-0.14535 z m 13.53339,3.86585 c -0.10382,-0.13071 -0.11116,-0.56508 -0.0201,-1.1927 0.43976,-3.03118 0.96035,-7.26769 1.05482,-8.58363 0.10175,-1.4169 0.0872,-1.52314 -0.2372,-1.72578 -0.43653,-0.27257 -0.44369,-0.81946 -0.0159,-1.20655 0.27346,-0.24742 0.40026,-0.26615 0.74347,-0.10979 0.22765,0.10374 0.4945,0.39296 0.59289,0.64301 0.23859,0.60636 0.0775,3.62711 -0.35453,6.6452 -0.18605,1.29987 -0.4035,3.04597 -0.48295,3.87994 -0.0796,0.83394 -0.19195,1.59273 -0.24967,1.68604 -0.14611,0.23641 -0.83379,0.21244 -1.03103,-0.0359 z m 12.053,-2.42266 c -0.48226,-0.53276 -0.22481,-1.46277 1.23035,-4.44531 1.21695,-2.4941 1.76064,-4.11514 1.37886,-4.11108 -0.41712,0.004 -1.91562,1.08154 -2.83473,2.03742 -0.57464,0.59743 -1.13334,1.08646 -1.24189,1.08646 -0.29171,0 -0.5922,-0.35261 -0.5922,-0.69443 0,-0.70614 2.69402,-2.99978 4.11009,-3.4994 0.81115,-0.28622 1.39295,-0.18513 1.73362,0.30128 0.55016,0.78558 0.20688,2.01001 -1.54954,5.52646 -0.64278,1.28694 -1.16868,2.45377 -1.16868,2.59297 0,0.17646 0.1122,0.22915 0.37023,0.17383 2.59557,-0.55678 3.14621,-0.62576 4.64727,-0.58233 l 1.64517,0.0477 0.0486,0.49488 c 0.0389,0.39664 -0.0449,0.55 -0.42267,0.77327 -0.42936,0.2536 -0.51413,0.25577 -0.95342,0.0244 -0.58296,-0.30705 -1.97429,-0.20727 -3.88183,0.27834 -1.5962,0.4065 -2.14821,0.40558 -2.51921,-0.004 z M 18.544849,184.81077 c -0.05907,-0.18611 -0.06041,-0.48656 -0.0028,-0.66733 0.08508,-0.26807 0.02957,-0.32889 -0.299793,-0.32889 -0.525212,0 -1.194549,-0.53431 -1.021095,-0.81484 0.08793,-0.14229 0.369778,-0.18311 0.872817,-0.12639 l 0.743015,0.0837 -0.100724,-1.76026 c -0.0554,-0.96821 -0.221144,-2.71861 -0.368388,-3.88951 -0.187639,-1.49296 -0.275311,-3.63878 -0.293558,-7.18098 l -0.02593,-5.05191 -1.041189,0.008 c -1.134041,0.009 -1.269617,-0.0428 -1.122953,-0.42528 0.06994,-0.18226 0.330743,-0.25386 0.925012,-0.25386 0.762879,0 0.827781,-0.0308 0.827781,-0.39295 0,-0.21617 0.143414,-0.56786 0.318729,-0.78127 0.258912,-0.31566 0.374394,-0.35446 0.615754,-0.20671 0.163321,0.0999 0.364231,0.41604 0.446457,0.70274 l 0.149444,0.52107 1.743554,-0.12698 c 1.841019,-0.13405 7.379029,-0.16496 12.600934,-0.0703 2.924087,0.053 14.735311,-0.18132 19.905092,-0.3948 1.266609,-0.0523 3.339451,-0.20792 4.606134,-0.34583 1.542844,-0.1679 4.611097,-0.27399 9.294536,-0.32149 3.845312,-0.0389 8.101857,-0.14405 9.459029,-0.23367 2.600619,-0.17175 16.34652,0.0232 23.195196,0.32889 5.021477,0.22418 15.561977,0.27162 24.264477,0.10919 5.40077,-0.1008 8.52836,-0.08 11.92661,0.0794 2.82149,0.13234 6.90068,0.1871 10.52831,0.14135 6.76496,-0.0854 9.5561,-0.084 24.84024,0.0124 6.062,0.0382 11.28093,0.0134 11.5976,-0.0551 0.31665,-0.0685 2.8336,-0.16767 5.59316,-0.22035 4.15791,-0.0794 5.05049,-0.13759 5.21062,-0.33997 0.32174,-0.40651 0.76912,-0.18758 0.8973,0.43852 0.0641,0.31319 0.0546,0.68519 -0.0211,0.82654 -0.0766,0.14323 -0.038,1.34761 0.0871,2.71954 0.33905,3.7154 0.728,13.66573 0.57857,14.80033 -0.0716,0.54291 -0.29056,1.52313 -0.48665,2.17815 -0.29979,1.00147 -0.42336,1.20779 -0.77535,1.29617 -0.61575,0.15454 -1.00632,-0.27944 -0.75248,-0.8364 0.1636,-0.35906 0.15043,-0.41758 -0.0942,-0.41881 -0.1564,-0.002 -1.24675,-0.1054 -2.42294,-0.2323 -2.31081,-0.24927 -3.38858,-0.30384 -13.24265,-0.67041 -3.57389,-0.13298 -7.05317,-0.27904 -7.73174,-0.32459 -0.67857,-0.0456 -3.75071,-0.12832 -6.82695,-0.18393 -3.07625,-0.0556 -5.81526,-0.13947 -6.08669,-0.18635 -0.85989,-0.14856 -29.60564,-0.17482 -33.64126,-0.0307 -8.647,0.30887 -26.612607,0.48964 -29.77539,0.29974 -7.168457,-0.43022 -10.054367,-0.44839 -29.693143,-0.18705 -12.364704,0.16464 -17.594789,0.30763 -17.907774,0.48965 -0.07768,0.0452 -4.519312,0.10606 -9.870283,0.13532 -8.727705,0.0478 -9.999975,0.0886 -12.361128,0.39726 -4.136674,0.54077 -3.934509,0.48287 -4.03036,1.15329 -0.07215,0.50473 -0.146217,0.58172 -0.602822,0.62575 -0.406032,0.0394 -0.54415,-0.0239 -0.627992,-0.28787 z m 175.663561,-6.67183 c -0.0137,-2.35245 -0.10716,-5.5726 -0.20792,-7.15598 -0.10075,-1.58349 -0.23012,-3.70458 -0.28755,-4.7138 l -0.10428,-1.8351 -0.48987,-0.0979 c -0.76934,-0.15387 -6.68369,-0.10643 -9.4964,0.0762 -2.78629,0.18089 -18.05931,0.21689 -20.98961,0.0495 l -1.82485,-0.10426 -0.10766,1.05073 c -0.0592,0.57804 -0.25546,2.08701 -0.4363,3.35383 -0.61552,4.31288 -0.59982,8.26359 0.0436,10.99032 0.14313,0.60637 0.14013,0.86566 -0.0128,1.11049 -0.19418,0.31103 -0.13288,0.31935 2.31062,0.32119 1.38049,0.002 4.13871,0.0706 6.12921,0.1548 1.99046,0.0842 5.83993,0.23358 8.55425,0.33198 9.62747,0.34891 14.83026,0.64546 16.1626,0.9217 0.20554,0.0426 0.37486,0.20333 0.38064,0.36154 0.008,0.20641 0.0641,0.17161 0.20563,-0.12652 0.13717,-0.28902 0.18784,-1.68266 0.17047,-4.6884 z m -26.0493,-8.5425 c 0,-0.37293 0.50766,-0.80376 0.70929,-0.60205 0.1186,0.11859 0.0786,0.27349 -0.13007,0.50412 -0.35291,0.39017 -0.57926,0.42836 -0.57922,0.0979 z M 23.156272,182.39811 c 2.690604,-0.4142 3.143734,-0.4333 12.921105,-0.55031 5.572997,-0.0666 10.21114,-0.16965 10.30699,-0.22891 0.442532,-0.27343 22.885439,-0.67966 35.820982,-0.64824 3.347676,0.008 7.715292,0.10637 9.705793,0.21837 2.671271,0.15027 6.699623,0.17078 15.381198,0.0783 14.48065,-0.15426 16.88382,-0.23701 16.80441,-0.57865 -0.0315,-0.13571 -0.12546,-2.13442 -0.20873,-4.44163 -0.20197,-5.59678 -0.4811,-9.60032 -0.67811,-9.72658 -0.2402,-0.15396 -0.35222,-1.52869 -0.1546,-1.89792 0.17006,-0.31781 0.0416,-0.32212 -10.1395,-0.34214 -5.67146,-0.0112 -12.16243,-0.0964 -14.424384,-0.18923 -8.824223,-0.36215 -17.568345,-0.47855 -22.208157,-0.29574 -1.538223,0.0606 -5.683654,0.15217 -9.212265,0.20341 -3.946315,0.0573 -7.238836,0.18656 -8.554249,0.33567 -2.293944,0.26028 -7.833661,0.47116 -17.190767,0.6547 -7.050156,0.13829 -8.612058,0.12365 -12.337868,-0.11569 -2.673304,-0.17173 -7.836015,-0.10325 -9.212264,0.12219 l -0.575799,0.0943 0.04322,4.79706 c 0.03115,3.45923 0.134392,5.60299 0.370239,7.687 0.179805,1.58935 0.326815,3.42167 0.326815,4.07148 0,0.8598 0.05824,1.18162 0.213815,1.18162 0.117599,0 1.468709,-0.19311 3.002129,-0.42907 z m 135.969168,-1.68327 c -0.0891,-0.16653 -0.15736,-0.44407 -0.15165,-0.61683 0.006,-0.17277 -0.0706,-0.8324 -0.1695,-1.46555 -0.31712,-2.03034 -0.22591,-6.18007 0.2125,-9.66265 0.21939,-1.74271 0.42406,-3.47491 0.455,-3.8491 l 0.056,-0.68028 -0.99176,-0.1016 c -0.54553,-0.0559 -1.61999,-0.0635 -2.38788,-0.017 -2.99037,0.18126 -15.71582,0.15292 -22.2883,-0.0497 -3.80006,-0.11711 -7.55454,-0.16327 -8.34328,-0.10257 -1.26777,0.0976 -1.4172,0.14206 -1.28786,0.38371 0.23092,0.43144 0.48225,3.10564 0.65987,7.01865 0.09,1.98322 0.20804,4.42039 0.26237,5.41564 0.0543,0.9953 0.11127,2.2693 0.12666,2.83101 l 0.028,1.02149 13.87914,-0.002 c 7.63353,0 13.91968,0.0392 13.96922,0.0888 0.0495,0.0496 1.44977,0.09 3.11177,0.09 2.88348,0 3.0143,-0.0138 2.85967,-0.30249 z m -19.48191,-1.36393 c -0.22941,-0.13336 -0.28131,-0.30208 -0.21366,-0.69413 0.30418,-1.76271 0.23605,-4.64652 -0.13716,-5.79872 -0.20244,-0.62515 0.31319,-0.9291 1.37724,-0.81177 1.87567,0.20653 3.22677,1.39472 2.85618,2.51167 -0.20213,0.60913 -0.7541,0.86104 -1.89345,0.86412 l -0.9458,0.003 v 1.79782 c 0,1.41505 -0.055,1.85296 -0.25845,2.05621 -0.30164,0.30155 -0.37832,0.30856 -0.7849,0.0724 z m 2.19486,-5.23548 0.5758,-0.0174 -0.46147,-0.40619 c -0.32405,-0.28511 -0.65479,-0.40619 -1.11048,-0.40619 -0.72431,0 -0.70976,-0.0168 -0.48849,0.56478 0.12149,0.31966 0.25082,0.40465 0.53468,0.352 0.2059,-0.0383 0.63354,-0.0775 0.95019,-0.0871 z m -13.07814,2.64285 c -0.92455,-0.41081 -1.46939,-1.62907 -1.29525,-2.8966 0.31735,-2.31027 2.03758,-5.54297 3.02257,-5.68008 0.63954,-0.089 0.84002,0.0432 1.19224,0.7859 0.2961,0.62452 0.35962,1.003 0.31573,1.88498 -0.0472,0.94942 -0.10294,1.11879 -0.39864,1.21272 -0.44738,0.14199 -0.77374,-0.29606 -0.7996,-1.07291 -0.0107,-0.32212 -0.0662,-0.79205 -0.12338,-1.04426 l -0.10392,-0.45886 -0.53029,0.81238 c -1.01694,1.55794 -1.64078,4.12907 -1.20148,4.95017 0.35614,0.66517 1.76018,0.49056 3.02952,-0.37693 0.82593,-0.56449 1.08738,-0.55833 1.08738,0.0253 0,0.51922 -0.57279,1.14159 -1.46617,1.59274 -0.64462,0.3255 -2.24313,0.48102 -2.72871,0.26541 z m 8.84358,-0.0588 c -0.19341,-0.24514 -0.41458,-2.94557 -0.27161,-3.31792 0.0549,-0.14303 0.26653,-0.26005 0.47047,-0.26005 0.32451,0 0.38364,0.10794 0.47441,0.8635 0.16296,1.35684 0.12459,2.50705 -0.0908,2.72262 -0.2506,0.25063 -0.37971,0.24881 -0.58246,-0.008 z m 13.9304,-0.18339 c -1.76711,-0.47641 -2.51438,-1.32913 -2.4798,-2.82917 0.0292,-1.26753 0.27762,-2.23728 0.94095,-3.67382 0.93887,-2.0331 1.84564,-2.70136 2.89969,-2.13719 0.27416,0.14675 0.37186,0.13038 0.4908,-0.0822 0.21498,-0.38401 0.907,-0.33289 1.12988,0.0835 0.25915,0.4841 0.0428,2.06514 -0.33397,2.44207 -0.20225,0.20224 -0.44599,0.26928 -0.76796,0.21115 -0.65663,-0.1186 -0.8578,-0.31658 -0.97906,-0.96235 -0.0577,-0.30759 -0.20459,-0.55925 -0.32635,-0.55925 -0.56194,0 -1.88052,3.28134 -1.88052,4.68003 0,0.59897 0.0835,0.78959 0.49842,1.13881 0.64717,0.54477 1.35646,0.66549 3.12156,0.53245 1.26939,-0.0958 1.45393,-0.0753 1.54908,0.17257 0.3446,0.89799 -1.98283,1.4905 -3.86293,0.9836 z m -17.0982,-0.67993 c -0.26561,-0.32028 -0.24066,-1.30634 0.0845,-3.32987 0.28501,-1.77381 0.30926,-2.61545 0.0797,-2.75711 -0.22739,-0.14054 -0.20655,-0.79698 0.0329,-1.03626 0.28617,-0.28628 0.80168,-0.24204 1.05413,0.0905 0.29309,0.38586 0.28732,2.09161 -0.0137,4.18989 -0.13351,0.93001 -0.26307,1.98722 -0.28779,2.34907 -0.036,0.52413 -0.11509,0.66794 -0.38848,0.70706 -0.18887,0.027 -0.44137,-0.069 -0.56118,-0.21326 z m 3.20499,-4.36771 c -0.17464,-0.55031 0.53676,-1.11664 0.82223,-0.6547 0.10936,0.17693 -0.36769,0.9916 -0.58064,0.9916 -0.074,0 -0.18262,-0.1516 -0.24136,-0.3369 z M 120.0013,161.44879 c -0.42128,-0.45238 -0.5356,-1.02425 -0.5356,-2.68196 0,-1.28663 0.22263,-2.45623 0.54946,-2.88552 0.0895,-0.11767 0.35407,-0.19169 0.58804,-0.16451 0.48849,0.0568 0.50096,0.20749 0.18806,2.27023 -0.10291,0.67873 -0.14379,1.54038 -0.0908,1.91547 l 0.0963,0.68151 1.21834,-0.33567 c 1.1472,-0.31597 1.24282,-0.31966 1.63754,-0.0609 0.86542,0.56694 0.30048,1.43753 -0.91324,1.40735 -0.39795,-0.01 -1.10147,0.034 -1.5634,0.0976 -0.73585,0.10126 -0.88136,0.0711 -1.17461,-0.24357 z m 23.93622,-0.53706 c -0.2045,-0.21222 -0.57441,-0.51397 -0.822,-0.67073 -0.94973,-0.60081 -1.19594,-1.61459 -0.44022,-1.8123 0.2196,-0.0574 0.51875,0.0763 0.87997,0.39356 0.30095,0.26427 0.57441,0.48011 0.6079,0.4798 0.0333,-3.3e-4 0.0773,-0.94327 0.0978,-2.09532 0.0205,-1.15205 0.12156,-2.29794 0.22456,-2.54677 0.26537,-0.64055 0.96612,-0.79267 2.64524,-0.57433 0.75364,0.0979 1.70313,0.16936 2.11032,0.15874 3.16106,-0.0825 4.61101,-0.0565 5.14745,0.092 0.93934,0.26023 1.7417,0.072 2.08261,-0.48871 0.24228,-0.3985 0.28409,-0.87028 0.27069,-3.06013 l -0.0159,-2.58897 -3.78362,-0.0122 c -5.68638,-0.0185 -10.73846,0.22563 -11.37934,0.5497 -0.43329,0.21911 -0.5661,0.2274 -0.78136,0.0488 -0.14265,-0.11839 -0.25937,-0.30552 -0.25937,-0.41574 0,-0.11031 -0.28732,-0.28666 -0.63862,-0.39202 -0.84256,-0.25242 -1.15066,-0.60975 -0.8153,-0.94511 0.19124,-0.19124 0.34437,-0.20755 0.69566,-0.074 0.24783,0.0942 0.51136,0.17126 0.5855,0.17126 0.23743,0 0.33628,-1.29771 0.42013,-5.51091 0.11226,-5.64343 0.24343,-9.75294 0.33397,-10.47439 l 0.076,-0.6042 -2.26184,0.0274 c -18.58605,0.22502 -27.89906,0.30825 -32.44849,0.29046 -3.031,-0.012 -6.08059,0.0243 -6.776884,0.0805 l -1.265919,0.10221 -0.05009,0.60051 c -0.04558,0.54662 -0.09452,0.60051 -0.543692,0.60051 -0.446687,0 -0.508123,-0.0665 -0.64855,-0.69905 l -0.154972,-0.69906 -1.243284,-0.0266 c -0.683887,-0.0147 -1.909619,-0.0254 -2.723862,-0.0239 -0.814383,0.002 -2.887062,0.002 -4.606133,3.4e-4 -14.097082,-0.0109 -28.279043,0.10027 -29.775395,0.23354 -0.995224,0.0887 -2.382953,0.20524 -3.083794,0.2591 -0.764726,0.0588 -1.348373,0.1872 -1.459467,0.3212 -0.197489,0.23795 -0.652247,0.28128 -1.255525,0.11961 -0.434907,-0.11657 -0.475789,-0.35876 -0.105816,-0.62915 0.23166,-0.16934 0.264456,-0.75233 0.265612,-4.70651 9.49e-4,-3.03611 -0.08783,-5.37837 -0.271152,-7.15628 -0.170222,-1.65155 -0.250135,-3.55538 -0.213329,-5.07516 0.04622,-1.90346 0.01194,-2.45039 -0.157763,-2.51536 -0.288475,-0.11069 -0.277157,-0.65564 0.01693,-0.82132 0.195656,-0.11009 0.250368,-1.60721 0.335363,-9.17931 0.08702,-7.756142 0.136961,-9.082992 0.349912,-9.294522 0.220846,-0.21946 0.279238,-0.20667 0.528445,0.11564 0.302106,0.3911 0.56471,0.38402 3.653913,-0.0991 1.305416,-0.20409 11.182489,-0.27113 15.770564,-0.10704 l 3.351971,0.11988 -0.106898,-1.12496 c -0.188451,-1.98352 -0.282241,-2.61637 -0.420819,-2.84056 -0.110344,-0.17855 -0.355224,-0.15254 -1.318119,0.13993 -2.135733,0.64886 -3.137588,0.72986 -10.862416,0.88075 -1.719535,0.0336 -9.850423,-0.19076 -11.104078,-0.30637 -1.343295,-0.12387 -13.836394,-0.40649 -14.311926,-0.32397 -0.849259,0.14772 -0.955733,-0.0458 -1.006547,-1.82738 -0.09974,-3.50159 -0.266997,-6.30646 -0.376012,-6.30646 -0.06297,0 -0.194312,0.0798 -0.291939,0.17737 -0.09755,0.0975 -0.389866,0.15307 -0.649705,0.12338 -0.800986,-0.0915 -0.707906,-0.64824 0.297484,-1.77751 0.481333,-0.54076 1.00955,-0.98483 1.173767,-0.98699 0.471167,-0.006 0.935177,0.30888 0.935177,0.635 0,0.26526 0.954114,1.24259 2.44931,2.5089 0.569098,0.48194 0.63931,0.81392 0.253371,1.19978 -0.348527,0.3486 -0.444611,0.33105 -1.063824,-0.19388 -0.293558,-0.24881 -0.780892,-0.66241 -1.082998,-0.91893 l -0.549462,-0.46655 0.101825,3.18091 c 0.05601,1.74948 0.127108,3.21029 0.158,3.24619 0.03087,0.036 2.667089,0.1216 5.858219,0.19041 6.965161,0.15018 19.506048,0.60975 19.686754,0.72153 0.071,0.0439 0.381323,0.0107 0.68943,-0.0738 0.308107,-0.0845 2.003855,-0.18791 3.76817,-0.22982 3.152417,-0.0749 3.771196,-0.15901 6.29687,-0.85581 1.011853,-0.27923 1.156438,-0.2845 1.562708,-0.057 0.52429,0.29339 0.822003,1.23982 0.955271,3.03611 0.04702,0.63346 0.12389,1.40242 0.170829,1.70883 l 0.08534,0.5574 1.756724,-0.10251 c 0.966122,-0.0564 2.867127,-0.14561 4.224298,-0.19829 1.357154,-0.0527 2.689657,-0.13237 2.961087,-0.17709 0.271383,-0.0447 2.973419,-0.11882 6.004417,-0.16469 3.030999,-0.0459 5.701601,-0.14398 5.934644,-0.21804 0.237894,-0.0756 0.543691,-0.0675 0.697283,0.0185 0.353607,0.19785 2.325732,0.41666 5.623582,0.62422 1.44769,0.0911 3.92756,0.27666 5.51092,0.41235 1.58326,0.13572 4.14256,0.24829 5.68709,0.25018 l 2.80826,0.003 0.0428,-0.94603 c 0.0235,-0.52014 0.0538,-1.16807 0.0672,-1.43938 0.0135,-0.27143 -0.0368,-0.88444 -0.11167,-1.36207 -0.0905,-0.57742 -0.0761,-0.9408 0.043,-1.08431 0.32866,-0.39603 2.86717,-0.817 4.19857,-0.69628 0.74301,0.0673 1.51698,0.0357 2.00939,-0.0821 0.54487,-0.13032 3.98302,-0.21419 10.75354,-0.26232 5.4739,-0.0389 10.6558,-0.0779 11.51536,-0.0866 0.85965,-0.009 2.081,0.0754 2.71432,0.18702 1.50497,0.2652 3.2052,0.24834 4.52867,-0.0449 0.76265,-0.16896 2.2078,-0.23657 5.09486,-0.23834 3.56591,-0.003 10.82457,-0.27285 10.96042,-0.40865 0.0279,-0.0279 -0.0148,-0.30607 -0.0947,-0.61806 -0.39772,-1.55116 -0.50789,-2.35708 -0.54438,-3.9799 -0.0219,-0.9722 -0.0767,-1.76549 -0.12198,-1.76334 -0.0453,0.003 -0.22596,0.11294 -0.40165,0.24578 -0.44392,0.33567 -1.83525,0.32243 -1.96621,-0.0187 -0.2001,-0.52137 -0.0838,-0.70861 0.7638,-1.22782 0.4751,-0.29112 1.20703,-0.81576 1.62668,-1.1656 0.41967,-0.34983 0.8786,-0.63623 1.01971,-0.63623 0.14118,0 0.45986,0.27761 0.70792,0.61683 0.24829,0.33937 0.67764,0.92633 0.95435,1.3048 0.27669,0.37816 0.63261,0.72307 0.79082,0.76588 0.19607,0.0533 0.28778,0.24218 0.28778,0.59219 0,0.9756 -1.01117,0.8789 -1.73501,-0.16549 -0.44299,-0.63931 -0.4751,-0.65594 -0.60166,-0.31349 -0.20169,0.54507 -0.0431,3.36204 0.27207,4.83193 0.59959,2.79653 0.59589,2.79992 -3.14391,2.96529 -6.86895,0.30391 -9.90166,0.36369 -10.9404,0.21548 -0.91693,-0.1308 -1.34375,-0.0996 -2.60337,0.19042 -1.80568,0.41574 -2.92956,0.43421 -5.06143,0.0828 -1.22689,-0.20217 -2.08377,-0.23595 -3.65846,-0.14422 -1.13104,0.0659 -6.27587,0.14453 -11.43309,0.17477 -5.15724,0.0303 -9.74693,0.11474 -10.1993,0.18778 -0.45246,0.073 -1.22965,0.0792 -1.72738,0.0137 -0.78875,-0.10382 -1.33267,-0.0405 -2.46758,0.28733 -0.20051,0.0579 -0.24875,0.43391 -0.2573,2.00539 l -0.0105,1.93425 5.76821,-0.0447 c 3.17251,-0.0246 6.54548,-0.0999 7.49551,-0.16735 0.94995,-0.0674 3.20784,-0.074 5.01739,-0.0145 1.86504,0.0613 3.35779,0.0447 3.44639,-0.0383 0.21219,-0.1988 0.74855,-0.18583 0.74855,0.0181 0,0.0905 0.31458,0.16564 0.69913,0.16703 0.90977,0.003 1.14928,0.17043 1.08254,0.75571 -0.0503,0.44037 -0.11137,0.47949 -0.82155,0.52537 l -0.76726,0.0496 -0.0299,2.82917 c -0.0164,1.55608 -0.0413,5.388532 -0.0552,8.516532 l -0.0253,5.68729 2.63207,-0.0655 c 1.44769,-0.036 3.52042,-0.12044 4.60614,-0.18751 1.08576,-0.0671 3.67668,-0.13632 5.75768,-0.15388 2.08098,-0.0176 5.59726,-0.12223 7.81397,-0.23261 3.98087,-0.19823 10.1016,-0.26716 12.50683,-0.14086 0.86819,0.0456 1.34744,-0.003 1.60382,-0.16335 0.29493,-0.18422 0.4289,-0.18893 0.69243,-0.0243 0.17974,0.11224 0.47324,0.20407 0.65224,0.20407 0.60791,0 0.76472,0.88598 0.21417,1.20995 -0.1966,0.11574 -0.21839,0.43052 -0.12255,1.7695 0.0836,1.16837 0.0429,2.12827 -0.14386,3.39607 -0.63978,4.34194 -0.75733,5.33505 -0.84233,7.11366 -0.0497,1.04058 -0.1272,2.57234 -0.17229,3.40437 l -0.082,1.51267 0.78413,0.0503 c 0.67558,0.0433 0.79152,0.10274 0.83795,0.42959 0.0787,0.55525 -0.25777,0.85458 -0.96059,0.85458 h -0.61991 l -0.01,1.82739 c -0.01,1.79475 -0.21945,4.61834 -0.52406,7.05585 -0.0848,0.67873 -0.20387,2.76973 -0.26469,4.64726 l -0.10944,3.41357 h 0.67511 c 0.455,0 0.7243,0.0881 0.82616,0.27013 0.15302,0.27341 0.0786,0.86627 -0.11287,0.89953 -0.62799,0.10932 -4.19044,0.16273 -11.48665,0.17226 l -8.75038,0.0114 -0.10943,0.87581 c -0.0602,0.48164 -0.0739,1.63924 -0.0304,2.57234 0.073,1.5684 0.0473,1.7621 -0.33975,2.5634 -0.67996,1.40828 0.0297,1.29125 -6.85991,1.12988 -1.80961,-0.0424 -3.71147,-0.10387 -4.22645,-0.13648 -1.10909,-0.0702 -1.11441,-0.0615 -1.11764,1.8933 l -0.002,1.28601 0.45246,-0.3135 c 0.95781,-0.66364 1.68628,-0.56725 1.68628,0.22297 0,0.31627 -0.13373,0.46963 -0.56772,0.65101 -0.40418,0.16892 -0.72684,0.50997 -1.11994,1.18438 -0.46748,0.80161 -0.63239,0.95497 -1.07561,0.9984 -0.37855,0.0372 -0.62638,-0.0554 -0.89522,-0.33444 z m 2.178,-13.78245 c 1.31188,-0.0878 4.28357,-0.17921 6.60366,-0.20308 l 4.21834,-0.0435 0.19129,-1.15144 c 0.16299,-0.98114 0.48041,-5.26468 0.4968,-6.70359 0.003,-0.29164 -0.0812,-0.45238 -0.23789,-0.45238 -0.13365,0 -0.36632,-0.1881 -0.5169,-0.4179 -0.36308,-0.55431 -0.1372,-1.05196 0.77858,-1.7153 0.81277,-0.58881 1.10402,-0.6159 1.68627,-0.15792 0.57141,0.44931 0.55201,0.99315 -0.0601,1.69036 l -0.49357,0.56202 v 2.22558 c 0,1.22411 -0.11859,3.08833 -0.26353,4.14264 -0.14494,1.05443 -0.22394,1.95643 -0.17552,2.00509 0.1862,0.18619 9.2631,0.29504 13.01558,0.15608 4.86582,-0.1802 4.50841,0.0567 4.49542,-2.97975 -0.01,-2.27024 0.20347,-5.28689 0.63838,-9.032 0.28686,-2.47009 0.21854,-4.82846 -0.14652,-5.0605 -0.11468,-0.0729 -0.65271,-0.0932 -1.19548,-0.0452 -0.54276,0.048 -2.06044,0.11903 -3.37234,0.15776 -1.31188,0.0387 -4.05094,0.15272 -6.08669,0.2533 -4.65115,0.2298 -4.51095,0.22839 -12.50238,0.12526 -3.66436,-0.0473 -7.5878,-0.0415 -8.71877,0.013 l -2.05628,0.099 -0.1037,2.13843 c -0.10624,2.19109 -0.25752,6.91069 -0.37855,11.80323 l -0.0681,2.75557 0.9331,-0.003 c 0.5132,-0.002 2.00662,-0.0744 3.3185,-0.16221 z m -2.44222,-4.13085 c -0.15729,-0.42529 0.4707,-4.32955 0.73955,-4.59679 0.229,-0.22778 0.8153,-0.0682 0.93956,0.25581 0.0813,0.21176 -0.0694,1.45415 -0.31157,2.56895 -0.0932,0.42928 -0.0898,0.43083 1.21719,0.54476 0.94395,0.0823 1.33751,0.18429 1.40657,0.36431 0.14338,0.37355 0.11949,0.50505 -0.13861,0.76342 -0.17682,0.17683 -0.53584,0.21525 -1.45831,0.15605 -0.80699,-0.0518 -1.26268,-0.0156 -1.33798,0.10618 -0.20088,0.32488 -0.9167,0.21471 -1.0564,-0.16269 z m 28.22412,-0.3326 c -0.20308,-0.11364 -0.28363,-0.36923 -0.28363,-0.90014 0,-0.73324 -0.004,-0.73877 -0.36561,-0.48534 -0.43491,0.30464 -0.97398,0.33137 -1.24375,0.0615 -0.10708,-0.10707 -0.21741,-0.16259 -0.24528,-0.12338 -0.6802,0.95959 -1.01348,1.3051 -1.25923,1.3051 -0.44922,0 -0.72384,-0.42897 -0.6169,-0.96327 0.12991,-0.64947 1.23173,-2.49011 1.56524,-2.61421 0.15061,-0.0561 0.37047,-0.23641 0.48873,-0.40065 0.49426,-0.68673 1.29572,-0.16334 1.11787,0.72985 l -0.10642,0.53429 0.50928,-0.61682 c 0.37531,-0.45485 0.63492,-0.61683 0.98761,-0.61683 0.63075,0 0.71622,0.36985 0.49402,2.1415 -0.0956,0.76249 -0.17386,1.47848 -0.17386,1.59089 0,0.31842 -0.54045,0.54139 -0.86797,0.35815 z M 56.871588,130.44798 c 0.904689,-0.13122 2.681431,-0.31657 3.948115,-0.41205 2.908195,-0.21897 13.909675,-0.39572 20.480863,-0.32889 6.058877,0.0616 6.234873,0.06 11.537873,-0.0991 l 4.21742,-0.12658 0.02095,-1.4985 c 0.02334,-1.66942 0.263069,-3.74746 0.618524,-5.36443 0.143082,-0.65071 0.295634,-2.87259 0.389868,-5.67542 0.08508,-2.53322 0.190828,-4.75935 0.234892,-4.94662 0.07893,-0.33474 -0.01168,-0.34522 -5.385202,-0.63069 -4.581374,-0.24327 -7.487879,-0.27838 -17.967844,-0.21706 -13.922657,0.0815 -19.596127,0.18376 -20.535598,0.37016 l -0.630535,0.12517 0.07305,3.55424 c 0.0402,1.95489 0.162122,4.50489 0.270918,5.66677 0.112545,1.20102 0.175623,3.80939 0.146199,6.04546 l -0.05176,3.93294 0.493574,-0.0785 c 0.271381,-0.0431 1.233814,-0.18579 2.138694,-0.31693 z m 19.09484,-2.49442 c -0.218617,-0.21862 -0.244129,-0.60143 -0.167645,-2.50859 0.04969,-1.23797 0.159494,-2.32012 0.243901,-2.40481 0.09524,-0.0955 0.05523,-0.26278 -0.105284,-0.44006 -0.142412,-0.15736 -0.231655,-0.42128 -0.198305,-0.58635 0.04715,-0.2334 0.205775,-0.29657 0.71345,-0.28417 1.876822,0.0459 3.531777,0.80407 3.531777,1.6183 0,0.51921 -0.40419,0.817 -1.673803,1.23273 -0.603973,0.19776 -1.188082,0.46809 -1.298253,0.60082 -0.139181,0.16771 -0.168041,0.58758 -0.09465,1.37717 0.08495,0.91401 0.05506,1.18655 -0.152984,1.39441 -0.324507,0.32459 -0.474403,0.32459 -0.798678,5.1e-4 z m 1.774275,-4.48866 0.634922,-0.28062 -0.840716,-0.17221 -0.840711,-0.1722 v 0.46501 c 0,0.53307 0.149892,0.55617 1.046271,0.16 z m -14.684567,3.38954 c -1.908694,-0.7009 -2.179384,-3.4904 -0.648548,-6.68098 0.68458,-1.42645 1.683964,-2.67365 2.466797,-3.07861 0.58249,-0.30127 1.361308,-0.29989 1.612595,0.003 0.108175,0.13035 0.296561,0.19863 0.41874,0.15175 0.33513,-0.12864 0.602127,0.52475 0.4975,1.21765 -0.351992,2.32659 -0.487339,2.86273 -0.759876,3.00871 -0.338133,0.18094 -0.744632,0.0601 -0.866578,-0.25753 -0.04715,-0.12287 -0.01231,-0.69506 0.07748,-1.27185 0.204246,-1.31188 1.26e-4,-2.04296 -0.496343,-1.7772 -0.905152,0.48442 -2.296714,2.93726 -2.644989,4.66242 -0.543689,2.69274 0.726847,3.63455 3.160456,2.34322 1.085535,-0.57619 1.279545,-0.58881 1.279545,-0.0834 0,1.185 -2.611312,2.30872 -4.097019,1.76333 z m 6.694379,-0.70983 c -0.148176,-0.3252 -0.139428,-1.01255 0.03824,-3.00224 0.126716,-1.41935 0.233278,-3.2837 0.236742,-4.14326 0.0037,-0.8595 0.06632,-1.65525 0.139517,-1.76857 0.211128,-0.32613 0.742091,-0.23923 0.953885,0.15624 0.193767,0.36215 0.136084,2.60713 -0.150544,5.85936 -0.09055,1.02734 -0.06852,1.41166 0.08843,1.54193 0.114965,0.0954 0.209029,0.37016 0.209029,0.61036 0,1.05197 -1.123875,1.60536 -1.51528,0.74618 z m 16.474173,-0.98976 c -0.208899,-0.25172 -0.125498,-0.97806 0.265379,-2.3112 0.09888,-0.3372 0.0748,-0.34397 -0.635151,-0.18169 -0.914855,0.20938 -1.264306,0.0867 -1.264306,-0.44376 0,-0.48071 0.244824,-0.62668 1.501967,-0.89645 l 0.926401,-0.19869 0.2536,-0.93864 c 0.139509,-0.51613 0.300946,-1.173 0.358688,-1.45939 0.05776,-0.28649 0.200055,-0.5574 0.316191,-0.60205 0.136634,-0.0524 0.246209,-0.56571 0.310416,-1.45323 0.118146,-1.63338 0.35638,-2.39095 0.795906,-2.53045 0.808377,-0.25658 0.96728,0.50719 0.554085,2.66564 -0.267227,1.39719 -0.33028,3.43919 -0.110175,3.57522 0.07514,0.0465 0.52914,-0.0191 1.009085,-0.14571 2.572003,-0.67842 4.001144,-0.43606 3.454127,0.58604 -0.136098,0.25429 -0.34945,0.31719 -1.077452,0.31719 -0.866581,0 -3.193413,0.43514 -3.193413,0.59712 0,0.21538 0.522673,1.04797 0.658019,1.04797 0.08583,0 0.271153,0.22274 0.412041,0.49487 0.344369,0.6658 0.08738,1.1921 -0.546463,1.11879 -0.31619,-0.0365 -0.581338,-0.26664 -0.934945,-0.81114 -0.842791,-1.29833 -0.97167,-1.29217 -1.476328,0.0697 -0.616907,1.66479 -1.077682,2.1027 -1.577951,1.49972 z m -13.467796,-0.46748 c -0.364228,-0.43883 0.11904,-2.60867 0.643237,-2.88952 0.658481,-0.3523 0.733315,0.66887 0.192587,2.62838 -0.133225,0.48287 -0.545078,0.61159 -0.835824,0.26114 z m 0.428211,-4.48179 c -0.194448,-0.19445 -0.116835,-0.66672 0.145345,-0.88413 0.210475,-0.17469 0.301868,-0.16473 0.523595,0.057 0.248522,0.2485 0.24598,0.29366 -0.03376,0.60266 -0.320348,0.35383 -0.457309,0.40219 -0.635189,0.22448 z m 50.640007,9.20401 c 4.16196,-0.0644 9.79494,-0.0931 12.51769,-0.0639 l 4.95046,0.0533 0.20994,-1.53639 c 0.26676,-1.9515 0.26076,-10.67337 -0.008,-12.51466 -0.10588,-0.72431 -0.15059,-1.723 -0.0993,-2.21973 l 0.0932,-0.90291 -3.23859,0.0179 c -9.42242,0.0522 -30.27654,-0.13251 -32.84948,-0.29096 -4.58311,-0.28223 -5.839627,-0.32828 -5.84353,-0.21434 -0.250597,7.29277 -0.353607,9.49845 -0.4811,10.30449 -0.08593,0.54292 -0.263763,1.6534 -0.39495,2.46763 -0.273232,1.69374 -0.491493,4.90745 -0.343445,5.05548 0.109609,0.10962 13.692665,0.0264 25.487575,-0.15594 z m -5.89765,-1.76919 c -0.0511,-0.13317 -0.025,-0.44776 0.0579,-0.69905 0.1895,-0.57434 0.49334,-2.8264 0.49334,-3.65664 0,-0.35569 -0.10653,-0.71446 -0.24667,-0.83086 -0.3058,-0.25386 -0.31526,-0.56602 -0.0255,-0.8558 0.12169,-0.12169 0.26145,-0.72276 0.31065,-1.33559 0.0589,-0.73416 0.18865,-1.22411 0.37994,-1.43568 0.60697,-0.67072 2.32246,-0.20126 3.47454,0.95096 0.44207,0.44222 0.55616,0.67842 0.5169,1.07075 -0.0678,0.67719 -0.63192,1.05135 -1.94218,1.28879 -0.58804,0.10654 -1.16176,0.21903 -1.27493,0.24998 -0.13653,0.0373 -0.20605,0.40341 -0.20687,1.08953 -0.001,1.06737 -0.22089,2.71122 -0.50605,3.78878 -0.13023,0.4918 -0.24182,0.61683 -0.55062,0.61683 -0.21302,0 -0.42913,-0.10895 -0.48017,-0.24212 z m 3.05992,-6.76201 c 0.33928,-0.0584 0.6169,-0.16885 0.6169,-0.24545 0,-0.19249 -1.365,-0.97559 -1.70059,-0.97559 -0.19244,0 -0.27346,0.14219 -0.27346,0.48009 0,0.26404 -0.0481,0.60544 -0.10695,0.7588 -0.0897,0.23378 -0.03,0.26338 0.37023,0.18359 0.26238,-0.0523 0.7548,-0.14291 1.09408,-0.20131 z m -17.92307,3.39171 c -0.61413,-0.37448 -1.0361,-1.10402 -1.0361,-1.79075 0,-1.55547 1.52644,-4.35911 2.88006,-5.29051 1.09316,-0.75234 1.71607,-0.80838 2.38014,-0.21511 l 0.53468,0.47763 -0.19184,0.92417 c -0.20292,0.97744 -0.47463,1.23212 -1.00886,0.94634 -0.23119,-0.12367 -0.31711,-0.34613 -0.31711,-0.82192 0,-0.35877 -0.0636,-0.65225 -0.14134,-0.65225 -0.0777,0 -0.47187,0.29086 -0.87559,0.6464 -1.14374,1.0067 -2.23667,3.35222 -1.99415,4.27962 0.213,0.81454 2.57024,0.86288 4.80518,0.0989 1.31973,-0.45116 1.66063,-0.38463 1.66063,0.32396 0,0.28371 -0.16254,0.43822 -0.67742,0.64424 -1.99923,0.80007 -5.05307,1.01779 -6.01828,0.42929 z m 9.82022,-1.24167 c -0.23813,-0.28681 -0.12875,-1.6186 0.28339,-3.45342 0.14226,-0.63346 0.26653,-1.62414 0.276,-2.20217 0.0133,-0.80868 0.0836,-1.09262 0.30534,-1.23305 0.20583,-0.13038 0.36747,-0.13213 0.56725,-0.006 0.51852,0.32704 0.54531,1.01347 0.12409,3.16807 -0.22193,1.13512 -0.4035,2.40481 -0.4035,2.82177 0,0.41697 -0.0888,0.84688 -0.19741,0.95528 -0.27069,0.27076 -0.70767,0.24765 -0.95516,-0.0504 z m 13.92905,-0.19075 c -0.18636,-0.18637 -0.10715,-1.04981 0.26908,-2.93356 0.32427,-1.62322 0.39957,-1.81508 0.73239,-1.86219 0.23166,-0.0328 0.41088,0.0518 0.47763,0.22538 0.12863,0.33505 -0.38294,3.3946 -0.69312,4.14554 -0.20677,0.50042 -0.53376,0.67719 -0.78598,0.42483 z m 1.7327,-0.0877 c -0.57233,-0.57249 0.22737,-1.19517 1.87659,-1.46124 0.67858,-0.10948 1.17446,-0.25137 1.1017,-0.31535 -0.0728,-0.064 -0.48317,-0.21063 -0.91231,-0.32612 -0.90007,-0.24205 -1.6052,-0.82162 -1.6052,-1.31927 0,-0.49303 0.68388,-1.05966 1.85996,-1.541 l 1.01902,-0.41697 -0.69082,-0.008 c -0.37994,-0.004 -1.55416,0.10517 -2.60949,0.24351 -1.45369,0.19058 -1.97406,0.20562 -2.14705,0.0622 -0.28385,-0.23566 -0.29563,-0.71322 -0.0226,-0.93126 0.27854,-0.22268 3.45514,-0.53491 5.43613,-0.53429 1.47933,5.1e-4 1.64355,0.0327 2.00454,0.39356 0.75641,0.75634 0.28617,1.22073 -2.25883,2.23082 -0.52014,0.20645 -0.9458,0.43267 -0.9458,0.50258 0,0.0699 0.25336,0.1746 0.56286,0.23267 1.06267,0.19936 2.21865,0.59744 2.47285,0.8518 0.13992,0.13992 0.25429,0.43268 0.25429,0.65071 0,0.54199 -0.85134,0.95373 -2.71767,1.31465 -0.81254,0.15713 -1.54747,0.34922 -1.63339,0.42713 -0.22644,0.20504 -0.81507,0.17354 -1.04478,-0.056 z m -12.43665,-0.76311 c -0.0469,-0.076 0.0326,-0.53861 0.17663,-1.02826 0.14406,-0.48964 0.28686,-0.98268 0.31711,-1.09569 0.079,-0.29415 0.50535,-0.25411 0.62545,0.0587 0.28848,0.75203 -0.74832,2.66534 -1.11919,2.06521 z m 0.88852,-3.92164 c 0,-0.36923 0.29841,-0.71105 0.62084,-0.71105 0.33489,0 0.1746,0.4998 -0.2506,0.78189 -0.34068,0.22574 -0.37024,0.22008 -0.37024,-0.0709 z m 40.74524,11.13337 c 0.49172,0 0.85342,-0.0657 0.80376,-0.14601 -0.0496,-0.0803 -0.10289,-1.17207 -0.11834,-2.42636 -0.0281,-2.28101 0.23743,-4.73103 0.55454,-5.11816 0.25245,-0.30795 1.59689,-0.2411 2.39051,0.11912 0.93102,0.42251 2.08331,1.40273 2.45019,2.08392 0.29148,0.54138 0.29056,0.5577 -0.0584,0.90631 -0.29125,0.29123 -0.66679,0.38463 -2.08469,0.51921 l -1.72946,0.16387 -0.0882,0.83855 c -0.0485,0.46131 -0.1206,1.38517 -0.1602,2.05313 l -0.072,1.21426 1.59089,-0.13042 c 0.8749,-0.0717 2.4052,-0.11656 3.40047,-0.0996 0.99523,0.017 2.80893,-0.0749 4.03037,-0.20412 1.22133,-0.12921 2.27962,-0.19877 2.35164,-0.15457 0.072,0.0442 1.34698,0.0271 2.83354,-0.038 2.27847,-0.0998 2.71583,-0.16013 2.7862,-0.38433 0.046,-0.14634 0.11955,-1.48741 0.16365,-2.98037 0.0441,-1.49295 0.16038,-3.30655 0.25845,-4.03036 0.098,-0.72369 0.28109,-2.16861 0.40696,-3.21073 0.12585,-1.04211 0.30557,-2.23696 0.39934,-2.65548 0.0974,-0.43452 0.12665,-1.42859 0.0683,-2.31796 l -0.10229,-1.55701 -2.15652,-0.14675 c -2.52119,-0.17158 -7.43795,-0.11954 -11.28642,0.11948 -1.49296,0.0927 -4.97196,0.19717 -7.73128,0.23212 -2.75931,0.0349 -6.17969,0.14716 -7.60084,0.24934 -1.42113,0.10218 -2.65834,0.13978 -2.74929,0.0835 -0.091,-0.0562 -0.95597,-0.0511 -1.92232,0.0114 l -1.75695,0.11358 0.12694,1.98938 c 0.17214,2.69768 0.19629,11.50154 0.0367,13.37955 l -0.12915,1.51976 6.6271,0.0502 c 3.6449,0.0276 6.83993,0.0284 7.10004,0.002 0.26007,-0.0266 0.87513,-0.0484 1.36675,-0.0483 z m -11.41124,-3.65654 c -0.85411,-0.27459 -1.40334,-0.97744 -1.49296,-1.91084 -0.1507,-1.56841 0.98761,-4.01528 2.67035,-5.73985 0.90307,-0.92571 1.0726,-1.03041 1.6648,-1.03041 0.81369,0 1.05389,0.22469 1.05389,0.98544 0,0.70584 -0.43329,2.44516 -0.68435,2.74757 -0.23997,0.28928 -0.70883,0.27182 -0.96428,-0.036 -0.16924,-0.20392 -0.15759,-0.40805 0.0621,-1.08831 0.39564,-1.22504 0.36123,-1.43537 -0.15553,-0.95158 -1.41974,1.32943 -2.81534,4.42369 -2.40314,5.32839 0.36123,0.79298 2.01217,0.906 3.35714,0.23009 0.79452,-0.39941 1.2814,-0.39941 1.2814,6e-5 0,1.19393 -2.56739,2.05097 -4.38943,1.46535 z m 9.48356,-0.21607 c -0.17046,-0.20539 -0.17104,-0.56231 -0.003,-1.88066 0.21936,-1.72146 0.37462,-1.9672 0.97674,-1.54531 0.40119,0.28103 0.44022,0.81392 0.16819,2.29209 -0.24805,1.34761 -0.64092,1.73778 -1.14198,1.13388 z m -3.2834,-0.40252 c -0.13511,-0.25246 -0.02,-0.99253 0.50535,-3.24896 0.5303,-2.27732 0.6765,-3.22406 0.66334,-4.29117 -0.0182,-1.4751 0.11988,-1.92041 0.64762,-2.08793 0.9174,-0.29118 1.05043,0.99869 0.41551,4.03283 -0.7287,3.48366 -1.11302,5.17904 -1.25876,5.55202 -0.1797,0.46009 -0.73655,0.48503 -0.97306,0.0432 z m 16.69616,-1.32235 c -0.94881,-0.1385 -1.35161,-0.41112 -1.74356,-1.17915 -0.44761,-0.87736 -0.34737,-1.52899 0.55108,-3.58701 0.90215,-2.06637 1.64794,-3.32442 2.29302,-3.86715 0.47256,-0.39757 0.61298,-0.43268 1.34907,-0.33506 0.45177,0.0599 0.88137,0.14593 0.95435,0.19108 0.2432,0.15026 0.13746,0.90261 -0.29979,2.13411 -0.36401,1.02549 -0.49127,1.21857 -0.80238,1.21857 -0.61113,0 -0.77281,-0.34891 -0.57371,-1.23704 0.0962,-0.42929 0.14287,-0.81269 0.1037,-0.8518 -0.31457,-0.31442 -2.41428,3.88702 -2.5332,5.0687 -0.066,0.65563 -0.0241,0.79544 0.30811,1.02825 0.48041,0.33659 1.61582,0.34707 2.39286,0.0225 1.15576,-0.48287 1.7842,-0.2365 1.29618,0.50812 -0.43352,0.6618 -1.98145,1.07784 -3.29573,0.88591 z m -13.05142,-3.43038 c -0.38271,-0.2426 -0.16323,-0.91863 0.31643,-0.97436 0.51667,-0.0601 0.8742,0.32335 0.72869,0.78188 -0.11132,0.35077 -0.64139,0.44839 -1.04512,0.19248 z m 5.29201,3.75675 1.01463,-0.007 -0.6333,-0.55956 c -0.63192,-0.55801 -1.42876,-0.86041 -1.74795,-0.66301 -0.0927,0.0572 -0.16852,0.40372 -0.16852,0.77019 0,0.53953 0.0493,0.647 0.2603,0.56601 0.14312,-0.0549 0.71691,-0.10293 1.27484,-0.10679 z m -20.05348,-14.25362 c 0.061,-0.75232 0.10268,-3.16301 0.0925,-5.35696 -0.0102,-2.19386 0.0578,-5.428602 0.15099,-7.188072 0.0932,-1.75933 0.14926,-3.21924 0.12456,-3.24398 -0.1002,-0.10019 -7.7343,-0.10962 -12.20088,-0.0151 -2.62386,0.0555 -5.82018,0.10632 -7.10296,0.11282 l -2.33231,0.0118 0.0811,0.94603 c 0.0446,0.52013 0.15623,1.29155 0.24806,1.71376 0.0918,0.4222 0.17196,2.03803 0.1781,3.590202 0.013,3.29563 -0.0474,3.4419 -1.47794,3.57935 -0.72708,0.0698 -0.8451,0.0331 -1.1539,-0.35969 -0.28779,-0.36585 -0.31619,-0.51767 -0.17392,-0.92571 0.19944,-0.57218 0.71391,-0.97652 1.24212,-0.97652 0.35038,0 0.3744,-0.0666 0.37024,-1.02826 -0.002,-0.565402 -0.082,-1.731312 -0.17683,-2.590812 -0.0948,-0.85949 -0.22235,-2.08084 -0.28339,-2.71429 l -0.11105,-1.15145 -4.52389,-0.10428 c -2.48814,-0.0573 -5.22715,-0.18524 -6.08669,-0.28418 -0.85965,-0.0989 -2.78423,-0.25607 -4.27712,-0.34922 -1.49296,-0.0931 -3.06597,-0.21277 -3.49572,-0.2659 l -0.781359,-0.0966 -0.01434,0.71446 c -0.02977,1.4831 0.0322,7.902102 0.103763,10.749382 0.04094,1.62845 0.01759,3.63409 -0.05186,4.45666 l -0.126295,1.49543 3.951371,0.20972 c 6.98098,0.37047 9.61761,0.4182 23.79519,0.42868 l 13.92164,0.0106 z m -38.23585,-0.5771 c -0.31666,-0.0724 -0.9368,-0.11333 -1.37817,-0.0908 -0.61483,0.0313 -0.84533,-0.0265 -0.98622,-0.24702 -0.45754,-0.7163 0.68781,-1.22657 2.10478,-0.93771 0.47948,0.0977 0.87028,0.10473 0.95781,0.0171 0.23397,-0.23407 -0.15502,-1.4015 -0.60928,-1.82832 -0.22442,-0.21084 -0.36885,-0.44654 -0.32104,-0.52383 0.0478,-0.0773 -0.3155,-0.14059 -0.80746,-0.14059 -0.94742,0 -1.33636,-0.24142 -1.2352,-0.7665 0.0769,-0.39942 3.00262,-0.77296 4.64951,-0.59373 1.15321,0.12559 1.16199,0.13022 1.16199,0.6199 0,0.46902 -0.0367,0.49551 -0.74025,0.53523 -0.40719,0.0229 -0.9689,0.0796 -1.24859,0.12588 l -0.50836,0.0841 0.39957,0.80746 c 0.23651,0.47763 0.40419,1.11448 0.41089,1.55978 0.018,1.193 -0.61206,1.66264 -1.85026,1.37932 z m 31.9688,-0.0461 c -0.55801,-0.12339 -1.17584,-0.31073 -1.37286,-0.41605 -0.30464,-0.16299 -0.39564,-0.13884 -0.60536,0.16077 -0.16885,0.24107 -0.38502,0.33659 -0.68342,0.30207 -0.5855,-0.0677 -0.63608,-0.5423 -0.18524,-1.73746 0.19612,-0.51983 0.4483,-1.38918 0.56055,-1.93211 0.16147,-0.78097 0.26815,-0.98698 0.51113,-0.98698 0.18596,0 0.34275,0.15099 0.39749,0.38278 l 0.0903,0.38278 0.41065,-0.43883 c 0.59381,-0.63469 0.92802,-0.78036 1.31535,-0.5731 0.54785,0.29319 0.38248,0.84318 -0.57649,1.91824 -0.49727,0.5574 -0.904,1.08677 -0.904,1.17669 0,0.23247 0.91185,0.52044 2.01448,0.63623 1.03126,0.10833 1.32966,0.3252 1.24721,0.90723 -0.0675,0.4761 -0.75087,0.54324 -2.2198,0.21853 z m -79.26396,1.30418 c 1.588576,-0.16651 6.249031,-0.24599 19.905088,-0.33937 10.77486,-0.0737 13.604226,-0.0436 17.65341,0.18811 2.652124,0.15176 4.872921,0.22467 4.935143,0.16203 0.134971,-0.1359 0.07737,-17.149642 -0.0588,-17.369982 -0.12347,-0.19978 -7.04771,-0.188 -9.287099,0.0158 -0.949959,0.0865 -3.573976,0.23347 -5.831035,0.32675 -2.256988,0.0932 -4.368146,0.21176 -4.691334,0.26344 l -0.587578,0.094 0.282474,1.91794 c 0.155404,1.05504 0.286396,2.67426 0.290784,3.59839 0.0078,1.570882 0.03236,1.693142 0.378319,1.875442 0.898917,0.47332 0.843253,1.12126 -0.154409,1.79444 -1.270079,0.85704 -2.338566,0.78066 -2.809253,-0.2008 -0.351064,-0.73199 0.306032,-1.61244 1.203792,-1.61244 0.20175,0 0.224753,-0.3063 0.145149,-1.933012 -0.117147,-2.39373 -0.516437,-5.33816 -0.742786,-5.47809 -0.275539,-0.17031 -9.770115,-0.32305 -14.216234,-0.22858 -2.261842,0.048 -5.037507,0.19499 -6.167919,0.32674 -1.130344,0.13161 -2.092773,0.2393 -2.138504,0.23931 -0.04579,1e-5 -0.08326,3.74317 -0.08326,8.318092 v 8.3181 l 0.493569,-0.0863 c 0.271385,-0.0474 0.937718,-0.13281 1.480488,-0.19001 z m 2.582718,-2.73925 c -0.108571,-0.10856 -0.197405,-0.28274 -0.197405,-0.38708 0,-0.12454 -0.38225,-0.18967 -1.113019,-0.18967 -1.77358,0 -2.508974,-0.53061 -2.503477,-1.80615 0.0037,-0.88044 0.60582,-1.84957 1.479794,-2.38202 1.080219,-0.65809 1.542844,-0.73139 1.963892,-0.31042 0.381784,0.38187 0.321042,0.66642 -0.142301,0.66642 -0.485949,0 -1.770348,1.09138 -1.97498,1.67803 -0.160249,0.45978 -0.146138,0.57003 0.09534,0.74679 0.302796,0.22134 1.353455,0.25057 2.030183,0.0565 0.397952,-0.11417 0.391484,-0.12464 -0.197772,-0.32274 -0.6012,-0.20217 -0.917621,-0.6661 -0.697512,-1.02241 0.128646,-0.20816 2.100857,-0.0533 2.581356,0.20276 0.387329,0.2063 0.363538,0.8752 -0.05074,1.43568 -0.290327,0.39264 -0.31042,0.52014 -0.140319,0.89337 0.156678,0.34399 0.154467,0.48811 -0.01054,0.68673 -0.249444,0.3006 -0.847412,0.32952 -1.122513,0.0542 z m 34.546504,-0.50257 c -0.09429,-0.11361 -0.220572,-0.42836 -0.280622,-0.69906 -0.20348,-0.9177 -0.164669,-0.89059 -0.976751,-0.68334 -0.6079,0.15506 -0.80676,0.30188 -1.03888,0.76711 -0.208062,0.41697 -0.395412,0.57525 -0.680423,0.57525 -0.699592,0 -0.773963,-0.38986 -0.445069,-2.33551 0.341366,-2.01832 0.472554,-2.35277 0.923398,-2.35277 0.399107,0 0.561706,0.57434 0.447841,1.58289 -0.06815,0.6045 -0.03918,0.72368 0.157668,0.64824 0.132641,-0.0509 0.331665,-0.0925 0.442298,-0.0925 0.123009,0 0.283856,-0.4955 0.41412,-1.27493 0.268381,-1.60813 0.514359,-1.93855 1.145817,-1.53853 0.190049,0.1204 0.688968,2.4818 0.698669,3.30692 0.0016,0.13573 0.07977,0.5999 0.173727,1.03165 0.128568,0.59066 0.120885,0.84503 -0.03106,1.02826 -0.246902,0.29749 -0.719225,0.31565 -0.950652,0.0367 z m 63.662948,53.80228 c -0.29426,-0.29421 -0.23033,-0.74771 0.285,-2.02356 0.39311,-0.97313 0.53192,-1.15945 0.89569,-1.20348 0.29702,-0.0359 0.46192,-0.17687 0.53168,-0.45454 0.11851,-0.47209 0.48272,-0.71599 0.90469,-0.60575 0.38571,0.10083 0.54253,0.59744 0.32011,1.01286 -0.21906,0.40927 -0.22701,1.33313 -0.0115,1.33313 0.2098,0 0.92594,-1.08399 1.15967,-1.75533 0.20964,-0.60205 0.54162,-0.78313 0.99315,-0.54139 0.24829,0.13283 0.31712,0.34831 0.31712,0.99162 0,0.89953 0.29009,1.7541 0.71484,2.1064 0.37924,0.31442 0.34921,0.96142 -0.0505,1.0883 -0.47902,0.15205 -0.9502,-0.17335 -1.33059,-0.91924 l -0.33836,-0.66333 -0.51598,0.50443 c -0.58596,0.57279 -1.31673,0.66734 -1.7976,0.2321 -0.16546,-0.14974 -0.30072,-0.19458 -0.30072,-0.0996 0,0.0949 -0.21476,0.4025 -0.47717,0.68366 -0.49935,0.53461 -0.96567,0.64701 -1.29947,0.31377 z m 25.34197,-22.1197 c -0.11309,-0.0457 -0.20562,-0.22048 -0.20562,-0.38864 0,-0.16807 -0.0635,-0.3449 -0.14102,-0.39263 -0.20751,-0.12825 -0.37278,-1.79229 -0.18924,-1.90562 0.15876,-0.0981 0.65918,-2.22989 0.65918,-2.80822 0,-0.24094 -0.115,-0.31812 -0.47347,-0.31812 -0.53284,0 -0.89476,-0.33105 -0.75641,-0.69167 0.11618,-0.30281 3.50179,-1.11786 4.64346,-1.11786 0.9846,0 1.41604,0.34029 0.9816,0.77481 -0.17777,0.17776 -0.5243,0.25744 -1.05506,0.24263 -0.43466,-0.0122 -1.14212,0.0575 -1.57194,0.15473 -0.72731,0.16454 -0.78182,0.21264 -0.78736,0.69505 -0.003,0.28503 -0.10346,1.02178 -0.22252,1.63708 -0.19615,1.01347 -0.1917,1.10894 0.0471,1.01347 0.14502,-0.0579 0.84463,-0.14676 1.55486,-0.19742 1.38509,-0.0988 1.7223,0.0564 1.40587,0.64731 -0.11999,0.22421 -0.35637,0.29675 -0.96751,0.29675 -0.44484,0 -1.1823,0.0802 -1.63915,0.17814 -0.76588,0.16423 -0.83055,0.21535 -0.83055,0.65501 0,0.65779 0.46239,0.74217 2.32452,0.42344 0.82986,-0.14199 1.57149,-0.21929 1.64839,-0.1718 0.0769,0.0475 0.13973,0.26565 0.13973,0.48472 0,0.44469 -0.0205,0.45207 -2.02185,0.724 -1.34423,0.18262 -2.19787,0.20451 -2.54312,0.0652 z m 5.10946,-0.65378 c -0.16223,-0.42282 0.14014,-0.7511 1.32713,-1.44092 l 1.10262,-0.64084 -0.0134,-2.81377 c -0.008,-1.54778 -0.0103,-2.90646 -0.007,-3.01949 0.01,-0.28134 0.77305,-0.26125 0.88206,0.0232 0.14384,0.37478 0.17817,7.4271 0.0372,7.65507 -0.0792,0.12813 -0.30511,0.17492 -0.57949,0.12006 -0.24737,-0.0495 -0.80538,0.0172 -1.24005,0.14792 -1.02225,0.30766 -1.38256,0.30021 -1.50945,-0.0312 z m -139.304341,-0.0853 c -0.549004,-0.30026 -0.740239,-0.66179 -0.740239,-1.39841 0,-1.01656 0.65848,-1.71192 2.055121,-2.17046 1.434525,-0.47086 1.664338,-0.45053 2.320668,0.20565 0.602356,0.60236 0.655017,0.81176 0.383865,1.52745 -0.52637,1.38887 -2.875073,2.46178 -4.019415,1.83577 z m 1.773813,-1.18562 c 0.666101,-0.28195 1.150666,-0.81638 1.078373,-1.18962 -0.08625,-0.44499 -0.355456,-0.44038 -1.029642,0.0172 -0.379244,0.25743 -0.740473,0.38341 -0.928248,0.32366 -0.230965,-0.0733 -0.333051,0.004 -0.410654,0.3138 -0.193277,0.7702 0.275539,0.96452 1.290171,0.535 z m 6.377309,0.8672 c -1.005156,-0.21521 -1.226655,-0.86042 -0.669798,-1.95181 0.449228,-0.88044 1.191318,-1.36793 2.209411,-1.45138 0.677651,-0.0555 0.923859,-4.7e-4 1.289939,0.28845 0.24875,0.19641 0.452459,0.45946 0.452459,0.5848 0,0.12527 0.343216,-0.1392 0.762879,-0.58758 0.497961,-0.53245 0.89776,-0.81546 1.151593,-0.81546 0.213809,0 0.388714,0.0712 0.388714,0.1583 0,0.0871 0.416198,0.15332 0.924783,0.14726 1.127568,-0.0135 1.764109,0.37785 1.839866,1.1311 0.06639,0.66118 -0.487567,1.09386 -1.98122,1.54778 -1.397568,0.42436 -2.516916,0.35322 -2.955241,-0.18809 -0.254756,-0.31443 -0.306723,-0.32675 -0.395872,-0.0942 -0.118323,0.30827 -1.297102,1.03627 -1.983296,1.22474 -0.256374,0.0704 -0.721768,0.0734 -1.03403,0.007 z m 1.67011,-1.65371 c 0.443222,-0.31565 0.488258,-0.63439 0.08948,-0.63439 -0.267453,0 -1.438445,0.8364 -1.438445,1.02734 0,0.2305 0.801448,-0.003 1.349063,-0.39264 z m 5.033073,-0.71969 c 0.126049,-0.136 -1.728773,0.0366 -1.965515,0.18295 -0.07971,0.0492 -0.106488,0.15174 -0.05951,0.22774 0.09206,0.14897 1.833632,-0.20425 2.025025,-0.41069 z m -9.225018,1.78182 c -0.102599,-0.53677 0.0095,-0.87397 0.290322,-0.87397 0.357536,0 0.621063,0.46531 0.511359,0.90261 -0.143993,0.57371 -0.690125,0.55432 -0.801681,-0.0286 z m 24.146107,-0.0472 c -0.452463,-0.0771 -2.027874,-0.14654 -3.500897,-0.15448 -2.271309,-0.0122 -2.693397,-0.0536 -2.77731,-0.27222 -0.177316,-0.46223 0.208423,-0.59126 1.9408,-0.65039 0.937947,-0.032 2.260453,-0.16598 2.939097,-0.29786 3.508405,-0.68181 3.766785,-0.69167 24.593487,-0.9254 7.87156,-0.0884 15.23726,-0.23501 16.36825,-0.32581 2.84448,-0.22841 7.85277,-0.48842 8.58428,-0.44592 1.14697,0.067 1.69967,1.1733 0.95712,1.91608 -0.28987,0.28994 -0.54878,0.32921 -2.17962,0.32951 -1.01786,3.3e-4 -2.66499,0.0716 -3.66024,0.15852 -4.00807,0.34983 -10.68465,0.54661 -19.82284,0.58418 -5.292956,0.0218 -12.54761,0.081 -16.121494,0.1316 -3.57388,0.0506 -6.868085,0.029 -7.320479,-0.0481 z m 115.844687,0.0462 c -0.10562,-0.17511 0.003,-1.98291 0.13259,-2.19109 0.0552,-0.0893 0.20862,-0.1624 0.3409,-0.1624 0.72546,0 0.68828,2.33213 -0.0389,2.43591 -0.19504,0.0278 -0.39056,-0.009 -0.43466,-0.0824 z m 3.13227,-0.33536 c -0.18535,-0.20479 -0.28662,-0.58512 -0.28662,-1.07568 v -0.75911 l -0.69775,-0.0506 c -0.52891,-0.0384 -0.71183,-0.1254 -0.75641,-0.36 -0.0768,-0.40434 0.23928,-0.58973 1.01047,-0.59281 0.54231,-0.003 0.64762,-0.0664 0.79291,-0.48287 0.0921,-0.26418 0.26792,-0.5189 0.39078,-0.56602 0.26446,-0.10151 0.64787,0.30383 0.50536,0.53431 -0.0546,0.0883 0.10563,0.18405 0.35592,0.21283 0.36191,0.0416 0.45522,0.1366 0.45522,0.46347 0,0.31349 -0.0976,0.42497 -0.41134,0.46901 -0.50627,0.071 -0.65225,0.28424 -0.65548,0.95712 -0.003,0.51921 -7e-5,0.52074 0.58827,0.35815 0.75179,-0.20759 1.05436,-0.0889 1.05436,0.41358 0,0.45238 -0.16926,0.54416 -1.27424,0.69074 -0.64924,0.0861 -0.83401,0.0494 -1.07121,-0.21265 z m 7.72245,-0.54046 c -0.25452,-0.0765 -0.56932,-0.22718 -0.69912,-0.33505 -0.71161,-0.59065 0.21779,-2.53938 2.20894,-4.63198 1.20771,-1.26939 1.32666,-1.44585 0.97305,-1.44585 -0.24066,0 -0.58087,0.19991 -0.84556,0.49704 -0.36815,0.41327 -0.49749,0.46778 -0.76749,0.32335 -0.4878,-0.26101 -0.39241,-0.79976 0.24829,-1.40396 0.6363,-0.60019 1.31395,-0.81361 2.06089,-0.64978 0.66611,0.14629 0.9853,0.49888 0.9853,1.088 0,0.38863 -0.29009,0.79514 -1.41327,1.98045 -1.39318,1.47017 -2.37024,2.79529 -2.37024,3.21475 0,0.29502 0.39681,0.26645 1.61861,-0.11658 0.57348,-0.17979 1.25298,-0.32674 1.50981,-0.32674 0.44646,0 0.98414,0.35939 0.98414,0.6581 0,0.31103 -0.54669,0.65809 -1.0398,0.66025 -0.28755,8.6e-4 -0.99222,0.14922 -1.56571,0.32889 -1.13981,0.35723 -1.20956,0.36308 -1.88767,0.15966 z M 52.876189,135.58359 c -0.442993,-0.44284 -0.177097,-1.44984 0.382707,-1.44984 0.48803,0 0.660789,0.5069 0.373932,1.0957 -0.254523,0.52228 -0.482023,0.62853 -0.756639,0.35414 z m -41.231693,-1.70822 c -0.339056,-0.33905 -0.342983,-2.65362 -0.01049,-6.23944 0.251287,-2.70936 0.326815,-7.97549 0.139829,-9.76356 l -0.105649,-1.0107 -1.061287,1.93272 c -0.583646,1.06305 -1.3409807,2.35245 -1.6828067,2.86581 -0.341831,0.51335 -0.669109,1.12187 -0.726847,1.35253 -0.154331,0.61498 -0.700981,0.86165 -1.102859,0.49796 -0.297713,-0.26954 -0.310187,-0.46378 -0.212685,-3.34434 l 0.103517,-3.05829 -0.83609,0.80961 c -0.5072,0.49119 -0.876516,1.00886 -0.938642,1.31619 -0.05646,0.27857 -0.46817,2.13504 -0.915084,4.12559 -0.446686,1.99061 -0.848798,3.7837 -0.893372,3.98486 -0.06124,0.27662 -0.02033,0.34244 0.167817,0.27028 0.196831,-0.0755 0.24875,0.0437 0.24875,0.57094 0,1.33714 -1.240329,1.99615 -1.663223,0.88382 -0.20563,-0.54076 -0.139964,-0.95003 0.852859,-5.31508 0.73456,-3.2295 1.000171,-4.56735 1.237833,-6.23469 0.157134,-1.10248 0.229006,-1.2774 0.560555,-1.36393 0.189076,-0.0495 0.446915,0.0259 0.594965,0.17404 0.238817,0.23874 0.332126,0.18774 1.082298,-0.59035 0.826625,-0.85765 1.257605,-1.03134 1.58373,-0.6387 0.116295,0.14013 0.154504,1.13851 0.11171,2.91848 l -0.06503,2.70537 0.525446,-0.89183 c 0.288937,-0.49058 1.117641,-2.00724 1.8412507,-3.37089 0.986453,-1.8582 1.401957,-2.49134 1.659483,-2.5283 0.188871,-0.027 0.420125,0.0471 0.513896,0.16451 0.09586,0.1201 0.248983,2.04943 0.349683,4.40844 0.178011,4.16873 0.145439,5.29929 -0.3185,11.0521 -0.169552,2.10301 -0.168647,2.69952 0.0049,3.22523 0.353144,1.07013 -0.342059,1.79629 -1.046043,1.092 z m 181.183564,-0.3255 c -0.17481,-0.21065 -0.16402,-0.30262 0.0622,-0.52875 0.2536,-0.2535 0.29379,-0.25384 0.543,-0.004 0.2991,0.29899 0.19863,0.78836 -0.1617,0.78836 -0.12747,0 -0.32705,-0.11476 -0.44342,-0.2551 z m 10.20619,-3.52859 c 0,-0.0905 0.11104,-0.16451 0.24667,-0.16451 0.13571,0 0.24666,0.074 0.24666,0.16451 0,0.0905 -0.11104,0.16451 -0.24666,0.16451 -0.13572,0 -0.24667,-0.074 -0.24667,-0.16451 z m -176.524855,-2.2342 c -0.17767,-0.21408 -0.17815,-0.4687 -0.0028,-1.43937 0.117223,-0.64855 0.251753,-1.54962 0.29887,-2.00201 0.100761,-0.9679 0.27346,-1.23366 0.801215,-1.23366 0.559627,0 0.649476,0.5922 0.33236,2.19017 -0.147034,0.74063 -0.267226,1.58473 -0.267226,1.87574 1.64e-4,0.75633 -0.725,1.13634 -1.162448,0.60944 z m -11.175285,-0.0117 c -1.565245,-0.62822 -1.224804,-2.62253 0.683891,-4.00517 1.46039,-1.05782 2.856643,-0.95096 3.361647,0.25776 0.656172,1.57026 -0.981603,3.68235 -2.943765,3.79666 -0.470244,0.0274 -0.966127,0.005 -1.101773,-0.0492 z m 1.593892,-1.2857 c 0.844871,-0.24215 1.722537,-1.82247 1.193393,-2.14951 -0.29263,-0.18091 -0.94996,0.0704 -1.055737,0.40372 -0.05496,0.17318 -0.318964,0.3911 -0.586651,0.48472 -0.329357,0.1148 -0.486877,0.28057 -0.486877,0.51243 0,0.18851 -0.121424,0.38926 -0.269767,0.44623 -0.243668,0.0935 -0.240431,0.12505 0.0325,0.32458 0.166288,0.12159 0.417356,0.18958 0.55778,0.1511 0.140464,-0.0384 0.417356,-0.11639 0.615362,-0.17327 z m 13.889651,1.11172 c -0.929171,-0.45763 -1.202403,-1.07508 -1.12734,-2.54586 0.144417,-2.82454 2.215188,-5.22101 3.562843,-4.12328 0.252676,0.20584 0.428672,0.67073 0.617137,1.63062 0.145028,0.73847 0.217945,1.46185 0.162049,1.60751 -0.144636,0.37694 -0.593118,0.50689 -0.95943,0.27818 -0.242744,-0.15156 -0.534451,-0.15 -1.294328,0.007 l -0.980908,0.2026 v 0.60698 c 0,0.35291 0.131804,0.76957 0.314803,0.9953 0.27277,0.33659 0.453616,0.3871 1.357153,0.37847 0.712989,-0.007 1.315344,-0.13019 1.905921,-0.39048 0.715991,-0.31534 0.90723,-0.34398 1.118792,-0.16858 0.140346,0.11647 0.232817,0.39695 0.205724,0.6236 -0.109029,0.90816 -3.569791,1.54439 -4.882416,0.89797 z m 1.474021,-4.48935 c 0.251058,0 0.315498,-0.11786 0.315498,-0.57588 0,-0.70859 -0.174056,-0.72522 -0.725695,-0.0696 -0.4811,0.57187 -0.552698,0.89368 -0.165668,0.74525 0.143112,-0.0549 0.402107,-0.0999 0.575865,-0.0997 z m -10.093559,4.15345 c -0.587345,-0.64916 -1.118565,-3.1664 -0.759415,-3.5991 0.477864,-0.57588 1.00123,0.0621 1.206101,1.47078 0.07182,0.49334 0.188227,0.76834 0.309258,0.73015 0.25637,-0.0808 0.921091,-2.03156 0.928481,-2.72476 0.008,-0.75171 0.274156,-1.18192 0.731698,-1.18192 0.738392,0 0.815996,0.34397 0.43098,1.90838 -0.707215,2.87289 -1.964125,4.37232 -2.847103,3.39647 z m 5.382821,-6.69376 c -0.144781,-0.22097 -0.239051,-0.57248 -0.209426,-0.78128 0.04449,-0.31411 0.153431,-0.3797 0.629611,-0.3797 0.506043,0 0.582029,0.0548 0.627994,0.4533 0.03399,0.29563 -0.03753,0.48781 -0.205631,0.55217 -0.141777,0.0544 -0.257759,0.20204 -0.257759,0.32797 0,0.35692 -0.29471,0.27008 -0.58457,-0.17259 z M 146.5589,106.97224 c -0.7541,-0.43883 -0.63515,-1.61737 0.19497,-1.93271 1.28208,-0.48688 3.94008,-0.71292 8.15733,-0.69443 4.26673,0.0188 6.08067,-0.0198 10.97026,-0.23359 2.27962,-0.0996 2.64765,-0.0788 3.20784,0.18202 0.74094,0.34491 0.92133,0.55677 0.70075,0.82254 -0.11153,0.13438 -0.34529,0.14867 -0.77188,0.0472 -0.33652,-0.08 -0.98206,-0.11062 -1.43453,-0.0679 -3.05559,0.28824 -6.17175,0.63654 -7.64948,0.85457 -1.84818,0.27292 -2.06875,0.29078 -6.78344,0.54939 -1.69505,0.0929 -3.69387,0.27719 -4.44164,0.40957 -1.61052,0.28488 -1.76226,0.28938 -2.15005,0.0637 z m 24.55525,-0.40064 c -0.17678,-0.21302 -0.12667,-0.37386 0.3088,-0.99193 0.28594,-0.40557 0.5199,-0.80375 0.5199,-0.88474 0,-0.0809 -0.1907,-0.37386 -0.42382,-0.65071 -0.5102,-0.60635 -0.46978,-1.06613 0.0996,-1.13265 0.28501,-0.0334 0.55986,0.10467 0.88575,0.44469 l 0.47256,0.49303 0.31757,-0.40372 c 0.35176,-0.44715 0.95158,-0.54385 0.95158,-0.15361 0,0.13752 -0.18691,0.54601 -0.41528,0.90785 -0.32404,0.51336 -0.37832,0.72739 -0.24667,0.97283 0.26585,0.49672 0.20373,1.28755 -0.11505,1.46616 -0.36031,0.20161 -0.86589,-0.051 -0.87305,-0.43607 -0.004,-0.21345 -0.0873,-0.17202 -0.34275,0.1703 -0.37648,0.50474 -0.82039,0.58173 -1.13889,0.19812 z m 10.1443,0.003 c -0.0568,-0.14802 -0.10326,-0.54416 -0.10326,-0.88075 0,-0.60359 -0.008,-0.61067 -0.58319,-0.54354 -0.91069,0.10632 -1.56363,-0.64578 -1.77819,-2.04789 -0.0762,-0.49827 -0.039,-0.73385 0.13953,-0.88198 0.39172,-0.32519 0.68782,-0.0818 0.98345,0.80808 0.15205,0.45792 0.33398,0.8678 0.40419,0.91122 0.29771,0.18405 0.67164,-0.35168 0.69612,-0.99715 0.0303,-0.7976 0.32428,-1.26784 0.74256,-1.18746 0.35984,0.0691 0.51666,1.20347 0.48503,3.50804 -0.0202,1.46925 -0.0235,1.48095 -0.45177,1.53053 -0.28109,0.0326 -0.46725,-0.0437 -0.53447,-0.2191 z m 2.84103,-0.12415 c -0.65178,-0.43791 -0.78459,-1.00885 -0.40488,-1.74271 0.16083,-0.31103 0.19509,-0.53275 0.0921,-0.5965 -0.32451,-0.20062 -0.1542,-0.55123 0.31827,-0.65501 0.67857,-0.14906 0.95873,-0.51645 0.50397,-0.66087 -0.23813,-0.0756 -0.33144,-0.22203 -0.29656,-0.46625 0.0425,-0.29807 0.17539,-0.36399 0.81693,-0.40557 0.63676,-0.0411 0.8093,0.012 1.02132,0.31473 0.14031,0.20031 0.21558,0.42805 0.16728,0.50628 -0.0483,0.0782 0.2221,0.1216 0.60097,0.0966 0.50628,-0.0334 0.73724,0.0296 0.87235,0.23785 0.27278,0.42097 -0.0241,0.62331 -1.13633,0.7742 -0.80816,0.10965 -1.03219,0.21728 -1.41998,0.68181 -0.25314,0.3033 -0.46032,0.63869 -0.46032,0.74555 0,0.28814 0.69198,0.40866 1.31719,0.22935 0.61784,-0.17719 0.986,0.0112 0.986,0.50474 0,0.83394 -1.95858,1.12095 -2.97787,0.43637 z m -8.26328,-0.55679 c -0.22415,-0.22416 -0.0983,-0.56325 0.26053,-0.70183 0.26007,-0.1004 0.44345,-0.0714 0.61691,0.0976 0.21898,0.2134 0.2108,0.26714 -0.0726,0.47733 -0.34507,0.25584 -0.63077,0.30095 -0.80488,0.1269 z m 0.34275,-2.09347 c -0.66287,-0.5032 -0.0348,-1.47972 0.69914,-1.08707 0.42428,0.22705 0.43075,0.92108 0.0109,1.14588 -0.38663,0.20692 -0.35684,0.20939 -0.70999,-0.0588 z M 23.152957,103.14825 c -0.177838,-0.13004 -0.263761,-0.33013 -0.206335,-0.47979 0.05422,-0.14131 0.0033,-0.2935 -0.113133,-0.33813 -0.322655,-0.12379 -0.461696,-1.70945 -0.187839,-2.14058 0.201358,-0.316892 0.347832,-0.925412 0.651089,-2.704452 0.0902,-0.52907 0.08092,-0.53892 -0.479943,-0.50104 -0.691743,0.0465 -1.055742,-0.2421 -0.805608,-0.63869 0.246438,-0.39049 3.01811,-1.0452 4.591698,-1.08431 1.239358,-0.0309 1.319041,-0.0119 1.367081,0.32612 0.0663,0.46563 -0.500731,0.77666 -1.171687,0.6424 -0.277619,-0.0555 -0.923626,-0.0185 -1.435447,0.0822 l -0.931018,0.18314 -0.271846,1.65586 c -0.149491,0.91062 -0.243896,1.68389 -0.209664,1.71807 0.03418,0.0341 0.707905,-0.0181 1.496884,-0.11617 1.076298,-0.13373 1.492496,-0.13048 1.665256,0.013 0.594041,0.493032 0.02696,0.973442 -1.148818,0.973442 -0.408579,0 -1.10355,0.0773 -1.544001,0.17179 -0.762184,0.16349 -0.797754,0.19508 -0.730545,0.65287 0.111272,0.75818 0.302567,0.81299 1.926713,0.55154 1.921626,-0.30918 2.303182,-0.26538 2.303182,0.26383 0,0.39018 -0.07122,0.41727 -1.809613,0.68858 -2.247289,0.35045 -2.574981,0.35938 -2.956374,0.0806 z m 5.401184,-0.68181 c -0.173161,-0.45115 0.07886,-0.72091 1.339135,-1.4329 l 1.249518,-0.70583 -0.04914,-3.076152 c -0.03278,-2.05128 0.01022,-3.13551 0.128977,-3.25436 0.209543,-0.20964 0.665644,-0.0704 0.784358,0.23945 0.139675,0.364 0.169006,7.748972 0.03166,7.971212 -0.07772,0.12577 -0.331899,0.17783 -0.643699,0.13189 -0.283393,-0.0417 -0.802143,0.0252 -1.152745,0.14869 -0.841406,0.29642 -1.569638,0.28687 -1.688357,-0.0222 z m 15.444834,-0.99776 c -0.389642,-0.28329 -0.177194,-0.77667 0.398413,-0.92603 0.456619,-0.11829 0.54138,-0.2316 0.686194,-0.915232 0.35569,-1.67957 0.536073,-2.87475 0.446919,-2.96374 -0.05128,-0.0513 -0.271385,0.0741 -0.489186,0.27872 -0.444835,0.41789 -0.969124,0.40281 -1.052506,-0.0304 -0.06759,-0.35106 2.186776,-2.58835 2.607987,-2.58835 0.325893,0 0.547158,0.42744 0.369544,0.71415 -0.122179,0.19722 -1.028253,5.254822 -0.955965,5.336272 0.02239,0.0252 0.365389,0.10089 0.762417,0.1682 0.62707,0.10632 0.728694,0.18124 0.773964,0.57095 0.03273,0.28225 -0.02826,0.45485 -0.164507,0.465 -1.245359,0.0933 -3.191358,0.0304 -3.38354,-0.10935 z m -8.816532,-0.0303 c -0.04196,-0.0679 -0.0359,-0.62699 0.01353,-1.24258 0.08749,-1.089852 0.100985,-1.117572 0.518978,-1.069222 0.393797,0.0457 0.43329,0.12046 0.478793,0.908462 0.02723,0.4724 -0.03087,1.00886 -0.129165,1.19271 -0.174149,0.3255 -0.729159,0.45792 -0.882111,0.21063 z m 3.370446,-0.30631 c -0.333512,-0.23353 -0.373932,-0.37878 -0.325431,-1.168692 l 0.05524,-0.90199 -0.620374,0.0834 c -0.420354,0.0566 -0.698668,0.005 -0.863575,-0.15994 -0.300949,-0.30092 -0.300949,-0.30327 0.0152,-0.61929 0.145005,-0.14501 0.535146,-0.25851 0.888523,-0.25851 0.548309,0 0.675109,-0.0764 0.977444,-0.58881 0.370928,-0.62853 0.721764,-0.67534 0.805602,-0.10744 0.03516,0.23806 0.190373,0.36339 0.493575,0.39849 0.348527,0.0403 0.442298,0.13831 0.442298,0.46224 0,0.34059 -0.08866,0.41974 -0.515976,0.46132 -0.428211,0.0416 -0.533071,0.13591 -0.616909,0.55523 -0.206185,1.031032 -0.168992,1.094472 0.531914,0.907232 0.755717,-0.201712 1.176764,-0.0751 1.176764,0.35384 0,0.44746 -0.294709,0.62484 -1.237277,0.74433 -0.624991,0.0793 -0.918782,0.0399 -1.206791,-0.16183 z m -3.96985,-3.433992 c -0.241354,-0.29088 -0.107793,-0.74247 0.219712,-0.74247 0.336748,0 0.623144,0.40896 0.503968,0.71938 -0.12818,0.33412 -0.456851,0.34459 -0.72368,0.0231 z M 22.47697,88.979668 c -0.229599,-0.35044 -0.25083,-0.71999 -0.14991,-2.60497 l 0.11765,-2.19663 -0.597967,-0.35291 c -0.721307,-0.4256 -0.913009,-0.82378 -0.531219,-1.10279 0.226045,-0.16529 0.465161,-0.12958 1.301718,0.19442 0.563553,0.21829 1.135883,0.45731 1.271459,0.53091 0.386867,0.21012 0.401877,0.84102 0.02663,1.10371 -0.295638,0.20711 -0.335129,0.45084 -0.383636,2.37555 -0.04258,1.68481 -0.107116,2.17815 -0.300944,2.30041 -0.366541,0.23123 -0.459854,0.20057 -0.753408,-0.24764 z m -2.880874,-3.26251 c -1.34722,-0.70737 -2.220727,-2.80637 -1.80707,-4.34217 0.394487,-1.46494 1.852107,-2.6792 2.900365,-2.4162 1.241899,0.31165 1.646552,2.80637 0.432598,2.66625 -0.373241,-0.0431 -0.464009,-0.15874 -0.588039,-0.75017 -0.165186,-0.78712 -0.381784,-0.86873 -0.873274,-0.32889 -0.529834,0.58172 -0.707215,1.03319 -0.706986,1.79875 4.66e-4,1.37625 0.801909,2.3386 2.137117,2.56648 0.513206,0.0876 0.755717,0.21506 0.794752,0.41759 0.156709,0.81361 -1.079991,1.02364 -2.289463,0.38836 z m 36.742995,-0.82408 c -0.13773,-0.30228 -0.106571,-0.98853 0.129201,-2.8458 0.170881,-1.34606 0.312957,-2.68813 0.31596,-2.98191 0.0042,-0.4179 0.07505,-0.53461 0.324507,-0.53461 0.434446,0 0.480638,0.11161 0.606054,1.46001 0.0991,1.06644 0.141744,1.17207 0.472091,1.17207 0.394486,0 1.404264,-0.30536 1.608206,-0.48626 0.06967,-0.0618 0.219228,-0.80345 0.33236,-1.64785 0.148806,-1.1108 0.283393,-1.58443 0.487106,-1.71315 0.615982,-0.38863 0.751329,0.12392 0.842558,3.18922 0.04715,1.5835 0.163672,3.13747 0.258912,3.45351 0.239512,0.79422 0.220104,0.95159 -0.140515,1.14436 -0.237204,0.12691 -0.398646,0.0982 -0.661717,-0.11759 -0.270918,-0.22224 -0.39056,-0.60697 -0.540224,-1.73593 -0.178593,-1.3476 -0.216215,-1.44338 -0.530991,-1.35038 -0.186296,0.0549 -0.760566,0.18329 -1.276313,0.28521 l -0.937485,0.1853 -0.09075,0.8361 c -0.04991,0.45977 -0.109215,1.09539 -0.131785,1.41196 -0.03441,0.48287 -0.10928,0.58358 -0.463314,0.62484 -0.31388,0.0366 -0.46886,-0.0531 -0.603857,-0.3491 z m 138.354959,-0.45397 c -0.39357,-0.14557 -0.61229,-0.65964 -0.47071,-1.10587 0.0956,-0.30124 -0.36839,-0.83578 -1.21926,-1.40488 -0.57095,-0.38186 -0.66242,-0.34552 -0.66356,0.26266 -0.003,1.33097 -0.56194,2.24805 -1.17238,1.92132 -0.22261,-0.11915 -0.26839,-0.35076 -0.23282,-1.17885 0.0244,-0.56664 0.0957,-1.1499 0.15855,-1.29618 0.0628,-0.14613 0.1657,-0.88629 0.22855,-1.64508 0.10371,-1.25152 0.14764,-1.38425 0.47394,-1.43044 0.29287,-0.0416 0.39194,0.0653 0.53376,0.57587 0.0958,0.34491 0.17452,0.7511 0.17502,0.90261 0,0.22847 0.18888,0.17772 1.09824,-0.29622 1.19247,-0.62145 1.95095,-0.68058 2.25861,-0.17573 0.15011,0.24644 0.0892,0.38002 -0.35615,0.78128 -0.29541,0.26627 -0.71669,0.4841 -0.93611,0.4841 -0.6146,0 -0.61505,0.22099 -0.002,0.71045 0.30788,0.24573 0.75549,0.78066 0.99477,1.1887 0.38225,0.65255 0.41112,0.79883 0.23859,1.21549 -0.21774,0.52567 -0.57926,0.68612 -1.10679,0.49087 z m -44.71254,-0.58604 c -1.35484,-0.28723 -1.65001,-0.51058 -1.49434,-1.13111 0.12211,-0.48657 -0.0137,-0.48226 2.04103,-0.0635 0.80977,0.16503 1.06752,0.16801 1.16291,0.0135 0.21341,-0.34522 -0.11965,-2.31211 -0.55639,-3.28624 l -0.42036,-0.9371 h -1.35345 -1.35346 v -0.49057 -0.49056 l 1.39826,-0.18803 c 1.33129,-0.17903 3.45073,-0.0828 4.15375,0.18866 0.3439,0.13277 0.38063,0.78127 0.0594,1.04766 -0.16477,0.13675 -0.42844,0.14348 -0.94581,0.0241 -0.39448,-0.091 -0.77442,-0.16724 -0.84417,-0.16945 -0.0697,-0.003 0.0284,0.30006 0.21802,0.67165 0.44091,0.86411 0.87397,3.14503 0.73655,3.87805 -0.13571,0.72338 -0.62291,1.20749 -1.19802,1.19055 -0.24875,-0.008 -0.97051,-0.12328 -1.60396,-0.25763 z M 19.556516,78.092188 c -0.06032,-0.0603 -0.109672,-0.3446 -0.109672,-0.63192 0,-0.46809 -0.06927,-0.54293 -0.66818,-0.72246 -0.484565,-0.14521 -0.65317,-0.27663 -0.613211,-0.47856 0.04122,-0.20878 0.228582,-0.27822 0.750633,-0.27822 h 0.695669 l -0.0055,-1.56287 c -0.0033,-0.85949 -0.118145,-2.37709 -0.255675,-3.37236 -0.159931,-1.15667 -0.284321,-3.8124 -0.344833,-7.36159 l -0.09468,-5.55203 h -1.048119 c -0.938409,0 -1.048118,-0.0344 -1.048118,-0.32889 0,-0.28314 0.109672,-0.3289 0.786433,-0.3289 0.777661,0 0.789207,-0.008 1.028258,-0.69905 0.197605,-0.57156 0.316654,-0.69906 0.652936,-0.69906 0.317578,0 0.450151,0.11996 0.581571,0.5266 0.09363,0.28967 0.211105,0.56756 0.260991,0.61745 0.04995,0.0499 1.009778,0.009 2.132731,-0.0917 1.123181,-0.1004 3.63361,-0.15619 5.578887,-0.12396 10.949934,0.18139 26.200431,-0.14643 31.831704,-0.68427 5.590023,-0.534 24.228202,-0.68643 36.602348,-0.29983 9.928281,0.31042 18.939331,0.38894 26.814301,0.23446 5.63317,-0.1106 9.29722,-0.0941 13.90067,0.0624 3.43815,0.11695 8.28693,0.18453 10.77507,0.15019 6.06193,-0.0837 12.1197,-0.0786 23.93547,0.0198 7.29496,0.0608 10.70728,0.0247 13.07813,-0.13813 1.76434,-0.12121 4.71508,-0.21564 6.55726,-0.20985 3.13761,0.01 3.36645,-0.01 3.6191,-0.31319 0.52129,-0.62576 0.71553,-0.18184 0.76634,1.75225 0.0259,0.9833 0.12504,2.75033 0.22029,3.92656 0.28917,3.5721 0.56725,11.24836 0.46147,12.74175 -0.0967,1.36485 -0.5915,3.29879 -0.95666,3.73877 -0.24389,0.29385 -0.71044,0.27311 -0.97305,-0.0432 -0.16625,-0.20031 -0.17404,-0.37047 -0.034,-0.74156 0.1,-0.26481 0.11945,-0.44283 0.0434,-0.39603 -0.0761,0.0471 -1.16175,-0.0213 -2.41257,-0.15183 -2.29855,-0.23991 -4.10186,-0.34953 -8.44312,-0.51305 -1.31189,-0.0495 -5.08733,-0.19712 -8.38976,-0.32828 -3.30242,-0.13106 -8.18823,-0.28051 -10.85731,-0.33228 -2.6691,-0.0516 -5.11199,-0.1336 -5.42866,-0.18217 -0.88876,-0.13632 -32.65246,-0.17444 -35.53308,-0.0427 -1.40241,0.0644 -8.02783,0.17314 -14.72318,0.24188 -9.25049,0.095 -13.259556,0.0727 -16.697238,-0.0924 -4.814995,-0.23132 -10.088386,-0.26046 -21.879148,-0.12088 -12.937869,0.15314 -19.597096,0.29224 -22.208152,0.46377 -1.402418,0.0922 -6.658351,0.18942 -11.67985,0.21606 -8.318686,0.0441 -9.349299,0.0799 -11.597605,0.40279 -1.357149,0.19499 -2.782179,0.39634 -3.166714,0.44746 -0.62984,0.0836 -0.699129,0.13757 -0.699129,0.54323 0,0.24779 -0.08883,0.53923 -0.19741,0.64793 -0.212787,0.21279 -0.830317,0.26648 -1.008892,0.0878 z m 4.414223,-2.62499 c 2.514356,-0.40157 3.073521,-0.42652 12.502365,-0.5574 5.428669,-0.0754 10.721599,-0.21108 11.762097,-0.30147 1.040494,-0.0904 4.353202,-0.21599 7.361589,-0.27911 l 5.469779,-0.11475 0.0014,-6.19042 c 9.31e-4,-5.99144 0.10811,-8.02809 0.51736,-9.85736 0.138654,-0.61961 0.265379,-0.85673 0.43999,-0.82255 0.213175,0.0416 0.248284,1.1305 0.268382,8.30873 0.01268,4.54349 0.07836,8.31616 0.145937,8.38376 0.06757,0.0676 3.321088,0.0917 7.230009,0.0535 11.353449,-0.11077 19.554876,-0.0533 23.846061,0.16713 4.36854,0.2244 21.698072,0.11744 29.067472,-0.17939 2.21218,-0.0891 9.15268,-0.1719 15.42333,-0.18399 6.27065,-0.0121 11.36669,-0.0565 11.32451,-0.0987 -0.0422,-0.0422 0.0336,-0.28999 0.16844,-0.55062 0.2134,-0.41266 0.22072,-1.05382 0.0566,-4.95543 -0.18521,-4.4026 -0.14172,-9.98372 0.0818,-10.50293 0.10244,-0.23795 -0.15848,-0.25601 -2.6567,-0.18388 -1.52368,0.044 -4.32196,-0.003 -6.21846,-0.10409 -5.9921,-0.31996 -11.62859,-0.38525 -18.50042,-0.21503 -6.14811,0.1524 -20.18352,0.0254 -24.017724,-0.21738 -2.286322,-0.14475 -18.281289,-0.42036 -18.447124,-0.31781 -0.08403,0.0519 -4.203328,0.1622 -9.154017,0.24503 -5.576901,0.0933 -9.877376,0.24121 -11.304299,0.38864 -3.680406,0.38063 -4.073251,0.39603 -15.258766,0.60174 -8.162995,0.15013 -11.277165,0.15084 -13.3249,0.003 -2.90182,-0.2094 -6.328047,-0.22852 -8.923443,-0.0498 l -1.645168,0.11328 0.01585,5.09965 c 0.01147,3.68946 0.09197,5.71376 0.291245,7.32048 0.235352,1.89884 0.364461,3.452 0.420358,5.05853 0.01562,0.449 -0.160948,0.45238 3.056216,-0.0614 z m 12.597269,-1.93857 c -0.196635,-0.23693 -0.114135,-4.57083 0.0934,-4.90662 0.0535,-0.0866 0.0047,-0.33043 -0.108502,-0.542 -0.347142,-0.64885 -0.10001,-0.95865 0.667024,-0.83609 2.311892,0.36955 3.326706,0.84687 3.415879,1.60659 0.06438,0.54847 -0.301868,0.90569 -1.166832,1.13851 -0.379938,0.10231 -0.978139,0.33259 -1.329436,0.51181 l -0.638616,0.32582 0.07907,1.23212 c 0.0597,0.93002 0.02159,1.2894 -0.155515,1.46647 -0.297713,0.29772 -0.610904,0.29884 -0.856417,0.003 z m 2.290479,-4.74346 c 0,-0.0686 -0.101791,-0.12468 -0.226199,-0.12468 -0.124403,0 -0.457542,-0.0463 -0.74024,-0.10282 -0.484336,-0.0969 -0.514129,-0.0743 -0.514129,0.3908 v 0.49365 l 0.740244,-0.26621 c 0.40719,-0.1464 0.74024,-0.32242 0.740324,-0.39074 z m -15.216709,3.60148 c -1.074218,-0.49981 -1.563865,-1.40119 -1.560862,-2.87321 0.0063,-3.00654 2.496823,-7.10414 4.317818,-7.10414 0.213395,0 0.531686,0.10869 0.707215,0.24153 0.175632,0.13283 0.440913,0.24388 0.589653,0.24676 0.395644,0.008 0.453615,0.31041 0.303491,1.58103 -0.260762,2.20648 -0.441375,2.70136 -0.985068,2.70136 -0.533295,0 -0.669104,-0.37816 -0.52221,-1.45292 0.172391,-1.26045 0.07539,-2.0017 -0.261915,-2.0017 -0.421742,0 -1.511894,1.3279 -2.093004,2.54986 -0.968206,2.03557 -1.143274,4.10948 -0.403497,4.77912 0.522906,0.47302 1.592045,0.38156 2.657044,-0.22781 1.366391,-0.78189 1.770116,-0.63746 1.215571,0.43483 -0.519212,1.00393 -2.820798,1.65741 -3.964236,1.12529 z m 6.832748,-0.58973 c -0.229631,-0.42898 -0.214662,-1.37501 0.07142,-4.51438 0.132942,-1.45878 0.225477,-3.04966 0.20563,-3.53509 -0.02859,-0.69936 0.02584,-0.9214 0.262143,-1.06921 0.244824,-0.15323 0.355224,-0.11714 0.61691,0.20175 0.390331,0.47579 0.409502,1.66541 0.08077,5.0403 -0.192201,1.97306 -0.191226,2.32197 0.0068,2.43468 0.307645,0.17508 0.294019,0.93926 -0.02495,1.39472 -0.317345,0.453 -0.987605,0.47918 -1.218733,0.0472 z m 16.300075,-1.19578 c -0.08641,-0.23359 -0.02653,-0.71569 0.168549,-1.35715 0.387558,-1.27401 0.390794,-1.2543 -0.176812,-1.05659 -0.26515,0.0924 -0.690819,0.14406 -0.945804,0.11482 -0.394025,-0.0452 -0.464009,-0.12756 -0.464009,-0.54662 0,-0.47363 0.04542,-0.50443 1.121799,-0.76526 0.616905,-0.14951 1.152974,-0.30301 1.191086,-0.34121 0.03809,-0.0381 0.223504,-0.6889 0.412039,-1.44615 0.188479,-0.75726 0.439528,-1.45508 0.55778,-1.55055 0.127509,-0.10305 0.2536,-0.70952 0.309725,-1.48988 0.150358,-2.08823 0.520826,-2.78112 1.272387,-2.37893 0.390099,0.20882 0.404187,0.73046 0.07034,2.62561 -0.293787,1.66756 -0.328662,3.61909 -0.06487,3.61909 0.100037,0 0.599814,-0.10578 1.110477,-0.23506 0.510665,-0.12928 1.354841,-0.28593 1.875666,-0.34799 1.064519,-0.12707 1.438217,0.0495 1.438217,0.67966 0,0.48379 -0.482713,0.75263 -1.121795,0.62483 -0.269996,-0.054 -1.09177,0.0317 -1.826237,0.19044 -1.224808,0.26462 -1.327127,0.31719 -1.231966,0.63408 0.05703,0.19009 0.308568,0.56755 0.558932,0.83917 0.552698,0.59927 0.661946,0.89707 0.467474,1.27492 -0.234891,0.4567 -0.885519,0.35138 -1.316733,-0.21324 -0.210456,-0.27562 -0.574409,-0.7317 -0.808606,-1.01378 l -0.425902,-0.51243 -0.465623,1.27677 c -0.256141,0.70213 -0.569327,1.38025 -0.696127,1.50712 -0.346446,0.34645 -0.857344,0.27988 -1.009983,-0.13167 z m -13.343537,-0.37632 c -0.235582,-0.28398 -0.103882,-1.48957 0.257758,-2.35769 0.177153,-0.42529 0.310644,-0.53492 0.6012,-0.49365 0.403496,0.0573 0.405342,0.0727 0.201195,1.61583 -0.186591,1.4095 -0.55709,1.84125 -1.06013,1.2352 z m 0.387329,-4.60763 c -0.144371,-0.37632 0.05788,-0.74032 0.411348,-0.74032 0.438139,0 0.553393,0.40896 0.204348,0.72492 -0.360768,0.32643 -0.494959,0.32982 -0.615696,0.0154 z m 161.220427,9.91141 c 0.26608,-0.95188 0.27185,-3.26664 0.0202,-8.26639 -0.15023,-2.98591 -0.31504,-6.44056 -0.36631,-7.67733 l -0.0931,-2.24868 -1.99277,-0.0656 c -1.09593,-0.0361 -4.21347,0.0377 -6.9278,0.16406 -3.82242,0.17792 -7.16062,0.19968 -14.80544,0.0965 -10.07093,-0.1359 -19.98614,-0.11305 -20.14553,0.0464 -0.0487,0.0488 -0.0573,2.76603 -0.019,6.03819 0.0382,3.27225 0.0753,6.9304 0.0822,8.12923 l 0.0127,2.17969 0.65802,-5.1e-4 c 1.15344,-8.5e-4 13.14179,0.3218 18.34232,0.49334 16.68855,0.55093 24.34384,0.96481 24.74976,1.33743 0.24875,0.22849 0.3737,0.17009 0.48456,-0.2266 z m -24.89337,-3.07368 c -0.19568,-0.12383 -0.20286,-0.29477 -0.0431,-1.02548 0.10545,-0.48226 0.27601,-1.60906 0.37925,-2.50397 0.16758,-1.45446 0.15907,-1.64262 -0.0803,-1.77658 -0.33629,-0.18814 -0.35084,-0.93433 -0.0209,-1.0609 0.18296,-0.0702 0.24667,-0.36092 0.24667,-1.12434 0,-1.69836 0.73285,-2.26284 2.15952,-1.66325 0.91255,0.3834 1.88329,1.17545 2.10918,1.72084 0.40257,0.9719 -0.36332,1.5219 -2.64774,1.90284 l -0.59982,0.1 -0.11288,1.51728 c -0.17195,2.3115 -0.62846,4.07509 -1.05181,4.06474 -0.0568,-0.001 -0.20891,-0.0694 -0.33802,-0.15113 z m 3.03137,-6.98493 0.65802,-0.20409 -0.81369,-0.52352 c -0.44738,-0.28795 -0.90215,-0.52352 -1.01047,-0.52352 -0.24667,0 -0.39657,0.37817 -0.39657,1.00054 0,0.41697 0.0593,0.47825 0.45246,0.46748 0.24875,-0.007 0.74856,-0.10448 1.11048,-0.21673 z m -17.60202,3.61176 c -1.68928,-0.62637 -1.88814,-2.37585 -0.55432,-4.87807 0.72546,-1.36115 1.49458,-2.19416 2.47893,-2.68473 1.06035,-0.52845 1.13681,-0.52783 1.78166,0.0147 0.49773,0.41882 0.51805,0.48102 0.41319,1.27092 -0.12365,0.93218 -0.31711,1.24968 -0.76149,1.24968 -0.4132,0 -0.66194,-0.52506 -0.53953,-1.1382 0.13882,-0.69412 -0.0808,-0.64393 -1.06844,0.24401 -1.45416,1.30757 -2.44371,3.90651 -1.72577,4.53323 0.16757,0.14629 0.51874,0.30441 0.78043,0.35137 0.72292,0.12975 2.68961,-0.1605 3.85249,-0.56848 1.08946,-0.38217 1.53476,-0.31411 1.64632,0.25149 0.17997,0.91401 -4.67639,1.95735 -6.30347,1.35411 z m 9.41175,-1.34606 c -0.224,-0.224 -0.1105,-1.80029 0.26214,-3.63973 0.23674,-1.16868 0.32128,-1.94565 0.22962,-2.10948 -0.20548,-0.36708 -0.005,-1.01748 0.37624,-1.22165 0.25591,-0.13697 0.39264,-0.10368 0.65617,0.15976 0.42336,0.42343 0.42244,0.999 -0.005,3.09372 -0.18568,0.91031 -0.38918,2.12365 -0.45246,2.69613 -0.10546,0.9562 -0.14876,1.04489 -0.53215,1.08954 -0.22958,0.0268 -0.47024,-0.004 -0.53479,-0.0683 z m 15.70815,-0.25979 c -0.28501,-0.2851 -0.24274,-0.69751 0.10379,-1.01132 0.16567,-0.14992 0.95342,-0.40373 1.75071,-0.56417 l 1.44954,-0.29156 -0.88714,-0.22263 c -1.10447,-0.27714 -1.71538,-0.62237 -1.9281,-1.08923 -0.32011,-0.70244 0.18921,-1.19701 2.11033,-2.04881 l 0.74024,-0.32828 -1.15158,0.0874 c -0.6333,0.0481 -1.79437,0.16793 -2.57988,0.26634 -1.64886,0.20654 -1.94403,0.13988 -1.94403,-0.43883 0,-0.56448 0.34599,-0.68151 2.64173,-0.89461 3.67472,-0.3409 4.99796,-0.18912 5.19502,0.59589 0.14605,0.58203 -0.40072,1.04489 -1.99692,1.69036 -0.72385,0.2927 -1.37702,0.58942 -1.45162,0.65902 -0.0746,0.0698 0.4065,0.25762 1.06937,0.41727 1.47748,0.356 2.0549,0.63531 2.18932,1.05905 0.24782,0.78067 -0.54069,1.23798 -2.8763,1.66819 -0.58804,0.10838 -1.26915,0.29735 -1.51351,0.42004 -0.54508,0.27344 -0.6698,0.27689 -0.92109,0.0255 z m -1.84194,-0.6661 c 0,-0.74587 0.54046,-3.74909 0.72869,-4.05371 0.15355,-0.24845 0.50743,-0.22937 0.73055,0.0394 0.13709,0.1652 0.10027,0.68643 -0.14453,2.04604 -0.40949,2.27455 -0.55431,2.6675 -0.98206,2.6675 -0.28224,0 -0.33304,-0.10665 -0.33265,-0.69921 z m -10.69113,-0.3289 c 0.006,-0.57741 0.61644,-2.17969 0.83008,-2.17969 0.34206,0 0.29633,1.40457 -0.0638,1.95396 -0.2924,0.44623 -0.77027,0.58696 -0.76629,0.22573 z m 0.82038,-3.79925 c 0,-0.12169 0.1498,-0.35691 0.33283,-0.52259 0.2656,-0.24026 0.3737,-0.25972 0.53468,-0.0961 0.15981,0.16255 0.12102,0.27115 -0.18662,0.5226 -0.45569,0.37232 -0.68089,0.40404 -0.68089,0.0961 z m -92.32839,-9.00418 c -0.389409,-0.22682 -0.373471,-0.608515 0.20563,-4.921985 0.61737,-4.59765 0.618294,-4.354859 -0.01777,-4.377771 -0.862423,-0.03107 -1.082532,-0.809301 -0.406266,-1.435986 0.874202,-0.810224 4.158963,-1.447996 5.911988,-1.147434 1.247211,0.213643 1.882134,0.591886 2.176844,1.297099 0.503734,1.205637 -0.587346,2.586499 -2.904502,3.675514 l -1.296868,0.609748 0.585498,0.211745 c 0.622682,0.225173 6.365694,3.97583 6.553791,4.28018 0.161117,0.260695 -0.04345,0.788053 -0.351529,0.906308 -0.145514,0.05584 -0.394026,0.0072 -0.552468,-0.108182 -1.914005,-1.39472 -5.873993,-3.934533 -6.359387,-4.079056 C 79.854678,48.485285 79.24031,48.425689 78.83312,48.45521 l -0.740243,0.05367 -0.193231,1.398415 c -0.106278,0.768959 -0.198808,1.855726 -0.20563,2.414661 -0.0085,0.691355 -0.09509,1.099086 -0.270924,1.274926 -0.299559,0.299646 -0.379471,0.307956 -0.769491,0.08059 z m 3.887807,-7.738587 c 2.226734,-0.963586 3.252819,-1.904074 2.745064,-2.515978 -0.357994,-0.431443 -1.855339,-0.634999 -3.181035,-0.432366 -1.878202,0.28691 -1.730385,0.111362 -1.75302,2.081764 -0.02332,2.01617 -0.255218,1.924399 2.188991,0.86658 z m 18.087233,7.406768 c -0.615521,-0.178182 -1.350683,-0.993458 -1.480253,-1.641391 -0.0506,-0.253018 -0.194739,-0.4995 -0.320349,-0.547541 -0.338364,-0.129867 -0.276696,-0.661175 0.118217,-1.018401 0.190583,-0.172362 0.4811,-0.577104 0.645778,-0.899532 0.378552,-0.741859 1.404266,-1.745786 1.914237,-1.873587 0.214724,-0.0539 0.54323,-0.01619 0.73008,0.08378 0.4423,0.236658 0.96151,1.392564 0.96613,2.150129 0.005,0.78682 -0.30326,1.026408 -1.13889,0.885365 -0.385713,-0.06517 -0.908156,-0.02976 -1.256451,0.08516 -0.553853,0.182782 -0.588961,0.233308 -0.494726,0.712912 0.202156,1.029795 1.242129,1.317115 2.779247,0.768035 1.27677,-0.456079 1.97937,-0.509354 2.05004,-0.155208 0.20666,1.034722 -2.71037,1.972128 -4.51306,1.450281 z m 1.073294,-4.243072 c 0.169591,-0.107461 0.175677,-0.170791 0.02534,-0.263703 -0.109005,-0.06737 -0.317347,-0.0028 -0.464009,0.14394 -0.221976,0.221975 -0.226187,0.265803 -0.02534,0.263703 0.132486,-0.0013 0.341366,-0.06615 0.464011,-0.14394 z m 7.867286,4.217942 c -0.29817,-0.219013 -0.25591,-0.707984 0.62061,-7.186642 0.13997,-1.034723 0.25452,-2.429443 0.25452,-3.099241 0,-1.043654 -0.0501,-1.258298 -0.34991,-1.501272 -0.25799,-0.208836 -0.31896,-0.380631 -0.23235,-0.653785 0.22303,-0.702749 1.24813,-0.781277 1.60428,-0.123092 0.30256,0.558935 0.18095,3.694391 -0.26884,6.93643 -0.22542,1.62507 -0.46009,3.495886 -0.52152,4.157646 -0.1384,1.489878 -0.47371,1.935175 -1.10679,1.469956 z M 92.427622,53.120676 c -1.434293,-0.511202 -2.097162,-1.73162 -1.684658,-3.101828 0.496805,-1.650321 2.225116,-2.960661 3.376083,-2.559399 0.609286,0.212405 0.804682,0.533991 1.019248,1.677114 0.184671,0.98391 0.203411,1.425515 0.06632,1.562554 -0.05337,0.05336 -0.791285,0.100519 -1.63985,0.104782 -1.636617,0.0082 -1.911697,0.100974 -1.631074,0.550312 0.363769,0.582647 0.895682,0.712603 2.486729,0.607591 0.895451,-0.05918 1.521597,-0.03791 1.521597,0.05169 0,0.35969 -0.72038,1.020865 -1.282317,1.176998 -0.809994,0.224993 -1.462008,0.204585 -2.231814,-0.06988 z m 1.411196,-4.034218 c -0.06256,-0.426207 -0.129071,-0.489029 -0.424976,-0.401262 -0.192907,0.05724 -0.520826,0.268156 -0.728463,0.468704 l -0.377859,0.364617 0.802603,0.03662 0.802603,0.03662 z m 30.480282,2.794676 c -0.0608,-0.0984 -1.14281,-0.164506 -2.69258,-0.164506 -2.82621,0 -3.22425,-0.106053 -3.12182,-0.831781 0.0533,-0.377859 0.12591,-0.404651 1.20818,-0.443761 1.92371,-0.0699 1.84102,-0.0044 1.96851,-1.561015 0.0612,-0.747094 0.15281,-1.506507 0.2036,-1.687276 0.0899,-0.320271 0.0834,-0.320887 -0.24506,-0.0279 -0.45315,0.404651 -1.08876,0.304249 -1.15782,-0.182681 -0.0353,-0.248645 0.11048,-0.52814 0.43236,-0.828702 0.52083,-0.486566 1.34191,-2.000772 1.66665,-3.073373 0.53353,-1.762109 0.90215,-2.15167 1.48464,-1.569022 l 0.33028,0.330126 -0.39564,1.112942 c -0.53746,1.511435 -0.90747,3.555536 -1.02826,5.678011 l -0.10062,1.768576 h 1.74609 c 1.58165,0 1.76296,0.03121 1.92348,0.33105 0.24921,0.465933 3.3e-4,0.821618 -0.7601,1.086459 -0.7615,0.265077 -1.32205,0.289239 -1.46189,0.06286 z"
       id="path568" />
  </g>
</svg>
