<svg class="ff_logo_22" version="1.1" id="Layer_1" xmlns="http://www.w3.org/2000/svg" xmlns:xlink="http://www.w3.org/1999/xlink" x="0px" y="0px" viewBox="0 0 1920 280.51" style="enable-background:new 0 0 1920 280.51;" xml:space="preserve">
<style type="text/css">
	.st0{fill:var(--white);}
</style>
<g>
	<g>
		<polygon class="st0" points="59.45,70.07 59.45,113.92 15.6,113.92 		"></polygon>
		<rect x="65.72" y="70.07" class="st0" width="43.85" height="43.85"></rect>
		<rect x="115.84" y="70.07" class="st0" width="43.85" height="43.85"></rect>
		<rect x="15.6" y="120.19" class="st0" width="43.85" height="43.85"></rect>
		<rect x="15.6" y="170.3" class="st0" width="43.85" height="43.85"></rect>
		<rect x="65.72" y="170.3" class="st0" width="43.85" height="43.85"></rect>
		<polygon class="st0" points="115.84,214.16 115.84,170.3 159.69,170.3 		"></polygon>
		<rect x="15.6" y="220.42" class="st0" width="43.85" height="43.85"></rect>
	</g>
	<g>
		<rect x="284.99" y="70.07" class="st0" width="43.85" height="43.85"></rect>
		<rect x="184.75" y="70.07" class="st0" width="43.85" height="43.85"></rect>
		<rect x="184.75" y="120.19" class="st0" width="43.85" height="43.85"></rect>
		<rect x="284.99" y="120.19" class="st0" width="43.85" height="43.85"></rect>
		<rect x="184.75" y="170.3" class="st0" width="43.85" height="43.85"></rect>
		<rect x="284.99" y="170.3" class="st0" width="43.85" height="43.85"></rect>
		<polygon class="st0" points="184.75,220.42 228.6,220.42 228.6,264.28 		"></polygon>
		<rect x="234.87" y="220.42" class="st0" width="43.85" height="43.85"></rect>
		<polygon class="st0" points="284.99,264.28 284.99,220.42 328.84,220.42 		"></polygon>
	</g>
	<g>
		<polygon class="st0" points="397.75,70.07 397.75,113.92 353.9,113.92 		"></polygon>
		<rect x="404.02" y="70.07" class="st0" width="43.85" height="43.85"></rect>
		<polygon class="st0" points="497.99,113.92 454.14,113.92 454.14,70.07 		"></polygon>
		<rect x="353.9" y="120.19" class="st0" width="43.85" height="43.85"></rect>
		<rect x="454.14" y="120.19" class="st0" width="43.85" height="43.85"></rect>
		<rect x="353.9" y="170.3" class="st0" width="43.85" height="43.85"></rect>
		<rect x="353.9" y="220.42" class="st0" width="43.85" height="43.85"></rect>
	</g>
	<g>
		<polygon class="st0" points="566.9,19.95 566.9,63.8 523.05,63.8 		"></polygon>
		<rect x="523.05" y="70.07" class="st0" width="43.85" height="43.85"></rect>
		<rect x="573.17" y="70.07" class="st0" width="43.85" height="43.85"></rect>
		<rect x="523.05" y="120.19" class="st0" width="43.85" height="43.85"></rect>
		<rect x="523.05" y="170.3" class="st0" width="43.85" height="43.85"></rect>
		<polygon class="st0" points="667.14,214.16 623.29,214.16 667.14,170.3 		"></polygon>
		<polygon class="st0" points="523.05,220.42 566.9,220.42 566.9,264.28 		"></polygon>
		<rect x="573.17" y="220.42" class="st0" width="43.85" height="43.85"></rect>
		<polygon class="st0" points="623.29,264.28 623.29,220.42 667.14,220.42 		"></polygon>
	</g>
	<polygon class="st0" points="732.92,63.8 689.07,63.8 732.92,19.95 	"></polygon>
	<polygon class="st0" points="833.16,113.92 789.3,113.92 789.3,70.07 	"></polygon>
	<rect x="689.07" y="70.07" class="st0" width="43.85" height="43.85"></rect>
	<rect x="739.19" y="70.07" class="st0" width="43.85" height="43.85"></rect>
	<rect x="689.07" y="120.19" class="st0" width="43.85" height="43.85"></rect>
	<rect x="789.3" y="120.19" class="st0" width="43.85" height="43.85"></rect>
	<rect x="689.07" y="170.3" class="st0" width="43.85" height="43.85"></rect>
	<rect x="789.3" y="170.3" class="st0" width="43.85" height="43.85"></rect>
	<rect x="689.07" y="220.42" class="st0" width="43.85" height="43.85"></rect>
	<rect x="789.3" y="220.42" class="st0" width="43.85" height="43.85"></rect>
	<g>
		<polygon class="st0" points="902.07,70.07 902.07,113.92 858.22,113.92 		"></polygon>
		<rect x="908.34" y="70.07" class="st0" width="43.85" height="43.85"></rect>
		<polygon class="st0" points="1002.31,113.92 958.45,113.92 958.45,70.07 		"></polygon>
		<rect x="858.22" y="120.19" class="st0" width="43.85" height="43.85"></rect>
		<rect x="958.45" y="120.19" class="st0" width="43.85" height="43.85"></rect>
		<rect x="858.22" y="170.3" class="st0" width="43.85" height="43.85"></rect>
		<polygon class="st0" points="952.19,170.3 952.19,214.16 908.34,214.16 		"></polygon>
		<polygon class="st0" points="958.45,214.16 958.45,170.3 1002.31,170.3 		"></polygon>
		<polygon class="st0" points="858.22,220.42 902.07,220.42 902.07,264.28 		"></polygon>
		<rect x="908.34" y="220.42" class="st0" width="43.85" height="43.85"></rect>
		<rect x="958.45" y="220.42" class="st0" width="43.85" height="43.85"></rect>
	</g>
	<g>
		<polygon class="st0" points="1071.22,70.07 1071.22,113.92 1027.37,113.92 		"></polygon>
		<rect x="1077.49" y="70.07" class="st0" width="43.85" height="43.85"></rect>
		<polygon class="st0" points="1171.46,113.92 1127.6,113.92 1127.6,70.07 		"></polygon>
		<rect x="1027.37" y="120.19" class="st0" width="43.85" height="43.85"></rect>
		<rect x="1127.6" y="120.19" class="st0" width="43.85" height="43.85"></rect>
		<rect x="1027.37" y="170.3" class="st0" width="43.85" height="43.85"></rect>
		<rect x="1027.37" y="220.42" class="st0" width="43.85" height="43.85"></rect>
	</g>
	<g>
		<polygon class="st0" points="1238.81,70.07 1238.81,113.92 1194.95,113.92 		"></polygon>
		<rect x="1245.07" y="70.07" class="st0" width="43.85" height="43.85"></rect>
		<rect x="1295.19" y="70.07" class="st0" width="43.85" height="43.85"></rect>
		<rect x="1194.95" y="120.19" class="st0" width="43.85" height="43.85"></rect>
		<rect x="1194.95" y="170.3" class="st0" width="43.85" height="43.85"></rect>
		<rect x="1245.07" y="170.3" class="st0" width="43.85" height="43.85"></rect>
		<polygon class="st0" points="1295.19,214.16 1295.19,170.3 1339.04,170.3 		"></polygon>
		<rect x="1194.95" y="220.42" class="st0" width="43.85" height="43.85"></rect>
	</g>
	<g>
		<polygon class="st0" points="1407.96,70.07 1407.96,113.92 1364.1,113.92 		"></polygon>
		<rect x="1364.1" y="120.19" class="st0" width="43.85" height="43.85"></rect>
		<rect x="1364.1" y="170.3" class="st0" width="43.85" height="43.85"></rect>
		<rect x="1364.1" y="220.42" class="st0" width="43.85" height="43.85"></rect>
	</g>
	<g>
		<polygon class="st0" points="1476.87,70.07 1476.87,113.92 1433.01,113.92 		"></polygon>
		<rect x="1483.13" y="70.07" class="st0" width="43.85" height="43.85"></rect>
		<polygon class="st0" points="1577.11,113.92 1533.25,113.92 1533.25,70.07 		"></polygon>
		<rect x="1433.01" y="120.19" class="st0" width="43.85" height="43.85"></rect>
		<rect x="1533.25" y="120.19" class="st0" width="43.85" height="43.85"></rect>
		<rect x="1433.01" y="170.3" class="st0" width="43.85" height="43.85"></rect>
		<polygon class="st0" points="1526.99,170.3 1526.99,214.16 1483.13,214.16 		"></polygon>
		<polygon class="st0" points="1533.25,214.16 1533.25,170.3 1577.11,170.3 		"></polygon>
		<polygon class="st0" points="1433.01,220.42 1476.87,220.42 1476.87,264.28 		"></polygon>
		<rect x="1483.13" y="220.42" class="st0" width="43.85" height="43.85"></rect>
		<rect x="1533.25" y="220.42" class="st0" width="43.85" height="43.85"></rect>
	</g>
	<g>
		<rect x="1600.47" y="70.07" class="st0" width="43.85" height="43.85"></rect>
		<polygon class="st0" points="1600.47,63.8 1644.33,63.8 1644.33,19.95 		"></polygon>
		<rect x="1600.47" y="120.19" class="st0" width="43.85" height="43.85"></rect>
		<rect x="1600.47" y="170.3" class="st0" width="43.85" height="43.85"></rect>
		<polygon class="st0" points="1744.57,214.16 1700.71,214.16 1744.57,170.3 		"></polygon>
		<polygon class="st0" points="1600.47,220.42 1644.33,220.42 1644.33,264.28 		"></polygon>
		<rect x="1650.59" y="220.42" class="st0" width="43.85" height="43.85"></rect>
		<polygon class="st0" points="1700.71,264.28 1700.71,220.42 1744.57,220.42 		"></polygon>
	</g>
	<g>
		<polygon class="st0" points="1904.44,19.95 1904.44,63.8 1860.59,63.8 		"></polygon>
		<polygon class="st0" points="1804.21,70.07 1804.21,113.92 1760.35,113.92 		"></polygon>
		<rect x="1810.47" y="70.07" class="st0" width="43.85" height="43.85"></rect>
		<rect x="1860.59" y="70.07" class="st0" width="43.85" height="43.85"></rect>
		<rect x="1760.35" y="120.19" class="st0" width="43.85" height="43.85"></rect>
		<rect x="1860.59" y="120.19" class="st0" width="43.85" height="43.85"></rect>
		<rect x="1760.35" y="170.3" class="st0" width="43.85" height="43.85"></rect>
		<rect x="1860.59" y="170.3" class="st0" width="43.85" height="43.85"></rect>
		<polygon class="st0" points="1760.35,220.42 1804.21,220.42 1804.21,264.28 		"></polygon>
		<rect x="1810.47" y="220.42" class="st0" width="43.85" height="43.85"></rect>
		<polygon class="st0" points="1860.59,264.28 1860.59,220.42 1904.44,220.42 		"></polygon>
	</g>
</g>
</svg>