<svg id="Layer_1" data-name="Layer 1" xmlns="http://www.w3.org/2000/svg" viewBox="0 0 900 300"><defs><style>.cls-1{fill:none;}.cls-2{fill:#1e1e1e;}</style></defs><title>ampledlogoblack</title><path class="cls-1" d="M774.59,89.16l6-.17c-4.42-11.95-13-14.3-25.51-13.58l-11.27.66.78,13.4C758.12,89.37,768.83,89.32,774.59,89.16Z"/><path class="cls-1" d="M137.68,104.59l-2.37,6.65,4.9-.24Z"/><path class="cls-1" d="M439.25,103.57a23.63,23.63,0,0,0,0-2.5c-.16-5.66-2.05-7.06-2.67-7.52-1.69-1.25-4.69-1.82-8.88-1.7l-28.61.82.3,10.52C412.9,103.26,426.24,103.4,439.25,103.57Z"/><path class="cls-2" d="M867.62,92.63c-5.68-3.49-27.39-4.34-49.68-4.31-2.76-13-7.79-23.1-15.31-30.56-11.57-11.49-28.31-16.42-51.19-15.09L710.88,45l-5,5.57,2.29,39.26c-14.37.24-29.57.62-44.29,1.23l-35,.08,0-15.64,55.39-.13,5.27-5.29-.05-22.34-5.28-5.27-86.48.2L592.42,48l.12,50.57c-1.06.29-2.08.59-3,.9-10.23,3.47-32.88,4.64-62.74,4.84l-1.3-48.11-5.42-5.13-25.8.7-5.14,5.42,1.27,47L475.58,104c.06-1.32.1-2.65.06-4-.38-13.42-5.51-24.33-14.81-31.56-8.52-6.61-20.3-9.92-34-9.51l-59.68,1.71L362,66.09l1.06,37.08q-8.17.05-16.29.16l-2.39-48.26-5.53-5-31,1.53-4.15,4.57-17.12,48.69q-10.74.36-21.91.77L243,59.19,238.43,55l-31,1.53-5,5.54L204.72,108c-9.32.4-18.59.82-27.74,1.23L155.05,56.52l-4.46-4.32L123,52.66l-4.32,4.46-21.14,56c-39.52,2-66.6,3.5-66.6,3.5s1.46,68.49-1.17,84.79-.92,56.13-.92,56.13,195.76-9.49,251.52-10.07,204.61.6,218.83,1.21,168.23-4.82,168.23-4.82l204.19-10.48ZM123.88,60.34l1.71-1.76,22.53-.37,1.76,1.7,41.52,99.87.29,17.33-1.7,1.76-15.6.26-1.76-1.7-9-22.39-3.49-1.67-43.33.72-3.44,1.79L105,178.54l-1.7,1.76-15.6.26L86,178.85l-.29-17.33Zm86.44,2.25,26-1.29,1.82,1.64,38.83,83.12,1.73-.09,30.43-86.55,1.64-1.81,26-1.29L338.52,58l5.83,117.73-1.65,1.81-20.78,1-1.82-1.64-3.34-67.52-1.73.09-24.36,68.89L289,180.18l-19,.94-1.82-1.64-31-66.15-1.73.09,3.34,67.52-1.65,1.81-20.78,1-1.82-1.64L208.67,64.41Zm159.48,4.09L427,65c24.26-.69,41.93,10.93,42.63,35.19s-16.28,36.88-40.54,37.58l-32.92.94-1.68,1.78,1.29,45.05-1.68,1.78-20.79.59-1.78-1.68L368.11,68.46ZM497,57.87l20.79-.56L519.62,59l2.62,97,1.78,1.69,53.71-1.45,1.78,1.69.47,17.33-1.69,1.78-78,2.11-1.78-1.69L495.36,59.64Zm103-9.29,81.47-.19,1.74,1.73,0,17.33-1.73,1.74-57.2.13-1.73,1.74.05,24.27,1.74,1.73,53.74-.12,1.74,1.73,0,17.33-1.73,1.74-53.74.12-1.73,1.74.06,27.74,1.74,1.73,57.2-.13,1.74,1.73,0,17.33-1.73,1.74-81.47.19-1.74-1.73-.27-117.87Zm113.64,2.28,38.07-2.22C795,46.11,811.9,67.7,814.12,105.77s-12,61.47-55.3,64L720.75,172l-1.83-1.63L712.06,52.69Z"/><path class="cls-2" d="M123.35,133.16l29.46-.49,1.7-1.76L138.23,89.57l-1.73,0-14.91,41.86Zm14.33-28.57,2.53,6.42-4.9.24Z"/><path class="cls-2" d="M393,88.55l.79,27.72,1.78,1.69,32.92-.94c10.4-.3,17.23-4,16.88-16.09S438,85.53,427.57,85.83l-32.92.94Zm34.78,3.29c4.19-.12,7.19.45,8.88,1.7.62.46,2.51,1.86,2.67,7.52a23.63,23.63,0,0,1,0,2.5c-13-.16-26.35-.31-39.81-.39l-.3-10.52Z"/><path class="cls-2" d="M743.77,149.81l15.57-.91c24.22-1.41,32.17-14,30.56-41.72s-11-39.3-35.2-37.89l-15.57.91L737.49,72l4.44,76.14Zm11.32-74.4C767.65,74.68,776.18,77,780.61,89l-6,.17c-5.77.17-16.47.21-30,.31l-.78-13.4Z"/></svg>