<svg id="Layer_1" data-name="Layer 1" xmlns="http://www.w3.org/2000/svg" viewBox="0 0 638.99 638.82"><title>seal</title><path d="M1.37,325C4.44,500.23,149.68,640.52,325.12,637.45c175.28-3.07,315.56-148.14,312.49-323.58S489.3-1.7,314,1.37C138.58,4.28-1.53,149.51,1.37,325Z" fill="none" stroke="#373a3a" stroke-width="2.65"/><polygon points="303.45 501.77 289.29 501.77 291.16 503.31 297.64 504.33 303.45 502.28 303.45 501.77" fill="#373a3a"/><path d="M392.54,501.77H330.24l3.24,1.54,2.73,5.8,3.41,14.34,10.24,4.44,2.39,2.73h6.14l2.73,4.78h10.58l8.19-1.36,1.71,2.39,5.8,2,8.53.68,10.58-1.71,5.8-2,5.46-3.41,6.83-2,8.88-1,1.37,1.71,7.51,1.36h11.26l3.07.68a230.23,230.23,0,0,0,29-21.84l-3.07-1.71-8.19,1.71h-5.12v-8.53l-.17-.51H438.1L435.88,506l-3.07,4.78-5.8,1.71-12.29-1.71h-9.22l-9.56-2.39-2.73-5.12Z" fill="#373a3a"/><polygon points="302.76 501.09 302.76 502.62 303.45 502.28 302.76 501.09" fill="#373a3a"/><path d="M302.77,482.14v1.54l.69.85,1,5.46,3.75,3.07,1.71,2.73,6.49,2,7.85,1.71,9.22,3.75,2.73,5.8,3.07,12.29H472.75c4.44-3.41,8.88-7,13-10.58l-3.07-1.71-8.19,1.71h-5.12v-8.53l-2.39-2.73-2.39-4.78L462.85,492v-9.9H442.37l-1,5.12,1,4.78-1,2.73-2,4.78L435.88,506l-3.07,4.78-5.8,1.71-12.29-1.71h-9.22l-9.56-2.39-2.73-5.12-3.75-6.83-3.07-9.22-.51-5.12Z" fill="#373a3a"/><polygon points="302.76 483.68 302.76 482.14 302.08 482.14 302.76 483.68" fill="#373a3a"/><polygon points="302.76 502.62 302.76 501.09 300.72 495.8 296.62 493.07 291.84 488.97 287.06 482.83 286.55 482.14 265.39 482.14 265.9 483.51 271.37 484.53 274.78 489.99 280.58 494.77 283.65 497.85 291.16 503.31 297.64 504.33 302.76 502.62" fill="#373a3a"/><polygon points="438.1 501.77 469.17 501.77 466.95 499.55 464.56 494.77 462.85 492.04 462.85 487.26 462.85 480.44 456.02 477.02 446.81 478.39 442.37 481.46 441.35 487.26 442.37 492.04 441.35 494.77 439.3 499.55 438.1 501.77" fill="#373a3a"/><polygon points="291.16 488.46 291.16 501.77 303.45 501.77 300.72 495.8 296.62 493.07 291.84 488.97 291.16 488.46" fill="#373a3a"/><polygon points="291.16 462.52 291.16 474.63 295.94 478.39 300.72 480.44 303.45 484.53 304.47 489.99 308.23 493.07 309.93 495.8 316.42 497.85 324.27 499.55 330.24 501.77 392.54 501.77 389.46 496.48 386.39 487.26 385.71 481.46 384 471.9 381.1 462.52 291.16 462.52" fill="#373a3a"/><polygon points="291.16 474.63 291.16 462.52 278.53 462.52 282.29 468.49 287.06 470.88 291.16 474.63" fill="#373a3a"/><polygon points="291.16 501.77 291.16 488.46 287.06 482.83 281.6 478.39 277.17 474.98 273.41 471.9 273.41 468.49 271.37 465.42 271.37 462.52 257.54 462.52 260.44 471.9 263.51 478.39 265.9 483.51 271.37 484.53 274.78 489.99 280.58 494.77 283.65 497.85 289.29 501.77 291.16 501.77" fill="#373a3a"/><polygon points="442.37 482.14 462.85 482.14 462.85 480.44 456.02 477.02 446.81 478.39 442.37 481.46 442.37 482.14" fill="#373a3a"/><polygon points="302.08 482.14 385.88 482.14 385.71 481.46 384 471.9 380.93 462.35 380.93 454.84 382.98 448.69 387.42 446.3 389.46 445.28 390.83 442.89 239.62 442.89 243.03 446.3 248.49 454.84 257.03 461.32 260.44 471.9 263.51 478.39 265.39 482.14 286.55 482.14 281.6 478.39 277.17 474.98 273.41 471.9 273.41 468.49 271.37 465.42 271.37 455.86 274.78 456.88 282.29 468.49 287.06 470.88 295.94 478.39 300.72 480.44 302.08 482.14" fill="#373a3a"/><path d="M366.59,423.26a9.2,9.2,0,0,1-1,.31,26.66,26.66,0,0,1-4.1.49,15.77,15.77,0,0,1-1.89-.15c0,.39.08.78.08,1.17l-.41,3A12.83,12.83,0,0,1,354,435a8.53,8.53,0,0,1-4.26,1.36,8.69,8.69,0,0,1-4.57-.2c-.65-.22-1.29-.46-1.93-.71l-.32,0a10.46,10.46,0,0,1-10.56-7.84,11,11,0,0,1-4,.78h-4.69a11.7,11.7,0,0,1-4.58.88,10.47,10.47,0,0,1-8.67-4.05,11.83,11.83,0,0,1-1.63-2H222l4.95,9.39,4.78,6.49,7.51,3.75L243,446.3l5.46,8.53,8.53,6.48.51,1.2h13.83v-6.66l3.41,1,3.76,5.63H381.1l-.17-.17v-7.51l2-6.14,4.44-2.39,2-1,2.73-4.44,9.21-5.46,6.83-2.73,4.1-1.37,5.46,3.07,4.78-1.71h6.49l3.75-3.75v-3.41l.34-2.22Z" fill="#373a3a"/><polygon points="484.87 423.26 467.12 423.26 468.31 425.48 469.34 432.65 476.85 434.36 478.21 439.13 481.62 440.84 488.11 437.43 484.87 423.26" fill="#373a3a"/><path d="M484.7,422.75l-5.8-9.22-3.07-6.83-3.93-2.9H394c-.24.09-.47.19-.71.28-1.34.46-2.76.57-4.12,1a10.72,10.72,0,0,1-6.94-.32c1.78,5.46-.2,12.32-5.95,14.67l-.24.15-.12.09c-.37.28-.74.57-1.12.84a15.9,15.9,0,0,1-3.48,1.56,11.7,11.7,0,0,1-3.06.41,8.74,8.74,0,0,1-2.67,1.13,26.66,26.66,0,0,1-4.1.49,15.77,15.77,0,0,1-1.89-.15c0,.39.08.78.08,1.17l-.41,3A12.83,12.83,0,0,1,354,435a8.53,8.53,0,0,1-4.26,1.36,8.69,8.69,0,0,1-4.57-.2c-.65-.22-1.29-.46-1.93-.71l-.32,0a10.47,10.47,0,0,1-10.56-7.84,11,11,0,0,1-4,.78h-4.69a11.7,11.7,0,0,1-4.58.88,10.47,10.47,0,0,1-8.68-4.06,12.17,12.17,0,0,1-3.13-5.2,51.62,51.62,0,0,0-7.12-2,8.35,8.35,0,0,1-2.34-.73,10.4,10.4,0,0,1-9.39,5.11c-8.28,0-11.91-7.19-10.91-13.52-.56-.13-1.13-.25-1.69-.4-.8-.21-1.58-.46-2.35-.72-.1.19-.19.39-.3.58l-1.79,2.32a11.46,11.46,0,0,1-5.06,2.95l-3,.41a8.64,8.64,0,0,1-4.42-1,32,32,0,0,1-4.74-3c-.18-.12-.34-.25-.51-.38l-.1-.05-.13-.1a13.35,13.35,0,0,1-5.5-3.68,11.62,11.62,0,0,1-1.6-2H211.8l1.88,8,7.85,10.92,5.46,9.9,4.78,6.49,7.51,3.75H390.83l1.37-2,9.21-5.46,6.83-2.73,4.1-1.37,5.46,3.07,4.78-1.71h6.49l3.75-3.75v-3.41l.68-5.12,3.07-2,4.78,2h5.46l5.46-3.07h5.8l7.85,4.1,2.39,4.1,1,7.17,7.51,1.71,1.36,4.78,3.41,1.71,6.48-3.41Z" fill="#373a3a"/><path d="M484.7,422.75l-5.8-9.22-3.07-6.83-6.48-4.44-3.41-3.07-2-3.41v-5.12l4.44-5.46-.17-1H402.79a10.71,10.71,0,0,1,.54,1.47,9.06,9.06,0,0,1,.34,1.69c0,.1.07.2.1.29a11.82,11.82,0,0,1-1.16,8.84,17,17,0,0,1-9.35,7.61c-1.34.46-2.76.57-4.12,1a10.74,10.74,0,0,1-6.94-.32c1.78,5.46-.2,12.32-6,14.67l-.24.15-.12.09c-.37.28-.74.57-1.12.84a15.9,15.9,0,0,1-3.48,1.56,11.7,11.7,0,0,1-3.06.41,8.55,8.55,0,0,1-1.65.82h66.57l.34-2.9,3.07-2,4.78,2h5.46l5.46-3.07h5.8l7.85,4.1,1.19,1.88h17.75Z" fill="#373a3a"/><path d="M300.15,418.06a8.35,8.35,0,0,1-2.34-.73,10.4,10.4,0,0,1-9.39,5.11c-8.28,0-11.91-7.19-10.91-13.52-.56-.13-1.12-.25-1.68-.4-.8-.21-1.58-.46-2.36-.72-.1.19-.18.39-.29.58l-1.79,2.32a11.46,11.46,0,0,1-5.06,2.95l-3,.41a8.64,8.64,0,0,1-4.42-1,32,32,0,0,1-4.74-3c-.18-.12-.34-.25-.51-.38l-.1-.05-.13-.1a13.35,13.35,0,0,1-5.5-3.68,11.46,11.46,0,0,1-2.95-5.06l-.2-1.49a12.5,12.5,0,0,1-12.61.62,16.11,16.11,0,0,1-2.38-1.51,9.83,9.83,0,0,1-1.94-.95,10,10,0,0,1-5-3.35,10,10,0,0,1-2.73-2.29,10,10,0,0,1-2.13-1.85,10,10,0,0,1-5.26-3.62,10,10,0,0,1-2.41-2.12l-.56.06a8.07,8.07,0,0,1-2.55-.11h-.47l1.54,7.17,3.07,10.92,2.39,9.56,7.85,10.92.51.51h86.72a12.36,12.36,0,0,1-1.51-3.25A51.49,51.49,0,0,0,300.15,418.06Z" fill="#373a3a"/><path d="M401.79,381a11.93,11.93,0,0,1,.34,1.88,11.49,11.49,0,0,1,1.2,2.75,9.06,9.06,0,0,1,.34,1.69c0,.1.07.2.1.29a11.82,11.82,0,0,1-1.16,8.84,17,17,0,0,1-8.64,7.33h77.91l-2.56-1.54-3.41-3.07-2-3.41v-5.12l4.44-5.46-1.37-6.48,3.41-5.8v-8.36H430.74l-.06.15a18.32,18.32,0,0,1-.63,4,15.74,15.74,0,0,1-7.51,9.21,11.66,11.66,0,0,1-7.61,1.33,29.14,29.14,0,0,1-8.36-1.49c-.89-.29-1.78-.6-2.67-.89a17,17,0,0,1-3,0c-.19,0-.38,0-.57,0a14.46,14.46,0,0,1,1.25,3.23A9.65,9.65,0,0,0,401.79,381Z" fill="#373a3a"/><path d="M244.95,400.79l-.2-1.49a12.5,12.5,0,0,1-12.61.62,16.11,16.11,0,0,1-2.38-1.51,9.83,9.83,0,0,1-1.94-.95,10,10,0,0,1-5-3.35,10,10,0,0,1-2.73-2.29,10,10,0,0,1-2.13-1.85,10,10,0,0,1-5.26-3.62,10,10,0,0,1-2.41-2.12l-.56.06a8.13,8.13,0,0,1-3.06-.23l1.58,7.29,3.07,10.92.51,1.54h34.49A11.53,11.53,0,0,1,244.95,400.79Z" fill="#373a3a"/><path d="M427.81,344.93c.23.21.46.4.69.58,4.93,3.78,7.57,9.78,4.11,15.69a10,10,0,0,1-1.27,1.71,10.12,10.12,0,0,1-.66,1.8,18.32,18.32,0,0,1-.63,4,15.74,15.74,0,0,1-7.51,9.21,11.66,11.66,0,0,1-7.61,1.33,29.14,29.14,0,0,1-8.36-1.49c-.89-.29-1.78-.6-2.67-.89a17,17,0,0,1-3,0c-.19,0-.38,0-.57,0a14.46,14.46,0,0,1,1.25,3.23,9.65,9.65,0,0,0,.23,1,11.83,11.83,0,0,1,.34,1.87,12.28,12.28,0,0,1,.66,1.28h65.35l-1.19-5.46,3.41-5.8v-8.19l5.29-19.8Z" fill="#373a3a"/><path d="M409.45,325.3a121.46,121.46,0,0,1,10.18,10c2.83,3.09,6,8,8.87,10.22,4.93,3.78,7.57,9.78,4.11,15.69a9.88,9.88,0,0,1-1.26,1.67,10.14,10.14,0,0,1-.67,1.84l39.68,0,10.58-39.42Z" fill="#373a3a"/><path d="M373.81,305.67c2.2.83,4.43,1.6,6.69,2.45a95.28,95.28,0,0,1,28.45,16.73,119.67,119.67,0,0,1,10.68,10.43c2.61,2.84,5.47,7.22,8.18,9.64h47.84l10.41-39.25Z" fill="#373a3a"/><path d="M311.84,286.21,312,286h-4.14a14.3,14.3,0,0,1,2.69,1.73A10,10,0,0,1,311.84,286.21Z" fill="#373a3a"/><path d="M327.83,286l.23.17c2.66,2.11,6.69,3.59,10.55,4.88,4.54,1.52,9.17,2.77,13.65,4.48a133.53,133.53,0,0,1,15.18,7.29c4.23,2.25,8.59,3.57,13.06,5.26a95.28,95.28,0,0,1,28.45,16.73l.5.44h71.49L491.35,286Z" fill="#373a3a"/><path d="M188.08,286v1.61a11.08,11.08,0,0,1,2.28.61,10.93,10.93,0,0,1,1.13.21,11.09,11.09,0,0,1,4.69,1.29c.32.09.63.19.94.3a11.37,11.37,0,0,1,4.7,1.07,11.06,11.06,0,0,1,3.9,1.07c.36.07.72.15,1.06.26a11.13,11.13,0,0,1,3,.84,11.43,11.43,0,0,1,1.65.37,11.22,11.22,0,0,1,1.93.45,11.43,11.43,0,0,1,3.59.83,11.28,11.28,0,0,1,3.12.75,10.56,10.56,0,0,1,2.1.33,10.41,10.41,0,0,1,1.56.59,12.17,12.17,0,0,1,1.93.28,11.33,11.33,0,0,1,2.38.43,12.49,12.49,0,0,1,1.85.2,12.92,12.92,0,0,1,1.9.15h.2a12.69,12.69,0,0,1,2.65.27c.36,0,.72-.05,1.1-.05a12,12,0,0,1,2,.19,12.35,12.35,0,0,1,2.43-.31,12.66,12.66,0,0,1,1.87-.22,11.35,11.35,0,0,1,4-1,11.22,11.22,0,0,1,2.17-.54,11.11,11.11,0,0,1,3.74-.91,10.68,10.68,0,0,1,1.25-.43c4.64-4.81,13.12-3.59,17.3,1.4a9.36,9.36,0,0,1,2.43-1.8,129.66,129.66,0,0,1,18.43-8l.91-.28Z" fill="#373a3a"/><path d="M185.52,266.59l.17,2.22-.68,7.51,1.71,4.1,1.36,5.12v2.12a11.08,11.08,0,0,1,2.28.61,10.93,10.93,0,0,1,1.13.21,11.09,11.09,0,0,1,4.69,1.29c.32.09.63.19.94.3a11.37,11.37,0,0,1,4.7,1.07,11.06,11.06,0,0,1,3.9,1.07c.36.07.72.15,1.06.26a11.13,11.13,0,0,1,3,.84,11.43,11.43,0,0,1,1.65.37,11.22,11.22,0,0,1,1.93.45,11.43,11.43,0,0,1,3.59.83,11.28,11.28,0,0,1,3.12.75,10.56,10.56,0,0,1,2.1.33,10.41,10.41,0,0,1,1.56.59,12.17,12.17,0,0,1,1.93.28,11.33,11.33,0,0,1,2.38.43,12.49,12.49,0,0,1,1.85.2,12.92,12.92,0,0,1,1.9.15h.2a12.69,12.69,0,0,1,2.65.27c.36,0,.72-.05,1.1-.05a12,12,0,0,1,2,.19,12.35,12.35,0,0,1,2.43-.31,12.66,12.66,0,0,1,1.87-.22,11.35,11.35,0,0,1,4-1,11.22,11.22,0,0,1,2.17-.54,11.11,11.11,0,0,1,3.74-.91,10.69,10.69,0,0,1,1.25-.43c4.64-4.81,13.12-3.59,17.29,1.4a9.37,9.37,0,0,1,2.44-1.81,129.66,129.66,0,0,1,18.43-8c4.32-1.41,9.12-2.42,13.63-1.34a14.11,14.11,0,0,1,5.59,2.79,10,10,0,0,1,1.26-1.56c4.73-4.73,11.37-3.85,16.22,0,2.66,2.11,6.69,3.59,10.55,4.88,4.54,1.52,9.17,2.77,13.65,4.48a133.53,133.53,0,0,1,15.18,7.29,54.6,54.6,0,0,0,6.37,2.81H486.06l8.88-33.45.68-5.63Z" fill="#373a3a"/><path d="M499,257.89l-4.1-6.48-2.39-2-6.49,2-3.41,4.44-5.8,1.37-2.39-2.73-2-2,1.71-5.46H387.59l-1.88,2.39L384,254.47l-3.07-2-4.44-1.71-8.87.68-8.19,2-7.17-4.1L344.75,247h-21.5l-1.36.34-.51-.34H170.67l6.48,6.48,4.1,4.44,3.75,5.8.68,5.12-.68,7.51,1.71,4.1,1.36,5.12V286H292.27C296.35,284.8,300.8,284,305,285a13.9,13.9,0,0,1,2.89,1.06H312c4.64-4.46,11-3.65,15.8,0H491.35l3.58-13.82.68-5.8-.68-4.78.68-2.73Z" fill="#373a3a"/><polygon points="498.69 257.72 498.69 258.06 499.03 257.89 498.69 257.72" fill="#373a3a"/><polygon points="498.69 227.34 498.69 228.02 501.42 229.56 506.2 227.34 498.69 227.34" fill="#373a3a"/><polygon points="498.69 228.02 498.69 227.34 498.01 227.34 498.69 228.02" fill="#373a3a"/><polygon points="498.69 258.06 498.69 257.72 494.94 251.4 492.55 249.35 486.06 251.4 482.65 255.84 476.85 257.2 474.45 254.47 472.41 252.43 474.45 245.94 470.36 238.43 465.92 239.8 463.87 238.43 456.02 241.84 453.63 241.84 458.07 234.68 468.31 233.31 472.07 227.34 385.37 227.34 385.71 227.85 382.98 232.29 388.78 236.38 389.46 244.92 385.71 249.35 384 254.47 380.93 252.43 376.49 250.72 367.62 251.4 359.43 253.45 352.26 249.35 340.65 245.94 332.12 245.94 321.88 247.31 317.79 245.94 317.79 235.36 321.88 227.85 321.88 227.34 145.07 227.34 148.48 229.9 152.24 232.29 156.33 232.29 158.04 228.87 160.77 233.31 161.45 236.38 169.3 245.94 177.15 253.45 181.25 257.89 185 263.69 185.52 266.59 495.62 266.59 495.62 266.42 494.94 261.64 495.62 258.91 498.69 258.06" fill="#373a3a"/><polygon points="133.46 227.34 103.77 227.34 99.67 229.9 90.45 232.29 83.63 232.29 82.26 234.68 82.26 236.38 84.65 237.07 90.45 238.43 96.26 239.8 100.7 236.38 104.79 234.68 111.62 234.68 117.42 229.9 123.91 230.92 131.76 228.87 133.46 227.34" fill="#373a3a"/><polygon points="519 207.71 519.17 208.74 511.66 212.15 502.1 211.13 501.42 218.63 504.49 221.71 506.88 227.17 501.42 229.56 495.62 226.14 492.89 223.07 486.4 221.71 484.7 220.68 481.96 216.25 485.72 212.15 482.65 207.71 519 207.71" fill="#373a3a"/><polygon points="387.59 246.97 474.11 246.97 474.45 245.94 470.36 238.43 465.92 239.8 463.87 238.43 456.02 241.84 453.63 241.84 458.07 234.68 468.31 233.31 472.41 226.83 470.36 220.34 474.45 216.25 476.85 212.49 475.31 207.71 366.94 207.71 371.03 211.47 374.45 220.34 380.93 223.75 385.71 227.85 382.98 232.29 388.78 236.38 389.46 244.92 387.59 246.97" fill="#373a3a"/><polygon points="323.25 246.97 344.75 246.97 340.65 245.94 332.12 245.94 323.25 246.97" fill="#373a3a"/><polygon points="170.67 246.97 321.37 246.97 317.79 245.94 317.79 235.36 321.88 227.85 321.88 220.34 319.83 211.47 321.88 208.74 322.39 207.71 102.4 207.71 102.4 210.78 101.72 212.49 101.72 216.25 103.77 220.34 106.16 220.34 108.2 224.78 104.79 226.83 99.67 229.9 90.45 232.29 83.63 232.29 82.26 234.68 82.26 236.38 84.65 237.07 90.45 238.43 96.26 239.8 100.7 236.38 104.79 234.68 111.62 234.68 117.42 229.9 123.91 230.92 131.76 228.87 134.83 226.14 144.04 226.83 148.48 229.9 152.24 232.29 156.33 232.29 158.04 228.87 160.77 233.31 161.45 236.38 169.3 245.94 170.67 246.97" fill="#373a3a"/><polygon points="480.26 202.93 480.26 205.49 481.96 207.03 485.72 212.15 481.96 216.25 484.7 220.68 486.4 221.71 492.89 223.07 495.62 226.14 498.01 227.34 506.2 227.34 506.88 227.17 504.49 221.71 501.42 218.63 502.1 211.13 511.66 212.15 519.17 208.74 517.46 202.59 513.71 202.59 509.95 198.15 506.88 197.47 502.1 200.54 500.06 204.98 495.62 205.66 491.18 202.59 491.18 200.54 487.77 198.15 481.28 199.18 480.26 202.93" fill="#373a3a"/><path d="M491.18,202.59" fill="#373a3a"/><polygon points="480.26 205.49 480.26 202.93 479.92 204.98 480.26 205.49" fill="#373a3a"/><polygon points="385.37 227.34 472.07 227.34 472.41 226.83 470.36 220.34 474.45 216.25 476.85 212.49 474.45 206 478.21 202.25 480.26 197.81 472.41 189.28 469.34 188.08 459.95 188.08 453.63 192.69 445.78 192.69 441.35 188.08 439.47 188.08 436.57 191.33 435.88 192.69 431.11 189.28 429.57 188.08 424.96 188.08 421.55 189.28 420.7 188.08 410.97 188.08 410.29 189.28 403.46 189.28 389.46 189.96 382.98 189.96 379.91 189.28 379.05 188.08 368.3 188.08 364.2 196.79 362.84 204.3 371.03 211.47 374.45 220.34 380.93 223.75 385.37 227.34" fill="#373a3a"/><polygon points="145.07 227.34 321.88 227.34 321.88 220.34 319.83 211.47 321.88 208.74 325.29 201.23 328.71 197.81 330.75 200.54 332.12 205.32 339.63 205.32 350.89 198.5 348.5 189.96 348.85 188.08 281.77 188.08 280.58 189.28 280.41 188.08 236.55 188.08 234.84 189.28 231.94 188.08 215.9 188.08 214.7 189.28 208.22 189.28 208.22 188.08 102.57 188.08 101.72 189.28 100.7 201.23 101.72 202.93 102.4 207.71 102.4 210.78 101.72 212.49 101.72 216.25 103.77 220.34 106.16 220.34 108.2 224.78 104.79 226.83 103.77 227.34 133.46 227.34 134.83 226.14 144.04 226.83 145.07 227.34" fill="#373a3a"/><polygon points="480.26 202.93 480.26 205.49 481.96 207.03 482.65 207.71 519 207.71 517.46 202.59 513.71 202.59 509.95 198.15 506.88 197.47 502.1 200.54 500.06 204.98 495.62 205.66 491.18 202.59 491.18 200.54 487.77 198.15 481.28 199.18 480.26 202.93" fill="#373a3a"/><path d="M491.18,202.59" fill="#373a3a"/><polygon points="480.26 205.49 480.26 202.93 479.92 204.98 480.26 205.49" fill="#373a3a"/><polygon points="366.94 207.71 475.31 207.71 474.45 206 478.21 202.25 480.26 197.81 472.41 189.28 462.85 186.21 453.63 192.69 445.78 192.69 440.32 187.23 436.57 191.33 435.88 192.69 431.11 189.28 428.03 187.23 421.55 189.28 417.11 184.16 412.33 186.21 410.29 189.28 403.46 189.28 389.46 189.96 382.98 189.96 379.91 189.28 375.13 184.16 368.64 187.23 364.2 196.79 362.84 204.3 366.94 207.71" fill="#373a3a"/><polygon points="102.4 207.71 322.39 207.71 325.29 201.23 328.71 197.81 330.75 200.54 332.12 205.32 339.63 205.32 350.89 198.5 348.5 189.96 349.87 182.79 340.65 178.36 337.58 179.72 336.21 173.92 334.68 168.46 318.64 168.46 318.47 168.8 312.32 170.16 311.13 168.46 291.67 168.46 291.16 173.24 287.06 179.72 286.38 184.16 280.58 189.28 278.19 181.43 282.29 173.24 278.7 168.46 235.69 168.46 237.23 173.92 244.74 177.68 243.03 184.16 234.84 189.28 225.96 186.21 223.23 181.43 220.5 184.16 214.7 189.28 208.22 189.28 208.22 178.36 198.32 170.16 197.29 168.46 126.98 168.46 125.95 176.65 125.95 180.75 120.49 182.79 111.62 184.16 103.77 186.21 101.72 189.28 100.7 201.23 101.72 202.93 102.4 207.71 102.4 207.71" fill="#373a3a"/><polygon points="459.95 188.08 469.34 188.08 462.85 186.21 459.95 188.08" fill="#373a3a"/><polygon points="282.29 187.57 282.29 188.08 348.85 188.08 349.87 182.79 340.65 178.36 337.58 179.72 336.21 173.92 333.49 165.39 326.66 158.22 321.2 158.9 318.47 168.8 312.32 170.16 308.23 165.39 300.72 163.68 291.84 166.75 291.16 173.24 287.06 179.72 286.38 184.16 282.29 187.57" fill="#373a3a"/><polygon points="439.47 188.08 441.35 188.08 440.32 187.23 439.47 188.08" fill="#373a3a"/><polygon points="424.96 188.08 429.57 188.08 428.03 187.23 424.96 188.08" fill="#373a3a"/><polygon points="410.97 188.08 420.7 188.08 417.11 184.16 412.33 186.21 410.97 188.08" fill="#373a3a"/><polygon points="368.3 188.08 379.05 188.08 375.13 184.16 368.64 187.23 368.3 188.08" fill="#373a3a"/><polygon points="282.29 188.08 282.29 187.57 281.77 188.08 282.29 188.08" fill="#373a3a"/><polygon points="236.55 188.08 280.41 188.08 278.19 181.43 282.29 173.24 277.17 166.75 270 168.12 267.27 164.7 261.81 158.9 257.03 160.61 252.59 163.68 246.79 160.61 241.32 161.63 235.52 168.12 237.23 173.92 244.74 177.68 243.03 184.16 236.55 188.08" fill="#373a3a"/><polygon points="215.9 188.08 231.94 188.08 225.96 186.21 223.23 181.43 220.5 184.16 215.9 188.08" fill="#373a3a"/><polygon points="102.57 188.08 208.22 188.08 208.22 178.36 198.32 170.16 192.51 162.66 186.71 164.7 182.96 163.68 180.23 158.22 180.23 152.76 175.11 152.76 173.74 152.07 173.74 152.07 161.45 152.07 154.97 155.15 150.53 155.15 149.16 154.12 145.75 152.07 139.27 150.37 133.46 152.76 129.71 158.22 130.39 161.63 130.39 166.75 126.98 168.12 125.95 176.65 125.95 180.75 120.49 182.79 111.62 184.16 103.77 186.21 102.57 188.08" fill="#373a3a"/><polygon points="318.64 168.46 334.68 168.46 333.49 165.39 326.66 158.22 321.2 158.9 318.64 168.46" fill="#373a3a"/><polygon points="291.67 168.46 311.13 168.46 308.23 165.39 300.72 163.68 291.84 166.75 291.67 168.46" fill="#373a3a"/><polygon points="235.69 168.46 278.7 168.46 277.17 166.75 270 168.12 267.27 164.7 261.81 158.9 257.03 160.61 252.59 163.68 246.79 160.61 241.32 161.63 235.52 168.12 235.69 168.46" fill="#373a3a"/><polygon points="126.98 168.46 197.29 168.46 192.51 162.66 186.71 164.7 182.96 163.68 180.23 158.22 180.23 152.76 175.11 152.76 173.74 152.07 173.74 152.07 161.45 152.07 154.97 155.15 150.53 155.15 149.16 154.12 145.75 152.07 139.27 150.37 133.46 152.76 129.71 158.22 130.39 161.63 130.39 166.75 126.98 168.12 126.98 168.46" fill="#373a3a"/><path d="M333,538.12c0-8.19-7-15-15.53-15s-15.53,6.83-15.53,15,7,15,15.53,15S333,546.31,333,538.12Z" fill="none" stroke="#373a3a" stroke-width="0.88"/><path d="M567.3,371.72c-.85,3.93-1.71,7.68-2.73,11.78l-12.29-3.07L535.55,376l-19.11-4.27Z" fill="#626765"/><path d="M565.76,378.55c1-4.61,2-9,2.73-13.65H473.26l3.58.51,37.89,6.14L535.55,376,546,378.55Z" fill="#626765"/><path d="M567.3,371.72c.85-4.61,1.71-9.22,2.39-13.82H430.25l1.19,4.1,16.73,1,17.75,1.36,10.92,1,37.89,6.14,1.71.17Z" fill="#626765"/><path d="M568.49,364.9c.85-4.61,1.71-9.22,2.22-13.82H424.45l5.63,6.83,1.36,4.1,16.73,1,17.75,1.36,7.34.51Z" fill="#626765"/><path d="M569.69,357.9c.85-4.44,1.36-9,1.88-13.65H418.65l11.44,13.65H569.69Z" fill="#626765"/><path d="M570.71,351.07c.68-4.44,1-9,1.36-13.65H411c2.39,2,4.78,4.1,7.17,6.49l6.31,7.17Z" fill="#626765"/><path d="M571.57,344.25q.77-6.66,1-13.82H400.39a87.13,87.13,0,0,1,17.75,13.48l.51.34Z" fill="#626765"/><path d="M572.08,337.42c.34-4.44.68-9,.68-13.82H388.44l8.53,5.29a80.44,80.44,0,0,1,14,8.53Z" fill="#626765"/><path d="M572.59,330.42c.17-4.44.34-8.87.17-13.65H374.62l8,3.58L397,328.89c1.2.51,2.22,1,3.41,1.54Z" fill="#626765"/><path d="M246.79,316.77c6.48,6.14,17.23,4.1,24.06,0Z" fill="#626765"/><path d="M245.42,309.94l-1.71,2.9h0c6.83,13.31,25.26,7.17,31.74.68l3.75-3.58Z" fill="#626765"/><path d="M572.76,323.59c.17-4.44,0-8.87-.17-13.65H359.08l3.41,1.88,20.14,8.53,5.8,3.24Z" fill="#626765"/><path d="M249.52,302.94l-5.8,9.9h0a14.24,14.24,0,0,0,3.07,3.92h24.06a21.52,21.52,0,0,0,4.61-3.24l7.85-7.17,3.58-3.41Z" fill="#626765"/><path d="M572.76,316.77q0-6.66-.51-13.82H345.09l17.41,8.88,12.12,4.95Z" fill="#626765"/><polygon points="245.42 309.94 252.59 297.82 253.79 296.12 294.57 296.12 291.5 298.85 283.31 306.36 279.21 309.94 245.42 309.94" fill="#626765"/><path d="M572.59,309.94c-.17-4.44-.51-9-.85-13.82H330.07l11.26,5.12,17.75,8.7Z" fill="#626765"/><polygon points="249.52 302.94 252.59 297.82 258.73 289.29 306.01 289.29 297.99 293.39 291.5 298.85 286.89 302.94 249.52 302.94" fill="#626765"/><path d="M572.25,302.94c-.34-4.27-.68-8.87-1.2-13.65H317.79l2.73,1,5.12,4.09,15.7,6.83,3.75,1.71Z" fill="#626765"/><path d="M253.79,296.12l9-12.29.68-1.36H570.2c.68,4.78,1.19,9.39,1.54,13.65H330.07l-4.44-1.71-5.12-4.09-3.41-1-4.44-1h-4.44L298,293.39l-3.41,2.73Z" fill="#626765"/><path d="M258.73,289.29l4.1-5.46,3.92-8.36h119l1.37.85H398l9.73-.85H569.17c.68,4.78,1.37,9.39,1.88,13.82h-254l-4.44-1h-4.44l-2.22,1Z" fill="#626765"/><path d="M263.51,282.46l3.75-8.19,3.07-4.44,1.54-1.19H372.06l6.14,3.58,8.88,4.1H398l14.34-1h13.31l28-2,23.21-1,51.2-2.39,31.06-1H568c.85,4.61,1.54,9.22,2.22,13.65Z" fill="#626765"/><polygon points="266.75 275.47 267.27 274.27 270.34 269.83 277.17 264.71 285.19 261.81 358.23 261.81 368.3 266.76 378.2 272.22 385.71 275.47 266.75 275.47" fill="#626765"/><path d="M407.72,275.47l4.61-.17h13.31l28-2,23.21-1,51.2-2.39,31.06-1H568c.51,2.22.85,4.44,1.19,6.66Z" fill="#626765"/><polygon points="271.87 268.64 277.17 264.71 287.06 261.3 295.94 259.25 303.28 254.99 343.73 254.99 345.77 256.18 368.3 266.76 372.06 268.64 271.87 268.64" fill="#626765"/><polygon points="285.19 261.81 287.06 261.3 295.94 259.25 303.79 254.82 311.64 251.74 318.13 249.7 327 249.7 336.9 251.74 345.77 256.18 358.23 261.81 285.19 261.81" fill="#626765"/><polygon points="303.28 254.99 303.79 254.82 311.64 251.74 318.13 249.7 327 249.7 336.9 251.74 343.73 254.99 303.28 254.99" fill="#626765"/><polygon points="243.71 313.01 252.59 297.82 262.66 284 267.1 274.27 270.34 270 276.99 264.71 286.89 261.47 295.77 259.25 303.62 254.99 311.47 251.91 318.13 249.7 327 249.7 336.9 251.91 345.77 256.18 368.13 266.93 378.03 272.22 386.9 276.49 398 276.49 412.33 275.47 425.64 275.47 453.46 273.25 476.67 272.22 527.87 270 558.93 268.98 567.81 268.98 567.81 268.98 568.49 273.25 569.17 277.51 569.69 281.61 570.37 285.54 570.71 289.63 571.22 293.39 571.57 297.31 571.91 301.07 572.08 304.82 572.25 308.4 572.42 311.99 572.59 315.57 572.59 319.16 572.59 322.57 572.59 326.15 572.42 329.57 572.25 332.98 572.08 336.39 571.91 339.64 571.57 343.05 571.22 346.29 570.88 349.71 570.37 353.12 569.86 356.36 569.35 359.77 568.84 363.02 568.15 366.43 567.64 369.85 566.96 373.26 566.1 376.67 565.42 380.08 564.57 383.67 552.28 380.43 535.55 376.16 514.56 371.72 476.67 365.41 465.75 364.38 448 363.19 431.28 362.17 430.08 357.9 417.96 343.9 417.96 343.9 415.4 341.69 413.01 339.47 410.45 337.42 407.89 335.54 405.34 333.83 402.6 332.13 399.87 330.42 396.8 328.88 382.47 320.35 362.5 311.82 341.34 301.24 325.63 294.58 320.34 290.49 317.1 289.46 312.66 288.27 308.23 288.27 297.99 293.56 291.33 299.02 283.31 306.53 275.29 313.7 275.29 313.7 273.92 314.89 272.39 316.08 270.51 317.11 268.63 318.13 266.41 318.99 264.2 319.84 261.98 320.35 259.59 320.69 257.2 320.86 254.98 320.69 252.76 320.35 250.54 319.67 248.49 318.64 246.79 317.11 245.08 315.23 243.71 313.01 243.71 313.01" fill="#626765"/><path d="M276.31,312.67c4.27-4.27,4.27-3.75,8-7.34,5.12-4.61,6.83-6.66,12.29-11.26,3.58-2.22,7.17-3.93,11.26-6.31a44.51,44.51,0,0,1,4.78,0c2.39.34,4.61,1.54,7.51,2.22,4.44,4.61,6.31,4.1,10.75,5.8l-6.14-5.63-3.25-6.48-1.19-7.51-5.46,5.46-4.44,2-6.83,1.19-4.44,2h-3.41l-7.68,3.24-3.24,9.56-4.44,4.44-3.41,2-3.24,3.24-6.66,5.29L260.44,318l-8.36,1.54C258.22,322.4,271,318.13,276.31,312.67Z" fill="#3c3d3d"/><polygon points="375.3 316.94 385.37 315.74 390.83 314.72 394.24 308.23 397.49 299.7 396.46 303.97 394.24 312.5 397.49 309.43 398.68 308.23 396.46 315.74 401.92 313.7 400.9 314.72 397.49 320.01 395.27 322.23 395.27 323.25 395.27 324.45 392.02 326.5 386.39 323.25 381.95 321.2 375.3 316.94" fill="#3c3d3d"/><polygon points="413.7 330.93 418.14 330.93 421.55 329.91 424.79 330.93 429.23 330.93 432.64 329.91 433.67 329.91 441.52 330.93 445.95 330.93 449.2 334.18 440.32 331.96 438.1 335.2 432.64 334.18 424.79 333.15 417.11 333.15 413.7 330.93 413.7 330.93" fill="#3c3d3d"/><polygon points="362.84 268.13 384 277.86 387.25 278.88 391.68 284.17 397.31 287.41 393.9 286.39 389.46 284.17 389.46 285.36 388.44 286.39 386.22 284.17 384 280.93 381.78 279.9 362.84 268.13 362.84 268.13" fill="#3c3d3d"/><path d="M89.15,347l21-40.72H118L140.4,347h-8.26l-6.39-12.33h-22.9l-6,12.33ZM105,330.25h18.57L117.8,319q-2.62-5.14-3.89-8.44a42.13,42.13,0,0,1-3,7.78Z" fill="#373a3a"/><path d="M146.57,347V306.25h36.95v4.81h-29.7v12.61h25.7v4.81h-25.7V347Z" fill="#373a3a"/><path d="M192.64,347V306.25h7.25v35.92h27V347Z" fill="#373a3a"/><path d="M480.69,332.7l6.61,1.36a18,18,0,0,1-7.48,10.12,23.87,23.87,0,0,1-13.21,3.49q-8.08,0-13.14-2.68a18,18,0,0,1-7.71-7.76,23.32,23.32,0,0,1-2.64-10.92,20.38,20.38,0,0,1,3-11.1,18.79,18.79,0,0,1,8.49-7.19,29.39,29.39,0,0,1,12.12-2.46,23.87,23.87,0,0,1,12.61,3.11,16.41,16.41,0,0,1,7.13,8.75l-6.51,1.25a12.67,12.67,0,0,0-5-6.47,15.67,15.67,0,0,0-8.32-2,18.9,18.9,0,0,0-9.63,2.25,12.38,12.38,0,0,0-5.44,6,20.27,20.27,0,0,0-1.57,7.82,20.76,20.76,0,0,0,1.86,9.07,12.12,12.12,0,0,0,5.78,5.79,19.07,19.07,0,0,0,8.49,1.92,16.38,16.38,0,0,0,9.41-2.61A13,13,0,0,0,480.69,332.7Z" fill="#373a3a"/><path d="M496.56,347V306.25h6.61V347Z" fill="#373a3a"/><path d="M512.84,327.14q0-10.14,6.68-15.87t17.25-5.74a28.24,28.24,0,0,1,12.48,2.69,19.59,19.59,0,0,1,8.47,7.51,20.7,20.7,0,0,1,2.91,10.93,20.41,20.41,0,0,1-3.07,11.08,19.23,19.23,0,0,1-8.69,7.4,29.4,29.4,0,0,1-12.14,2.51,27.83,27.83,0,0,1-12.61-2.78,19.8,19.8,0,0,1-8.42-7.58A19.55,19.55,0,0,1,512.84,327.14Zm6.82.08q0,7.36,4.86,11.6a19.72,19.72,0,0,0,24.48,0q4.82-4.28,4.82-12.14a17.57,17.57,0,0,0-2.06-8.68,14.08,14.08,0,0,0-6-5.75,20.52,20.52,0,0,0-21,1.89Q519.66,318,519.66,327.23Z" fill="#373a3a"/><path d="M243.71,313l8.87-15.19L262.66,284l4.44-9.73,3.24-4.27,6.66-5.29,9.9-3.24,8.88-2.22,7.85-4.27,7.85-3.07,6.66-2.22H327l9.9,2.22,8.87,4.27,22.36,10.75,9.9,5.29,8.87,4.27H398l14.34-1h13.31l27.82-2.22,23.21-1,51.2-2.22,31.06-1h8.87c7.85,46.08,5.63,77.14-3.24,114.69l-12.29-3.24-16.72-4.27-21-4.44-37.89-6.31-10.92-1L448,363.19l-16.72-1-1.2-4.27L418,343.9a88.15,88.15,0,0,0-21.16-15l-14.34-8.53-20-8.53-21.16-10.58-15.7-6.66-5.29-4.1-3.24-1-4.44-1.19h-4.44L298,293.56,291.33,299l-8,7.51-8,7.17c-6.48,6.31-24.91,12.63-31.57-.68Z" fill="none" stroke="#231f20" stroke-width="0.17"/><polygon points="312.49 406.88 318.64 408.76 321.37 410.81 323.25 412.68 325.63 416.1 326.66 420.36 318.85 430.49 313.89 428.39 313.69 418.49 309.08 411.49 312.49 406.88" fill="#3c3d3d"/><path d="M340.48,417.8l-11.95-6.49,10.24,1.88,12.12,5.8c2.39,1.54,5.63,2.56,8,4.1,3.41,2.56.17,7.17-1.71,9.56l-3.75-4.1-3.75-2.22-4.61-3.93Z" fill="#3c3d3d"/><path d="M334.34,418.48c2.73.34,5.8,2,7.34,6.66v5.8l-.68,4.61-9-2.73C332.8,428,333.66,423.26,334.34,418.48Z" fill="#3c3d3d"/><polygon points="259.25 404.15 259.25 398 257.2 391.69 251.39 388.11 249.52 398 246.79 405.86 258.21 412.85 259.25 404.15" fill="#3c3d3d"/><path d="M424.7,378c-14.85-.51-30.62-7.52-34.55-11.44-5.12-5.29-15.53-6.66-26.8-15.7,5.12,5.8,13,11.26,18.77,14.51,5.63,3.07,7.85,9.22,12.12,14.34,5.46,4.44,5.12,9.39,7.68,15.87,4.95-9,3.1-12.95-1.34-18.75C413.9,381.65,416,380.26,424.7,378Z" fill="#3c3d3d"/><path d="M377.35,400.05l-5.46-4.61-5.29-1.54-5.46-5.8-8-3.75L342,382l-3.07,2.39,14.17,5.29,12.29,7c3.41,3.58,9.22,5.12,12.63,8.7,4.95.85,3.24,6.83,1.19,11.78,4.27-4.44,4.9-4.93,4.9-11.58,4.61.34,4.83-1,7.73-1.73C387.76,403.64,382.3,400.74,377.35,400.05Z" fill="#3c3d3d"/><polygon points="357.04 331.44 348.5 331.44 339.8 330.59 336.21 330.59 347.82 334 350.04 336.74 353.96 336.74 357.04 334 357.04 331.44 357.04 331.44" fill="#3c3d3d"/><polygon points="327.85 324.79 315.56 326.32 299.01 328.2 295.94 328.2 288.26 324.79 281.77 324.79 267.61 327.52 269.49 328.2 282.45 327.52 288.26 326.32 295.94 328.2 301.06 332.13 308.23 331.44 314.88 330.59 321.37 328.2 327.85 328.2 330.93 327.52 327.85 324.79 327.85 324.79" fill="#3c3d3d"/><polygon points="238.42 342.54 252.59 343.56 263 344.42 271.37 349.71 279.56 349.71 289.45 353.97 300.2 353.97 309.08 355.85 311.3 359.77 300.2 357.05 289.45 355.17 275.97 353.97 269.49 352.1 263 350.9 252.59 349.71 246.79 348.17 240.3 346.81 238.42 342.54 238.42 342.54" fill="#3c3d3d"/><polygon points="267.61 360.46 273.75 358.58 273.75 361.31 277.17 360.46 282.45 361.31 292.18 361.31 301.06 365.92 313.69 364.72 317.79 363.53 323.25 364.72 326.66 368.14 334.34 370.19 338.95 368.14 339.8 365.92 343.56 370.19 340.82 374.28 327.85 372.06 322.05 368.99 318.64 368.14 308.23 368.14 301.06 367.11 292.18 365.92 287.06 364.72 282.45 362.51 279.56 361.31 272.9 360.46 269.49 362.51 266.07 362.51 267.61 360.46 267.61 360.46" fill="#3c3d3d"/><polygon points="272.9 375.48 285.36 379.74 295.94 384.35 303.62 387.08 311.3 391.69 314.88 395.44 321.37 396.64 324.44 395.44 326.66 394.59 325.63 401.25 318.64 401.25 315.56 396.64 313.69 395.44 309.08 392.71 304.81 391.69 299.01 389.64 294.4 385.04 289.45 384.35 283.65 379.74 279.56 376.67 277.17 376.67 275.97 375.48 273.75 378.55 270.34 377.7 270.34 375.48 272.9 375.48 272.9 375.48" fill="#3c3d3d"/><polygon points="280.58 396.64 283.65 401.25 286.38 405.86 285.36 408.76 285.36 409.95 285.36 410.81 279.27 419.79 288.09 423.65 294.4 416.1 296.79 409.95 294.4 404.15 289.45 398 286.38 395.44 282.45 394.59 280.58 396.64" fill="#3c3d3d"/><path d="M69.34,374.58c-.85-2.9-1-6-1.88-8.53,34.65,1.54,69.12,2,103.42,1.88,4.78,5.63,13.82,2.39,21,6.49l10.24,2.39,2.05,1.19,1.87-2.39,5.8-2.22,1.54,1L210.65,379l2.73,3.24,10.24,8.7,15,3.07-2,8.53-7.51-3.93L211,384.82l-9.39-1.37-7.34-1.88-11.43-3.41-11.95.17a37.22,37.22,0,0,1-4.1-1.19c-5.8-.17-10.75-1-16.9-1C123.44,376.12,93.24,375.61,69.34,374.58Z" fill="#3c3d3d"/><path d="M231.6,399.88l-4.78-2.73-10.92-8.53-5.46-4.27-9-1.19-7.68-2-11.09-3.24H170.33l-3.41-1.19-18.77-1H115.88l-34.47-1-12.77.48c-8.23-39.69-8.27-72-.59-109.52l50,7.32,25.6,4.27,26.62,5.46,29,7.51,25.43,6.49,12.29.85,7.68-.85,7.85-2.39,4.78-2.73" fill="none" stroke="#373a3a" stroke-width="2.65"/><path d="M231.6,399.88l-4.78-2.73-10.92-8.53-5.46-4.27-9-1.19-7.68-2-11.09-3.24H170.33l-3.41-1.19-18.77-1H115.88l-34.47-1L69,374.15c-7.68-39.77-8.78-71.17-1.1-108.71l50.2,7.47,25.6,4.27,26.62,5.46,29,7.51,25.43,6.49,12.29.85,7.68-.85,7.85-2.39,4.78-2.73" fill="none" stroke="#373a3a" stroke-width="2.65"/><path d="M73.73,243.72C114.52,108.9,257.88,32.61,392.2,73.57,526.85,114.7,602.28,257.89,561.32,392.71c-41.13,134.83-184.15,211.46-318.8,170.16C108.21,521.91,32.43,378.55,73.73,243.72Z" fill="none" stroke="#373a3a" stroke-width="2.39"/><path d="M431.79,362.34v2c-3.41,18.26-15.7,18.26-31.23,13,12.29,16-6.66,32.09-17.75,27.82,1.2,6.49,1.2,18.26-23.21,18.26,4.44,5.29-4.61,16-16.72,12.8l-23.38-6.49" fill="none" stroke="#332f30" stroke-width="2.39"/><path d="M431.79,362.34v2c-3.41,18.26-15.7,18.26-31.23,13,12.29,16-6.66,32.09-17.75,27.82,1.2,6.49,1.2,18.26-23.21,18.26,4.44,5.29-4.61,16-16.72,12.8l-23.38-6.49" fill="none" stroke="#332f30" stroke-width="0.17"/><path d="M247.64,411.49a8.94,8.94,0,0,1-6.31,0Z" fill="#626765"/><path d="M250.54,409.78c-3.58,3.41-9,2.56-13,0Z" fill="#626765"/><path d="M241.32,411.49A13,13,0,0,1,235,407.9h16.55a6.08,6.08,0,0,1-.68,1.54,6.58,6.58,0,0,1-3.24,2Z" fill="#626765"/><path d="M237.57,409.78a10.87,10.87,0,0,1-4.1-3.75h18.94c-.51,1.19-1,2.22-1.54,3.41a.37.37,0,0,1-.34.34Z" fill="#626765"/><path d="M235,407.9a11.76,11.76,0,0,1-2.73-3.75h21c-.51,1.36-1.19,2.56-1.71,3.75Z" fill="#626765"/><path d="M233.47,406a7,7,0,0,1-1.71-3.58h22.36a35.43,35.43,0,0,1-1.71,3.58Z" fill="#626765"/><path d="M232.28,404.15a6.35,6.35,0,0,1-.51-3.58h23a36.68,36.68,0,0,1-1.54,3.58Z" fill="#626765"/><path d="M232.28,398.69a8,8,0,0,0-.51,1.19,6.44,6.44,0,0,0,0,2.56h22.36a24.22,24.22,0,0,0,1.19-3.75Z" fill="#626765"/><path d="M233,396.81c-.34,1-.85,1.88-1.19,3.07v.68h23a12.27,12.27,0,0,0,.68-3.75Z" fill="#626765"/><path d="M232.28,398.69a32.39,32.39,0,0,1,1.53-3.58h21.85a21.35,21.35,0,0,1-.34,3.58Z" fill="#626765"/><path d="M233,396.81l2-3.58,20.31.17a7.81,7.81,0,0,1,.17,3.41Z" fill="#626765"/><path d="M233.82,395.1c.85-1.37,1.71-2.56,2.56-3.75H255a8.58,8.58,0,0,1,.34,2c.17.51.17,1.19.34,1.71Z" fill="#626765"/><path d="M235,393.23a34.23,34.23,0,0,1,3.24-3.75h15.87a9.71,9.71,0,0,1,1.19,3.75Z" fill="#626765"/><path d="M236.38,391.35l3.58-3.58h13a9.33,9.33,0,0,1,2,3.58Z" fill="#626765"/><path d="M238.25,389.47c1.2-1.2,2.56-2.39,3.58-3.58h8.54a9.5,9.5,0,0,1,3.75,3.58Z" fill="#626765"/><path d="M240,387.76c.68-.68,1.36-1.19,2-1.88h0c3.93-1.54,8.19-1,10.92,1.88Z" fill="#626765"/><path d="M241.84,385.89H242a11.77,11.77,0,0,1,8.37,0Z" fill="#626765"/><polygon points="241.84 386.06 241.84 386.06 240.47 387.25 239.11 388.62 237.74 389.98 236.38 391.52 235.01 393.23 233.81 395.1 232.62 397.49 231.77 400.05 231.77 400.05 231.6 402.95 232.79 405.69 235.01 408.42 237.91 410.46 241.15 411.83 244.57 412.34 247.98 411.66 250.71 409.61 250.71 409.61 251.56 407.73 252.59 405.86 253.44 403.98 254.3 402.1 254.81 400.05 255.32 398 255.32 395.96 255.15 393.57 255.15 393.57 254.47 391.01 253.44 388.96 251.91 387.25 250.2 386.23 248.32 385.55 246.1 385.2 244.06 385.38 241.84 386.06 241.84 386.06 241.84 386.06 241.84 386.06 241.84 386.06 241.84 386.06" fill="#626765"/><path d="M267.1,424.29a13.33,13.33,0,0,0,8,1.54c.68-.51,1.19-1,1.87-1.54Z" fill="#626765"/><path d="M263.85,422.24a14.74,14.74,0,0,0,11.27,3.58c1.53-1.2,3.07-2.22,4.61-3.58Z" fill="#626765"/><path d="M267.1,424.29a15,15,0,0,1-5.63-4.27h21a53.26,53.26,0,0,1-5.46,4.27Z" fill="#626765"/><path d="M263.85,422.24a20.46,20.46,0,0,1-4.1-4.44h24.92a29.77,29.77,0,0,1-4.95,4.44Z" fill="#626765"/><path d="M258.9,415.75c0,.17-.17.34-.17.51a21.22,21.22,0,0,0,2.73,3.75h21a24.46,24.46,0,0,0,4.1-4.27Z" fill="#626765"/><path d="M259.07,413.54a16.94,16.94,0,0,0-.34,2.73l1,1.54h24.92a17.63,17.63,0,0,0,3.58-4.27Z" fill="#626765"/><path d="M258.9,415.75a22,22,0,0,1,.68-4.27h29.87a20.69,20.69,0,0,1-2.9,4.27Z" fill="#626765"/><path d="M259.07,413.54c.34-1.19.85-2.73,1.36-4.27h29.87a14.12,14.12,0,0,1-2,4.27Z" fill="#626765"/><path d="M259.59,411.49a33.91,33.91,0,0,1,2-4.44h29.18v.34a28.88,28.88,0,0,1-1.37,4.1Z" fill="#626765"/><path d="M260.44,409.27c.68-1.36,1.37-2.73,2.22-4.27h28.16v2.39a6,6,0,0,1-.51,1.88Z" fill="#626765"/><path d="M261.63,407a39.9,39.9,0,0,1,2.56-4.27h26.28a39.14,39.14,0,0,1,.34,4.27Z" fill="#626765"/><path d="M262.66,405c1-1.37,2-2.9,3.07-4.27h24.06a19.43,19.43,0,0,1,1,4.27Z" fill="#626765"/><path d="M264.2,402.78a41.07,41.07,0,0,1,3.41-4.27h21.33a21.35,21.35,0,0,1,1.54,4.27Z" fill="#626765"/><path d="M265.73,400.74a34.86,34.86,0,0,1,4.1-4.44h17.75a21.4,21.4,0,0,1,2.22,4.44Z" fill="#626765"/><path d="M267.61,398.52a22,22,0,0,1,3.07-2.73c.86-.68,1.54-1,2.22-1.54h12.46a12.32,12.32,0,0,1,3.58,4.27Z" fill="#626765"/><path d="M269.83,396.3a3.74,3.74,0,0,0,.85-.51c7.51-5.29,13.48-3.75,16.9.51Z" fill="#626765"/><path d="M272.9,394.25c5.29-2.73,9.56-2.22,12.46,0Z" fill="#626765"/><polygon points="270.68 395.79 270.68 395.79 268.63 397.66 266.41 399.88 264.37 402.44 262.66 405.17 260.95 408.07 259.76 410.98 258.9 413.71 258.56 416.27 258.56 416.27 259.93 418.49 261.63 420.53 263.51 422.41 265.56 423.77 267.78 424.97 270.17 425.65 272.56 425.99 275.12 425.82 275.12 425.82 277.34 424.12 279.56 422.41 281.95 420.53 284.33 418.31 286.38 416.1 288.26 413.54 289.79 410.63 290.82 407.56 290.82 407.56 290.48 403.64 289.45 400.05 287.75 396.81 285.36 394.42 282.45 392.88 279.04 392.54 275.12 393.4 270.68 395.79" fill="#626765"/><path d="M296.28,439.48a17,17,0,0,0,7.17,1,4.57,4.57,0,0,0,1.7-1Z" fill="#626765"/><path d="M292.35,437.43a16.63,16.63,0,0,0,11.1,3.07,11.83,11.83,0,0,0,3.92-3.07Z" fill="#626765"/><path d="M296.28,439.48a13.14,13.14,0,0,1-6.15-3.92h18.77a21,21,0,0,1-3.75,3.92Z" fill="#626765"/><path d="M292.35,437.43a14.34,14.34,0,0,1-3.93-3.93h22a26.4,26.4,0,0,1-3.07,3.93Z" fill="#626765"/><path d="M290.14,435.55a13.24,13.24,0,0,1-2.73-4.1h24.41a42.65,42.65,0,0,1-2.9,4.1Z" fill="#626765"/><path d="M288.43,433.5a13.7,13.7,0,0,1-1.71-3.92H313c-.85,1.36-1.71,2.73-2.56,3.92Z" fill="#626765"/><path d="M287.41,431.46a9.64,9.64,0,0,1-1.2-3.93h28a30.34,30.34,0,0,1-2.39,3.93Z" fill="#626765"/><path d="M286.72,429.58a10.32,10.32,0,0,1-.68-4.1h29.35a32.17,32.17,0,0,1-2.39,4.1Z" fill="#626765"/><path d="M286.55,423.43a2.35,2.35,0,0,1-.51.68,21.85,21.85,0,0,0,.17,3.41h28c.85-1.36,1.7-2.73,2.39-4.1Z" fill="#626765"/><path d="M287.92,421.56c-.68.85-1.19,1.71-1.88,2.56v1.37h29.35c.85-1.37,1.54-2.56,2.22-3.93Z" fill="#626765"/><path d="M286.55,423.43c.85-1.19,1.88-2.56,2.9-3.92h29a3.17,3.17,0,0,1-.34,1.19c-.34.85-1,1.71-1.54,2.73Z" fill="#626765"/><path d="M287.92,421.56c1-1.19,2-2.56,3.24-4.1h27.65a7.92,7.92,0,0,1-.68,3.24,3.71,3.71,0,0,0-.51.85Z" fill="#626765"/><path d="M289.45,419.51c1-1.19,2-2.56,3.25-3.93h25.94a10,10,0,0,1-.17,3.93Z" fill="#626765"/><path d="M291.16,417.46c1-1.19,2.22-2.56,3.41-3.92h23.55a17.25,17.25,0,0,1,.68,3.92Z" fill="#626765"/><path d="M292.7,415.58c1.36-1.36,2.56-2.73,3.92-4.1h20.31a13.89,13.89,0,0,1,1.71,4.1Z" fill="#626765"/><path d="M294.57,413.54c1.36-1.37,2.73-2.56,4.1-3.93h16.72a14.81,14.81,0,0,1,2.73,3.93Z" fill="#626765"/><path d="M296.62,411.49c1.54-1.36,2.9-2.73,4.44-3.92h11.44a12.48,12.48,0,0,1,4.44,3.92Z" fill="#626765"/><path d="M298.67,409.61a43.25,43.25,0,0,1,4.78-3.58,15.28,15.28,0,0,1,11.94,3.58Z" fill="#626765"/><path d="M301.06,407.56c.85-.51,1.71-1.19,2.39-1.54a14.2,14.2,0,0,1,9,1.54Z" fill="#626765"/><polygon points="303.28 406.2 303.28 406.2 300.89 407.9 298.5 409.78 296.11 412 293.72 414.39 291.5 416.95 289.45 419.34 287.58 421.9 286.04 424.12 286.04 424.12 286.04 427.7 286.89 430.94 288.43 433.85 290.65 436.4 293.21 438.45 296.45 439.82 299.87 440.67 303.45 440.67 303.45 440.67 305.15 439.65 307.03 437.94 308.91 435.55 310.96 432.65 313 429.75 314.88 426.51 316.59 423.43 318.13 420.7 318.13 420.7 318.64 417.8 318.3 415.07 317.1 412.51 315.39 410.12 313 408.25 310.1 406.88 306.86 406.2 303.28 406.2" fill="#626765"/><path d="M328.54,443.74a12.51,12.51,0,0,1-11.78,0Z" fill="#626765"/><path d="M330.93,442c-4.44,4.44-12.46,3.92-16.55,0Z" fill="#626765"/><path d="M316.76,443.74a8.45,8.45,0,0,1-3.75-3.58h19.46a15.35,15.35,0,0,0-1.37,1.71,9.92,9.92,0,0,1-2.56,1.88Z" fill="#626765"/><path d="M314.37,442a7.63,7.63,0,0,1-2.22-3.75h21.67c-.85,1.19-1.71,2.39-2.73,3.58l-.17.17Z" fill="#626765"/><path d="M313,440.16a6.49,6.49,0,0,1-1-3.75h23.21a30.05,30.05,0,0,1-2.73,3.75Z" fill="#626765"/><path d="M312.15,438.28a12.5,12.5,0,0,1,0-3.58h24.23a17.2,17.2,0,0,1-2.56,3.58Z" fill="#626765"/><path d="M312,436.4a10.77,10.77,0,0,1,.85-3.58h24.58a12.66,12.66,0,0,1-2.22,3.58Z" fill="#626765"/><path d="M312.15,434.7a20.6,20.6,0,0,1,.85-2.39,5.94,5.94,0,0,0,.85-1.37h24.58c-.68,1.37-1.37,2.56-2,3.75Z" fill="#626765"/><path d="M312.83,432.82c0-.17.17-.34.17-.51a21.74,21.74,0,0,0,2.22-3.24h23.89a19.12,19.12,0,0,1-1.71,3.75Z" fill="#626765"/><path d="M339.63,427.36a17.52,17.52,0,0,1-1.19,3.58H313.86c.85-1,1.71-2.39,2.73-3.58Z" fill="#626765"/><path d="M339.12,429.07a17.92,17.92,0,0,0,.85-3.24v-.34H318c-.85,1.19-1.88,2.39-2.73,3.58Z" fill="#626765"/><path d="M339.63,427.36a5,5,0,0,0,.34-1.54v-2.22H319.49c-1,1.36-2,2.56-2.9,3.75Z" fill="#626765"/><path d="M339.46,421.73a13.31,13.31,0,0,1,.51,3.75H318c1-1.2,2-2.56,3.25-3.75Z" fill="#626765"/><path d="M338.6,420a11.2,11.2,0,0,1,1.37,3.58H319.49c1.19-1.2,2.22-2.39,3.41-3.58Z" fill="#626765"/><path d="M336.9,418.14a13.67,13.67,0,0,1,2.56,3.58H321.2c1.19-1.2,2.56-2.56,3.75-3.58Z" fill="#626765"/><path d="M333,416.27A11,11,0,0,1,338.6,420H322.9a30.66,30.66,0,0,1,4.78-3.75Z" fill="#626765"/><path d="M336.9,418.14c-2-1.54-4.78-2.22-8.19-2.22a30.74,30.74,0,0,0-3.75,2.22Z" fill="#626765"/><path d="M333,416.27a31,31,0,0,0-4.27-.34,2.45,2.45,0,0,0-1,.34Z" fill="#626765"/><polygon points="313 432.31 313 432.31 311.98 436.4 312.49 439.82 314.54 442.55 317.44 444.26 320.86 445.28 324.44 445.28 328.02 444.08 330.93 441.87 330.93 441.87 332.46 439.99 334 438.11 335.37 436.23 336.56 434.36 337.58 432.31 338.6 430.26 339.29 428.21 339.8 425.82 339.8 425.82 339.63 423.61 338.95 421.56 338.09 419.85 336.73 418.49 335.19 417.46 333.31 416.78 331.1 416.27 328.71 416.1 328.71 416.1 326.66 417.12 324.44 418.65 322.39 420.53 320.34 422.58 318.47 424.97 316.59 427.36 314.71 429.92 313 432.31" fill="#626765"/><path d="M254.13,318.64c4.44-1,5.63-3.24,7.85-5.46l7.68-10.58c0-6.49-5.46-10.75-12.12-10.75l-13.31,20.31C247.47,317.62,247.47,317.62,254.13,318.64Z" fill="#7a8281"/><path d="M236.38,397.83a27.94,27.94,0,0,0,13.31,7.51c2.22-4.27,3.24-7.51,3.24-11.78-2.22-5.46-5.46-4.27-8.87-4.27C240.81,392.54,238.59,393.57,236.38,397.83Z" fill="#7a8281"/><path d="M275.29,396c-4.61,1-6.83,5.29-9,9.56,4.44,4.27,9,8.53,14.51,10.75q5.12-4.86,6.66-9.73C286.38,399,284.16,397,275.29,396Z" fill="#7a8281"/><path d="M303.79,409.61c-4.1,3.75-4.95,6-7.85,10.58a25.38,25.38,0,0,1,13.31,10.41c1.88-3.41,6-7,6.49-12.46C313,413,311.64,411,303.79,409.61Z" fill="#7a8281"/><path d="M329.73,419.51c-2.22,1-3.41,1-6.66,5.29,4.44,1,7.68,5.46,8.88,8.53,2.22-2,3.24-4.27,5.46-7.51C336.39,420.53,335.19,420.53,329.73,419.51Z" fill="#7a8281"/><path d="M608.94,408.07v4.78A7.59,7.59,0,0,0,608.94,408.07Z" fill="#373a3a"/><polygon points="608.94 389.98 608.94 395.44 613.55 396.13 614.4 390.84 608.94 389.98" fill="#373a3a"/><polygon points="608.94 373.77 608.94 382.64 616.28 380.43 617.13 375.13 608.94 373.77" fill="#373a3a"/><path d="M608.94,347.66v6.14a4.3,4.3,0,0,1,4.61-.68c3.92,2,2.39,11.61-3.24,10.07l-.34,5.46a10.61,10.61,0,0,0,11.61-9.9c.51-8-4.78-11.26-10.92-11.26A5.23,5.23,0,0,0,608.94,347.66Z" fill="#373a3a"/><path d="M608.94,293.22v4.44c4.78.34,8.7-2.73,8.19-7.17-.51-4.27-4.44-6-8.19-5.63v4.78c1.71-.51,2.9,0,3.07,1.54C612.35,293.22,610.82,293.56,608.94,293.22Z" fill="#373a3a"/><path d="M608.94,289.63v-4.78c-2.73.17-5.29,1.37-6.31,3.07a15.09,15.09,0,0,0-4.95-3.58v5.29a8.57,8.57,0,0,0,1.36,1.19l-1.36,1V298l4.95-3.58a11.27,11.27,0,0,0,6.31,3.24v-4.44a6.34,6.34,0,0,1-3.41-1.54A12.75,12.75,0,0,1,608.94,289.63Z" fill="#373a3a"/><path d="M608.94,353.8v-6.14c-6.14.51-6,6.66-7.85,10.24-1,2.9-2.22,4.1-3.41,4.44v5.29A8,8,0,0,0,606,360.8C606.72,358.24,607.41,355.34,608.94,353.8Z" fill="#373a3a"/><polygon points="608.94 382.64 608.94 373.77 597.68 371.89 597.68 377.52 606.04 378.89 597.68 381.45 597.68 385.89 608.94 382.64" fill="#373a3a"/><polygon points="608.94 395.44 608.94 389.98 597.68 388.11 597.68 393.57 608.94 395.44" fill="#373a3a"/><path d="M608.94,412.85v-4.78c-1-4.78-5.63-8-11.26-9.9v6c3.75,1.88,6.14,4.95,5.12,8.7a6.39,6.39,0,0,1-5.12,4.78v5.46c6.14-.85,9.73-4.61,11.09-9C608.77,413.71,608.94,413.19,608.94,412.85Z" fill="#373a3a"/><polygon points="597.68 430.26 597.68 435.89 598.7 436.23 600.75 431.29 597.68 430.26" fill="#373a3a"/><path d="M597.68,347.49v5.12h1l.34-5.12Z" fill="#373a3a"/><path d="M597.68,298.85v4.44a27.59,27.59,0,0,0,5.12.34l-.17-4.44C600.58,299.19,599,299.36,597.68,298.85Z" fill="#373a3a"/><path d="M597.68,245.6v5.12c6,1,11.78-3.75,10.24-9.22l-4.1-13.82-6.14,1.88V235l2.56-.85,2,6.49C603.48,243.72,600.41,245.6,597.68,245.6Z" fill="#373a3a"/><path d="M597.68,209.08v6.31A9,9,0,0,0,597.68,209.08Z" fill="#373a3a"/><path d="M597.68,215.39v-6.31c0-.34-.17-.68-.17-1-3.07-7.34-9.9-7.85-15.53-6.83v5.29c4.1-.85,8,0,9.56,3.07,2.73,5.12-3.24,10.75-9.56,12.29v5.29a22.34,22.34,0,0,0,4.78-1.54C593.07,222.9,596.48,219.15,597.68,215.39Z" fill="#373a3a"/><path d="M597.68,235v-5.46L582,234.16v5.46l5.46-1.54,1.54,5.29c1.2,3.24,0,4.1-2.22,4.78-1.88.51-3.41,1-4.78,1.54v6a11.32,11.32,0,0,1,1.88-.68l6.31-2.39a4.74,4.74,0,0,0,3.24-3.93,9.82,9.82,0,0,0,4.27,2V245.6a2.76,2.76,0,0,1-2.9-2.22l-2-6.83Z" fill="#373a3a"/><path d="M597.68,289.63v-5.29c-2.9-1.37-5.8-.85-9,.34-6.48,3.41-4.44,12.12.34,14.51l-2.73,2,.51,6,6.31-5.46a11.34,11.34,0,0,0,4.61,1.54v-4.44l-.51-.51.51-.34v-6.14l-5.46,4.27c-3.24-2.9-3.24-4.61-.85-7C594.6,287.24,596.14,288.27,597.68,289.63Z" fill="#373a3a"/><path d="M597.68,352.61v-5.12c-4.61,0-8.7,1.88-9.39,8.88-.34,6,1.88,8.7,5.12,10.07a13.34,13.34,0,0,0,4.27,1.19v-5.29c-1.71.68-3.58-1-4.1-2.39C593.07,357.39,593.75,352.95,597.68,352.61Z" fill="#373a3a"/><polygon points="597.68 377.52 597.68 371.89 586.24 369.85 585.39 375.13 597.68 377.52" fill="#373a3a"/><polygon points="597.68 385.89 597.68 381.45 583.51 385.55 582.66 390.84 597.68 393.57 597.68 388.11 593.07 387.25 597.68 385.89" fill="#373a3a"/><path d="M597.68,404.15v-6a11.78,11.78,0,0,0-1.37-.51c-6.14-1.36-10.92-.68-14.34,1v20a27.4,27.4,0,0,0,6.66,3.41,25.37,25.37,0,0,0,9,1v-5.46c-6.49,1.54-16.56-4.1-15-10.24C583.34,401.76,591.87,401.25,597.68,404.15Z" fill="#373a3a"/><polygon points="597.68 435.89 597.68 430.26 581.98 423.95 581.98 429.75 597.68 435.89" fill="#373a3a"/><polygon points="581.98 459.96 581.98 465.76 584.71 466.27 587.95 461.49 581.98 459.96" fill="#373a3a"/><polygon points="581.98 443.57 581.98 449.55 590.68 453.81 593.07 449.04 581.98 443.57" fill="#373a3a"/><path d="M582,177v13.82a8.72,8.72,0,0,0,2.22-10.41Z" fill="#373a3a"/><path d="M582,190.82V177l-3.75-7-7.51,4.1v6.14l5.12-2.73,3.24,6c2,3.75-4.78,6.14-6.14,3.24L570.71,183v14.68a9.56,9.56,0,0,0,2.73-4.78A8.75,8.75,0,0,0,582,190.82Z" fill="#373a3a"/><path d="M582,206.52v-5.29c-1.54.34-2.9.85-4.1,1.19a25.55,25.55,0,0,0-7.17,4.1v18.77c3.07,2.39,7.17,2.73,11.26,1.88v-5.29c-4.1,1.19-8.19.51-9.73-3.41C569.86,212.66,576,207.71,582,206.52Z" fill="#373a3a"/><polygon points="581.98 239.63 581.98 234.16 574.13 236.55 575.49 241.5 581.98 239.63" fill="#373a3a"/><path d="M582,255.67v-6a21.17,21.17,0,0,0-3.41,1.71l1.71,5.29,1.54-.34C581.46,256.35,581.63,256,582,255.67Z" fill="#373a3a"/><path d="M582,418.65v-20a11.82,11.82,0,0,0-5.29,6.66C575,411.83,578.22,415.92,582,418.65Z" fill="#373a3a"/><polygon points="581.98 429.75 581.98 423.95 571.74 419.68 570.71 421.9 570.71 425.14 581.98 429.75" fill="#373a3a"/><polygon points="581.98 449.55 581.98 443.57 570.71 437.94 570.71 443.91 581.98 449.55" fill="#373a3a"/><polygon points="581.98 465.76 581.98 459.96 570.71 456.54 570.71 462.35 572.93 463.03 570.71 466.27 570.71 477.88 574.64 481.97 577.88 476.85 573.1 472.42 578.22 464.74 581.98 465.76" fill="#373a3a"/><polygon points="570.71 485.21 570.71 487.61 572.08 485.73 570.71 485.21" fill="#373a3a"/><polygon points="570.71 429.75 570.71 436.23 573.44 430.94 570.71 429.75" fill="#373a3a"/><polygon points="570.71 157.19 570.71 159.58 571.74 158.56 570.71 157.19" fill="#373a3a"/><polygon points="570.71 159.58 570.71 157.19 568.49 152.93 563.54 154.12 563.54 166.75 570.71 159.58" fill="#373a3a"/><path d="M570.71,180.23v-6.14l-7.17,4.1v6l1.37-.68,3.24,6.14c1.71,3.07-1.71,5.8-4.61,5.63v5.29a8.84,8.84,0,0,0,7.17-2.9V183l-1-2.22Z" fill="#373a3a"/><path d="M570.71,225.29V206.52c-4.78,4.27-5.29,9.39-3.41,13.65A11.72,11.72,0,0,0,570.71,225.29Z" fill="#373a3a"/><polygon points="570.71 425.14 570.71 421.9 569.69 424.63 570.71 425.14" fill="#373a3a"/><polygon points="570.71 436.23 570.71 429.75 568.49 428.55 563.54 437.94 563.54 448.86 564.23 449.04 567.81 442.21 570.71 443.91 570.71 437.94 570.2 437.43 570.71 436.23" fill="#373a3a"/><polygon points="570.71 462.35 570.71 456.54 563.54 454.5 563.54 459.79 570.71 462.35" fill="#373a3a"/><polygon points="570.71 477.88 570.71 466.27 569.69 467.98 563.54 461.32 563.54 469.69 570.71 477.88" fill="#373a3a"/><polygon points="570.71 487.61 570.71 485.21 566.96 482.83 563.54 487.95 563.54 498.87 570.71 487.61" fill="#373a3a"/><polygon points="563.54 166.75 563.54 154.12 557.4 155.49 557.4 161.29 563.03 159.93 557.4 165.22 557.4 172.9 563.54 166.75" fill="#373a3a"/><path d="M563.54,184.16v-6l-6.14,3.41v15.19c1.88,2.39,3.92,3.58,6.14,3.75v-5.29a3.11,3.11,0,0,1-2.22-1.71l-3.24-6.31Z" fill="#373a3a"/><polygon points="563.54 448.86 563.54 437.94 559.28 446.64 563.54 448.86" fill="#373a3a"/><polygon points="563.54 459.79 563.54 454.5 557.4 452.62 557.4 462.86 563.54 469.69 563.54 461.32 561.84 459.1 563.54 459.79" fill="#373a3a"/><polygon points="563.54 498.87 563.54 487.95 559.79 494.09 557.4 489.14 557.4 500.23 561.32 502.45 563.54 498.87" fill="#373a3a"/><polygon points="557.4 161.29 557.4 155.49 544.09 158.73 544.09 164.36 545.96 163.85 550.4 171.87 545.96 176.65 548.87 181.6 557.4 172.9 557.4 165.22 554.5 167.95 551.6 162.66 557.4 161.29" fill="#373a3a"/><path d="M557.4,196.79V181.6l-6.48,3.58,6,10.41A8.23,8.23,0,0,0,557.4,196.79Z" fill="#373a3a"/><polygon points="557.4 462.86 557.4 452.62 556.55 452.28 552.96 457.57 557.4 462.86" fill="#373a3a"/><polygon points="557.4 500.23 557.4 489.14 550.06 471.9 545.62 468.83 544.09 471.05 544.09 481.8 546.82 477.88 556.21 499.38 557.4 500.23" fill="#373a3a"/><polygon points="544.09 512.01 544.09 520.54 545.28 520.88 549.21 516.96 544.09 512.01" fill="#373a3a"/><polygon points="544.09 497.33 544.09 503.99 553.64 510.99 556.89 506.89 544.09 497.33" fill="#373a3a"/><polygon points="544.09 127.67 544.09 134.5 551.26 129.37 548.01 124.94 544.09 127.67" fill="#373a3a"/><polygon points="544.09 134.5 544.09 127.67 522.75 143.03 533.16 157.54 537.6 154.29 530.43 144.22 544.09 134.5" fill="#373a3a"/><polygon points="544.09 164.36 544.09 158.73 536.92 160.27 539.65 165.39 544.09 164.36" fill="#373a3a"/><polygon points="544.09 481.8 544.09 471.05 534.87 485.56 539.65 488.8 544.09 481.8" fill="#373a3a"/><polygon points="544.09 503.99 544.09 497.33 531.97 487.95 528.73 492.04 544.09 503.99" fill="#373a3a"/><polygon points="544.09 520.54 544.09 512.01 527.19 494.77 523.27 498.53 538.11 513.72 521.22 507.91 521.22 519.35 533.68 531.81 537.6 527.88 522.41 512.52 544.09 520.54" fill="#373a3a"/><polygon points="521.22 530.1 521.22 536.76 526.34 539.15 530.43 535.05 521.22 530.1" fill="#373a3a"/><polygon points="521.22 98.31 521.22 103.95 524.29 100.87 521.22 98.31" fill="#373a3a"/><polygon points="521.22 103.95 521.22 98.31 513.71 91.32 513.71 99.51 520.02 105.31 521.22 103.95" fill="#373a3a"/><polygon points="521.22 519.35 521.22 507.91 515.59 505.7 513.71 507.57 513.71 511.84 521.22 519.35" fill="#373a3a"/><polygon points="521.22 536.76 521.22 530.1 513.71 526 513.71 532.32 515.59 533.34 513.71 535.05 513.71 551.09 517.12 548.19 513.88 542.56 520.37 536.25 521.22 536.76" fill="#373a3a"/><polygon points="513.71 108.21 513.71 110.6 515.07 109.24 513.71 108.21" fill="#373a3a"/><polygon points="513.71 99.51 513.71 91.32 510.81 88.42 506.54 93.02 506.54 109.24 511.15 113.33 513.71 110.6 513.71 108.21 506.71 101.22 510.81 96.44 513.71 99.51" fill="#373a3a"/><polygon points="513.71 511.84 513.71 507.57 511.83 509.62 513.71 511.84" fill="#373a3a"/><polygon points="513.71 532.32 513.71 526 506.54 522.08 506.54 528.05 513.71 532.32" fill="#373a3a"/><polygon points="513.71 551.09 513.71 535.05 511.15 537.44 506.54 529.76 506.54 541.02 512.86 551.95 513.71 551.09" fill="#373a3a"/><polygon points="506.54 554.51 506.54 556.9 507.91 555.87 506.54 554.51" fill="#373a3a"/><polygon points="506.54 109.24 506.54 93.02 502.44 97.46 502.44 105.65 502.79 105.31 506.54 109.24" fill="#373a3a"/><polygon points="506.54 528.05 506.54 522.08 502.44 519.86 502.44 533.68 506.54 541.02 506.54 529.76 505.18 527.03 506.54 528.05" fill="#373a3a"/><polygon points="506.54 556.9 506.54 554.51 502.44 549.39 502.44 555.53 505.18 557.92 506.54 556.9" fill="#373a3a"/><polygon points="502.44 105.65 502.44 97.46 494.59 105.99 494.59 114.02 502.44 105.65" fill="#373a3a"/><polygon points="502.44 533.68 502.44 519.86 501.93 519.35 497.15 523.79 502.44 533.68" fill="#373a3a"/><path d="M502.44,555.53v-6.14l-5.29-6.83-2.56,1.88v6.66l2.39-1.71c1.36,1.36,2.56,7-.68,9.39a5.71,5.71,0,0,1-1.71,1v5.29a11.54,11.54,0,0,0,5.29-2.39c2-1.54,2.9-5.63,2.39-7.51Z" fill="#373a3a"/><path d="M494.59,74.93V95.75c6.66-9.39,5.12-16.73.51-20.65C494.94,75.1,494.77,74.93,494.59,74.93Z" fill="#373a3a"/><path d="M494.59,95.75V74.93a9.24,9.24,0,0,0-3.07-1.71v7.17c2.39,2.39,2,6.48,0,10.07v8.7a28.31,28.31,0,0,0,3.07-3.24Z" fill="#373a3a"/><polygon points="494.59 114.02 494.59 105.99 491.52 109.41 491.52 112.99 493.91 114.87 494.59 114.02" fill="#373a3a"/><polygon points="494.59 551.09 494.59 544.44 491.52 546.83 491.52 551.77 492.55 552.8 494.59 551.09" fill="#373a3a"/><path d="M494.59,565.09V559.8a8.47,8.47,0,0,1-3.07.34v5.12A8.78,8.78,0,0,0,494.59,565.09Z" fill="#373a3a"/><path d="M491.52,536.76v4.95l3.24-2.56A10.63,10.63,0,0,0,491.52,536.76Z" fill="#373a3a"/><path d="M491.52,80.39V73.23a10.33,10.33,0,0,0-7.17-.17v6.31c2.39-1,4.61-1,6.31.17C491,79.88,491.35,80.05,491.52,80.39Z" fill="#373a3a"/><path d="M491.52,99.17v-8.7a15,15,0,0,1-7.17,7v5.8A15.38,15.38,0,0,0,491.52,99.17Z" fill="#373a3a"/><polygon points="491.52 112.99 491.52 109.41 489.81 111.28 491.52 112.99" fill="#373a3a"/><path d="M491.52,541.71v-4.95a11.36,11.36,0,0,0-7.17-1.37v5.46a8.51,8.51,0,0,1,6.66,1.37Z" fill="#373a3a"/><polygon points="491.52 551.77 491.52 546.83 489.13 548.7 491.52 551.77" fill="#373a3a"/><path d="M491.52,565.26v-5.12c-2.39-.34-4.95-2-7.17-4.27V563A15.15,15.15,0,0,0,491.52,565.26Z" fill="#373a3a"/><path d="M484.35,79.37V73.06a26,26,0,0,0-5.12,2.9v7.17A14.66,14.66,0,0,1,484.35,79.37Z" fill="#373a3a"/><path d="M484.35,103.26v-5.8a6.68,6.68,0,0,1-5.12-.17v5.8A10.52,10.52,0,0,0,484.35,103.26Z" fill="#373a3a"/><path d="M484.35,540.85v-5.46a13.38,13.38,0,0,0-5.12,2.22v20.65a2.38,2.38,0,0,0,.68.51,17.31,17.31,0,0,0,4.44,4.27v-7.17c-3.75-4.27-5.8-10.41-2.22-13.65A7.81,7.81,0,0,1,484.35,540.85Z" fill="#373a3a"/><path d="M479.23,568.84v6.48l4.27-2.9-1.2-1.19c-.17.34-1.19-.17-2-1.37Z" fill="#373a3a"/><path d="M479.23,83.12V76A25,25,0,0,0,475,80.22c-7.51,9.39-5.12,16.55,0,20.48a10.78,10.78,0,0,0,4.27,2.39v-5.8a4.57,4.57,0,0,1-1-.85C473.77,93.19,475.65,87.22,479.23,83.12Z" fill="#373a3a"/><path d="M479.23,558.26V537.61l-.17.17C472.24,543.24,474.63,552.12,479.23,558.26Z" fill="#373a3a"/><path d="M479.23,575.33v-6.48l-3.07-4.61a3.39,3.39,0,0,0-4.1-1.88c2.56-7.68-4.44-14.85-10.24-12.8v6.14c4.1-2.56,7.85,4.1,4.27,6.31l-4.27,2.73V578.4l3.92,5.63,4.44-2.9-6.83-10.41,4.78-3.07c2.73-1.71,3.93-1.2,4.78,1.19,2,3.07,3.24,5.12,6,6.83Z" fill="#373a3a"/><path d="M461.83,555.7v-6.14c-.34.17-.85.51-1.2.68l-8.7,5.46v7.68l9.9,15V564.75l-1.71,1.19-4.1-6.49,5.63-3.58Z" fill="#373a3a"/><path d="M451.93,572.6v19.11c5.12-4.44,4.1-11.43.85-18.09C452.44,573.28,452.27,572.94,451.93,572.6Z" fill="#373a3a"/><polygon points="451.93 49.84 451.93 58.03 455.34 51.38 451.93 49.84" fill="#373a3a"/><polygon points="451.93 58.03 451.93 49.84 450.56 48.99 449.2 51.55 449.2 63.67 451.93 58.03" fill="#373a3a"/><polygon points="451.93 563.38 451.93 555.7 449.2 557.41 449.2 559.28 451.93 563.38" fill="#373a3a"/><path d="M451.93,591.71V572.6a21.16,21.16,0,0,0-2.73-3.75v10.58a8,8,0,0,1,0,6l.17,8.19A9.9,9.9,0,0,0,451.93,591.71Z" fill="#373a3a"/><polygon points="449.2 63.67 449.2 51.55 441.69 66.57 441.69 78.86 449.2 63.67" fill="#373a3a"/><polygon points="449.2 559.28 449.2 557.41 448.51 557.92 449.2 559.28" fill="#373a3a"/><path d="M449.2,579.42V568.84a15.18,15.18,0,0,0-7.51-4.95v6C445.1,571.4,448.17,575.33,449.2,579.42Z" fill="#373a3a"/><path d="M449.2,593.59V585.4a5.37,5.37,0,0,1-2.73,3.07,6.91,6.91,0,0,1-4.78.68v5.63a11.92,11.92,0,0,0,7.68-1.19Z" fill="#373a3a"/><polygon points="441.69 78.86 441.69 66.57 441.18 67.94 441.18 44.21 436.4 41.82 423.6 67.77 423.6 70.33 427.52 72.2 436.74 52.92 436.91 76.81 441.69 79.2 441.69 78.86" fill="#373a3a"/><path d="M441.69,569.87v-6a9.86,9.86,0,0,0-7.34.51c-8.87,4.78-6.66,14.51-4.27,20.14,3.24,6.66,7.68,9.56,11.61,10.24v-5.63c-7-1.88-11.61-15.53-5.29-19.11A5.33,5.33,0,0,1,441.69,569.87Z" fill="#373a3a"/><path d="M423.6,41.48V51.89C424.62,47.8,424.62,44.21,423.6,41.48Z" fill="#373a3a"/><path d="M423.6,51.89V41.48a11.92,11.92,0,0,0-6.83-7.68,14.1,14.1,0,0,0-5.8-.51v6.31a6.27,6.27,0,0,1,3.07-.17c8.19,1.88,4.61,18.6-3.07,20.65v5.63c5.8-.51,9.73-5.46,12.12-11.44C423.26,53.6,423.43,52.75,423.6,51.89Z" fill="#373a3a"/><polygon points="423.6 70.33 423.6 67.77 422.74 69.81 423.6 70.33" fill="#373a3a"/><polygon points="410.97 606.39 410.97 607.41 411.48 607.24 410.97 606.39" fill="#373a3a"/><path d="M411,39.61V33.29c-6,1-9.73,7.34-11.44,11.61-4.1,11.43.34,17.75,6.31,19.79a11.9,11.9,0,0,0,5.12,1V60.08a6,6,0,0,1-3.41-.34C399,56.67,404.31,41.65,411,39.61Z" fill="#373a3a"/><polygon points="410.97 607.41 410.97 606.39 409.6 601.78 397.83 605.02 390.66 580.45 387.42 581.47 387.42 589.49 394.24 611.85 410.97 607.41" fill="#373a3a"/><polygon points="387.42 610.65 387.42 614.07 389.12 613.73 387.42 610.65" fill="#373a3a"/><polygon points="387.42 36.36 387.42 58.55 388.61 58.72 394.75 28.17 389.46 26.98 387.42 36.36" fill="#373a3a"/><polygon points="387.42 58.55 387.42 36.36 384 53.43 384 57.86 387.42 58.55" fill="#373a3a"/><polygon points="387.42 589.49 387.42 581.47 385.37 581.98 387.42 589.49" fill="#373a3a"/><polygon points="387.42 614.07 387.42 610.65 384 603.83 384 614.58 387.42 614.07" fill="#373a3a"/><polygon points="384 26.12 384 28.68 384.68 26.12 384 26.12" fill="#373a3a"/><polygon points="384 28.68 384 26.12 375.13 24.25 375.13 36.19 376.49 30.22 383.49 31.75 384 28.68" fill="#373a3a"/><polygon points="384 57.86 384 53.43 383.32 57.52 384 57.86" fill="#373a3a"/><polygon points="384 614.58 384 603.83 375.13 586.08 375.13 597.51 378.2 603.66 375.13 604.34 375.13 609.8 380.59 608.61 383.49 614.58 384 614.58" fill="#373a3a"/><polygon points="375.13 36.19 375.13 24.25 364.89 22.02 363.69 27.66 371.03 29.02 366.08 54.11 371.37 55.13 375.13 36.19" fill="#373a3a"/><polygon points="375.13 597.51 375.13 586.08 374.62 584.54 368.47 585.74 365.4 617.82 371.03 616.97 371.37 610.49 375.13 609.8 375.13 604.34 372.23 604.85 373.25 592.91 375.13 597.51" fill="#373a3a"/><polygon points="348.16 39.6 348.16 45.07 351.75 45.41 353.29 51.72 358.92 52.23 353.29 20.49 348.16 20.15 348.16 30.56 349.19 28.17 351.23 39.77 348.16 39.6" fill="#373a3a"/><polygon points="353.96 619.36 351.57 588.13 356.87 587.96 359.26 619.02 353.96 619.36" fill="#373a3a"/><polygon points="348.16 30.56 348.16 20.15 346.8 19.98 334.85 49.5 334.85 50.02 340.48 50.52 342.87 44.21 348.16 45.07 348.16 39.6 344.92 39.26 348.16 30.56" fill="#373a3a"/><path d="M334.85,602.46v5.8l1.2-.17c3.24,0,3.92.51,3.58,3.24a29,29,0,0,0,1.71,8.53l6-.17-.17-1.54c-.34,0-1.19-1.2-1.19-2.39l-1-7.17A4.12,4.12,0,0,0,342,605c6.83-5.63,3.24-16.55-3.92-15.87l-3.24.34v5.12l1.2-.17c5.12-.85,5.29,7.34.85,7.68Z" fill="#373a3a"/><polygon points="334.85 50.02 334.85 49.5 334.85 49.84 334.85 50.02" fill="#373a3a"/><polygon points="334.85 594.61 334.85 589.49 323.59 590 325.98 621.07 331.61 620.9 330.75 608.61 334.85 608.27 334.85 602.46 330.07 602.8 329.56 594.95 334.85 594.61" fill="#373a3a"/><polygon points="319.15 589.66 319.15 595.29 321.2 595.29 321.54 589.66 319.15 589.66" fill="#373a3a"/><path d="M319.15,31.41v6h.34c3.24,0,3.75.68,3.58,3.24,0,3.58,0,6,1.36,8.7h5.63l-.17-1.54c-.34,0-1.19-1.2-1.19-2.39l-.34-7.17a4.29,4.29,0,0,0-2.73-4.1c6.83-5.12,4.27-16-2.9-15.7h-3.58v5.29h1.2c5.12-.86,4.78,7.51.34,7.68Z" fill="#373a3a"/><polygon points="319.15 23.73 319.15 18.44 308.23 18.44 308.74 49.5 314.37 49.5 314.2 37.39 319.15 37.39 319.15 31.41 313.86 31.41 313.86 23.73 319.15 23.73" fill="#373a3a"/><polygon points="319.15 595.29 319.15 589.66 301.06 588.81 300.72 594.44 308.4 594.78 307.37 620.21 312.66 620.55 313.86 594.95 319.15 595.29" fill="#373a3a"/><path d="M262.49,608.78v7c3.24-1,6-3.75,6.83-8.53l3.93-21.16-5.63-.85-3.93,21A8.93,8.93,0,0,1,262.49,608.78Z" fill="#373a3a"/><path d="M262.49,50v5.63l4.44-1c12.46-2.56,8.7-31.23-4.44-30.72v5.8c6.49,1.54,8.88,18.26,2.73,19.63Z" fill="#373a3a"/><polygon points="283.82 52.23 280.24 21.34 299.01 19.3 299.52 24.93 286.55 26.46 287.4 32.61 299.35 31.24 299.87 36.87 287.92 38.24 288.6 46.09 302.25 44.55 303.11 50.19 283.82 52.23" fill="#373a3a"/><path d="M274.09,608.61l5.29.34c-1.19,5.29,8.36,6.83,10.41,2.9,2-4.61-3.24-6.15-8-7-6.82-1.54-8-8.36-6-12.8,1.88-3.24,4.27-5.29,10.07-5.12,7.85.68,9.22,5.46,8.87,10.41l-4.95-.17c.34-4.78-4.44-5.46-7.51-4.78-2.05.51-4.61,4.95,2.39,7,3.93,2.22,10.75,1.54,10.41,9.22,0,6.31-2.9,11.26-10.92,11.09C279.72,619.36,273.75,616.46,274.09,608.61Z" fill="#373a3a"/><path d="M262.49,29.7V23.9c-.51,0-1,.17-1.53.17L250.2,26.46V29.7l6,27.31,6.31-1.36V50l-2.39.51-4.1-20,4.78-.86Z" fill="#373a3a"/><path d="M262.49,615.78v-7a4.86,4.86,0,0,1-8.36-4.27l3.92-21-5.29-1L250.2,596v15A11.58,11.58,0,0,0,262.49,615.78Z" fill="#373a3a"/><polygon points="250.2 58.03 250.2 58.72 250.54 58.55 250.2 58.03" fill="#373a3a"/><polygon points="250.2 29.7 250.2 26.46 249.69 26.46 250.2 29.7" fill="#373a3a"/><polygon points="250.2 58.72 250.2 58.03 248.84 53.09 235.69 57.01 234.16 52.41 234.16 63.5 250.2 58.72" fill="#373a3a"/><path d="M250.2,611V596l-1,6.49A10.87,10.87,0,0,0,250.2,611Z" fill="#373a3a"/><path d="M234.16,602.12v6c11.09-1.71,18.6-25.94,6.14-30l-6.14-1.71v5.46l3.41,1C244.23,585.06,240,600.07,234.16,602.12Z" fill="#373a3a"/><polygon points="234.16 43.53 234.16 49.33 244.91 46.09 243.54 40.63 234.16 43.53" fill="#373a3a"/><polygon points="234.16 30.9 234.16 36.7 242.35 34.14 240.81 28.85 234.16 30.9" fill="#373a3a"/><polygon points="234.16 36.7 234.16 30.9 222.89 34.48 222.89 35.68 231.94 64.18 234.16 63.5 234.16 52.41 233.47 49.5 234.16 49.33 234.16 43.53 231.94 44.21 229.89 38.07 234.16 36.7" fill="#373a3a"/><path d="M234.16,581.81v-5.46l-4.95-1.54-6.31,20.65v9.9l7.85,2.39a6,6,0,0,0,3.41.34v-6a2.53,2.53,0,0,1-2.22,0l-4.78-1.54,6-19.29Z" fill="#373a3a"/><polygon points="222.89 572.43 222.89 578.23 225.11 573.11 222.89 572.43" fill="#373a3a"/><polygon points="222.89 35.68 222.89 34.48 222.72 34.48 222.89 35.68" fill="#373a3a"/><polygon points="222.89 578.23 222.89 572.43 219.99 571.06 211.97 590.52 210.6 567.13 205.49 565.09 197.98 583.35 197.98 595.64 199 595.98 207.02 576.01 208.39 599.73 213.51 601.78 222.89 578.23" fill="#373a3a"/><polygon points="222.89 605.36 222.89 595.47 220.33 604.51 222.89 605.36" fill="#373a3a"/><polygon points="197.98 560.99 197.98 569.35 201.56 562.7 197.98 560.99" fill="#373a3a"/><polygon points="197.98 44.72 197.98 46.6 209.92 73.57 215.04 71.52 209.58 59.74 219.99 55.13 217.95 49.84 207.53 54.28 204.97 48.31 216.41 43.36 214.19 37.73 197.98 44.72" fill="#373a3a"/><polygon points="197.98 46.6 197.98 44.72 197.46 44.9 197.98 46.6" fill="#373a3a"/><polygon points="197.98 569.35 197.98 560.99 196.95 560.31 182.28 587.96 187.05 590.35 197.98 569.35" fill="#373a3a"/><polygon points="197.98 595.64 197.98 583.35 193.88 593.76 197.98 595.64" fill="#373a3a"/><polygon points="157.36 551.77 157.36 558.43 162.99 561.85 166.06 557.07 157.36 551.77" fill="#373a3a"/><polygon points="157.36 539.15 157.36 548.87 159.75 545.46 170.84 552.29 174.08 547.17 158.55 537.44 157.36 539.15" fill="#373a3a"/><polygon points="157.36 95.75 157.36 102.75 158.89 103.61 163.33 100.02 157.36 95.75" fill="#373a3a"/><polygon points="157.36 68.11 157.36 81.25 166.4 96.78 171.01 94.05 160.43 75.44 180.23 89.1 185 86.71 169.65 59.4 164.87 61.79 175.28 80.39 157.36 68.11" fill="#373a3a"/><polygon points="157.36 81.25 157.36 68.11 155.65 66.74 150.87 69.47 157.36 81.25" fill="#373a3a"/><polygon points="157.36 102.75 157.36 95.75 144.39 86.19 144.39 93.02 149.16 96.44 144.39 100.02 144.39 114.19 148.82 111.28 146.09 105.14 153.6 99.68 157.36 102.75" fill="#373a3a"/><polygon points="157.36 548.87 157.36 539.15 144.39 559.11 144.39 565.6 146.09 566.45 153.26 555.53 157.36 558.43 157.36 551.77 156.16 550.75 157.36 548.87" fill="#373a3a"/><path d="M144.39,540v9.73a17.23,17.23,0,0,0,1.71-1.88c7.17-9.56,5.46-16.9,1-20.82a15.24,15.24,0,0,0-2.73-1.54v8C145.41,535.22,145.24,537.61,144.39,540Z" fill="#373a3a"/><polygon points="144.39 93.02 144.39 86.19 137.22 80.74 134.83 82.61 134.83 91.66 144.04 114.53 144.39 114.19 144.39 100.02 144.39 100.02 139.61 89.1 144.39 93.02" fill="#373a3a"/><path d="M144.39,533.51v-8c-3.24-1.71-6.48-1.37-9.56-.17v6.31c2.73-1.54,5.63-1.88,7.68-.34A5.71,5.71,0,0,1,144.39,533.51Z" fill="#373a3a"/><path d="M144.39,549.73V540c-1.36,4.27-5.46,8.7-9.56,9.56V555C138.41,554.68,141.66,552.63,144.39,549.73Z" fill="#373a3a"/><polygon points="144.39 565.6 144.39 559.11 141.66 563.55 144.39 565.6" fill="#373a3a"/><path d="M134.83,111.46v12.46C138.24,119.48,137,114.87,134.83,111.46Z" fill="#373a3a"/><polygon points="134.83 91.66 134.83 82.61 132.27 84.66 134.83 91.66" fill="#373a3a"/><path d="M134.83,123.91V111.46a5.36,5.36,0,0,0-.85-1.71L130,113.33a6.44,6.44,0,0,1-.51,8.36c-3.93,3.93-11.44-1.53-14.85-7.34v8.19c4.78,4.61,12.29,8.53,18.77,3.07A6.66,6.66,0,0,0,134.83,123.91Z" fill="#373a3a"/><path d="M134.83,531.64v-6.31a22.82,22.82,0,0,0-8,6.14c-7.68,9.56-5.29,16.73-.17,20.82a10,10,0,0,0,8.19,2.73v-5.46a5.51,5.51,0,0,1-4.95-1.36C124.08,543.75,129,535.05,134.83,531.64Z" fill="#373a3a"/><path d="M114.69,496v8.7A7.15,7.15,0,0,0,114.69,496Z" fill="#373a3a"/><polygon points="114.69 131.76 114.69 139.27 117.42 141.49 121.17 137.4 114.69 131.76" fill="#373a3a"/><path d="M114.69,99.51v6.31c.17,0,.17,0,.34-.17,2.9-2.39,6-1.19,8.53.68l3.58-3.41A12.14,12.14,0,0,0,114.69,99.51Z" fill="#373a3a"/><path d="M114.69,105.82V99.51a10.89,10.89,0,0,0-2.39,1.36c-7.68,6.31-3.58,14.85,1.54,20.48a3.08,3.08,0,0,0,.85,1.2v-8.19C113,111.11,112.47,107.87,114.69,105.82Z" fill="#373a3a"/><polygon points="114.69 139.27 114.69 131.76 103.77 121.69 103.77 129.37 114.69 139.27" fill="#373a3a"/><path d="M114.69,504.67V496a9.4,9.4,0,0,0-1.54-2.39c-3.58-3.41-6.48-4.1-9.39-3.58v5.46a5.7,5.7,0,0,1,2.9-.17c2.73,1.54,5.63,5.12,2.39,8.36l3.58,3.58A15,15,0,0,0,114.69,504.67Z" fill="#373a3a"/><path d="M103.77,503.31v14a4,4,0,0,0,1.19-1.19C110.08,511,106,507.06,103.77,503.31Z" fill="#373a3a"/><path d="M103.77,140.3v6.83a23,23,0,0,0,6.14,3.07l3.24-4.78-1.37-.85c0,.34-1.54.34-2.39-.68Z" fill="#373a3a"/><polygon points="103.77 129.37 103.77 121.69 98.14 116.41 94.21 120.5 103.77 129.37" fill="#373a3a"/><path d="M103.77,147.12v-7c-2-1.54-4.27-1.19-5.12-.34a10,10,0,0,0-4.78-8.36v8a2.9,2.9,0,0,1,0,1.71v9.22l3.07-4.1c2-2.56,3.24-2.56,4.95-.85C102.57,146.1,103.26,146.61,103.77,147.12Z" fill="#373a3a"/><path d="M103.77,495.46V490c-.51.17-1.19.34-1.88.51a9.27,9.27,0,0,0-4.1,13.65c2.9,3.58,6,8.36,1.19,10.75-1.71.68-3.58-.17-5.12-1.54v6.14c3.76,1.54,7.17.34,9.9-2.22v-14a2.46,2.46,0,0,1-.34-1.2C100.7,498.19,102.06,496.14,103.77,495.46Z" fill="#373a3a"/><path d="M93.87,484.87v.34l3.07,3.93c3.75-3.07,6.48-7.51,2-13.65-1.88-2-3.41-3.41-5.12-4.1v6.31C95.75,479.75,96.6,482.48,93.87,484.87Z" fill="#373a3a"/><polygon points="93.87 165.56 93.87 172.04 96.94 167.09 93.87 165.56" fill="#373a3a"/><polygon points="93.87 151.05 93.87 157.71 100.53 162.31 103.77 158.22 93.87 151.05" fill="#373a3a"/><path d="M93.87,139.44v-8a7.58,7.58,0,0,0-7.51-1.19v7.85l.68-.68C88.75,134,93.19,136.54,93.87,139.44Z" fill="#373a3a"/><path d="M93.87,150.37v-9.22c0,.34-.17.51-.17.68l-4.61,5.63-2.73-1.88v6.49l7.51,5.63V151l-.17-.34Z" fill="#373a3a"/><polygon points="93.87 172.04 93.87 165.56 91.82 164.36 86.36 173.24 86.36 183.82 86.87 183.99 93.87 172.04" fill="#373a3a"/><path d="M93.87,477.71v-6.31a7.12,7.12,0,0,0-5.29-.17c-.85.34-1.54.51-2.22.85v26.28a10.22,10.22,0,0,0,2.22-1.54c6-4.78,1.2-9.9,0-14-2.9-6.83,2-8,3.93-6.48A10.24,10.24,0,0,1,93.87,477.71Z" fill="#373a3a"/><polygon points="93.87 485.21 93.87 484.87 93.87 484.87 93.87 485.21" fill="#373a3a"/><path d="M93.87,519.52v-6.14c-2.22-2.22-3.41-6-.17-8l-3.92-3.75a12.33,12.33,0,0,0-3.41,5.8v3.07a12.26,12.26,0,0,0,3.41,6A10.73,10.73,0,0,0,93.87,519.52Z" fill="#373a3a"/><polygon points="86.36 457.57 86.36 467.3 90.97 464.22 86.36 457.57" fill="#373a3a"/><path d="M86.36,138.08v-7.85a4.72,4.72,0,0,0-2.22,1.88l-8.87,11.61,11.09,8.36v-6.49l-3.41-2.9Z" fill="#373a3a"/><polygon points="86.36 183.82 86.36 173.24 84.65 176.31 78.17 172.21 84.48 161.8 79.36 158.73 73.22 169.14 71.68 168.46 71.68 175.12 86.36 183.82" fill="#373a3a"/><polygon points="86.36 467.3 86.36 457.57 80.56 448.35 71.68 453.98 71.68 467.64 75.61 473.27 80.22 470.03 73.73 459.62 79.02 456.37 86.19 467.47 86.36 467.3" fill="#373a3a"/><path d="M86.36,498.36V472.07A8.81,8.81,0,0,0,82.6,484c2.39,3.93,5.12,8.88-.34,10.75-3.75,1.19-9-7.17-4.09-10.07l-3.24-4.27a10.93,10.93,0,0,0-3.24,3.75v8.87a12.47,12.47,0,0,0,1.54,2.22C77.31,500.75,82.09,500.75,86.36,498.36Z" fill="#373a3a"/><path d="M86.36,510.47V507.4A9.3,9.3,0,0,0,86.36,510.47Z" fill="#373a3a"/><path d="M71.68,429.92v18.26c3.93-1.88,6.31-6,4.44-9.9Z" fill="#373a3a"/><polygon points="71.68 206.35 71.68 212.32 72.53 212.49 74.92 207.71 71.68 206.35" fill="#373a3a"/><polygon points="71.68 193.89 71.68 202.76 76.63 203.96 79.02 198.84 71.68 193.89" fill="#373a3a"/><polygon points="71.68 184.84 71.68 190.82 80.9 194.91 83.29 189.96 71.68 184.84" fill="#373a3a"/><polygon points="71.68 153.1 71.68 159.24 74.58 154.63 71.68 153.1" fill="#373a3a"/><polygon points="71.68 159.24 71.68 153.1 69.64 151.73 65.88 157.71 65.88 171.7 71.68 175.12 71.68 168.46 67.76 165.9 71.68 159.24" fill="#373a3a"/><polygon points="71.68 190.82 71.68 184.84 65.88 182.11 65.88 188.26 71.68 190.82" fill="#373a3a"/><polygon points="71.68 202.76 71.68 193.89 65.88 189.96 65.88 194.74 70.49 197.98 65.88 197.13 65.88 201.23 71.68 202.76" fill="#373a3a"/><polygon points="71.68 212.32 71.68 206.35 65.88 203.79 65.88 209.59 71.68 212.32" fill="#373a3a"/><path d="M71.68,448.18V429.92l-2-4.44-3.75,1.88v6l1.36-.68,3.24,6c1.88,3.07-1.71,6-4.61,5.63V449A9.34,9.34,0,0,0,71.68,448.18Z" fill="#373a3a"/><polygon points="71.68 467.64 71.68 453.98 65.88 457.74 65.88 464.91 68.95 463.03 71.68 467.64" fill="#373a3a"/><path d="M71.68,493.07v-8.87A10.72,10.72,0,0,0,71.68,493.07Z" fill="#373a3a"/><polygon points="65.88 472.93 65.88 481.12 69.81 478.73 65.88 472.93" fill="#373a3a"/><polygon points="65.88 216.07 65.88 221.71 68.95 221.71 71 216.41 65.88 216.07" fill="#373a3a"/><polygon points="65.88 171.7 65.88 157.71 59.73 167.95 65.88 171.7" fill="#373a3a"/><polygon points="65.88 188.26 65.88 182.11 54.79 176.82 51.54 183.99 65.88 194.74 65.88 189.96 58.88 184.84 65.88 188.26" fill="#373a3a"/><polygon points="65.88 201.23 65.88 197.13 50.86 193.72 50.86 202.76 65.88 209.59 65.88 203.79 52.91 197.64 65.88 201.23" fill="#373a3a"/><polygon points="65.88 221.71 65.88 216.07 50.86 215.05 50.86 220.51 56.49 220.85 54.45 226.66 50.86 224.44 50.86 230.75 62.81 238.94 64.51 233.48 58.88 230.07 62.13 221.36 65.88 221.71" fill="#373a3a"/><path d="M65.88,433.33v-6l-15,7.68v5.8l4.44-2.22L58,443.4c1.54,2.9.85,4.1-1.54,4.95a32.8,32.8,0,0,0-5.63,3.24v5.29l.85,1.36,1.54-.68c-.34-.17.34-1.36,1.54-2l6-3.24A4.16,4.16,0,0,0,63,447.84a7,7,0,0,0,2.9,1.2v-4.78a3.11,3.11,0,0,1-2.22-1.71l-3.24-6.31Z" fill="#373a3a"/><polygon points="65.88 464.91 65.88 457.74 54.45 465.25 65.2 481.63 65.88 481.12 65.88 472.93 62.47 467.13 65.88 464.91" fill="#373a3a"/><polygon points="50.86 416.78 50.86 427.87 55.13 426.17 51.2 416.61 50.86 416.78" fill="#373a3a"/><path d="M50.86,403.47v5.12c3.92-.51,7.34.51,8.87,3.41,1.54,3.24-.51,6.66-2.56,8.19l1.71,4.44c5.63-2,8-8.53,6-14.16C62.47,404.32,56.66,402.78,50.86,403.47Z" fill="#373a3a"/><polygon points="50.86 392.37 50.86 398.18 59.56 395.62 58.03 390.32 50.86 392.37" fill="#373a3a"/><polygon points="50.86 375.99 50.86 383.84 55.13 380.08 53.59 375.13 50.86 375.99" fill="#373a3a"/><path d="M50.86,355.68v11.95a10.64,10.64,0,0,0,1.88-7.68A12.06,12.06,0,0,0,50.86,355.68Z" fill="#373a3a"/><polygon points="50.86 275.13 50.86 275.64 51.71 275.13 50.86 275.13" fill="#373a3a"/><polygon points="50.86 202.76 50.86 193.72 47.28 192.69 44.03 199.52 50.86 202.76" fill="#373a3a"/><polygon points="50.86 220.51 50.86 215.05 38.06 214.03 36.01 220.17 50.86 230.75 50.86 224.44 44.89 220 50.86 220.51" fill="#373a3a"/><polygon points="50.86 275.64 50.86 275.13 40.45 275.13 37.21 265.4 37.21 265.4 35.84 268.81 35.84 286.73 37.21 285.88 46.08 292.02 42.67 281.61 50.86 275.64" fill="#373a3a"/><path d="M50.86,367.63V355.68c-3.24-4.95-10.07-5.8-15-5.46v5.46c4.78-.34,9.39,1,10.24,4.61,1.54,5.12-4.27,9.22-10.24,9.9v5.63a11.68,11.68,0,0,0,2.22-.34C44.72,373.94,48.81,371,50.86,367.63Z" fill="#373a3a"/><polygon points="50.86 383.84 50.86 375.99 35.84 380.26 35.84 385.72 45.57 382.82 35.84 391.69 35.84 402.44 50.86 398.18 50.86 392.37 37.55 396.13 50.86 383.84" fill="#373a3a"/><path d="M50.86,408.59v-5.12a28,28,0,0,0-6.49,1.71,17.84,17.84,0,0,0-8.53,6.49v12.29c1.54,1.88,3.93,3.41,5.63,3.41l-3.41,1.54,1.2,3.24,11.61-4.27V416.78l-4.44,1.71,2,5.29c-1.71,1.19-7.68.68-8.87-3.24C37.21,414.73,44.38,409.61,50.86,408.59Z" fill="#373a3a"/><polygon points="50.86 440.84 50.86 435.04 41.99 439.48 44.38 444.26 50.86 440.84" fill="#373a3a"/><path d="M50.86,456.89v-5.29c-.51.51-1.2,1-1.71,1.54Z" fill="#373a3a"/><path d="M35.84,324.62v5.29c4.27.34,8,2.22,8.19,5.8,0,3.41-2.56,5.29-6,6.14L38.4,347c6.49-.68,10.92-5.63,10.92-10.75C49.15,327.86,42.33,325.13,35.84,324.62Z" fill="#373a3a"/><polygon points="35.84 286.73 35.84 268.81 33.62 275.13 21.51 275.13 31.58 282.46 28.33 292.02 35.84 286.73" fill="#373a3a"/><path d="M35.84,329.91v-5.29H32.43c-6.83.34-16,3.24-15,12.29.17,8.19,6.83,10.92,11.61,10.92l-.34-5.29a6.3,6.3,0,0,1-6.31-5.46C21.51,332.3,29.53,329.4,35.84,329.91Z" fill="#373a3a"/><path d="M35.84,355.68v-5.46H34.31c-11.95,2-15.19,8.87-14,15.19,1.37,8.19,8.19,11.09,15.53,10.41v-5.63c-4.61.68-9.56-.68-10.24-5.46C24.41,359.26,30.21,356,35.84,355.68Z" fill="#373a3a"/><polygon points="35.84 385.72 35.84 380.26 23.55 383.67 25.09 388.79 35.84 385.72" fill="#373a3a"/><polygon points="35.84 402.44 35.84 391.69 27.99 398.86 29.53 404.15 35.84 402.44" fill="#373a3a"/><path d="M35.84,423.95V411.66a10.53,10.53,0,0,0-1,10.41A4.07,4.07,0,0,0,35.84,423.95Z" fill="#373a3a"/><path d="M310.37,530.21h8c3.17,0,5.14,1.73,5.14,4.43a4.06,4.06,0,0,1-2.94,4.29v0c2,.38,2.37,1.82,2.53,3.48s0,3.51,1,4.67h-2.51c-.64-.69-.28-2.51-.62-4.17s-.64-3.06-2.82-3.06h-5.5v7.23h-2.25Zm6.94,7.8c2.11,0,3.91-.55,3.91-3a2.68,2.68,0,0,0-3-2.89h-5.59V538Z" fill="#373a3a"/></svg>