<?xml version="1.0" encoding="UTF-8" standalone="no"?>
<!-- Created with Inkscape (http://www.inkscape.org/) -->

<svg
   width="131.61919mm"
   height="23.059048mm"
   viewBox="0 0 131.61919 23.059048"
   version="1.1"
   id="svg41"
   inkscape:version="1.1.2 (0a00cf5339, 2022-02-04)"
   sodipodi:docname="array-sequential.svg"
   xmlns:inkscape="http://www.inkscape.org/namespaces/inkscape"
   xmlns:sodipodi="http://sodipodi.sourceforge.net/DTD/sodipodi-0.dtd"
   xmlns="http://www.w3.org/2000/svg"
   xmlns:svg="http://www.w3.org/2000/svg">
  <sodipodi:namedview
     id="namedview43"
     pagecolor="#505050"
     bordercolor="#ffffff"
     borderopacity="1"
     inkscape:pageshadow="0"
     inkscape:pageopacity="0"
     inkscape:pagecheckerboard="1"
     inkscape:document-units="mm"
     showgrid="false"
     fit-margin-top="0"
     fit-margin-left="0"
     fit-margin-right="0"
     fit-margin-bottom="0"
     inkscape:zoom="0.74742565"
     inkscape:cx="248.85419"
     inkscape:cy="44.151549"
     inkscape:window-width="1920"
     inkscape:window-height="1011"
     inkscape:window-x="0"
     inkscape:window-y="32"
     inkscape:window-maximized="1"
     inkscape:current-layer="layer1" />
  <defs
     id="defs38" />
  <g
     inkscape:label="Layer 1"
     inkscape:groupmode="layer"
     id="layer1"
     transform="translate(-39.326281,-136.79348)">
    <path
       d="m 94.684988,159.62554 c -0.311941,-0.22801 -0.31456,-0.81278 -0.008,-1.76855 l 0.122362,-0.38193 -3.287181,-0.003 c -2.073981,-0.002 -3.944972,-0.10025 -5.069401,-0.26628 -1.754409,-0.25908 -8.30349,-0.37303 -8.663141,-0.15082 -0.0897,0.0554 -0.163028,0.31604 -0.163028,0.57926 0,0.57605 -0.34984,0.90556 -0.88174,0.82994 -0.32862,-0.0466 -0.39964,-0.17146 -0.443719,-0.78133 l -0.0523,-0.72566 -6.683931,0.10552 c -3.676161,0.058 -7.391974,0.15556 -8.257354,0.21672 -1.499431,0.10594 -1.57806,0.13116 -1.672201,0.5354 -0.0714,0.30655 -0.229291,0.43942 -0.568839,0.47914 -0.391292,0.0455 -0.503301,-0.0329 -0.667012,-0.46675 -0.195939,-0.51919 -0.202689,-0.52142 -1.486328,-0.52142 -0.7092,0 -1.742731,0.0868 -2.29656,0.19288 -0.6165,0.11807 -3.278531,0.20037 -6.862971,0.21216 -3.503851,0.0115 -5.958099,0.0861 -6.11043,0.18566 -0.140029,0.0915 -0.65558,0.18352 -1.145771,0.20448 -0.773308,0.0331 -0.891029,-0.004 -0.891029,-0.28185 0,-0.18263 0.138901,-0.34317 0.32362,-0.37431 0.311711,-0.0523 0.32767,-0.37939 0.436099,-9.00771 l 0.112622,-8.95346 h -0.430141 c -0.537141,0 -0.906521,-0.57861 -0.602919,-0.94433 0.11126,-0.13407 0.38296,-0.24375 0.603628,-0.24375 0.299792,0 0.465421,-0.15347 0.654632,-0.60625 0.199938,-0.47852 0.33459,-0.59482 0.6389,-0.5516 0.281919,0.04 0.40036,0.18565 0.441108,0.54238 l 0.0558,0.48774 2.405391,-0.11996 c 1.32307,-0.066 2.940061,-0.19263 3.593539,-0.28147 0.653442,-0.0888 3.522249,-0.22553 6.375071,-0.30378 3.787598,-0.10388 5.283518,-0.20259 5.545008,-0.36604 0.287171,-0.17934 0.408702,-0.18161 0.61364,-0.0115 0.204031,0.16933 0.594101,0.16991 1.93243,0.003 1.516832,-0.1893 1.951265,-0.17249 4.553166,0.17609 1.836399,0.24603 4.165079,0.41656 6.4408,0.47153 l 3.564419,0.0862 0.16973,-0.39971 c 0.225999,-0.53222 1.089552,-0.65932 1.215131,-0.1785 0.0778,0.29762 0.28716,0.3403 2.066589,0.42164 3.334581,0.1523 15.03232,-0.0659 15.17169,-0.28292 0.0873,-0.13604 0.20819,-0.13888 0.42442,-0.01 0.194969,0.11629 2.49931,0.19442 6.494073,0.22018 3.53502,0.0228 6.52108,0.11588 6.95911,0.2169 0.48423,0.11168 1.92551,0.13623 3.9073,0.0665 2.56153,-0.0901 3.68734,-0.0484 6.11042,0.22635 5.64003,0.6393 7.62932,0.75941 9.16242,0.5532 0.77831,-0.10475 1.86237,-0.19045 2.4088,-0.19045 0.54644,0 1.14555,-0.0947 1.33095,-0.21056 0.27071,-0.1691 0.40869,-0.16595 0.6999,0.016 0.37605,0.2349 5.57199,0.27438 13.79542,0.10484 3.2718,-0.0674 3.57843,-0.10004 3.91483,-0.41593 0.42227,-0.39654 1.02925,-0.44897 1.22585,-0.10584 0.14444,0.25225 1.17413,0.226 9.94561,-0.25355 2.03466,-0.11123 4.409,-0.15236 5.27628,-0.0914 1.57544,0.11074 1.57711,0.11043 1.7761,-0.32663 0.24641,-0.5408 0.88007,-0.51125 1.12743,0.0525 0.0921,0.21004 0.30074,0.38193 0.4635,0.38193 0.17916,0 0.34078,0.17879 0.40965,0.45309 0.0871,0.34698 0.0276,0.52269 -0.25356,0.75051 -0.20203,0.16359 -0.43276,0.32251 -0.51283,0.35333 -0.08,0.0307 -0.0913,0.72604 -0.025,1.5455 0.0722,0.89285 0.032,2.49078 -0.1005,3.98875 -0.35961,4.06689 -0.71802,8.65634 -0.82167,10.52337 -0.0812,1.46319 -0.0554,1.75997 0.16065,1.84291 0.1487,0.0571 0.25737,0.30795 0.25737,0.59417 0,0.71905 -0.54359,0.87601 -2.26773,0.65518 -0.75996,-0.0974 -2.60363,-0.21714 -4.09728,-0.26611 -2.87932,-0.0944 -6.43251,-0.44802 -8.52488,-0.84837 -1.7096,-0.32696 -3.20484,-0.32156 -3.33302,0.0127 -0.14093,0.36731 -0.89866,0.31295 -1.3052,-0.0936 -0.19631,-0.1963 -0.47399,-0.30904 -0.63653,-0.25848 -0.15858,0.0493 -3.80185,0.12656 -8.09612,0.17166 -4.29425,0.0451 -9.10623,0.15757 -10.69324,0.24991 -1.58712,0.0923 -5.92159,0.2215 -9.63241,0.28702 -3.71081,0.0655 -6.74693,0.18396 -6.74693,0.26319 0,0.0792 -0.1471,0.29114 -0.32696,0.47089 -0.41585,0.4156 -0.96848,0.28487 -1.10575,-0.26177 l -0.10341,-0.41211 -3.85727,0.0462 c -2.12141,0.0254 -5.8537,-0.0225 -8.29378,-0.10647 l -4.436485,-0.15261 -0.13594,0.57702 c -0.0748,0.31732 -0.116771,0.67868 -0.0933,0.80293 0.0583,0.30872 -0.445161,1.04728 -0.71374,1.04728 -0.120031,0 -0.357211,-0.10166 -0.527129,-0.22592 z m 73.125782,-3.2112 c 0.0446,-0.30339 0.20535,-2.49936 0.35721,-4.87985 0.15189,-2.38052 0.35032,-4.93928 0.44087,-5.6861 0.1984,-1.63446 0.2538,-5.7322 0.0875,-6.46844 -0.11783,-0.52141 -0.13429,-0.52904 -1.39671,-0.62436 -0.70253,-0.0532 -2.43655,-0.0302 -3.85323,0.0509 -1.41674,0.0811 -3.91238,0.19116 -5.54609,0.24453 -1.63359,0.0533 -3.64566,0.14295 -4.47107,0.19909 l -1.50061,0.10207 0.14283,1.97508 c 0.22337,3.08846 0.15987,6.19013 -0.17596,8.59477 -0.43896,3.14279 -0.5512,5.68178 -0.25214,5.70087 1.34954,0.0862 3.54448,0.34984 5.49319,0.65995 2.06874,0.32918 3.95732,0.45564 9.79445,0.65582 0.77831,0.0267 0.80072,0.0134 0.87978,-0.52431 z m -5.21435,-3.97461 c -0.0623,-0.0622 -0.11316,-0.50711 -0.11316,-0.98849 v -0.87507 l -1.6548,0.003 c -2.96804,0.005 -4.795,-1.11052 -4.795,-2.92927 0,-1.46988 1.23062,-2.85015 3.5117,-3.9388 0.86981,-0.41498 1.13052,-0.47407 1.41815,-0.31997 0.69538,0.37208 0.35246,0.87666 -1.07452,1.58014 -2.04134,1.0066 -2.95934,2.13745 -2.51914,3.10371 0.29121,0.63929 1.75274,1.24936 2.99199,1.24904 1.65695,-3.5e-4 2.25057,-0.14981 2.3621,-0.59482 0.0536,-0.21368 0.14054,-0.50076 0.19315,-0.63771 0.0759,-0.19789 -0.11728,-0.26464 -0.93797,-0.3241 -1.1496,-0.0832 -1.63383,-0.39907 -1.45868,-0.95131 0.14476,-0.45597 0.46852,-0.55923 1.14578,-0.36509 0.30812,0.0884 0.99136,0.16067 1.51849,0.16067 0.68537,0 1.07071,0.091 1.35286,0.31966 0.42943,0.3476 0.45589,0.22427 -0.36818,1.71739 -0.24521,0.44452 -0.3279,0.92813 -0.32815,1.92075 -1.5e-4,0.72953 -0.0793,1.47433 -0.17598,1.6548 -0.16895,0.3157 -0.83454,0.44961 -1.06904,0.21516 z m -114.344157,4.01671 c 3.034,-0.0687 6.598091,-0.22282 7.92019,-0.34252 2.37616,-0.21506 2.40502,-0.22267 2.50561,-0.65868 0.157699,-0.68346 0.43086,-9.55042 0.41203,-13.37984 l -0.0168,-3.43362 -4.264861,0.087 c -2.34565,0.0478 -5.10503,0.17071 -6.131909,0.27301 -1.026872,0.10229 -3.0128,0.23343 -4.413091,0.29142 l -2.546021,0.10541 -0.12551,5.77096 c -0.069,3.17393 -0.0796,7.09637 -0.02349,8.71631 l 0.102039,2.94547 0.532622,-0.12495 c 0.29287,-0.0687 3.015031,-0.18116 6.049129,-0.24996 z m 1.7201,-4.30038 c -0.10374,-0.125 -0.285019,-0.84774 -0.40274,-1.60619 -0.142381,-0.91732 -0.27596,-1.33833 -0.39869,-1.25794 -0.101539,0.0666 -0.46804,0.66408 -0.81453,1.32752 -0.740659,1.4184 -1.274699,1.81654 -1.799929,1.34119 -0.35437,-0.3206 -0.42872,-1.1121 -0.18374,-1.95348 0.0679,-0.23338 0.0438,-0.60561 -0.0536,-0.82676 -0.1519,-0.34539 -0.111482,-0.45501 0.283829,-0.77021 0.25355,-0.20217 0.461121,-0.4512 0.461121,-0.55382 0,-0.10237 0.297638,-0.90144 0.661059,-1.77586 0.677511,-1.62907 1.084781,-2.03133 1.344999,-1.32849 0.109,0.29465 0.214101,0.0587 0.508311,-1.14132 0.20405,-0.83186 0.371039,-1.74282 0.371039,-2.0237 0,-0.70158 0.34793,-1.13085 0.858149,-1.05872 0.371751,0.0524 0.4137,0.13794 0.404411,0.82232 -0.006,0.42005 -0.101471,1.60396 -0.212781,2.6309 -0.111307,1.02694 -0.239739,2.25787 -0.285488,2.73544 l -0.0831,0.86839 1.15435,-0.0826 c 0.933919,-0.0668 1.20916,-0.0277 1.441519,0.2046 0.35841,0.35842 0.359842,0.50554 0.008,0.85728 -0.172551,0.17254 -0.425141,0.24229 -0.66226,0.18281 -0.210781,-0.0529 -0.73446,-0.0481 -1.163651,0.0108 -0.903891,0.1239 -0.91462,0.16377 -0.530471,1.97637 0.13421,0.63325 0.201102,1.26366 0.148632,1.40029 -0.119401,0.31115 -0.802862,0.32504 -1.05469,0.0212 z m 62.241927,4.18918 0.90579,-0.10877 -0.1419,-1.79938 c -0.0781,-0.98944 -0.11006,-2.67761 -0.0711,-3.7512 0.10448,-2.88192 0.0827,-5.68492 -0.0682,-8.76024 l -0.13412,-2.73482 -0.7154,0.0806 c -0.39344,0.0444 -1.39504,-0.0116 -2.22555,-0.12432 -1.71389,-0.23263 -12.975463,-0.37779 -13.309174,-0.17146 -0.17046,0.10535 -0.21164,1.91027 -0.19571,8.57679 0.01119,4.64383 0.0503,8.47342 0.087,8.51018 0.23273,0.23274 14.210724,0.48138 15.868634,0.28237 z m -11.38681,-6.17545 c -0.53142,-0.32124 -0.25975,-1.18105 0.37343,-1.18105 0.18214,0 0.26548,-0.16973 0.27048,-0.5516 0.004,-0.30341 0.0696,-1.28527 0.14562,-2.18162 l 0.1382,-1.63003 -0.48519,-0.0956 c -0.2669,-0.0526 -0.67607,-0.0674 -0.90938,-0.0328 -3.196313,0.47344 -3.271253,0.47725 -3.488122,0.1806 -0.24593,-0.33649 -0.143171,-0.88841 0.189249,-1.01614 0.127651,-0.049 1.029491,-0.18176 2.00416,-0.29504 3.038533,-0.35334 5.654803,0.23226 7.156663,1.60141 1.43389,1.30752 1.35049,2.77993 -0.22538,3.97045 -1.20131,0.90779 -4.43239,1.67736 -5.16973,1.23151 z m 3.32639,-1.69516 c 1.85331,-0.69331 2.28488,-1.62684 1.21774,-2.63345 -0.52737,-0.49758 -2.20576,-1.24173 -2.38842,-1.05903 -0.0393,0.0393 -0.12232,0.9637 -0.18461,2.0542 -0.12982,2.27313 -0.17968,2.21275 1.35529,1.63828 z m -9.246073,7.55064 c 0.0584,-0.0587 0.106391,-3.40366 0.106542,-7.43314 1.48e-4,-4.02948 0.0682,-7.81163 0.15122,-8.4048 0.117618,-0.84042 0.10124,-1.10923 -0.0741,-1.21758 -0.123798,-0.0765 -1.643129,-0.11032 -3.37616,-0.0751 -1.733198,0.0351 -5.491779,0.0675 -8.352578,0.0718 l -5.201452,0.008 -0.0979,2.58833 c -0.0538,1.42349 -0.138502,5.21104 -0.188162,8.41642 l -0.0903,5.82797 3.183051,-0.11305 c 2.20149,-0.0781 3.549518,-0.0498 4.371218,0.092 1.179621,0.20358 7.792472,0.50012 8.88963,0.39876 0.315042,-0.0291 0.620551,-0.10101 0.678982,-0.15951 z m -12.6238,-6.65146 c -0.186698,-0.0469 -0.549529,-0.2343 -0.806188,-0.41656 -0.381532,-0.27064 -0.46685,-0.46041 -0.46685,-1.03775 0,-0.64724 0.0904,-0.79245 1.07573,-1.7282 1.752978,-1.66497 3.507158,-2.40563 3.507158,-1.48068 0,0.36636 -0.385339,0.72732 -1.748459,1.63733 -1.18105,0.78864 -1.73821,1.42888 -1.473931,1.69325 0.2222,0.22219 1.92051,0.23238 5.520481,0.0331 2.465449,-0.13647 2.74996,-0.12329 3.01276,0.13952 0.31218,0.31228 0.35913,0.57385 0.158949,0.88841 -0.129598,0.20372 -8.071879,0.4496 -8.77965,0.27156 z m 48.582223,6.64418 c 0.57885,-0.16487 0.6451,-0.86045 0.59625,-6.26546 -0.0391,-4.32708 0.1467,-8.74339 0.40536,-9.63243 0.0776,-0.26677 -0.0574,-0.29557 -1.32546,-0.28271 -0.7764,0.008 -1.86999,0.0745 -2.43016,0.14808 -0.96443,0.12666 -6.23703,-0.24655 -9.33538,-0.66091 -2.25343,-0.30127 -3.32719,-0.36857 -4.08112,-0.25542 l -0.75639,0.11342 v 1.52294 c 0,0.83757 0.12079,2.49015 0.26834,3.67243 0.22518,1.80319 0.23592,2.44885 0.0667,4.00766 -0.13427,1.23697 -0.16038,2.87778 -0.0781,4.90645 l 0.12365,3.0481 8.08419,-0.10745 c 4.44631,-0.0591 8.25416,-0.15585 8.46192,-0.21501 z M 117.843,149.75214 c -0.21634,-0.26067 -0.18988,-1.13847 0.10361,-3.43724 l 0.11383,-0.89158 -0.51736,0.10345 c -0.41036,0.0821 -0.5555,0.032 -0.70229,-0.24232 -0.23008,-0.4299 0.14871,-0.87856 0.74185,-0.87856 0.21672,0 0.44134,-0.12323 0.49925,-0.27385 0.0674,-0.17549 0.22819,-0.24167 0.44778,-0.18424 0.1885,0.0493 0.93225,-0.0982 1.65289,-0.32791 1.71987,-0.5481 2.67681,-0.67679 3.0051,-0.40417 0.71373,0.59227 -0.22239,1.4219 -1.58164,1.40125 -0.40465,-0.006 -1.13029,0.12259 -1.61262,0.28602 -0.84551,0.28651 -0.87888,0.32155 -0.9282,0.98214 l -0.0512,0.68505 1.08882,-0.26054 c 1.15865,-0.2772 1.58498,-0.21897 1.76133,0.24047 0.10936,0.28502 -0.23074,0.66568 -1.39028,1.55631 l -0.50903,0.39082 1.27614,-0.10467 c 1.41649,-0.11619 2.11211,0.0586 2.24437,0.56399 0.1786,0.68284 -0.0736,0.76544 -2.5015,0.81724 -1.27638,0.0272 -2.45614,0.0926 -2.62176,0.14513 -0.16755,0.0532 -0.39798,-0.021 -0.51911,-0.16679 z m 1.47869,-2.32492 c -0.33434,-0.21252 -0.45993,-0.1565 -0.45993,0.20518 0,0.2961 0.0437,0.3136 0.33268,0.13313 0.23998,-0.1499 0.27549,-0.24413 0.12725,-0.33831 z m -56.896627,8.52753 c 0.933442,-0.0832 3.950564,-0.17523 6.704504,-0.20449 2.753942,-0.0293 5.52273,-0.0797 6.152861,-0.11207 l 1.145781,-0.0589 v -0.93225 c 0,-0.51284 0.0748,-1.82385 0.16609,-2.91338 0.0913,-1.08954 0.186819,-4.38714 0.212158,-7.32778 l 0.0461,-5.34662 -3.309821,-0.0516 c -1.958398,-0.0306 -4.369278,-0.18647 -5.904759,-0.38193 -2.94419,-0.37461 -4.542014,-0.41274 -6.082056,-0.14451 l -1.066659,0.18576 -0.0852,0.70539 c -0.0469,0.38797 -0.132659,3.95151 -0.190669,7.91903 -0.058,3.96755 -0.163931,7.5765 -0.235371,8.01994 -0.151641,0.94147 -0.33959,0.8919 2.447039,0.6434 z m 2.652855,-5.24679 c -0.453729,-0.45373 -0.456589,-1.01423 -0.01921,-3.66719 0.341731,-2.07294 0.323382,-2.63503 -0.087,-2.63503 -0.300271,0 -0.764493,-0.46708 -0.764493,-0.76925 0,-0.659 1.85856,-1.44129 3.405812,-1.43365 1.479169,0.007 2.871909,1.05744 2.873719,2.167 7.93e-4,0.52141 -0.543341,1.55312 -1.086681,2.05992 l -0.441338,0.41179 0.8915,0.4817 c 1.08072,0.58401 1.485598,1.0387 1.485598,1.66846 0,1.04919 -1.7077,1.82893 -4.34866,1.98525 -1.420068,0.0841 -1.578069,0.0618 -1.909558,-0.26972 z m 3.234301,-1.13179 c 1.52278,-0.31996 1.890249,-0.60275 1.292579,-0.99421 -0.226949,-0.14871 -0.942271,-0.3975 -1.589749,-0.55288 -0.64748,-0.15541 -1.27255,-0.35619 -1.389081,-0.44611 -0.469709,-0.36191 -0.21305,-0.78069 0.814761,-1.32848 1.56473,-0.83407 2.081138,-1.78063 1.338339,-2.45297 -0.402511,-0.36413 -1.80136,-0.42069 -2.577341,-0.10398 -0.384868,0.15709 -0.466838,0.29546 -0.466838,0.78864 0,0.39495 0.0794,0.5983 0.23382,0.5983 0.521888,0 0.616019,0.41498 0.369138,1.62621 -0.131648,0.64597 -0.291689,1.61382 -0.355798,2.15048 l -0.116541,0.97611 h 0.60244 c 0.331481,0 1.161259,-0.11746 1.844271,-0.26111 z m 74.057641,6.18362 c 1.40029,0.0221 3.71081,-0.0123 5.13446,-0.0763 l 2.58844,-0.1164 v -0.9599 c 0,-0.52809 0.15006,-2.06532 0.33339,-3.41655 0.18341,-1.35105 0.4249,-3.13422 0.5369,-3.9627 0.19075,-1.41268 0.092,-3.80982 -0.28763,-6.98051 l -0.0813,-0.67902 -8.69122,0.13769 c -4.78019,0.0757 -8.70956,0.156 -8.73194,0.17839 -0.24546,0.24539 -0.43944,4.36305 -0.45588,9.67583 l -0.02,6.42751 3.56443,-0.1341 c 1.96031,-0.0737 4.71014,-0.11603 6.11036,-0.094 z m -5.09996,-5.08665 c -0.062,-0.10041 -0.10346,-1.11241 -0.092,-2.24898 0.0155,-1.55248 -0.0432,-2.18733 -0.23664,-2.55242 -0.14165,-0.26754 -0.25761,-0.54842 -0.25761,-0.62468 0,-0.27675 0.55954,-0.68854 0.80667,-0.59386 0.13958,0.0536 1.10359,-0.18603 2.14214,-0.53253 1.03853,-0.34635 2.23222,-0.63422 2.65226,-0.63931 0.73064,-0.009 0.76377,0.0119 0.76377,0.47916 0,0.47948 -0.038,0.49917 -2.03681,1.05872 -1.12028,0.31359 -2.16597,0.57098 -2.32373,0.57225 -0.39868,0.003 -0.49282,0.21854 -0.36794,0.84297 l 0.10725,0.53635 1.30354,-0.1137 c 1.09668,-0.0957 1.34881,-0.0683 1.58927,0.17221 0.62341,0.62341 0.0943,1.10956 -1.21132,1.11274 -1.5335,0.004 -1.72772,0.0998 -1.72772,0.85504 0,1.24428 -0.71326,2.31984 -1.11115,1.67604 z"
       style="fill:#000000;stroke-width:0.0449088"
       id="path32" />
  </g>
</svg>
