<?xml version="1.0" encoding="UTF-8" standalone="no"?>
<!-- Created with Inkscape (http://www.inkscape.org/) -->

<svg
   width="178.19063mm"
   height="91.774765mm"
   viewBox="0 0 178.19063 91.774767"
   version="1.1"
   id="svg2954"
   sodipodi:docname="film-edit-1.svg"
   inkscape:version="1.1.2 (0a00cf5339, 2022-02-04)"
   xmlns:inkscape="http://www.inkscape.org/namespaces/inkscape"
   xmlns:sodipodi="http://sodipodi.sourceforge.net/DTD/sodipodi-0.dtd"
   xmlns="http://www.w3.org/2000/svg"
   xmlns:svg="http://www.w3.org/2000/svg">
  <sodipodi:namedview
     id="namedview2956"
     pagecolor="#505050"
     bordercolor="#ffffff"
     borderopacity="1"
     inkscape:pageshadow="0"
     inkscape:pageopacity="0"
     inkscape:pagecheckerboard="1"
     inkscape:document-units="mm"
     showgrid="false"
     fit-margin-top="0"
     fit-margin-left="0"
     fit-margin-right="0"
     fit-margin-bottom="0"
     inkscape:zoom="0.67521728"
     inkscape:cx="297.68195"
     inkscape:cy="328.78305"
     inkscape:window-width="1920"
     inkscape:window-height="1011"
     inkscape:window-x="0"
     inkscape:window-y="32"
     inkscape:window-maximized="1"
     inkscape:current-layer="layer1" />
  <defs
     id="defs2951" />
  <g
     inkscape:label="Layer 1"
     inkscape:groupmode="layer"
     id="layer1"
     transform="translate(-15.983793,-52.605172)">
    <path
       style="fill:#000000;stroke-width:0.163208"
       d="m 60.755932,144.26211 c -0.296738,-0.18879 -0.427347,-0.94895 -0.227348,-1.32293 0.133604,-0.24966 0.117315,-1.1341 -0.06271,-3.40175 -0.231899,-2.92173 -0.441106,-6.72525 -0.676663,-12.29872 -0.11607,-2.74697 -0.01984,-3.24274 0.633122,-3.26143 l 0.361586,-0.0103 -0.367316,-0.1476 c -0.432621,-0.17391 -0.510983,-0.92941 -0.11216,-1.08218 0.140287,-0.0538 0.81965,0.0171 1.5096,0.15734 2.030216,0.41308 2.866971,0.46164 4.722489,0.27507 1.586592,-0.15957 7.160495,-1.08277 7.388692,-1.22392 0.05149,-0.0318 1.081796,-0.17875 2.289378,-0.32662 1.678934,-0.20536 4.654293,-0.30169 12.640959,-0.40939 5.744904,-0.0774 11.877439,-0.2268 13.627819,-0.33212 1.75044,-0.10525 7.95639,-0.20633 13.79108,-0.22463 5.83468,-0.0183 12.26097,-0.12382 14.28066,-0.23455 2.01966,-0.11076 6.38957,-0.20507 9.71086,-0.20961 5.18332,-0.007 6.38449,0.0386 8.47989,0.32233 1.88542,0.2553 2.48924,0.39626 2.65213,0.619 0.26215,0.35838 0.26193,0.42009 -6.5e-4,0.7794 -0.19818,0.27102 -0.28919,0.2739 -1.42803,0.0452 -2.89174,-0.58048 -4.56323,-0.65381 -12.37535,-0.54322 -4.18547,0.0592 -8.71159,0.18594 -10.05807,0.28163 -1.34644,0.0957 -6.67113,0.1705 -11.83256,0.16625 -5.16144,-0.005 -10.59626,0.0616 -12.07737,0.14604 -1.48117,0.0845 -7.393304,0.2296 -13.138209,0.32234 -5.744913,0.0927 -11.400059,0.24291 -12.566999,0.33394 -1.16703,0.0909 -3.729654,0.45981 -5.694929,0.82003 -4.888803,0.89549 -6.980291,1.09133 -9.021085,0.84508 -0.882665,-0.10654 -1.755933,-0.23577 -1.940387,-0.28721 -0.326992,-0.091 -0.334784,-0.0416 -0.299956,1.91657 0.07561,4.24729 0.420476,10.5898 0.822634,15.12817 l 0.106665,1.20379 1.730032,-0.11247 c 0.951637,-0.0619 3.272425,-0.32447 5.157453,-0.58355 3.371109,-0.46349 7.559402,-0.87137 10.771727,-1.04949 5.479513,-0.30369 9.103901,-0.45522 15.83114,-0.66177 0.987384,-0.0304 3.60569,-0.0612 5.818434,-0.0685 l 4.02315,-0.0134 0.0162,-5.34508 c 0.009,-2.93976 0.0963,-6.2006 0.19403,-7.24628 0.15699,-1.67946 0.1466,-1.94863 -0.0891,-2.30853 -0.25824,-0.39413 -0.24909,-0.42652 0.28574,-1.01038 0.40169,-0.43841 0.66016,-0.58813 0.94591,-0.5478 0.46448,0.0656 0.46264,-0.007 0.0868,3.72775 -0.16941,1.68375 -0.25617,4.23559 -0.25961,7.62997 l -0.005,5.10025 4.85546,0.0126 c 2.67048,0.007 5.33281,0.0384 5.91627,0.0697 2.17366,0.11704 14.31621,0.36419 24.39955,0.49678 l 7.01795,0.0924 0.0428,-2.90616 c 0.0237,-1.59849 0.15278,-4.04462 0.28711,-5.43599 0.63243,-6.54964 0.64504,-6.82513 0.32699,-7.17655 -0.27567,-0.30453 -0.27658,-0.34646 -0.0156,-0.74456 0.21799,-0.33272 0.38632,-0.41123 0.79673,-0.37152 l 0.52037,0.0504 0.0469,1.5151 c 0.0258,0.83317 -0.10973,2.92633 -0.30134,4.65145 -0.19152,1.72499 -0.38792,4.67022 -0.43651,6.54483 -0.0788,3.04427 -0.0598,3.42437 0.17882,3.55787 0.32768,0.18338 0.3499,0.8408 0.0371,1.10021 -0.13913,0.11546 -0.22557,0.48059 -0.21886,0.9242 0.0126,0.84051 -0.16743,1.09716 -0.71561,1.01954 -0.30454,-0.043 -0.41797,-0.19793 -0.53667,-0.73327 l -0.15058,-0.67855 -1.39985,-0.0932 c -0.76992,-0.0512 -3.86022,-0.13131 -6.86734,-0.17789 -8.87308,-0.13745 -16.52407,-0.28462 -17.1368,-0.32967 -0.31415,-0.0231 -4.07816,-0.0992 -8.36438,-0.16922 -7.08689,-0.11576 -7.79318,-0.10365 -7.79318,0.13374 0,0.34771 -0.59923,0.75251 -0.96996,0.65566 -0.16279,-0.0426 -0.38176,-0.2657 -0.48671,-0.49587 l -0.19067,-0.41857 -7.201981,0.11381 c -3.961097,0.0626 -7.244287,0.13847 -7.295985,0.1686 -0.0517,0.0302 -1.672977,0.10231 -3.602961,0.16036 -1.929843,0.058 -3.876187,0.13847 -4.324988,0.17867 -0.448895,0.0403 -1.623944,0.1144 -2.611318,0.16482 -4.492553,0.22938 -8.920868,0.7073 -15.749554,1.69993 -0.591186,0.0859 -1.373033,0.0951 -1.766016,0.0206 -0.663825,-0.12579 -0.714695,-0.10867 -0.867081,0.2921 -0.234181,0.61594 -0.63724,0.82399 -1.066891,0.55055 z m 23.052323,-6.82094 c -0.216832,-0.21685 -0.242204,-0.59608 -0.166389,-2.4824 0.04925,-1.22455 0.160105,-2.3113 0.246322,-2.41518 0.104193,-0.12552 0.07397,-0.25755 -0.09007,-0.39382 -0.309121,-0.2566 -0.321269,-0.79956 -0.02024,-0.91505 0.268565,-0.10309 2.095522,0.19549 2.792711,0.45645 1.075599,0.40237 1.540769,1.25938 0.985324,1.81483 -0.131298,0.1313 -0.745873,0.39291 -1.365696,0.58111 -0.619832,0.18828 -1.220648,0.45523 -1.334987,0.59301 -0.146976,0.17709 -0.180077,0.58448 -0.112781,1.38709 0.07467,0.89091 0.04198,1.18972 -0.151542,1.38312 -0.312085,0.31225 -0.463093,0.31041 -0.78268,-0.009 z m 1.696123,-4.43401 0.739904,-0.28332 -0.489682,-0.10538 c -1.013954,-0.21823 -1.224083,-0.17291 -1.224083,0.26402 0,0.48517 0.02419,0.48822 0.973861,0.12468 z m 39.897972,4.14687 c -0.0457,-0.11916 -0.008,-0.41338 0.0832,-0.65414 0.0915,-0.24058 0.25665,-1.24898 0.36687,-2.24133 0.15728,-1.41456 0.15783,-1.8634 0.003,-2.0797 -0.37052,-0.51604 -0.39894,-0.69569 -0.1548,-0.97555 0.14089,-0.16144 0.27956,-0.74823 0.32814,-1.38921 0.10054,-1.32721 0.39572,-1.74669 1.22958,-1.74669 0.71355,0 1.84049,0.55422 2.57289,1.26578 1.07491,1.04398 0.59257,1.97522 -1.203,2.32169 -1.83041,0.35318 -1.6629,0.2169 -1.66427,1.35255 -8.8e-4,1.05163 -0.21985,2.68435 -0.50206,3.75069 -0.13242,0.50015 -0.23624,0.61197 -0.56897,0.61197 -0.22374,0 -0.44429,-0.0975 -0.4899,-0.21666 z m 3.23513,-6.7382 c 0.6235,-0.12366 0.56278,-0.3089 -0.25916,-0.79071 -0.94911,-0.55607 -1.25043,-0.54139 -1.25043,0.0614 0,0.26195 -0.0486,0.60281 -0.10794,0.75742 -0.11221,0.29243 0.0108,0.29029 1.61753,-0.0281 z m -57.554407,5.97849 c -1.980723,-0.63092 -2.293136,-3.38285 -0.751136,-6.61426 0.67002,-1.40389 1.710559,-2.71827 2.458341,-3.10492 0.595774,-0.30797 1.362715,-0.30642 1.620044,0.004 0.110927,0.13365 0.260997,0.20643 0.333179,0.16171 0.07236,-0.0447 0.250908,0.0379 0.39665,0.18384 0.282988,0.28292 0.264886,0.71921 -0.115522,2.80961 -0.207184,1.13838 -0.529314,1.47843 -1.106986,1.16925 -0.29491,-0.1578 -0.317367,-0.26972 -0.206171,-1.02566 0.148887,-1.0125 0.147687,-1.73935 -0.0039,-2.13347 -0.292614,-0.76228 -2.081998,1.46742 -2.708915,3.37544 -0.469973,1.43015 -0.562772,2.22697 -0.350818,3.01372 0.321035,1.19215 1.498832,1.40203 3.011436,0.53647 1.064365,-0.60891 1.405107,-0.6367 1.405107,-0.11402 0,1.12037 -2.497855,2.21139 -3.981691,1.7386 z m 6.556825,-0.75129 c -0.150343,-0.32996 -0.131131,-1.17475 0.08817,-3.87621 0.154233,-1.89976 0.232811,-3.72903 0.174626,-4.0649 -0.171747,-0.99142 0.661307,-1.55664 1.096447,-0.74396 0.194131,0.36267 0.132277,2.67794 -0.156113,5.84289 -0.09812,1.07696 -0.07848,1.41641 0.08774,1.51783 0.117766,0.0718 0.214136,0.33089 0.214136,0.57562 0,1.05681 -1.112496,1.61014 -1.505001,0.74873 z m 16.397633,-0.8286 c -0.272674,-0.11007 -0.257556,-0.80596 0.03899,-1.78366 0.133672,-0.44056 0.243806,-0.84599 0.244726,-0.90098 6.49e-4,-0.0549 -0.32126,-0.0258 -0.716303,0.0645 -0.944756,0.2162 -1.276787,0.0807 -1.210568,-0.49373 0.04688,-0.40757 0.157335,-0.47693 1.194295,-0.75189 0.628315,-0.16661 1.161298,-0.32051 1.18468,-0.34189 0.02314,-0.0216 0.197999,-0.65566 0.388627,-1.40909 0.190541,-0.75343 0.438345,-1.4445 0.550398,-1.53555 0.115435,-0.0937 0.244726,-0.73267 0.298116,-1.47142 0.149175,-2.07177 0.516726,-2.75919 1.262353,-2.36019 0.387033,0.20718 0.401002,0.72471 0.06976,2.60492 -0.313241,1.77815 -0.328131,3.59056 -0.02962,3.59056 0.118354,0 0.577442,-0.10499 1.020147,-0.23331 1.045132,-0.30294 2.558438,-0.48059 2.972898,-0.34921 0.40969,0.13001 0.55475,0.64253 0.28574,1.01007 -0.15141,0.20706 -0.412,0.2717 -1.00275,0.24883 -0.818715,-0.0316 -3.164736,0.43874 -3.164736,0.63488 0,0.0979 0.215413,0.41583 1.067117,1.57469 0.34075,0.46348 0.0727,1.03115 -0.486927,1.03115 -0.392979,0 -1.126013,-0.7125 -1.301305,-1.26426 -0.05013,-0.15781 -0.232571,-0.37521 -0.405357,-0.48335 -0.289633,-0.18091 -0.349674,-0.0996 -0.76396,1.03665 -0.572859,1.5707 -0.835692,1.84873 -1.495854,1.58232 z m -13.415374,-0.61624 c -0.225823,-0.2721 -0.09365,-1.49829 0.252983,-2.34766 0.172576,-0.42284 0.302927,-0.5307 0.591867,-0.48975 0.400318,0.0569 0.402158,0.0721 0.199611,1.6031 -0.184117,1.39105 -0.552921,1.82672 -1.044461,1.23431 z m 31.001003,-0.0803 c -1.19887,-0.23959 -1.95665,-1.0513 -1.9578,-2.09743 -8.6e-4,-1.32903 1.47225,-4.22905 2.55566,-5.02901 0.68743,-0.50747 1.46536,-0.88206 1.83222,-0.88206 0.17844,0 0.55637,0.21177 0.83957,0.47051 l 0.51513,0.47051 -0.18867,0.90894 c -0.13789,0.6642 -0.2759,0.93643 -0.51306,1.01191 -0.48441,0.15374 -0.79834,-0.20929 -0.79834,-0.9233 0,-0.34799 -0.0631,-0.63275 -0.14023,-0.63275 -0.0771,0 -0.46814,0.28859 -0.86868,0.6413 -1.13472,0.99877 -2.21902,3.3258 -1.97842,4.24589 0.20947,0.8011 2.61093,0.86798 4.72782,0.1318 1.2729,-0.44272 1.68695,-0.37336 1.68695,0.28171 0,0.31897 -0.15284,0.44515 -0.85675,0.70759 -1.51625,0.56492 -3.84067,0.89764 -4.85545,0.69476 z m 8.81225,-1.56307 c -0.23622,-0.28453 -0.12772,-1.60583 0.28117,-3.42619 0.14114,-0.62847 0.26443,-1.61134 0.27382,-2.1848 0.0132,-0.80231 0.083,-1.08401 0.30294,-1.22333 0.2042,-0.12937 0.36456,-0.13109 0.56277,-0.006 0.51442,0.32448 0.54101,1.0055 0.12311,3.14309 -0.22019,1.12618 -0.40031,2.38585 -0.40031,2.79954 0,0.41369 -0.0881,0.84019 -0.19586,0.94773 -0.26855,0.26863 -0.70209,0.2457 -0.94764,-0.05 z m 15.59896,-0.17369 c -0.64618,-0.64619 0.0784,-1.27436 1.78847,-1.55024 1.29719,-0.20926 1.43375,-0.38588 0.42942,-0.55544 -1.30062,-0.21973 -2.08842,-1.07789 -1.68376,-1.83409 0.091,-0.17023 0.55636,-0.49434 1.0339,-0.72042 0.47753,-0.22595 1.05177,-0.49893 1.27634,-0.60677 0.33982,-0.16323 0.17611,-0.1816 -0.97936,-0.10986 -0.76305,0.0473 -1.91863,0.16904 -2.56811,0.27034 -0.92757,0.14468 -1.23395,0.14016 -1.42802,-0.0211 -0.29995,-0.2489 -0.32151,-0.71889 -0.0432,-0.94072 0.29879,-0.23834 4.22744,-0.58201 5.80986,-0.50806 1.17986,0.0551 1.40305,0.11354 1.66473,0.4369 0.53459,0.66022 0.22436,1.01098 -1.61409,1.82612 -0.91108,0.4039 -1.65671,0.77603 -1.65716,0.82705 -4.7e-4,0.051 0.54742,0.22176 1.21721,0.37977 1.38609,0.32661 2.04625,0.75618 2.04625,1.33118 0,0.56888 -0.54766,0.85121 -2.38434,1.22882 -0.88793,0.18255 -1.80909,0.43783 -2.0474,0.56737 -0.53779,0.29249 -0.54764,0.29225 -0.86072,-0.0209 z m -1.77976,-0.0155 c -0.0599,-0.0599 -0.10859,-0.29854 -0.1083,-0.53039 4.7e-4,-0.46593 0.57514,-3.53964 0.74379,-3.97933 0.13539,-0.35287 0.70233,-0.36173 0.83614,-0.0132 0.12424,0.32385 -0.38953,3.36954 -0.692,4.10141 -0.20515,0.49648 -0.52954,0.67184 -0.77963,0.42159 z m -10.62802,-0.85792 c -0.0573,-0.093 -0.0231,-0.32079 0.0762,-0.50625 0.0993,-0.18556 0.23326,-0.64557 0.29742,-1.02198 0.12718,-0.74488 0.57607,-1.02597 0.75205,-0.47113 0.14485,0.45647 -0.42254,2.05651 -0.7509,2.1176 -0.14871,0.0279 -0.31737,-0.0255 -0.37477,-0.11824 z M 81.048907,129.7543 c -0.215254,-0.21526 -0.10264,-0.69905 0.200462,-0.86128 0.230284,-0.12319 0.361135,-0.10304 0.512143,0.0789 0.164645,0.19838 0.14773,0.30537 -0.08977,0.56765 -0.310727,0.34311 -0.447064,0.39016 -0.622838,0.21469 z m 74.585943,-0.16322 c -0.0599,-0.0599 -0.10882,-0.23445 -0.10882,-0.38801 0,-0.15359 -0.10003,-0.36235 -0.22222,-0.46379 -0.32745,-0.2718 -0.47914,-1.82002 -0.20034,-2.04428 0.12159,-0.0978 0.33982,-0.7852 0.48509,-1.52762 0.36022,-1.8414 0.35633,-1.87805 -0.18486,-1.76441 -0.58112,0.1221 -0.8994,-0.092 -0.83042,-0.55849 0.0482,-0.32508 0.25893,-0.42163 1.68719,-0.77299 0.94269,-0.23198 2.1835,-0.41185 2.93772,-0.42621 1.22662,-0.023 1.30865,-0.004 1.35631,0.3318 0.0677,0.47603 -0.47983,0.75526 -1.24608,0.6358 -0.32996,-0.0514 -0.99769,-8.8e-4 -1.48395,0.11093 l -0.88402,0.20436 -0.28712,1.71126 c -0.1579,0.94131 -0.27223,1.72622 -0.25389,1.74456 0.0182,0.0182 0.32492,-0.0287 0.68147,-0.10423 2.02747,-0.42957 3.07339,-0.23703 2.68243,0.49342 -0.13063,0.2441 -0.34509,0.315 -0.95163,0.315 -0.43079,0 -1.19934,0.0836 -1.70805,0.18573 -0.90283,0.18133 -0.92482,0.19871 -0.92482,0.73144 0,0.73204 0.33915,0.80047 2.35414,0.47631 1.63929,-0.26377 2.05244,-0.19719 2.05244,0.33058 0,0.32875 -0.21484,0.40482 -1.84118,0.65229 -1.62349,0.24718 -2.93509,0.30039 -3.10936,0.12611 z m 5.43466,-0.71768 c -0.2477,-0.46286 -0.0307,-0.68774 1.44384,-1.49706 l 1.21446,-0.66667 -0.0615,-3.09722 c -0.0566,-2.85056 -0.0379,-3.11169 0.23373,-3.27888 0.40903,-0.25174 0.81554,0.29407 0.71538,0.96089 -0.0405,0.26929 -0.0209,1.95841 0.0435,3.75377 0.0646,1.80414 0.0531,3.39191 -0.0255,3.54978 -0.14954,0.29986 -0.70026,0.38954 -0.85493,0.13927 -0.0498,-0.0805 -0.53734,-0.007 -1.08499,0.1632 -1.25159,0.38956 -1.40214,0.3871 -1.62392,-0.0271 z m 15.78234,-0.42467 c -0.0599,-0.0599 -0.1088,-0.27879 -0.1088,-0.48639 0,-0.37947 0.18679,-0.47509 1.13677,-0.58295 0.37832,-0.043 0.41886,-0.14721 0.6817,-1.75952 0.15371,-0.94256 0.32103,-1.92176 0.37167,-2.17596 l 0.0922,-0.46225 -0.50869,0.42803 c -0.544,0.45768 -0.75481,0.46807 -1.01833,0.0503 -0.22845,-0.36205 0.11156,-1.06995 0.60403,-1.25693 0.41978,-0.15964 1.01464,-0.82584 1.44887,-1.62234 0.30064,-0.55147 0.88563,-0.69416 1.05359,-0.2566 0.0535,0.13947 -0.0209,0.5252 -0.16545,0.85669 -0.23441,0.53834 -1.08453,5.04367 -1.08453,5.74824 0,0.24419 0.1417,0.26875 1.1393,0.19738 0.98441,-0.0705 1.1542,-0.0423 1.24998,0.20718 0.061,0.15879 0.0387,0.403 -0.0493,0.54231 -0.22858,0.36236 -1.02817,0.60037 -1.34714,0.40115 -0.17497,-0.10928 -0.65719,-0.0922 -1.4828,0.0526 -1.40119,0.24566 -1.85858,0.27262 -2.01233,0.11866 z M 167.805,127.864 c -0.0984,-0.12192 -0.12294,-0.63091 -0.0609,-1.26489 0.0976,-0.9951 0.12931,-1.06077 0.51212,-1.06077 0.38566,0 0.41064,0.0549 0.45624,1.00121 0.0361,0.75218 -0.0176,1.06657 -0.21566,1.26487 -0.3169,0.31712 -0.47295,0.33058 -0.6919,0.0596 z m -43.28843,-0.25298 c 0,-0.34372 0.30109,-0.6856 0.60379,-0.6856 0.30797,0 0.25986,0.39596 -0.0864,0.70913 -0.38381,0.34738 -0.51763,0.34127 -0.5175,-0.0235 z m 46.41778,-0.27716 c -0.19806,-0.30227 -0.23922,-0.59425 -0.15901,-1.1286 l 0.10812,-0.72105 -0.77748,0.0271 c -0.64963,0.0226 -0.78802,-0.0247 -0.84165,-0.28854 -0.0876,-0.43017 0.39481,-0.74517 1.14181,-0.74517 0.52086,0 0.63451,-0.0634 0.71929,-0.40147 0.14419,-0.57438 0.49495,-0.83347 0.79353,-0.58599 0.12931,0.10731 0.19489,0.29993 0.14574,0.42805 -0.0631,0.1645 0.0338,0.23287 0.33043,0.23287 0.44041,0 0.81643,0.46042 0.62396,0.7635 -0.0611,0.0961 -0.34051,0.22449 -0.62098,0.28532 -0.45096,0.0978 -0.52062,0.18958 -0.6015,0.79255 -0.0503,0.37516 -0.0666,0.70698 -0.0363,0.73723 0.0304,0.0304 0.35379,-0.0342 0.71881,-0.14357 0.52933,-0.15862 0.71401,-0.15687 0.91359,0.009 0.32998,0.27377 0.31554,0.42834 -0.0764,0.82033 -0.24701,0.24695 -0.54398,0.32631 -1.22019,0.32631 -0.77313,0 -0.92986,-0.0551 -1.16108,-0.40757 z m -3.82736,-3.27264 c -0.17345,-0.209 -0.16273,-0.30023 0.0616,-0.5246 0.25161,-0.25148 0.29146,-0.25182 0.5387,-0.005 0.29675,0.29664 0.19708,0.78215 -0.16041,0.78215 -0.12646,0 -0.32447,-0.11384 -0.43992,-0.25309 z m -62.71938,-22.05207 c -0.20611,-0.20611 -0.1077,-0.97003 0.31118,-2.414566 0.40008,-1.379752 0.41636,-1.610721 0.15883,-2.233692 -0.0741,-0.179201 0.0385,-0.40757 0.33798,-0.685301 0.33548,-0.31102 0.54056,-0.779691 0.81095,-1.853002 l 0.36182,-1.436591 -0.59601,-0.0816 c -0.49884,-0.0682 -0.596,-0.145851 -0.596,-0.476001 0,-0.31806 0.13244,-0.43843 0.68514,-0.62267 0.65903,-0.219655 0.68698,-0.256873 0.73442,-0.97615 0.0601,-0.911992 0.4938,-1.303985 0.87486,-0.790693 0.12941,0.174243 0.23532,0.521533 0.23532,0.771756 v 0.455024 l 1.12144,-0.404502 c 1.28388,-0.463181 2.63239,-0.546891 2.63239,-0.163466 0,0.357778 -0.68881,0.746089 -2.34151,1.320791 l -1.47775,0.51358 -0.28438,1.288102 c -0.15634,0.70851 -0.28848,1.341251 -0.29353,1.406331 -0.005,0.0651 0.17904,0.0467 0.40926,-0.0408 0.50916,-0.19359 2.02953,-0.211881 2.02953,-0.02441 0,0.29739 -0.79284,0.840801 -1.82881,1.253561 -1.22065,0.486101 -1.0151,0.142191 -1.85193,3.100004 -0.48281,1.706375 -1.02657,2.501045 -1.4332,2.094295 z m -43.081578,-0.34493 c -0.593478,-0.65566 -0.269473,-1.5099 0.74495,-1.964526 0.921383,-0.413071 5.832509,-4.422795 5.832509,-4.762075 0,-0.0768 -0.403979,-0.36541 -0.897558,-0.6413 -0.493806,-0.27605 -1.298553,-0.726231 -1.788699,-1.000291 -0.490139,-0.274061 -0.985767,-0.485791 -1.101719,-0.4702 -0.458059,0.0609 -0.618687,-0.0242 -0.618687,-0.327531 0,-0.35686 0.06641,-0.411541 0.678947,-0.557589 0.34463,-0.08218 0.577221,0.01595 1.128534,0.476629 0.931701,0.778481 3.500035,2.029912 4.165811,2.029912 0.65856,0 1.044671,0.36509 1.044671,0.987151 0,0.545361 -0.443858,0.908021 -1.314144,1.073921 -0.852411,0.16253 -1.239898,0.40054 -3.266075,2.006992 -1.180551,0.936131 -2.110875,1.824917 -2.531489,2.418857 -0.565754,0.79864 -0.749758,0.94621 -1.232335,0.98776 -0.39321,0.0337 -0.652372,-0.0452 -0.844716,-0.25771 z m 36.534589,-0.0766 c -0.223413,-0.72501 -0.225148,-1.22027 -0.0088,-2.353166 0.337523,-1.764103 0.363421,-1.686192 -0.55797,-1.686192 -1.096675,0 -1.31894,-0.11241 -1.31894,-0.667261 0,-0.545671 0.285286,-0.656271 1.536631,-0.59577 0.791695,0.0383 0.804071,0.0313 0.94407,-0.532541 0.294908,-1.185751 0.752503,-1.669991 1.215394,-1.285951 0.214248,0.17783 0.19709,0.75556 -0.04911,1.653181 -0.05912,0.215501 0.01964,0.285631 0.320569,0.285631 0.439045,0 0.851725,0.38129 0.692245,0.63947 -0.0559,0.0902 -0.35587,0.211771 -0.666815,0.27011 -0.310941,0.0583 -0.565755,0.11628 -0.565976,0.128731 -0.0068,0.31072 -0.708972,3.579778 -0.837515,3.898848 -0.186531,0.46319 -0.593026,0.60465 -0.703931,0.24481 z m -26.577636,-0.77793 c -0.758235,-0.59639 -0.603102,-0.999397 0.993109,-2.577429 0.789175,-0.78031 1.993783,-2.116372 2.677265,-2.969092 l 1.242424,-1.550552 -1.085915,-0.33852 c -0.597379,-0.186211 -1.618901,-0.615631 -2.270126,-0.954451 -1.255476,-0.652911 -1.5387,-1.06018 -1.1904,-1.710949 0.327672,-0.612277 1.477055,-0.368779 1.477055,0.313161 0,0.723488 2.723925,1.793428 4.565367,1.793428 1.297639,0 1.692466,0.28453 1.607221,1.158561 -0.04461,0.457061 -0.185381,0.613801 -0.953244,1.061391 -0.963546,0.561861 -1.852626,1.450931 -3.65871,3.658674 -1.895476,2.317408 -2.595077,2.752168 -3.403863,2.116068 z m 11.994662,0.13316 c -0.28299,-0.28308 -0.245182,-0.63273 0.202346,-1.865548 0.247251,-0.68101 0.363195,-1.271891 0.305907,-1.557851 -0.06932,-0.34648 -0.02962,-0.461041 0.159912,-0.461041 0.160971,0 0.349909,-0.3098 0.522449,-0.856701 0.148755,-0.47112 0.336615,-1.065061 0.417495,-1.319251 l 0.146977,-0.462571 -0.626941,0.10591 c -0.611357,0.103271 -1.16107,-0.16821 -1.16107,-0.57348 0,-0.25821 0.714927,-0.82216 1.499517,-1.182372 0.420704,-0.19332 0.841415,-0.519399 0.934897,-0.724399 0.240152,-0.526734 0.829732,-0.500761 0.829732,0.03654 0,0.407261 0.0092,0.404831 1.792594,-0.489756 0.985999,-0.494341 1.901441,-0.898854 2.034343,-0.898854 0.300858,0 0.609526,0.548102 0.487622,0.865855 -0.04996,0.130165 -1.108384,0.720735 -2.351869,1.312536 -2.507959,1.193382 -2.481467,1.162531 -2.517898,2.926013 -0.01569,0.758931 -0.0044,0.776961 0.411772,0.685301 0.551318,-0.121141 1.238053,0.0524 1.34873,0.34066 0.141534,0.36877 -0.327896,0.685291 -1.192919,0.804441 -0.4466,0.0615 -0.876706,0.19712 -0.955983,0.30152 -0.07914,0.104401 -0.344869,0.752211 -0.590272,1.439332 -0.574698,1.607986 -1.139766,2.131966 -1.697727,1.574066 z m 24.685903,-0.20474 c -0.22959,-0.22966 -0.40054,-0.59058 -0.40054,-0.846006 0,-0.647401 0.61503,-1.816353 1.33385,-2.535253 0.5064,-0.506251 0.74289,-0.624492 1.24906,-0.624492 0.70164,0 1.23738,0.441802 1.41771,1.168632 0.12442,0.501371 -0.38312,1.785812 -0.94841,2.399909 -0.79811,0.86708 -2.02037,1.06843 -2.65167,0.43721 z m 1.56689,-1.073007 c 0.3719,-0.19901 0.80706,-0.984091 0.80706,-1.455841 0,-0.429561 -0.33044,-0.435661 -0.44227,-0.008 -0.0468,0.17953 -0.17111,0.326311 -0.27587,0.326311 -0.20171,0 -0.75068,0.824 -0.75068,1.12676 0,0.2244 0.25504,0.22856 0.66176,0.0109 z m -19.049368,0.906187 c -0.189244,-0.13255 -0.39321,-0.4369 -0.453251,-0.676437 -0.106523,-0.424371 -0.114971,-0.427131 -0.338674,-0.10791 -0.356088,0.508407 -1.153517,0.782157 -1.637004,0.561877 -0.648016,-0.29527 -0.541002,-1.003968 0.261002,-1.728678 0.363878,-0.32874 0.838663,-0.678251 1.054969,-0.776941 l 0.393439,-0.17926 -0.524509,-0.26208 c -0.653968,-0.32691 -0.765337,-0.866461 -0.252747,-1.225462 0.432849,-0.30322 1.060482,-0.3434 1.150538,-0.0738 0.04601,0.13793 0.281613,0.130531 0.901218,-0.0283 0.687207,-0.176141 0.884962,-0.176781 1.093704,-0.003 0.37556,0.31164 0.313926,0.723481 -0.243806,1.629672 -0.558654,0.908011 -0.778404,1.855152 -0.506413,2.182982 0.133148,0.160427 0.115093,0.308887 -0.06976,0.572547 -0.295136,0.42131 -0.375569,0.43262 -0.828742,0.11534 z m 24.295618,0.0451 c -0.258,-0.25794 -0.2477,-0.798345 0.0294,-1.555445 0.12386,-0.338521 0.28918,-0.908322 0.36732,-1.266402 0.22256,-1.020441 1.03045,-0.972791 1.03709,0.0615 0.003,0.35808 0.043,0.338231 0.50046,-0.2448 0.5174,-0.65932 0.94338,-1.042451 1.159,-1.042451 0.0691,0 0.27543,0.16073 0.45851,0.35716 l 0.33272,0.35716 v -0.65109 c 0,-1.027771 0.58385,-1.385552 1.06437,-0.651981 0.2262,0.345251 0.2296,0.504111 0.0298,1.369371 -0.27314,1.182071 -0.97776,2.437473 -1.50226,2.676408 -0.51283,0.23361 -1.17712,0.0485 -1.30819,-0.364795 -0.0965,-0.30399 -0.16843,-0.26713 -0.79741,0.408485 -0.70966,0.76198 -1.02794,0.88908 -1.37052,0.54658 z m 29.1092,-0.49343 c -0.53964,-0.770535 -0.38519,-1.007936 2.44867,-3.761148 1.48646,-1.444222 2.77302,-2.757053 2.85889,-2.917463 0.12763,-0.23847 0.0589,-0.34005 -0.37694,-0.556051 -2.57252,-1.274961 -3.97188,-3.15968 -2.4551,-3.306675 0.4569,-0.04425 0.53733,0.0079 0.63221,0.407874 0.19941,0.842038 0.84896,1.491576 2.08794,2.087351 0.65695,0.31592 1.41428,0.57469 1.6826,0.57469 0.58729,0 1.06896,0.479681 1.06896,1.064141 0,0.52277 -0.59142,1.184831 -1.34438,1.505032 -0.5802,0.246879 -3.50506,3.087273 -4.62307,4.489674 -0.51901,0.651075 -0.70668,0.775115 -1.17184,0.775115 -0.38725,0 -0.63015,-0.10907 -0.80794,-0.36254 z m -31.9907,-0.224545 c -0.47616,-0.476 0.13428,-2.750032 0.91451,-3.406514 0.62305,-0.524289 1.18491,-0.524289 1.70919,-1.7e-4 0.53138,0.531622 0.43216,0.798652 -0.32057,0.862192 -0.74335,0.0628 -1.02565,0.452481 -1.17986,1.627841 -0.0764,0.582031 -0.20878,0.913831 -0.40697,1.020166 -0.38496,0.20599 -0.41016,0.20233 -0.71607,-0.103584 z M 92.427267,99.760753 c -0.176229,-0.45921 0.02647,-0.799261 0.590044,-0.989901 0.529777,-0.17932 0.544447,-0.201921 0.204388,-0.31103 -0.417723,-0.13388 -0.659251,-0.835001 -0.418871,-1.215981 0.276574,-0.438441 1.91334,-1.491902 2.252936,-1.449732 0.522222,0.0646 0.468148,0.52612 -0.136811,1.167731 l -0.562544,0.596681 0.633582,0.32326 c 0.803599,0.41001 1.020835,1.053131 0.498385,1.475992 -0.67437,0.545961 -2.893994,0.838357 -3.061109,0.40298 z m 30.952493,-0.32997 -0.37764,-0.402071 -0.40719,0.320501 c -0.56599,0.44514 -1.87394,0.44179 -2.32175,-0.006 -0.52978,-0.529781 -0.42071,-1.182681 0.30796,-1.840782 0.77588,-0.700871 1.47157,-0.883581 2.12463,-0.557581 0.44843,0.223691 0.4828,0.217101 0.57034,-0.10976 0.0513,-0.19126 0.0944,-0.39902 0.0955,-0.461941 8.8e-4,-0.0629 -0.42003,-0.13631 -0.93629,-0.163229 -0.8884,-0.0463 -0.9411,-0.0729 -0.99012,-0.497691 -0.0413,-0.358081 0.0351,-0.48182 0.37785,-0.611961 0.60699,-0.23076 2.25018,-0.2029 2.58764,0.0438 0.3797,0.27769 0.38542,0.648631 0.0293,1.958422 -0.26328,0.968211 -0.27337,1.186651 -0.0819,1.766852 0.18662,0.565531 0.18433,0.683761 -0.0157,0.810251 -0.36732,0.23241 -0.55704,0.18339 -0.96309,-0.24874 z m -1.06645,-1.221191 c 0.37695,-0.178391 0.53001,-0.314381 0.36205,-0.322021 -0.32469,-0.0147 -1.42276,0.409421 -1.42276,0.549641 0,0.169 0.40766,0.0816 1.06093,-0.22754 z m 9.00363,1.187901 c -0.0599,-0.0599 -0.1088,-0.32539 -0.1088,-0.590301 0,-0.42375 -0.044,-0.468051 -0.36733,-0.369061 -0.20196,0.0618 -0.89594,0.153241 -1.54213,0.203171 l -1.17482,0.0907 -0.11403,-0.45431 c -0.0966,-0.38466 -0.0292,-0.52672 0.44042,-0.926352 1.11502,-0.949271 1.76051,-1.314081 2.1835,-1.23311 l 0.41109,0.0786 -0.003,-1.568561 c -0.002,-0.862811 -0.0755,-2.258142 -0.16423,-3.101177 -0.17046,-1.61837 -0.0811,-1.976448 0.49357,-1.976448 0.60998,0 0.67574,0.37458 0.82399,4.698105 0.0797,2.323812 0.19222,4.348074 0.25,4.498564 0.0577,0.150451 0.0143,0.38281 -0.0965,0.516321 -0.20584,0.24805 -0.83591,0.32997 -1.03193,0.133789 z m -5.94348,-0.488841 c -0.28735,-0.11592 -0.26742,-2.362042 0.0271,-3.067023 0.12715,-0.30432 0.4214,-0.677961 0.65376,-0.830121 0.36066,-0.23638 0.4954,-0.24675 0.91977,-0.0709 0.5291,0.21911 1.2651,1.398082 1.02359,1.639442 -0.0746,0.0747 -0.44272,-8.81e-4 -0.81758,-0.16946 l -0.68194,-0.305291 -0.10244,1.088602 c -0.15488,1.645861 -0.35632,1.983461 -1.02232,1.714761 z m 12.61706,-0.25465 c -0.49266,-0.703321 -0.26513,-1.360502 0.6714,-1.939472 0.85423,-0.527951 2.79456,-2.305493 3.25289,-2.980103 l 0.38657,-0.568891 -0.77267,-0.25021 c -0.42507,-0.13761 -1.43376,-0.37059 -2.24172,-0.518171 -1.62829,-0.29689 -1.87691,-0.426821 -1.87691,-0.980748 0,-0.73569 0.83408,-1.001497 1.4688,-0.468367 0.25343,0.212875 4.06238,1.291765 5.20631,1.474786 0.82011,0.13114 1.32194,0.58966 1.32194,1.207731 0,0.56186 -0.54951,1.142361 -1.0811,1.142361 -0.88771,0 -2.08957,0.888471 -3.53231,2.611333 -1.25112,1.494011 -1.42024,1.632111 -1.99767,1.632111 -0.38519,0 -0.62854,-0.10954 -0.80568,-0.36266 z M 18.703611,90.094569 c -0.05984,-0.05986 -0.108799,-0.341883 -0.108799,-0.626932 0,-0.464409 -0.06873,-0.538646 -0.662919,-0.716769 -0.480742,-0.144066 -0.64802,-0.274453 -0.608369,-0.474784 0.04092,-0.20714 0.226774,-0.276031 0.744714,-0.276031 h 0.690178 l -0.0052,-1.550542 c -0.0032,-0.85272 -0.11722,-2.358356 -0.253663,-3.345784 -0.158671,-1.14755 -0.282074,-3.782342 -0.342112,-7.303549 l -0.09394,-5.508263 h -1.039854 c -0.931002,0 -1.039854,-0.03418 -1.039854,-0.326301 0,-0.280895 0.108812,-0.326299 0.780241,-0.326299 0.771523,0 0.782981,-0.0079 1.02014,-0.693546 0.196049,-0.567048 0.314162,-0.693536 0.647792,-0.693536 0.315068,0 0.446605,0.119012 0.576984,0.522443 0.09289,0.287388 0.209437,0.563087 0.258935,0.612585 0.04953,0.04951 1.001815,0.0088 2.115908,-0.09102 1.114334,-0.09962 3.604957,-0.154953 5.534896,-0.122982 10.863589,0.179965 25.993833,-0.145285 31.580696,-0.678882 5.545938,-0.529777 24.037151,-0.681013 36.313723,-0.297458 9.850012,0.307966 18.789982,0.385875 26.602852,0.232615 5.58876,-0.109731 9.22391,-0.09341 13.79107,0.06196 3.41103,0.116023 8.22158,0.183073 10.69009,0.149 6.01413,-0.08299 12.02414,-0.07801 23.74673,0.01963 7.23743,0.06029 10.62285,0.02455 12.97501,-0.137039 1.75042,-0.120256 4.6779,-0.21394 6.50555,-0.208199 3.11287,0.0098 3.3399,-0.0099 3.59056,-0.310718 0.51718,-0.620832 0.70988,-0.180403 0.7603,1.738436 0.0257,0.975543 0.12406,2.72865 0.21854,3.895604 0.28691,3.543941 0.5628,11.15968 0.45784,12.641304 -0.0959,1.354084 -0.58683,3.272783 -0.9491,3.709287 -0.24198,0.291533 -0.70485,0.270965 -0.9654,-0.04286 -0.16492,-0.198727 -0.17267,-0.367542 -0.0337,-0.735707 0.0992,-0.262719 0.1185,-0.439343 0.043,-0.392904 -0.0756,0.04663 -1.1526,-0.02112 -2.39354,-0.15064 -2.28045,-0.238005 -4.06951,-0.346773 -8.37655,-0.509007 -1.30153,-0.04908 -5.04721,-0.195563 -8.3236,-0.325687 -3.27639,-0.130028 -8.12367,-0.278301 -10.7717,-0.329666 -2.64806,-0.05118 -5.07168,-0.132542 -5.38586,-0.180734 -0.88175,-0.13525 -32.39496,-0.173058 -35.25287,-0.04224 -1.39127,0.06389 -7.96447,0.171751 -14.60703,0.239934 -9.17754,0.09422 -13.155001,0.07221 -16.565572,-0.09163 -4.777038,-0.229496 -10.008835,-0.258399 -21.70663,-0.119932 -12.83586,0.151937 -19.442575,0.289939 -22.033051,0.460228 -1.391351,0.09146 -6.60584,0.187921 -11.58774,0.214344 -8.253091,0.04382 -9.275579,0.07931 -11.506154,0.399636 -1.346446,0.193449 -2.76024,0.39321 -3.14175,0.443925 -0.624867,0.08299 -0.69361,0.136479 -0.69361,0.538943 0,0.245842 -0.08813,0.534982 -0.195848,0.64283 -0.211113,0.211109 -0.823776,0.264375 -1.000973,0.08702 z m 4.379425,-2.604303 c 2.494519,-0.3984 3.049278,-0.423148 12.403775,-0.552991 5.385859,-0.07485 10.637049,-0.209428 11.669346,-0.299098 1.032291,-0.08968 4.31887,-0.214282 7.303542,-0.2769 l 5.426646,-0.113858 0.0013,-6.141609 c 6.53e-4,-5.944215 0.107252,-7.964808 0.51328,-9.779656 0.137559,-0.614723 0.263288,-0.849977 0.436517,-0.816061 0.211504,0.04127 0.246332,1.121583 0.266269,8.243232 0.0126,4.507656 0.07775,8.250586 0.144783,8.317654 0.06705,0.06705 3.294906,0.09094 7.172999,0.05312 11.26393,-0.109889 19.400675,-0.05284 23.658023,0.165817 4.334093,0.222626 21.526984,0.116515 28.838264,-0.177982 2.19473,-0.0884 9.08052,-0.170542 15.30171,-0.182531 6.2212,-0.012 11.27704,-0.05608 11.2352,-0.09788 -0.0419,-0.0418 0.0334,-0.287706 0.1671,-0.546279 0.21174,-0.409406 0.21899,-1.045505 0.0562,-4.91636 -0.18375,-4.367881 -0.14062,-9.905012 0.0812,-10.420126 0.10164,-0.23607 -0.15723,-0.253992 -2.63575,-0.182435 -1.51165,0.04365 -4.28786,-0.0026 -6.1694,-0.103262 -5.94487,-0.317441 -11.53691,-0.382214 -18.35456,-0.213338 -6.09962,0.151193 -20.02435,0.02515 -23.828322,-0.215666 C 94.50286,69.09045 78.634031,68.817003 78.469499,68.91875 c -0.08337,0.05153 -4.170183,0.160919 -9.081832,0.243098 -5.53292,0.09258 -9.799491,0.239303 -11.215158,0.385577 -3.651383,0.377631 -4.041134,0.392905 -15.138447,0.596996 -8.09863,0.148939 -11.188233,0.14965 -13.219825,0.0026 -2.87894,-0.207753 -6.278149,-0.226719 -8.853074,-0.04942 l -1.632197,0.112385 0.01574,5.059437 c 0.01137,3.660376 0.09124,5.668719 0.288952,7.262773 0.233492,1.883869 0.361594,3.424788 0.417044,5.01865 0.01553,0.44546 -0.159682,0.448817 3.032116,-0.06092 z m 12.497931,-1.923281 c -0.195086,-0.23506 -0.113237,-4.534786 0.09265,-4.867932 0.05305,-0.08589 0.0045,-0.327834 -0.107643,-0.537725 -0.344397,-0.643739 -0.09922,-0.951102 0.66177,-0.829506 2.293659,0.366631 3.300466,0.840197 3.388937,1.593931 0.06389,0.544143 -0.299485,0.898548 -1.157626,1.129523 -0.376949,0.10151 -0.970426,0.329973 -1.318953,0.50779 l -0.633585,0.323241 0.07844,1.22241 c 0.05919,0.922691 0.02141,1.279234 -0.154285,1.454912 -0.295374,0.295374 -0.606084,0.296478 -0.84967,0.0034 z m 2.272411,-4.706064 c 0,-0.068 -0.100982,-0.123692 -0.224406,-0.123692 -0.12343,0 -0.45394,-0.04592 -0.73441,-0.102012 -0.480508,-0.09612 -0.510076,-0.07371 -0.510076,0.387716 v 0.489751 l 0.73441,-0.264094 c 0.403979,-0.145259 0.734404,-0.319885 0.734482,-0.387672 z m -15.096715,3.573088 c -1.06575,-0.495869 -1.551535,-1.390139 -1.548553,-2.850553 0.0065,-2.982844 2.477134,-7.04813 4.283766,-7.04813 0.211714,0 0.527494,0.107828 0.701643,0.239617 0.174242,0.131789 0.437432,0.241958 0.585008,0.244815 0.392525,0.0079 0.450037,0.307966 0.301091,1.568568 -0.258699,2.189085 -0.4379,2.680066 -0.977297,2.680066 -0.529093,0 -0.663832,-0.375185 -0.518096,-1.441468 0.171029,-1.250517 0.0748,-1.985917 -0.259855,-1.985917 -0.418406,0 -1.499967,1.317427 -2.076491,2.529751 -0.96057,2.019523 -1.134263,4.077082 -0.400311,4.741452 0.518782,0.46929 1.579479,0.378542 2.636093,-0.226017 1.355609,-0.77573 1.756155,-0.632434 1.205983,0.431403 -0.51512,0.996008 -2.798561,1.64434 -3.932981,1.116413 z m 6.778874,-0.585084 c -0.227826,-0.425594 -0.212979,-1.364172 0.07086,-4.478786 0.131888,-1.447271 0.223694,-3.02562 0.204005,-3.507221 -0.02839,-0.693844 0.02565,-0.914128 0.260082,-1.060781 0.242889,-0.152015 0.352418,-0.116207 0.612037,0.200163 0.387259,0.472041 0.406277,1.652281 0.08014,5.000562 -0.19068,1.957503 -0.18972,2.303662 0.0068,2.415487 0.305223,0.173698 0.291701,0.931858 -0.02473,1.383725 -0.314847,0.449432 -0.979821,0.475397 -1.209115,0.04689 z M 45.707071,82.66257 c -0.08572,-0.231749 -0.02637,-0.710041 0.16722,-1.346443 0.384505,-1.26396 0.387715,-1.244408 -0.175415,-1.048266 -0.263059,0.09167 -0.685369,0.142935 -0.938345,0.11392 -0.39092,-0.04478 -0.46035,-0.12655 -0.46035,-0.54231 0,-0.469894 0.04509,-0.500452 1.112952,-0.759228 0.612043,-0.148328 1.143889,-0.300623 1.181688,-0.338526 0.03779,-0.03777 0.221749,-0.683457 0.4088,-1.434746 0.186987,-0.751289 0.436054,-1.443606 0.553375,-1.538317 0.126498,-0.102237 0.251599,-0.703929 0.307286,-1.478135 0.149175,-2.071765 0.516718,-2.759201 1.262348,-2.36019 0.387023,0.207177 0.401008,0.72471 0.06979,2.604918 -0.291478,1.654418 -0.326078,3.590563 -0.06434,3.590563 0.09926,0 0.595089,-0.104946 1.101726,-0.233211 0.506637,-0.128258 1.344149,-0.283675 1.860876,-0.345238 1.056122,-0.126068 1.426879,0.04916 1.426879,0.67429 0,0.479982 -0.47891,0.746704 -1.112951,0.619912 -0.267869,-0.05355 -1.08316,0.03145 -1.811841,0.188937 -1.215153,0.262526 -1.316656,0.314688 -1.222253,0.629078 0.05658,0.188597 0.306136,0.563079 0.554525,0.832556 0.548344,0.594549 0.656726,0.889992 0.463788,1.264868 -0.233039,0.453095 -0.878534,0.348614 -1.306345,-0.211555 -0.208803,-0.273446 -0.569873,-0.725926 -0.802228,-1.005787 l -0.422544,-0.508394 -0.461961,1.266701 C 47.14564,81.99457 46.834923,82.667335 46.709124,82.793209 46.365398,83.136924 45.858533,83.07088 45.7071,82.66257 Z M 32.468752,82.289217 c -0.233723,-0.281728 -0.103063,-1.477822 0.25573,-2.339105 0.175756,-0.421929 0.308199,-0.530696 0.596459,-0.489752 0.400312,0.05679 0.402152,0.07213 0.199609,1.60309 -0.185121,1.398395 -0.552698,1.826739 -1.051772,1.225468 z m 0.384277,-4.571297 c -0.143229,-0.373353 0.05742,-0.734489 0.408102,-0.734489 0.434691,0 0.54903,0.405744 0.202741,0.719214 -0.357926,0.323855 -0.491054,0.327211 -0.610843,0.01525 z m 159.949141,9.833272 c 0.26398,-0.944382 0.26969,-3.240892 0.0199,-8.201218 -0.14904,-2.962372 -0.31256,-6.38979 -0.36343,-7.61681 l -0.0924,-2.23095 -1.97706,-0.06511 c -1.08729,-0.03584 -4.18025,0.03742 -6.87316,0.162769 -3.79229,0.176519 -7.10417,0.198104 -14.6887,0.09576 -9.99151,-0.134831 -19.82854,-0.112158 -19.98667,0.04608 -0.0483,0.04837 -0.0569,2.744226 -0.0189,5.990594 0.038,3.246447 0.0746,6.875755 0.0816,8.065135 l 0.0126,2.162505 0.65284,-5.08e-4 c 1.14433,-6.58e-4 13.03815,0.319281 18.19766,0.489455 16.55697,0.546576 24.15189,0.957209 24.5546,1.326891 0.2468,0.226691 0.37076,0.168745 0.48075,-0.224816 z m -24.6971,-3.049448 c -0.19413,-0.122859 -0.20125,-0.292446 -0.0429,-1.017398 0.10461,-0.478458 0.27383,-1.596369 0.37626,-2.484232 0.16626,-1.442993 0.15783,-1.629668 -0.0796,-1.762572 -0.33363,-0.186658 -0.34807,-0.926966 -0.0208,-1.052533 0.18151,-0.06967 0.24472,-0.358077 0.24472,-1.115474 0,-1.684977 0.72707,-2.245007 2.1425,-1.650142 0.90534,0.380373 1.86842,1.166191 2.09253,1.707273 0.3994,0.964238 -0.36044,1.509904 -2.62685,1.887839 l -0.5951,0.09916 -0.11198,1.505321 c -0.17059,2.293276 -0.62351,4.042956 -1.04352,4.032695 -0.0563,-8.76e-4 -0.20726,-0.0688 -0.33536,-0.14994 z m 3.00749,-6.929864 0.65283,-0.202477 -0.80728,-0.519391 c -0.44386,-0.28568 -0.89504,-0.519401 -1.0025,-0.519401 -0.24472,0 -0.39345,0.375193 -0.39345,0.99266 0,0.413675 0.0589,0.474479 0.4489,0.463787 0.24678,-0.0071 0.74265,-0.103659 1.10172,-0.215018 z m -17.46323,3.583291 c -1.67596,-0.621437 -1.87324,-2.357129 -0.54994,-4.839615 0.71973,-1.350422 1.48277,-2.176868 2.45937,-2.663572 1.05199,-0.524282 1.12784,-0.523668 1.76762,0.01455 0.4938,0.415514 0.51396,0.477237 0.40993,1.260909 -0.12268,0.924818 -0.31462,1.239823 -0.75549,1.239823 -0.40994,0 -0.65673,-0.520926 -0.53527,-1.129226 0.13773,-0.688654 -0.0802,-0.63885 -1.06002,0.24209 -1.44268,1.297261 -2.42444,3.87571 -1.71218,4.497489 0.16628,0.145136 0.51467,0.302007 0.77429,0.348603 0.71721,0.128731 2.66841,-0.159237 3.82212,-0.563997 1.08086,-0.379154 1.52266,-0.311639 1.63333,0.249503 0.17855,0.906801 -4.63952,1.94192 -6.25376,1.343437 z m 9.33754,-1.335453 c -0.22225,-0.222231 -0.10964,-1.786102 0.26008,-3.611036 0.23486,-1.159469 0.31872,-1.93031 0.2278,-2.092852 -0.20387,-0.364184 -0.005,-1.009451 0.37327,-1.212015 0.2539,-0.135889 0.38955,-0.10286 0.65101,0.158492 0.42001,0.420099 0.4191,0.991127 -0.005,3.069342 -0.18421,0.903129 -0.3861,2.106906 -0.4489,2.674877 -0.10462,0.948655 -0.14759,1.036644 -0.52794,1.080944 -0.22777,0.02657 -0.46653,-0.0044 -0.53059,-0.06774 z m 15.58428,-0.257741 c -0.28276,-0.282859 -0.24082,-0.692022 0.10297,-1.003352 0.16437,-0.148729 0.94591,-0.400537 1.7369,-0.559723 l 1.43811,-0.289255 -0.88013,-0.220873 c -1.09576,-0.274962 -1.70186,-0.617467 -1.9129,-1.080648 -0.31759,-0.696901 0.18772,-1.187574 2.0937,-2.032651 l 0.73439,-0.325696 -1.1425,0.08677 c -0.62831,0.04767 -1.78023,0.166606 -2.55954,0.264244 -1.63586,0.204914 -1.92871,0.138783 -1.92871,-0.435374 0,-0.560028 0.34327,-0.67613 2.6209,-0.887556 3.64574,-0.338219 4.95856,-0.187632 5.15408,0.591193 0.14488,0.577444 -0.39758,1.036645 -1.9812,1.677028 -0.71813,0.290404 -1.36615,0.584779 -1.44015,0.653828 -0.074,0.06923 0.40328,0.255595 1.06092,0.413982 1.46584,0.353187 2.03871,0.630304 2.17207,1.050702 0.24586,0.774512 -0.53644,1.22821 -2.85363,1.655032 -0.58339,0.10753 -1.25915,0.295013 -1.50157,0.416742 -0.54078,0.271273 -0.66452,0.274697 -0.91384,0.02523 z m -1.82742,-0.660857 c 0,-0.739984 0.5362,-3.719523 0.72295,-4.021748 0.15234,-0.246489 0.50343,-0.227558 0.72477,0.03908 0.13603,0.163892 0.0995,0.681014 -0.14336,2.029911 -0.40627,2.256609 -0.54995,2.646463 -0.97433,2.646463 -0.28001,0 -0.33042,-0.105804 -0.33003,-0.693693 z M 166.1369,78.574821 c 0.006,-0.572859 0.61157,-2.162505 0.82354,-2.162505 0.33936,0 0.294,1.393494 -0.0633,1.938556 -0.29009,0.44271 -0.76419,0.582333 -0.76025,0.223949 z m 0.81391,-3.769293 c 0,-0.120739 0.14863,-0.354108 0.3302,-0.51848 0.26352,-0.238366 0.37077,-0.257671 0.53048,-0.09532 0.15856,0.161262 0.12006,0.269011 -0.18515,0.51848 -0.4521,0.369373 -0.67552,0.400843 -0.67553,0.09532 z M 75.35048,65.872326 c -0.386332,-0.225029 -0.370526,-0.603718 0.204013,-4.883181 0.612499,-4.561404 0.613413,-4.320528 -0.01755,-4.343258 -0.855622,-0.03083 -1.073998,-0.802922 -0.403065,-1.424666 0.867309,-0.803836 4.126163,-1.436581 5.865369,-1.138388 1.237378,0.211958 1.867288,0.587221 2.159672,1.286875 0.499769,1.196131 -0.58271,2.566107 -2.881592,3.646538 l -1.286638,0.604939 0.580877,0.210076 c 0.617772,0.223397 6.315492,3.944486 6.502108,4.246437 0.159849,0.258639 -0.04312,0.78184 -0.348754,0.899161 -0.144364,0.0554 -0.390914,0.0072 -0.548118,-0.107327 -1.898906,-1.383725 -5.82766,-3.903516 -6.309237,-4.046897 -0.341194,-0.101562 -0.950717,-0.160683 -1.354695,-0.131395 l -0.734405,0.05325 -0.19171,1.387391 c -0.105431,0.762897 -0.197231,1.841097 -0.204006,2.395625 -0.0083,0.685904 -0.09433,1.09042 -0.268781,1.264876 -0.297202,0.297284 -0.376485,0.305525 -0.76343,0.07994 z m 3.857159,-7.677578 c 2.20917,-0.95599 3.227156,-1.889063 2.723416,-2.496143 -0.355185,-0.428042 -1.840715,-0.629992 -3.155953,-0.428957 -1.863396,0.284647 -1.716745,0.110483 -1.739202,2.065352 -0.02318,2.000275 -0.253204,1.909227 2.171739,0.859748 z m 17.944592,7.348376 c -0.610657,-0.176776 -1.340017,-0.985624 -1.468582,-1.62845 -0.05022,-0.251024 -0.193188,-0.495563 -0.317816,-0.543225 -0.335694,-0.128843 -0.274516,-0.655963 0.117293,-1.010373 0.189068,-0.171002 0.477299,-0.572555 0.640682,-0.892441 0.375561,-0.73601 1.393196,-1.732022 1.899133,-1.858816 0.213036,-0.05347 0.53895,-0.01606 0.724332,0.08312 0.43881,0.234794 0.953917,1.381586 0.95849,2.13318 0.0048,0.780615 -0.300848,1.018315 -1.12989,0.878384 -0.382672,-0.06465 -0.900991,-0.02954 -1.246537,0.08449 -0.549494,0.18134 -0.584321,0.231467 -0.490829,0.70729 0.200567,1.021676 1.232326,1.306731 2.757316,0.761979 1.266727,-0.452483 1.963767,-0.505339 2.033887,-0.153984 0.20502,1.026564 -2.688996,1.956584 -4.477479,1.438847 z m 1.064834,-4.209622 c 0.168265,-0.106612 0.174293,-0.169444 0.02514,-0.261623 -0.108143,-0.06684 -0.314834,-0.0027 -0.460337,0.142805 -0.220233,0.220226 -0.224413,0.263708 -0.02516,0.261624 0.131439,-0.0013 0.338672,-0.06563 0.460348,-0.142806 z m 7.805255,4.184692 c -0.29584,-0.217288 -0.2539,-0.702405 0.6157,-7.129987 0.13889,-1.026565 0.25254,-2.410291 0.25254,-3.074809 0,-1.035426 -0.0497,-1.248376 -0.34717,-1.489437 -0.25596,-0.207187 -0.31644,-0.377629 -0.23052,-0.648629 0.22127,-0.697208 1.2383,-0.775118 1.59162,-0.122123 0.30019,0.55453 0.17955,3.665267 -0.26671,6.881748 -0.22364,1.612258 -0.45645,3.468324 -0.51741,4.124869 -0.1373,1.478131 -0.46997,1.919922 -1.09805,1.458368 z M 91.000094,65.319925 c -1.422976,-0.507172 -2.080613,-1.71797 -1.671374,-3.077376 0.492889,-1.637309 2.207574,-2.937319 3.34947,-2.53922 0.604478,0.21073 0.798332,0.529782 1.011212,1.66389 0.183205,0.976154 0.201802,1.414279 0.06581,1.550238 -0.05293,0.05293 -0.785045,0.09973 -1.626924,0.103954 -1.6237,0.0082 -1.896612,0.100179 -1.618205,0.545975 0.360899,0.578053 0.888624,0.706985 2.46712,0.6028 0.888397,-0.05872 1.509605,-0.0376 1.509605,0.05127 0,0.356854 -0.7147,1.012817 -1.272213,1.167716 -0.803608,0.22322 -1.450485,0.202974 -2.214208,-0.06933 z m 1.400067,-4.002414 c -0.06205,-0.422847 -0.128047,-0.485175 -0.421623,-0.398099 -0.191382,0.05679 -0.516709,0.26604 -0.722719,0.465009 l -0.374876,0.361742 0.796271,0.03633 0.796273,0.03634 z m 30.239939,2.772645 c -0.0604,-0.09763 -1.13379,-0.163208 -2.67136,-0.163208 -2.80391,0 -3.19881,-0.105219 -3.0972,-0.825227 0.053,-0.374879 0.12492,-0.40146 1.19866,-0.44026 1.90853,-0.06935 1.82649,-0.0044 1.95299,-1.548711 0.0608,-0.741203 0.15161,-1.49463 0.20198,-1.673972 0.0891,-0.317749 0.0827,-0.318359 -0.24312,-0.02769 -0.44957,0.401461 -1.08016,0.301849 -1.14868,-0.181242 -0.0349,-0.246683 0.10961,-0.523977 0.42894,-0.822169 0.51673,-0.48273 1.33133,-1.984998 1.65352,-3.049144 0.52931,-1.748215 0.89503,-2.134705 1.47293,-1.556653 l 0.32767,0.327525 -0.39252,1.104168 c -0.53321,1.49952 -0.90031,3.527505 -1.02015,5.633249 l -0.0998,1.754633 h 1.73233 c 1.56918,0 1.74905,0.03097 1.90831,0.328438 0.24724,0.46226 3.1e-4,0.815142 -0.75411,1.077894 -0.75549,0.262988 -1.31162,0.286959 -1.45036,0.06236 z"
       id="path2917"
       sodipodi:nodetypes="ccccccccccccccsccsccccsccccccccscccccccccccccccccccccccccscccccccccsssscccsccccccsccccscccscsccccccsscccccccscsccsccscsssscccccccccccccsccssscscssscccccscccccssscccscsscccccsccccccsccccsscscscccsscscsscsscscccccscccccscssccccccccccccccccccsccccsssccccccccccscsscscsccccccssccccccccscccccccsscscscscccccscccccsccccccccsccsscssssccscccccscccssccccscccsccscccccscccccscscsscsscccccccsscccsscccccccccccccssccccccccscccssccscsccsccscccccscsccccscssccccccccccccscccccccccccsccsccsccccccssscssscssccccccccccccccccscccccsccccsscccscccccscccscccccccccsscscccscccccsccccccccsscsssscccsccscccccssscscccscccsssssccssscscscccscsssscccscccccssccccccccsscccssccscscscsccccccscccccccccsssscsccssccscccscsccccccsccccccccccccscccccccsscscccccccccccccccccccsccccccccsssscccccccccccsscsccsccccccsscccscsccsccssccssccccccccccccccscccccsccscccccccssssssssscssscccsccsccccccssccscccccccscccsscscccccscscssssscsscsscccccccsscscccscccccccccccscccccccscccccscccc" />
  </g>
</svg>
