<?xml version="1.0" encoding="UTF-8" standalone="no"?>
<!-- Created with Inkscape (http://www.inkscape.org/) -->

<svg
   width="188.43137mm"
   height="80.301392mm"
   viewBox="0 0 188.43136 80.301393"
   version="1.1"
   id="svg503"
   inkscape:version="1.1.2 (0a00cf5339, 2022-02-04)"
   sodipodi:docname="linked-list-1.svg"
   xmlns:inkscape="http://www.inkscape.org/namespaces/inkscape"
   xmlns:sodipodi="http://sodipodi.sourceforge.net/DTD/sodipodi-0.dtd"
   xmlns="http://www.w3.org/2000/svg"
   xmlns:svg="http://www.w3.org/2000/svg">
  <sodipodi:namedview
     id="namedview505"
     pagecolor="#505050"
     bordercolor="#ffffff"
     borderopacity="1"
     inkscape:pageshadow="0"
     inkscape:pageopacity="0"
     inkscape:pagecheckerboard="1"
     inkscape:document-units="mm"
     showgrid="false"
     fit-margin-top="0"
     fit-margin-left="0"
     fit-margin-right="0"
     fit-margin-bottom="0"
     inkscape:zoom="0.74742565"
     inkscape:cx="352.54343"
     inkscape:cy="316.41943"
     inkscape:window-width="1571"
     inkscape:window-height="978"
     inkscape:window-x="0"
     inkscape:window-y="65"
     inkscape:window-maximized="0"
     inkscape:current-layer="layer1" />
  <defs
     id="defs500" />
  <g
     inkscape:label="Layer 1"
     inkscape:groupmode="layer"
     id="layer1"
     transform="translate(-17.149646,-1.7279968)">
    <path
       style="fill:#000000;stroke-width:0.1842"
       d="m 18.706828,81.570542 c -0.165954,-0.25327 -0.478702,-0.461715 -0.695004,-0.463438 -1.051542,-0.0076 -1.181471,-1.062404 -0.166561,-1.352054 0.476607,-0.136096 0.611222,-0.284025 0.676032,-0.743093 0.04453,-0.315166 0.25908,-2.065149 0.47686,-3.888646 0.416063,-3.483953 1.137793,-8.021039 1.523622,-9.57843 0.197891,-0.798613 0.289315,-0.921024 0.68867,-0.921024 0.406447,0 0.458684,0.0757 0.445035,0.644821 -0.0084,0.354477 -0.318287,2.684103 -0.688418,5.176726 -0.693039,4.667219 -1.182116,8.943342 -1.036537,9.06272 0.160518,0.131622 9.413899,-0.661373 11.798685,-1.011371 l 1.400934,-0.205468 0.109553,-2.136527 c 0.166675,-3.250649 1.031103,-8.426964 1.997302,-11.961716 0.203279,-0.743438 0.320681,-1.40067 0.260942,-1.460325 -0.221381,-0.221389 -9.519141,1.196538 -9.705919,1.479983 -0.146467,0.222449 -1.40403,-0.21532 -1.525062,-0.531029 -0.04818,-0.125482 0.01113,-0.307141 0.131752,-0.40379 0.623272,-0.498959 8.727905,-1.827219 13.665946,-2.239628 1.317143,-0.110006 2.809052,-0.239696 3.315604,-0.288203 2.234978,-0.214026 8.374556,-0.638612 9.235673,-0.638956 1.867222,-3.72e-4 2.265231,1.047576 0.68896,1.813423 -0.79422,0.385859 -0.842061,0.449654 -0.736024,0.980335 0.0624,0.312189 0.11352,1.682737 0.11352,3.045823 v 2.478249 l 0.506627,-0.102377 c 1.562575,-0.315803 7.209278,-0.810335 13.01822,-1.139986 2.054721,-0.116599 2.163854,-0.141656 1.692654,-0.388615 -0.389487,-0.204105 -0.490855,-0.376204 -0.446635,-0.758611 0.05239,-0.453445 0.122566,-0.493442 0.841799,-0.478962 0.569996,0.01165 1.006284,0.175367 1.595925,0.598617 0.548012,0.393439 1.024648,0.582748 1.468429,0.582748 0.557582,0 0.67577,0.0741 0.779992,0.489305 0.142305,0.566892 -0.278791,0.98447 -0.992832,0.98447 -0.240979,0 -0.806363,0.253286 -1.256365,0.562755 -1.229723,0.846196 -2.038416,1.142743 -2.476004,0.908608 -0.393612,-0.210622 -0.480246,-0.728959 -0.173503,-1.035848 0.131444,-0.131445 -0.111771,-0.171948 -0.782845,-0.13038 -0.535337,0.03315 -2.42402,0.146921 -4.197049,0.252786 -2.742381,0.163749 -9.580462,0.856194 -9.707285,0.983091 -0.02245,0.02245 -0.09839,1.714118 -0.168713,3.759436 -0.112547,3.273409 -0.165439,3.730504 -0.441714,3.81823 -0.484914,0.153928 -0.917058,-0.09084 -0.93051,-0.527234 -0.03667,-1.191025 0.02844,-3.912263 0.126823,-5.29435 l 0.112725,-1.58412 -2.27816,0.335874 c -1.253007,0.184734 -2.513769,0.33803 -2.801606,0.340657 -0.287847,0.0026 -0.73421,0.170552 -0.991794,0.373097 -0.578013,0.454479 -1.442572,0.48103 -1.682831,0.05174 -0.235113,-0.419991 0.132258,-1.117913 0.980933,-1.863079 1.351279,-1.186534 2.202133,-1.351709 2.42299,-0.471025 0.0609,0.242764 0.246096,0.43861 0.412761,0.436886 0.565852,-0.0062 3.697607,-0.519991 3.888435,-0.637922 0.21038,-0.130014 0.256031,-3.111687 0.07119,-4.65025 -0.08578,-0.71413 -0.204187,-0.990677 -0.458786,-1.071714 -0.232092,-0.07366 -0.34318,-0.283905 -0.34318,-0.649301 0,-0.636545 -0.0037,-0.636889 -3.315614,-0.359652 -1.165072,0.09757 -2.739968,0.227174 -3.499819,0.288004 -3.645136,0.291826 -4.855878,0.446547 -4.972438,0.635166 -0.381984,0.61792 -1.917131,10.276425 -2.130233,13.402178 -0.122136,1.791704 -0.110433,1.887909 0.229744,1.887909 0.197143,0 2.134891,-0.337691 4.306397,-0.750336 9.577646,-1.820666 9.045378,-1.754114 9.274878,-1.156192 0.274909,0.716543 -0.860938,1.353776 -2.41342,1.353776 -0.400338,0 -2.462813,0.323526 -4.583635,0.718955 -2.120663,0.395514 -4.477515,0.825509 -5.237366,0.955507 -0.922231,0.157881 -1.46145,0.347585 -1.622305,0.570337 -0.268707,0.372758 -0.77973,0.437238 -1.080505,0.136269 -0.14079,-0.140785 -0.800937,-0.116699 -2.293427,0.0837 -2.023419,0.271697 -4.730701,0.533093 -7.805822,0.754127 -2.561217,0.183997 -3.223507,0.299308 -3.223507,0.561371 0,0.322983 -0.509733,0.82482 -0.837823,0.82482 -0.142389,0 -0.394669,-0.207229 -0.560623,-0.460343 z m 53.932434,-4.181359 c -0.121574,-0.121576 -0.221044,-0.33401 -0.221044,-0.472065 0,-0.13807 -0.145055,-0.236285 -0.322234,-0.21825 -0.806111,0.08201 -0.966976,-0.0082 -0.966976,-0.542408 0,-0.536543 0.265863,-0.756539 0.914738,-0.756539 0.2749,0 0.35275,-0.213603 0.454128,-1.243437 0.473792,-4.823731 1.806183,-13.162666 2.17782,-13.63083 0.21719,-0.273613 0.806625,-0.304645 0.963608,-0.0507 0.06099,0.09874 -0.01675,0.852749 -0.17282,1.675501 -0.463183,2.441692 -1.574203,10.964657 -1.574203,12.076055 v 1.028267 l 1.703776,-0.121885 c 0.937227,-0.06704 2.076957,-0.153426 2.532637,-0.191992 0.455943,-0.03859 1.45059,-0.121549 2.210403,-0.184415 1.646366,-0.136222 5.825651,-0.621371 6.374383,-0.739992 0.363096,-0.07849 0.394398,-0.234291 0.488273,-2.43549 0.116476,-2.728929 0.829638,-7.184288 1.716442,-10.722592 0.341375,-1.362052 0.60025,-2.496862 0.57516,-2.522035 -0.04836,-0.0484 -3.683668,0.438616 -7.036074,0.942401 -1.114379,0.167529 -2.221264,0.384135 -2.459708,0.481029 -0.895598,0.364477 -2.26756,-0.244812 -1.739727,-0.772751 0.882923,-0.88309 15.157892,-2.684104 24.207526,-3.054441 3.29265,-0.134718 3.66167,-0.06576 3.66167,0.684471 0,0.469656 -0.12079,0.609997 -0.81232,0.946198 l -0.81232,0.394821 0.0295,3.101688 0.0295,3.101681 0.56042,0.001 c 0.30828,5.22e-4 2.46333,-0.165368 4.78921,-0.368957 3.85715,-0.337493 11.04455,-0.919301 11.35802,-0.919301 0.0713,-2.1e-5 -0.008,-0.240098 -0.17659,-0.533443 -0.39568,-0.689646 -0.0856,-1.124467 0.80224,-1.124467 0.47197,0 0.6949,0.119525 0.94446,0.506542 0.17963,0.278606 0.55448,0.700341 0.83327,0.937232 0.98146,0.834818 0.63362,1.566534 -1.23127,2.589971 -1.50878,0.827921 -2.02679,0.924815 -2.29264,0.428267 -0.23879,-0.446203 0.0474,-0.906885 0.77222,-1.242743 l 0.58706,-0.272276 -0.64473,0.08161 c -0.35456,0.0449 -1.4736,0.130766 -2.48661,0.190828 -2.83057,0.167822 -13.80676,1.052406 -13.87956,1.118263 -0.0356,0.03222 -0.11838,1.701357 -0.1842,3.708783 l -0.11967,3.650231 -0.59225,0.05725 c -0.79913,0.07723 -0.82783,-0.106387 -0.63205,-4.017573 0.0888,-1.773079 0.15055,-3.238578 0.13727,-3.257198 -0.0133,-0.01859 -1.16559,0.0736 -2.56109,0.204821 -2.102552,0.197746 -2.60655,0.303652 -2.944155,0.618614 -0.597143,0.557237 -1.283775,0.671717 -1.953071,0.32564 -0.649138,-0.335633 -0.731114,-0.794127 -0.268707,-1.499637 0.569219,-0.868606 2.075404,-1.321361 2.4098,-0.724129 0.131088,0.234244 0.466541,0.246436 2.357813,0.08567 3.40808,-0.289727 3.03376,0.0983 3.03376,-3.144785 0,-2.766518 -0.002,-2.780657 -0.4743,-3.152032 -0.35767,-0.281388 -0.44715,-0.481029 -0.36414,-0.812062 0.1042,-0.415165 0.0723,-0.434136 -0.58473,-0.346884 -0.38223,0.05061 -2.516345,0.226301 -4.742399,0.390337 -2.226175,0.164139 -4.584866,0.352064 -5.24173,0.417234 l -1.194297,0.118959 -0.243243,1.197227 c -0.988182,4.864385 -1.891012,11.194035 -1.891012,13.258699 0,1.06171 0.02021,1.111366 0.414567,1.024471 0.227948,-0.05028 0.953261,-0.179549 1.611706,-0.287284 0.658436,-0.107723 3.145226,-0.574816 5.526004,-1.03826 2.380828,-0.463444 4.743144,-0.853783 5.249704,-0.867578 0.90516,-0.02464 0.92094,-0.01566 0.92094,0.525167 0,0.758266 -0.60906,1.013438 -2.891654,1.211711 -1.01534,0.08819 -1.985412,0.204602 -2.155837,0.258706 -0.170463,0.05411 -2.125059,0.431375 -4.343737,0.838265 -2.360467,0.433097 -4.158998,0.853093 -4.335476,1.012749 -0.340345,0.307902 -0.940071,0.358612 -1.202828,0.10187 -0.107711,-0.10529 -0.529134,-0.103364 -1.096024,0.0052 -1.231276,0.235382 -5.19932,0.64103 -8.948911,0.914471 l -3.054513,0.222945 -0.199051,0.527234 c -0.214346,0.567925 -0.880846,0.724819 -1.299294,0.306315 z M 23.491554,75.870926 c -0.06155,-0.160365 -0.02563,-0.395513 0.0798,-0.522409 0.472238,-0.568959 1.162228,-3.150993 1.136371,-4.253086 -0.03845,-1.642391 -0.04406,-1.622394 0.43758,-1.559293 0.239192,0.03133 0.554728,-0.0425 0.701365,-0.164109 0.47482,-0.394134 2.33687,-0.788614 2.832738,-0.599995 0.832491,0.316529 0.32535,1.23171 -0.63024,1.137572 -0.265867,-0.02621 -0.897932,0.10054 -1.404559,0.281608 l -0.92094,0.329217 v 0.874474 c 0,0.481025 0.05229,0.874126 0.116224,0.874126 0.06389,-1.62e-4 0.677576,-0.211557 1.363431,-0.469648 2.131261,-0.802063 2.299881,-0.35172 0.500424,1.335497 l -1.243437,1.165852 1.911957,-0.120386 c 1.573951,-0.0991 1.896962,-0.07583 1.827915,0.131622 -0.153943,0.461716 -1.685666,1.091019 -2.941694,1.20826 -1.121629,0.104743 -1.256628,0.07822 -1.654383,-0.3253 l -0.433183,-0.439305 -0.373442,0.644816 c -0.40655,0.702063 -1.118776,0.958957 -1.305759,0.47103 z m 2.327552,-2.409284 c 0.194664,-0.234551 0.18327,-0.261504 -0.06951,-0.16449 -0.166299,0.06382 -0.302327,0.190044 -0.302327,0.280516 0,0.236876 0.106626,0.203609 0.371871,-0.116026 z m 102.600414,0.284741 c -0.20495,-0.204942 -0.37268,-0.464473 -0.37268,-0.576541 0,-0.11215 -0.13034,-0.153896 -0.28965,-0.09276 -0.44585,0.171044 -0.99981,-0.218647 -0.99981,-0.703091 0,-0.440339 0.30543,-0.657927 0.92275,-0.657927 0.2775,0 0.3618,-0.194916 0.45827,-1.059298 0.66257,-5.931479 1.71282,-12.698292 2.11575,-13.630832 0.19798,-0.458272 0.87749,-0.565169 1.03214,-0.162258 0.0532,0.138703 -0.0308,0.946881 -0.18667,1.795837 -0.39749,2.164461 -1.36964,9.434198 -1.5155,11.332899 l -0.12168,1.583081 1.91687,-0.124709 c 1.05439,-0.06859 2.20704,-0.156539 2.56161,-0.195438 0.35456,-0.0389 1.34921,-0.121795 2.21041,-0.184222 1.69239,-0.122678 2.30092,-0.187591 4.4208,-0.471371 2.40152,-0.321577 2.21041,-0.172322 2.21041,-1.725495 0,-2.583418 0.85059,-7.951077 1.95411,-12.330712 0.25192,-0.999989 0.42801,-1.847915 0.39103,-1.88481 -0.0591,-0.05912 -2.85622,0.328072 -7.92538,1.096885 -0.89094,0.13513 -1.70222,0.328156 -1.80309,0.428963 -0.12153,0.121528 -0.39698,0.116327 -0.81801,-0.01544 -0.65921,-0.206348 -0.95792,-0.603103 -0.67007,-0.891033 0.54801,-0.547919 9.55307,-1.920658 15.96319,-2.433066 0.70913,-0.05669 2.82286,-0.226638 4.69712,-0.377587 4.57719,-0.368606 6.70104,-0.364817 7.07857,0.01263 0.1592,0.1592 0.28939,0.33043 0.28939,0.380337 0,0.332956 -0.44793,0.783444 -1.04792,1.054125 l -0.70188,0.316584 -0.0226,4.091195 c -0.0124,2.250317 -0.0954,5.624688 -0.18421,7.498905 l -0.16151,3.407544 -0.49422,0.05709 c -0.80041,0.09247 -0.86171,-0.27587 -0.66852,-4.017402 0.0968,-1.874112 0.18997,-4.899729 0.2071,-6.72333 l 0.0311,-3.315484 -0.50301,-0.496196 c -0.30517,-0.301065 -0.45982,-0.608959 -0.3931,-0.782752 0.0918,-0.239258 -0.068,-0.286219 -0.96879,-0.284619 -0.9442,0.0019 -3.45887,0.17615 -6.42067,0.445503 -0.50662,0.04603 -1.64558,0.141369 -2.53108,0.211773 -0.88551,0.07044 -1.68774,0.221428 -1.78239,0.335612 -0.39439,0.475513 -1.9655,10.289775 -2.16593,13.532044 l -0.1181,1.90929 0.53586,-0.110888 c 0.29482,-0.06098 1.25713,-0.233638 2.1385,-0.383785 0.88137,-0.150033 1.79326,-0.314268 2.02628,-0.364827 2.54764,-0.554475 8.35739,-1.587911 8.67364,-1.543085 0.31654,0.04501 0.40732,0.180661 0.40732,0.607926 0,0.757234 -0.60904,1.013433 -2.8773,1.210329 -1.00732,0.0875 -1.89102,0.195792 -1.96394,0.240645 -0.0728,0.04486 -2.03869,0.425171 -4.36888,0.845506 -2.72847,0.492063 -4.30942,0.858957 -4.44111,1.031024 -0.21995,0.287131 -1.09395,0.3662 -1.25042,0.113102 -0.0523,-0.08462 -0.74093,-0.05127 -1.53049,0.07412 -1.51498,0.240635 -6.6047,0.723784 -9.75625,0.925849 -1.76688,0.113388 -1.87988,0.144962 -1.9823,0.552751 -0.17121,0.68206 -0.75413,0.898609 -1.20502,0.447435 z M 78.387679,70.908832 c -0.05379,-0.140054 0.02601,-0.728609 0.177236,-1.307567 0.15122,-0.578962 0.231849,-1.165163 0.179163,-1.302397 -0.05267,-0.137282 0.03592,-0.437582 0.196955,-0.667581 0.347062,-0.495509 0.382227,-1.486876 0.07063,-1.985836 -0.182549,-0.292296 -0.162287,-0.421719 0.113763,-0.726542 0.534822,-0.591029 3.473672,-1.427225 4.293207,-1.22171 0.79887,0.200472 0.41379,0.571371 -1.222492,1.177913 l -1.642474,0.608615 -0.126215,0.917573 c -0.06941,0.504824 -0.08157,0.962404 -0.02694,1.016885 0.05463,0.05459 0.641121,-0.08111 1.30343,-0.301528 1.212145,-0.403439 1.932397,-0.438266 2.004036,-0.0976 0.05379,0.255703 -2.184808,1.36447 -3.026476,1.498948 -0.590165,0.09439 -0.709392,0.194821 -0.815681,0.687234 -0.2543,1.179297 -0.66258,1.958251 -1.0262,1.958251 -0.194794,0 -0.39827,-0.11459 -0.451939,-0.25466 z M 134.00047,67.44874 c -0.62921,-0.310586 -0.87594,-1.099299 -0.6062,-1.938598 0.25194,-0.784127 1.3386,-2.465831 2.44213,-3.779506 0.4218,-0.502062 0.68508,-0.981369 0.62508,-1.137917 -0.14002,-0.364823 0.30955,-0.707578 0.83119,-0.633784 0.80637,0.114303 0.6331,0.851021 -0.6468,2.75238 l -1.18085,1.753769 0.94188,-0.247789 c 1.69809,-0.446547 2.34592,0.05127 1.85972,1.429294 -0.45852,1.299291 -0.98688,2.016872 -1.48524,2.016872 -0.37809,0 -0.4456,-0.08894 -0.4456,-0.587234 v -0.586893 l -0.50663,0.481719 c -0.60283,0.573443 -1.27756,0.749646 -1.82894,0.477238 z m 2.11652,-1.371367 c 0.31009,-0.06202 0.60879,-0.229717 0.66361,-0.372752 0.0785,-0.20441 0.0245,-0.219656 -0.25241,-0.07143 -0.58421,0.312679 -1.11257,0.221905 -1.27576,-0.219165 l -0.15079,-0.40758 -0.21167,0.395513 c -0.42206,0.788609 -0.13318,0.947576 1.22702,0.675413 z m 14.15531,-2.958928 c -0.21224,-0.21224 -0.13182,-0.705509 0.24072,-1.476532 0.375,-0.776198 0.65974,-0.977917 1.38051,-0.977917 0.67473,0 0.94344,0.461371 0.68481,1.176535 -0.11924,0.32978 -0.21681,0.769299 -0.21681,0.976883 0,0.330162 -0.12259,0.379995 -0.98404,0.399998 -0.54129,0.01248 -1.03861,-0.0319 -1.10533,-0.09857 z M 26.634141,60.338826 c -0.107065,-0.07444 -0.311635,-0.425515 -0.454651,-0.779993 -0.142997,-0.354477 -0.822145,-1.194465 -1.509291,-1.866523 -1.262314,-1.234812 -1.526624,-1.834808 -1.028267,-2.333081 0.50715,-0.507235 1.325936,-0.254151 2.265755,0.69999 0.498871,0.506552 0.957658,0.921024 1.019727,0.921024 0.311373,0 0.985591,-5.773001 1.011195,-8.657406 0.03985,-4.49136 0.255142,-5.448494 1.422908,-6.324784 2.995877,-2.248253 10.599852,-4.221362 21.781907,-5.651792 4.378195,-0.559996 7.835702,-1.067576 10.683624,-1.567917 8.876215,-1.559291 18.986793,-3.174094 24.774959,-3.956949 0.759823,-0.102762 2.873525,-0.390001 4.697118,-0.638613 4.676992,-0.637238 5.894095,-0.78654 9.025825,-1.106885 1.51963,-0.155496 3.0531,-0.316332 3.4077,-0.357577 0.35457,-0.04107 1.30783,-0.127366 2.11834,-0.191708 0.8105,-0.06436 2.7584,-0.231924 4.32871,-0.372404 2.84091,-0.254132 4.38237,-0.37 7.36801,-0.55413 0.8612,-0.05314 2.18739,-0.135327 2.94721,-0.182699 0.75981,-0.04734 2.54194,-0.131154 3.96032,-0.186207 2.72717,-0.105859 5.0015,-0.220118 7.27592,-0.365519 0.75981,-0.04865 2.58332,-0.134326 4.0524,-0.190529 4.24094,-0.162249 10.1315,-0.447233 11.23623,-0.543784 0.55732,-0.04865 2.04929,-0.136075 3.31561,-0.194364 1.26645,-0.05828 2.59261,-0.138367 2.9472,-0.177937 0.35457,-0.03957 1.26645,-0.121304 2.02627,-0.181651 0.75983,-0.06034 1.83748,-0.147132 2.39454,-0.19284 0.55733,-0.04575 3.45836,-0.332964 6.44703,-0.638276 2.98866,-0.30535 5.93126,-0.601718 6.53911,-0.658268 7.48251,-0.698951 13.93967,-1.728594 19.98576,-3.186508 2.07282,-0.499995 4.46007,-1.258265 3.31561,-1.053086 -0.25328,0.04537 -1.70377,0.301326 -3.22351,0.568957 -1.78705,0.314583 -2.81503,0.579295 -2.9103,0.749299 -0.16543,0.295181 -0.8837,0.35275 -1.15137,0.09252 -0.10487,-0.102061 -0.50715,-0.105606 -1.00395,-0.0084 -1.27835,0.248996 -6.08874,0.724817 -10.34903,1.023777 -1.73067,0.121406 -1.79014,0.140443 -1.99704,0.639988 -0.11733,0.283272 -0.32069,0.556198 -0.45154,0.606545 -0.31345,0.120284 -1.01741,-0.380337 -1.01741,-0.723779 0,-0.190959 -0.12632,-0.237658 -0.43396,-0.160434 -0.45232,0.11353 -1.03964,-0.294844 -1.03964,-0.723096 0,-0.379308 0.41431,-0.668268 0.95792,-0.668268 0.46577,0 0.51568,-0.06193 0.51568,-0.639296 0,-1.683439 1.51498,-11.9436192 2.03558,-13.7856682 0.1736,-0.614132 0.26017,-0.694817 0.6931,-0.644816 0.59146,0.06829 0.5899,-0.01179 0.0618,3.188576 -0.51309,3.1099682 -1.28428,9.0882412 -1.35437,10.4994282 l -0.0548,1.105155 0.92093,-0.0028 c 2.22308,-0.0075 11.70741,-0.881024 12.08235,-1.112742 0.0737,-0.04556 0.18462,-0.807925 0.24643,-1.693776 0.18612,-2.667898 0.45879,-4.794492 0.95016,-7.41339 0.43629,-2.3248022 1.21059,-5.6465532 1.47981,-6.3481612 0.10059,-0.262111 0.024,-0.293918 -0.50482,-0.209538 -0.34293,0.05473 -0.99645,0.143737 -1.45214,0.197835 -0.45594,0.05407 -1.07765,0.138161 -1.38153,0.186787 -0.30388,0.04864 -1.67171,0.258828 -3.0393,0.467234 -1.36757,0.208284 -2.81958,0.463791 -3.22638,0.567582 -0.93284,0.238061 -1.74697,-0.02629 -1.74697,-0.567236 0,-0.205132 0.0424,-0.373097 0.0941,-0.373097 0.0517,0 0.85991,-0.170762 1.79585,-0.379308 3.59072,-0.800675 8.81826,-1.465501 16.53005,-2.103075 6.59612,-0.545169 9.05668,-0.59517 9.39224,-0.190819 0.40732,0.491023 0.0698,1.135155 -0.77973,1.487568 l -0.78412,0.325369 -0.0444,7.1074322 c -0.0244,3.909091 -0.0894,7.298981 -0.14446,7.533085 -0.0829,0.352403 -0.20196,0.415857 -0.69258,0.368269 l -0.59223,-0.05725 0.0123,-2.210319 c 0.007,-1.21585 0.082,-4.336772 0.16697,-6.9356692 l 0.15456,-4.725257 -0.51154,-0.474128 c -0.36026,-0.333994 -0.48724,-0.602065 -0.4288,-0.907227 0.0676,-0.353105 0.0122,-0.42379 -0.29999,-0.381385 -0.2106,0.02844 -1.83333,0.145158 -3.60639,0.259436 -1.77283,0.114269 -3.39958,0.235207 -3.61474,0.268754 -0.21517,0.03349 -1.2323,0.120611 -2.26031,0.193494 -1.028,0.07287 -1.90962,0.197956 -1.95902,0.277921 -0.16973,0.274619 -1.38076,7.0839802 -1.74645,9.8208792 -0.20126,1.506194 -0.36594,3.389956 -0.36594,4.185954 v 1.447568 l 0.50664,-0.09112 c 5.78488,-1.040672 7.74649,-1.404114 8.0123,-1.484462 0.97008,-0.293815 0.46784,-4.291635 -0.61164,-4.869387 -0.22072,-0.118132 -0.48206,-0.1112 -0.77093,0.02049 -0.28267,0.128797 -0.66051,0.14122 -1.06965,0.03517 -0.58421,-0.151379 -0.63257,-0.218789 -0.63257,-0.880331 V 11.59271 l 1.1974,-0.04481 c 0.96335,-0.03602 1.30835,0.03106 1.76662,0.343255 1.21291,0.826887 1.91738,2.490317 1.91738,4.526674 v 1.191705 l 0.96698,-0.1476 c 1.59592,-0.243589 2.19178,-0.207563 2.41729,0.146187 0.49138,0.770338 -0.72594,1.387922 -2.7852,1.413432 -1.03758,0.01282 -1.21861,0.07521 -1.84213,0.634816 -1.40042,1.257572 -3.01171,1.845155 -8.35558,3.046869 -5.55123,1.248255 -10.94154,2.035142 -20.33419,2.969272 -2.12739,0.211549 -4.98723,0.49861 -6.3549,0.637921 -1.36757,0.139227 -3.10838,0.302319 -3.86822,0.362404 -0.75983,0.06006 -1.75446,0.146206 -2.21041,0.191352 -0.45594,0.04509 -1.53334,0.127964 -2.39454,0.184074 -0.8612,0.05613 -2.10437,0.138713 -2.76302,0.183578 -0.65844,0.04481 -2.06764,0.129218 -3.13141,0.18747 -1.0637,0.05828 -2.47291,0.140696 -3.13142,0.183241 -0.65845,0.04257 -2.3992,0.125036 -3.86822,0.183335 -3.26653,0.12963 -9.54397,0.430339 -11.42043,0.547236 -0.75981,0.04734 -2.45919,0.130771 -3.77609,0.185496 -1.31714,0.05473 -3.43075,0.142473 -4.69712,0.195 -1.26646,0.05257 -2.6755,0.132155 -3.13141,0.176955 -0.45596,0.04481 -1.61637,0.129274 -2.57894,0.187695 -0.96258,0.05847 -1.95722,0.140508 -2.2104,0.18239 -0.25328,0.04191 -1.2481,0.124278 -2.21041,0.18311 -3.67488,0.224627 -10.852936,0.971026 -16.946457,1.762047 -11.239072,1.458943 -15.271852,2.06894 -25.511759,3.857985 -5.363468,0.937237 -9.722,1.635842 -13.262455,2.126528 -1.823508,0.252645 -5.097737,0.708615 -7.275912,1.013431 -9.158589,1.281717 -17.219508,3.802371 -17.876971,5.590453 -0.115148,0.31317 -0.279043,2.351697 -0.364125,4.529733 -0.132127,3.383754 -0.525261,7.197126 -0.833015,8.079908 -0.04818,0.138254 0.206441,-0.0065 0.565861,-0.322356 0.496281,-0.435858 0.828871,-0.573785 1.383862,-0.573785 0.930239,0 0.926104,0.239174 -0.01918,1.138608 -0.45802,0.435511 -0.86224,1.05171 -1.039129,1.583086 -0.366726,1.102051 -0.55008,1.330671 -1.067577,1.330671 -0.241278,0 -0.543868,0.193898 -0.718437,0.460337 -0.305948,0.466891 -0.595853,0.564824 -0.94835,0.319532 z M 23.425312,32.30134 c -0.204944,-0.204945 -0.372666,-0.44758 -0.372666,-0.539649 0,-0.09186 -0.166215,-0.123483 -0.369308,-0.07035 -0.478749,0.125195 -0.920023,-0.248267 -0.920023,-0.778617 0,-0.425512 0.310981,-0.64171 0.922792,-0.64171 0.277762,0 0.361291,-0.193821 0.455428,-1.059297 0.672665,-6.180618 1.723945,-12.85353 2.164116,-13.734114 0.101808,-0.203719 0.323011,-0.311252 0.568695,-0.276293 0.516973,0.07362 0.512577,0.171791 -0.219173,5.068418 -0.741459,4.960736 -1.12551,8.038008 -1.127316,9.034096 -9.35e-4,0.689643 0.0479,0.782751 0.413014,0.782405 0.805072,-9.35e-4 7.552093,-0.517927 8.427176,-0.645517 0.253281,-0.03704 1.289472,-0.163428 2.302482,-0.280952 1.013001,-0.117524 1.904193,-0.252027 1.980229,-0.298904 0.07596,-0.04687 0.138151,-0.697922 0.138151,-1.446529 0,-2.533423 0.683526,-6.990086 1.762477,-11.493859 0.349654,-1.459636 0.612925,-2.676524 0.58473,-2.704794 -0.147899,-0.147899 -9.541901,1.335151 -9.745246,1.538599 -0.225908,0.225908 -1.408689,-0.152025 -1.539038,-0.491715 -0.05547,-0.144588 -0.03602,-0.327343 0.04331,-0.406203 0.343695,-0.341468 6.058266,-1.389634 9.906803,-1.816876 1.01301,-0.11251 2.132048,-0.239772 2.486612,-0.282785 0.354565,-0.04303 1.224812,-0.124092 1.934194,-0.180174 0.709139,-0.05603 1.6624,-0.140546 2.118343,-0.187684 0.455942,-0.04715 1.491965,-0.132941 2.302472,-0.190651 0.810508,-0.05772 2.343849,-0.183082 3.407693,-0.278594 3.051875,-0.27403 5.260959,-0.22851 5.604971,0.115484 0.1592,0.159209 0.28939,0.330439 0.28939,0.380693 0,0.336295 -0.451546,0.785156 -1.070935,1.064461 l -0.724901,0.326847 0.09271,2.88376 c 0.05098,1.58584 0.117019,2.911684 0.146739,2.946165 0.02975,0.03433 0.702928,-0.07484 1.495848,-0.242625 2.118333,-0.448262 5.759128,-1.012056 6.553396,-1.014816 0.664133,-0.0019 0.690766,-0.02694 0.690766,-0.636546 0,-0.748952 0.523437,-1.208253 1.376359,-1.207224 0.712759,9.35e-4 1.701447,0.601372 1.973774,1.198955 0.124306,0.272841 0.438617,0.522754 0.763958,0.606882 1.037828,0.268903 1.152911,1.205157 0.17645,1.435163 -0.282926,0.0667 -0.721544,0.313422 -0.974993,0.548265 -0.577489,0.535168 -2.154798,1.244129 -2.485826,1.117231 -0.392845,-0.150743 -0.117562,-0.794819 0.614216,-1.437576 l 0.664386,-0.583093 -2.11316,0.121032 c -1.162229,0.06661 -2.817818,0.241045 -3.678963,0.387587 -2.036881,0.346894 -5.183473,0.989988 -5.270631,1.077231 -0.03751,0.03751 -0.123586,1.786182 -0.191306,3.885806 -0.110526,3.426861 -0.157366,3.835955 -0.457757,3.996744 -0.252953,0.135373 -0.425942,0.08784 -0.708344,-0.194691 -0.32302,-0.323086 -0.361814,-0.542409 -0.28474,-1.615841 0.04902,-0.683096 0.134418,-2.251013 0.189715,-3.483757 l 0.100554,-2.241695 -2.298338,0.594132 c -1.914811,0.494821 -2.365056,0.679306 -2.699452,1.104125 -0.657921,0.836542 -1.20903,0.942747 -2.038425,0.39379 -0.998257,-0.660682 -0.934383,-1.152743 0.200109,-1.541359 0.3481,-0.119171 0.780515,-0.350346 0.961025,-0.513792 0.197629,-0.178845 0.489564,-0.254853 0.733957,-0.190997 0.223084,0.05837 1.463003,-0.15514 2.755263,-0.474474 l 2.349536,-0.580343 0.124859,-1.075846 c 0.06866,-0.591717 0.06567,-1.82377 -0.0065,-2.738246 -0.111106,-1.403769 -0.199734,-1.730662 -0.569734,-2.100662 -0.258079,-0.25808 -0.392835,-0.555861 -0.328184,-0.724818 0.09037,-0.235515 -0.05276,-0.286527 -0.804043,-0.286527 -0.817234,0 -4.091901,0.225169 -6.585567,0.452752 -0.506627,0.04621 -1.64558,0.140397 -2.531085,0.209229 -0.885514,0.06885 -1.687742,0.218575 -1.782394,0.332759 -0.394388,0.475167 -1.965494,10.289778 -2.166182,13.532041 l -0.118104,1.909292 0.53586,-0.106869 c 0.294816,-0.05875 0.867403,-0.157787 1.272652,-0.220015 0.405258,-0.06221 2.891936,-0.529649 5.526007,-1.038259 2.634072,-0.508956 5.162219,-0.937573 5.618105,-0.952401 0.803529,-0.02619 0.828871,-0.0102 0.828871,0.523091 0,0.76103 -0.661794,1.040336 -2.91682,1.231024 -0.999034,0.08447 -1.870581,0.186889 -1.936523,0.227573 -0.06604,0.04069 -2.026525,0.417588 -4.356622,0.837926 -2.728471,0.492062 -4.309419,0.858956 -4.441106,1.031019 -0.223065,0.291195 -1.094734,0.364827 -1.254813,0.105914 -0.05669,-0.09177 -0.477411,-0.09018 -0.977836,0.0037 -1.204895,0.225974 -7.405924,0.841032 -10.027713,0.994825 -2.056788,0.120527 -2.154284,0.144709 -2.258505,0.559986 -0.171558,0.683441 -0.754126,0.900332 -1.205691,0.448767 z m 4.706043,-4.898695 c -0.1592,-0.1592 -0.28939,-0.374827 -0.28939,-0.479657 0,-0.10453 0.714555,-1.61136 1.587908,-3.348571 0.873352,-1.737229 1.919722,-4.070226 2.325485,-5.184632 0.405773,-1.114463 0.820339,-2.129971 0.921455,-2.256522 0.243037,-0.30447 0.60387,-0.291448 0.928696,0.03349 0.228883,0.228883 0.20732,0.575852 -0.163035,2.624801 -0.451294,2.496865 -0.538957,3.558398 -0.293525,3.558398 0.08214,0 0.683001,-0.211512 1.335497,-0.469993 1.649201,-0.653441 2.750782,-0.852408 2.878484,-0.519649 0.05435,0.141603 -0.01413,0.394828 -0.152053,0.563092 -0.288361,0.351384 -2.448594,1.381719 -3.631693,1.732393 -0.963607,0.28561 -1.061617,0.485176 -0.762143,1.554474 0.183906,0.656883 0.183822,0.876879 -3.65e-4,1.098943 -0.543877,0.655171 -1.266459,0.106289 -1.437913,-1.092395 -0.07091,-0.495513 -0.211745,-0.902745 -0.312936,-0.905505 -0.101303,-0.0028 -0.560941,0.679297 -1.021532,1.515839 -1.030859,1.871704 -1.351794,2.136182 -1.912482,1.575503 z m 41.5609,-0.668268 C 69.57068,26.612802 69.47122,26.405575 69.47122,26.274038 c 0,-0.149976 -0.236292,-0.239464 -0.632327,-0.239464 -0.475335,0 -0.662056,-0.09358 -0.752058,-0.377241 -0.159237,-0.501715 0.208705,-0.912053 0.817748,-0.912053 h 0.493445 l 0.230839,-2.348592 c 0.406802,-4.139124 1.340932,-10.141879 1.877307,-12.065127 0.154027,-0.5520632 0.281111,-0.6906822 0.633609,-0.6906822 0.63387,0 0.67939,0.187937 0.387147,1.5954942 -0.314479,1.515156 -1.322307,8.638857 -1.583773,11.194937 -0.105082,1.027567 -0.117412,1.900321 -0.02806,1.989631 0.158254,0.158245 6.125723,-0.238089 9.331699,-0.619652 0.911885,-0.108552 2.113684,-0.251381 2.670901,-0.317416 l 1.013001,-0.120041 0.206319,-2.486865 c 0.322235,-3.884543 1.301624,-9.392786 2.178073,-12.2493322 0.155411,-0.506552 0.28345,-0.946891 0.284479,-0.978267 0.0047,-0.129573 -8.896337,1.199984 -9.760634,1.457914 -0.82034,0.244862 -1.657742,-0.03536 -1.657742,-0.554476 0,-0.408963 -0.01141,-0.404482 2.486612,-0.922409 2.967401,-0.614815 8.61982,-1.355844 13.446632,-1.762384 9.014313,-0.759646 11.589933,-0.809647 11.952573,-0.233308 0.28422,0.451723 -0.0203,0.889994 -0.9106,1.309987 l -0.72671,0.342852 0.0579,3.4296112 c 0.0318,1.886531 0.0883,3.460201 0.12556,3.497405 0.0617,0.06165 3.88366,-0.249538 5.43467,-0.442406 0.35456,-0.04406 2.53032,-0.177217 4.83468,-0.295835 3.87874,-0.199659 4.16951,-0.238304 3.91424,-0.520341 -0.40912,-0.45207 -0.34293,-1.220677 0.13367,-1.554465 0.22517,-0.157712 0.7575,-0.286742 1.18319,-0.286742 0.92507,0 1.77618,0.62241 2.086,1.525848 0.11706,0.341085 0.51103,0.805503 0.92844,1.094116 0.80481,0.556544 1.08051,1.247226 0.74636,1.871358 -0.49834,0.931025 -3.61022,2.299283 -4.10487,1.804462 -0.35017,-0.350346 0.0184,-0.784819 1.20904,-1.425846 l 1.04766,-0.564131 -0.42905,-0.403097 c -0.40474,-0.38 -0.59638,-0.403097 -3.36441,-0.400338 -2.63161,0.0028 -6.48683,0.194374 -9.29027,0.462407 -1.71178,0.163718 -4.51072,0.48758 -4.55169,0.526889 -0.0213,0.02039 -0.0514,1.46102 -0.0668,3.201336 -0.0299,3.377898 -0.0979,3.631066 -0.94344,3.511203 l -0.424638,-0.06015 0.03602,-3.270655 0.03592,-3.270645 -0.404459,0.08765 c -0.222419,0.04827 -1.285075,0.212513 -2.361183,0.365164 -1.07637,0.152586 -2.179888,0.362413 -2.452729,0.465859 -1.084898,0.412414 -2.313844,0.08242 -2.313844,-0.621373 0,-0.319737 0.724387,-0.96792 1.344291,-1.202744 0.389996,-0.147712 0.668011,-0.131509 1.142055,0.06651 0.542577,0.226732 0.880846,0.225852 2.523844,-0.0065 1.043526,-0.147619 2.083945,-0.309007 2.311781,-0.358616 0.409384,-0.08915 0.414554,-0.12701 0.414554,-3.134786 V 8.3342448 l -0.482825,-0.447579 c -0.356632,-0.330598 -0.458787,-0.572409 -0.391292,-0.926198 0.09009,-0.471031 0.07774,-0.477234 -0.76059,-0.373789 -0.468618,0.05781 -3.131596,0.280662 -5.917632,0.495168 -2.78604,0.214523 -5.088354,0.410684 -5.116231,0.435511 -0.107308,0.09634 -1.511105,8.2194542 -1.782394,10.3130812 -0.156917,1.211359 -0.285255,2.895481 -0.285255,3.742472 0,1.380326 0.0334,1.529637 0.322244,1.443433 0.177292,-0.05304 1.10972,-0.22792 2.072299,-0.388616 0.962578,-0.160762 3.407702,-0.616209 5.433909,-1.011719 4.968225,-0.970325 5.483599,-1.030326 5.779453,-0.673778 0.130611,0.157366 0.209594,0.435165 0.175523,0.617228 -0.08185,0.437589 -1.616355,0.957237 -2.857594,0.96792 -0.525243,0.0037 -1.540582,0.131257 -2.256438,0.281832 -1.173852,0.246928 -2.116,0.42103 -7.098083,1.311708 -0.880593,0.157441 -1.529207,0.371721 -1.621015,0.53586 -0.169677,0.30317 -0.884475,0.367577 -1.157055,0.104268 -0.106438,-0.102846 -0.788271,-0.06988 -1.740755,0.08419 -1.424471,0.230437 -5.361588,0.606546 -9.679127,0.924814 -1.588684,0.117065 -1.680754,0.147618 -1.971697,0.654479 -0.318876,0.555861 -0.829909,0.687239 -1.206457,0.310737 z M 121.9895,26.102312 c -0.21425,-0.150069 -0.38947,-0.391376 -0.38947,-0.536543 0,-0.145027 -0.14506,-0.251522 -0.32224,-0.236676 -0.63853,0.05351 -0.92947,-0.03639 -1.03886,-0.321 -0.18556,-0.483445 0.21926,-0.999642 0.78386,-0.999642 h 0.51517 l 0.21587,-2.205828 c 0.37577,-3.839959 1.35593,-10.167119 1.89307,-12.2189962 0.16173,-0.61792 0.24324,-0.695162 0.68017,-0.644815 0.59327,0.06848 0.59171,-0.01272 0.0635,3.1885762 -0.36982,2.241012 -1.17179,8.233729 -1.38179,10.325289 -0.13607,1.355161 -0.0354,1.439298 1.56387,1.303775 0.74584,-0.06315 2.06066,-0.162623 2.92175,-0.220941 1.98721,-0.134587 8.10262,-0.790675 8.47118,-0.908957 0.21651,-0.06941 0.29015,-0.467917 0.33103,-1.794452 0.10558,-3.412726 1.48342,-11.3747642 2.36686,-13.6767032 0.0982,-0.255788 0.0182,-0.288053 -0.50689,-0.20429 -0.34293,0.05472 -0.95482,0.139452 -1.36006,0.188321 -3.18974,0.384472 -7.91706,1.201013 -7.97585,1.377566 -0.10889,0.326659 -1.41412,-0.264338 -1.47438,-0.667576 -0.0486,-0.325612 0.12023,-0.414819 1.28946,-0.681374 3.89254,-0.887226 9.04229,-1.554801 17.18659,-2.227896 6.14038,-0.507581 8.92282,-0.578621 9.26528,-0.236049 0.49292,0.492753 0.25247,1.046201 -0.65378,1.505155 l -0.87491,0.443099 0.0532,3.4742332 0.0532,3.474233 2.15713,-0.121668 c 1.18654,-0.06689 3.43969,-0.129077 5.00722,-0.138142 2.63459,-0.01525 2.81909,-0.03817 2.44058,-0.303235 -0.49629,-0.347586 -0.53198,-0.92413 -0.0722,-1.169993 0.36956,-0.197769 1.12214,0.10584 1.7811,0.718616 0.20262,0.188377 0.61706,0.401376 0.92094,0.473791 0.72283,0.171567 1.01301,0.41379 1.01301,0.845504 0,0.34317 -0.22673,0.508956 -0.81362,0.595169 -0.15935,0.02339 -0.51801,0.256209 -0.79731,0.517235 -0.56741,0.531024 -1.54913,1.069635 -1.94946,1.069635 -0.3613,0 -0.70422,-0.449993 -0.58319,-0.765502 0.0548,-0.142791 0.3256,-0.399654 0.60181,-0.571034 l 0.50223,-0.31142 -0.7368,-3.93e-4 c -0.40525,-1.97e-4 -2.67825,0.07792 -5.05111,0.173606 -3.14914,0.127 -4.35475,0.237705 -4.46406,0.409992 -0.0823,0.129778 -0.15098,1.53481 -0.15253,3.122035 -0.002,1.587216 -0.0531,3.017196 -0.11463,3.177546 -0.066,0.172156 -0.32845,0.291364 -0.64112,0.291364 -0.7311,0 -0.79783,-0.393789 -0.64215,-3.798264 l 0.12958,-2.833066 -0.51853,0.0028 c -0.89637,0.0056 -3.77861,0.51137 -5.16722,0.906534 -2.32524,0.66172 -3.55708,0.436897 -3.29643,-0.601362 0.22341,-0.889995 3.61643,-1.840328 3.61643,-1.012748 0,0.116476 0.19578,0.142613 0.49862,0.06661 0.36077,-0.09056 4.52705,-0.634133 4.98125,-0.649989 0.0254,-9.35e-4 0.046,-1.365161 0.046,-3.03135 0,-2.9944462 -0.006,-3.0358222 -0.47095,-3.5379212 -0.32921,-0.355163 -0.43938,-0.633786 -0.36594,-0.926534 0.0933,-0.371376 0.0481,-0.409309 -0.40396,-0.336716 -0.28008,0.04481 -1.91817,0.174335 -3.64043,0.287706 -1.72239,0.113389 -3.30746,0.233233 -3.52263,0.266331 -0.21517,0.03312 -1.23231,0.119806 -2.26031,0.192689 -1.02801,0.07287 -1.91093,0.200108 -1.96214,0.282711 -0.0917,0.148301 -0.48826,2.207905 -1.18549,6.1567162 -0.52034,2.946867 -0.92405,6.422784 -0.92405,7.956565 v 1.33619 l 0.50663,-0.09102 c 1.93653,-0.347923 7.77929,-1.426875 10.0256,-1.851011 2.28643,-0.431723 2.74966,-0.472407 3.00213,-0.262794 0.43422,0.360336 0.26922,0.974814 -0.33957,1.265841 -0.29068,0.138872 -1.24394,0.316931 -2.11833,0.395866 -2.58281,0.232672 -10.96283,1.841011 -11.13149,2.136519 -0.1663,0.291317 -0.88577,0.346202 -1.15137,0.08775 -0.10487,-0.102061 -0.50715,-0.105606 -1.00396,-0.0084 -1.27834,0.248996 -6.08873,0.724817 -10.34901,1.023777 -1.73067,0.121407 -1.79016,0.140444 -1.99705,0.639989 -0.2687,0.648959 -0.58318,0.772751 -1.07946,0.425165 z M 77.806289,19.936457 C 77.679654,19.80534 77.57604,19.514397 77.57604,19.28992 c 0,-0.487936 0.25692,-0.60517 1.058783,-0.482416 0.611887,0.09358 2.193331,-0.25735 2.357554,-0.523092 0.05014,-0.0812 -0.415343,-0.332337 -1.03447,-0.558274 -0.745333,-0.271775 -1.287143,-0.612747 -1.60369,-1.009296 l -0.477926,-0.598959 -0.716884,1.228264 c -1.10508,1.893426 -1.585065,2.455143 -2.041531,2.389968 -0.629988,-0.08971 -0.568181,-0.639989 0.355079,-3.161335 0.822407,-2.245839 0.881632,-2.34687 1.343524,-2.29308 0.404996,0.04696 0.572578,-0.0899 1.035761,-0.845158 0.713012,-1.162752 1.085164,-1.408268 1.50205,-0.991372 0.292758,0.292832 0.292496,0.391376 -0.0056,1.628255 -0.39827,1.650323 -0.261719,1.907561 1.363431,2.568597 0.675256,0.274647 1.323345,0.686884 1.543173,0.981017 0.349654,0.468272 0.357409,0.545861 0.0995,1.005844 -0.43525,0.775511 -1.68619,1.366546 -3.097124,1.462751 -0.851631,0.05809 -1.290501,0.01113 -1.450963,-0.155177 z m 52.536081,-0.900332 c -1.61715,-0.236629 -2.6638,-1.0162 -2.6638,-1.983774 0,-0.657922 0.6243,-1.715835 1.50438,-2.54928 1.5243,-1.443077 2.2267,-1.684112 2.91219,-0.998604 0.49887,0.498956 0.29172,0.92516 -0.44921,0.92516 -0.48543,0 -0.7769,0.188985 -1.54602,1.002055 -0.97293,1.028605 -1.15266,1.54584 -0.67526,1.942043 0.23374,0.193999 2.97013,0.522417 4.56274,0.547582 0.79447,0.01263 0.59638,0.316865 -0.46059,0.706893 -1.27784,0.471715 -2.0617,0.572054 -3.18459,0.407579 z m 47.53084,-2.764449 c -0.0626,-0.101312 -0.27464,-0.184196 -0.47145,-0.184196 -0.45439,0 -0.46551,-0.48207 -0.0165,-0.722067 0.26456,-0.141603 0.36594,-0.479647 0.45231,-1.50929 0.0975,-1.162397 0.063,-1.394816 -0.27878,-1.874464 -1.01637,-1.427221 1.17696,-1.798596 4.47726,-0.757915 1.48317,0.46758 2.37618,1.110328 2.37618,1.709287 0,0.94689 -1.69239,2.128249 -3.89731,2.720313 -0.64242,0.172521 -1.29905,0.423781 -1.45913,0.557919 -0.34267,0.288033 -1.02076,0.322543 -1.18292,0.06024 z m 3.01127,-2.108941 c 0.7293,-0.248023 1.58248,-0.633786 1.89592,-0.856879 l 0.57,-0.405866 -0.43603,-0.245142 c -0.56999,-0.32042 -2.68047,-0.988267 -3.12291,-0.988267 -0.37707,0 -0.45155,0.222513 -0.63232,1.887906 -0.13621,1.25412 -0.15441,1.247572 1.72534,0.608248 z"
       id="path466"
       sodipodi:nodetypes="ccccccscssccscccccsscccscssccccssscscssssccccsccccccsscscscssccsccccscsscccscsscscsscsssscscccscsccccccscssccccccssscsccccscccscccccccscsssssscsccccccccccscccccsccccsccccccccssccsscsscsccccssscsccscccsssscccccssccccccccccccccsccccscccssssccscccccccsccssscccccccccssccccsccscsssccsssccccccccsccccscccssccscscsssscccscscccscsssssssccccsscsscsccsscccccssccccccscscscsscscsccscscscscsccscscsccsssscscscccccscccsccsccccscsscccccccscsccccccccccccsccscccscccccccccccscccscccccccccccscscccccccccssccccccccccscccccscscsccccccccsscscscsccccsccsccsccscccccscssccccccccccscccccccscccsscscssccsccccccssccccccccsscscscccscscccsccccccsccccsccscsscsscccscccssccsssscscccssscsscsscccssccccccsccccccccccccsccccccsccscscccccscsccsscccsccsscs" />
  </g>
</svg>
